M48
; DRILL file {KiCad 8.0.0} date 2024-11-10T13:46:12+0100
; FORMAT={-:-/ absolute / inch / decimal}
; #@! TF.CreationDate,2024-11-10T13:46:12+01:00
; #@! TF.GenerationSoftware,Kicad,Pcbnew,8.0.0
; #@! TF.FileFunction,Plated,1,2,PTH
FMAT,2
INCH
; #@! TA.AperFunction,Plated,PTH,ViaDrill
T1C0.0118
; #@! TA.AperFunction,Plated,PTH,ComponentDrill
T2C0.0394
%
G90
G05
T1
X4.5197Y-4.378
X4.5197Y-4.437
X4.5197Y-4.5276
X4.5197Y-4.5866
X4.5197Y-4.6457
X4.5197Y-4.7047
X4.5197Y-4.7638
X4.5197Y-4.8228
X4.5197Y-4.9409
X4.5197Y-5.0
X4.5787Y-4.378
X4.5787Y-4.437
X4.5787Y-4.5276
X4.5787Y-4.5866
X4.5787Y-4.6457
X4.5787Y-4.7047
X4.5787Y-4.7638
X4.5787Y-4.8228
X4.5787Y-4.9409
X4.5787Y-5.0
X4.7323Y-4.3745
X4.7323Y-4.4336
X4.7323Y-4.9409
X4.7323Y-5.0
X4.7402Y-4.8543
X4.7441Y-4.5163
X4.7638Y-4.6063
X4.7638Y-4.6654
X4.7913Y-4.8543
X4.7913Y-4.9409
X4.7913Y-5.0
X4.7953Y-4.3745
X4.7953Y-4.4336
X4.8031Y-4.5163
X4.8228Y-4.6063
X4.8228Y-4.6654
X5.1358Y-4.6634
X5.1358Y-4.6909
X5.1358Y-4.7185
X5.2106Y-4.7185
X5.4685Y-4.2579
X5.4685Y-4.3012
X5.5098Y-4.2579
X5.5098Y-4.3012
X5.6398Y-4.3071
X5.6772Y-4.3071
X5.7008Y-4.7244
X5.7008Y-4.7677
X5.748Y-4.7244
X5.748Y-4.7677
X5.7953Y-4.7244
X5.7953Y-4.7677
X5.9756Y-4.3565
X6.0032Y-4.3565
T2
X4.1496Y-4.4021
X4.1496Y-4.5021
X4.1496Y-4.6021
X4.1496Y-4.7021
X4.1496Y-4.8021
X4.1496Y-4.9021
X4.252Y-4.4021
X4.252Y-4.5021
X4.252Y-4.6021
X4.252Y-4.7021
X4.252Y-4.8021
X4.252Y-4.9021
X4.3543Y-4.4021
X4.3543Y-4.5021
X4.3543Y-4.6021
X4.3543Y-4.7021
X4.3543Y-4.8021
X4.3543Y-4.9021
X5.7386Y-5.2244
X5.8386Y-5.2244
M30
