%TF.GenerationSoftware,KiCad,Pcbnew,8.0.0*%
%TF.CreationDate,2024-11-10T13:42:00+01:00*%
%TF.ProjectId,polarizing_coil_driver,706f6c61-7269-47a6-996e-675f636f696c,rev?*%
%TF.SameCoordinates,Original*%
%TF.FileFunction,Copper,L1,Top*%
%TF.FilePolarity,Positive*%
%FSLAX46Y46*%
G04 Gerber Fmt 4.6, Leading zero omitted, Abs format (unit mm)*
G04 Created by KiCad (PCBNEW 8.0.0) date 2024-11-10 13:42:00*
%MOMM*%
%LPD*%
G01*
G04 APERTURE LIST*
G04 Aperture macros list*
%AMRoundRect*
0 Rectangle with rounded corners*
0 $1 Rounding radius*
0 $2 $3 $4 $5 $6 $7 $8 $9 X,Y pos of 4 corners*
0 Add a 4 corners polygon primitive as box body*
4,1,4,$2,$3,$4,$5,$6,$7,$8,$9,$2,$3,0*
0 Add four circle primitives for the rounded corners*
1,1,$1+$1,$2,$3*
1,1,$1+$1,$4,$5*
1,1,$1+$1,$6,$7*
1,1,$1+$1,$8,$9*
0 Add four rect primitives between the rounded corners*
20,1,$1+$1,$2,$3,$4,$5,0*
20,1,$1+$1,$4,$5,$6,$7,0*
20,1,$1+$1,$6,$7,$8,$9,0*
20,1,$1+$1,$8,$9,$2,$3,0*%
%AMFreePoly0*
4,1,9,3.862500,-0.866500,0.737500,-0.866500,0.737500,-0.450000,-0.737500,-0.450000,-0.737500,0.450000,0.737500,0.450000,0.737500,0.866500,3.862500,0.866500,3.862500,-0.866500,3.862500,-0.866500,$1*%
G04 Aperture macros list end*
%TA.AperFunction,ComponentPad*%
%ADD10C,1.700000*%
%TD*%
%TA.AperFunction,ComponentPad*%
%ADD11O,1.700000X1.700000*%
%TD*%
%TA.AperFunction,SMDPad,CuDef*%
%ADD12RoundRect,0.150000X-0.587500X-0.150000X0.587500X-0.150000X0.587500X0.150000X-0.587500X0.150000X0*%
%TD*%
%TA.AperFunction,SMDPad,CuDef*%
%ADD13RoundRect,0.360000X0.360000X0.440000X-0.360000X0.440000X-0.360000X-0.440000X0.360000X-0.440000X0*%
%TD*%
%TA.AperFunction,SMDPad,CuDef*%
%ADD14R,4.960000X3.800000*%
%TD*%
%TA.AperFunction,SMDPad,CuDef*%
%ADD15R,1.500000X1.780000*%
%TD*%
%TA.AperFunction,SMDPad,CuDef*%
%ADD16RoundRect,0.250000X-0.450000X0.262500X-0.450000X-0.262500X0.450000X-0.262500X0.450000X0.262500X0*%
%TD*%
%TA.AperFunction,SMDPad,CuDef*%
%ADD17R,4.000000X4.000000*%
%TD*%
%TA.AperFunction,SMDPad,CuDef*%
%ADD18RoundRect,0.150000X0.150000X-0.512500X0.150000X0.512500X-0.150000X0.512500X-0.150000X-0.512500X0*%
%TD*%
%TA.AperFunction,SMDPad,CuDef*%
%ADD19RoundRect,0.250000X0.450000X-0.262500X0.450000X0.262500X-0.450000X0.262500X-0.450000X-0.262500X0*%
%TD*%
%TA.AperFunction,SMDPad,CuDef*%
%ADD20RoundRect,0.150000X-0.150000X0.587500X-0.150000X-0.587500X0.150000X-0.587500X0.150000X0.587500X0*%
%TD*%
%TA.AperFunction,ComponentPad*%
%ADD21R,1.700000X1.700000*%
%TD*%
%TA.AperFunction,SMDPad,CuDef*%
%ADD22RoundRect,0.250000X0.650000X-0.325000X0.650000X0.325000X-0.650000X0.325000X-0.650000X-0.325000X0*%
%TD*%
%TA.AperFunction,SMDPad,CuDef*%
%ADD23RoundRect,0.243750X0.243750X0.456250X-0.243750X0.456250X-0.243750X-0.456250X0.243750X-0.456250X0*%
%TD*%
%TA.AperFunction,SMDPad,CuDef*%
%ADD24RoundRect,0.250000X-0.262500X-0.450000X0.262500X-0.450000X0.262500X0.450000X-0.262500X0.450000X0*%
%TD*%
%TA.AperFunction,SMDPad,CuDef*%
%ADD25RoundRect,0.250000X0.475000X-0.250000X0.475000X0.250000X-0.475000X0.250000X-0.475000X-0.250000X0*%
%TD*%
%TA.AperFunction,SMDPad,CuDef*%
%ADD26RoundRect,0.250000X-0.475000X0.250000X-0.475000X-0.250000X0.475000X-0.250000X0.475000X0.250000X0*%
%TD*%
%TA.AperFunction,SMDPad,CuDef*%
%ADD27RoundRect,0.243750X-0.243750X-0.456250X0.243750X-0.456250X0.243750X0.456250X-0.243750X0.456250X0*%
%TD*%
%TA.AperFunction,SMDPad,CuDef*%
%ADD28R,0.457200X1.016000*%
%TD*%
%TA.AperFunction,SMDPad,CuDef*%
%ADD29R,3.988000X3.835000*%
%TD*%
%TA.AperFunction,SMDPad,CuDef*%
%ADD30RoundRect,0.225000X-0.225000X0.425000X-0.225000X-0.425000X0.225000X-0.425000X0.225000X0.425000X0*%
%TD*%
%TA.AperFunction,SMDPad,CuDef*%
%ADD31FreePoly0,270.000000*%
%TD*%
%TA.AperFunction,ViaPad*%
%ADD32C,0.600000*%
%TD*%
%TA.AperFunction,Conductor*%
%ADD33C,1.500000*%
%TD*%
%TA.AperFunction,Conductor*%
%ADD34C,0.800000*%
%TD*%
%TA.AperFunction,Conductor*%
%ADD35C,0.400000*%
%TD*%
G04 APERTURE END LIST*
D10*
%TO.P,J4,1,Pin_1*%
%TO.N,Net-(J4-Pin_1)*%
X105400000Y-111813245D03*
D11*
%TO.P,J4,2,Pin_2*%
X105400000Y-114353245D03*
%TO.P,J4,3,Pin_3*%
X105400000Y-116893245D03*
%TO.P,J4,4,Pin_4*%
X105400000Y-119433245D03*
%TO.P,J4,5,Pin_5*%
X105400000Y-121973245D03*
%TO.P,J4,6,Pin_6*%
X105400000Y-124513245D03*
%TD*%
D12*
%TO.P,Q3,1,G*%
%TO.N,V_DISABLE*%
X153650000Y-117650000D03*
%TO.P,Q3,2,S*%
%TO.N,BATTERY-*%
X153650000Y-119550000D03*
%TO.P,Q3,3,D*%
%TO.N,Net-(Q3-D)*%
X155525000Y-118600000D03*
%TD*%
D13*
%TO.P,D3,1,A*%
%TO.N,Net-(J3-Pin_1)*%
X106000000Y-128270000D03*
%TO.P,D3,2,A*%
X106000000Y-130400000D03*
D14*
%TO.P,D3,3,K*%
%TO.N,BATTERY+*%
X109800000Y-129335000D03*
%TD*%
D15*
%TO.P,U3,1*%
%TO.N,Net-(J1-Pin_1)*%
X137865000Y-128770000D03*
%TO.P,U3,2*%
%TO.N,Net-(R9-Pad1)*%
X137865000Y-126230000D03*
%TO.P,U3,3*%
%TO.N,GATE_DRIVE*%
X128335000Y-126230000D03*
%TO.P,U3,4*%
%TO.N,Net-(Q2-D)*%
X128335000Y-128770000D03*
%TD*%
D16*
%TO.P,R8,1*%
%TO.N,Net-(D2-K)*%
X157587500Y-117687500D03*
%TO.P,R8,2*%
%TO.N,Net-(Q3-D)*%
X157587500Y-119512500D03*
%TD*%
%TO.P,R6,1*%
%TO.N,GATE_DRIVE*%
X125500000Y-123487500D03*
%TO.P,R6,2*%
%TO.N,BATTERY-*%
X125500000Y-125312500D03*
%TD*%
D10*
%TO.P,J3,1,Pin_1*%
%TO.N,Net-(J3-Pin_1)*%
X108000000Y-111813245D03*
D11*
%TO.P,J3,2,Pin_2*%
X108000000Y-114353245D03*
%TO.P,J3,3,Pin_3*%
X108000000Y-116893245D03*
%TO.P,J3,4,Pin_4*%
X108000000Y-119433245D03*
%TO.P,J3,5,Pin_5*%
X108000000Y-121973245D03*
%TO.P,J3,6,Pin_6*%
X108000000Y-124513245D03*
%TD*%
D17*
%TO.P,TP4,1,1*%
%TO.N,Net-(J3-Pin_1)*%
X121000000Y-111813245D03*
%TD*%
D18*
%TO.P,U2,1,-*%
%TO.N,BAT_REF*%
X141356606Y-112887500D03*
%TO.P,U2,2,V-*%
%TO.N,BATTERY-*%
X142306606Y-112887500D03*
%TO.P,U2,3,+*%
%TO.N,+4V5*%
X143256606Y-112887500D03*
%TO.P,U2,4*%
%TO.N,V_DISABLE*%
X143256606Y-110612500D03*
%TO.P,U2,5,V+*%
%TO.N,+9V*%
X141356606Y-110612500D03*
%TD*%
D17*
%TO.P,TP1,1,1*%
%TO.N,BATTERY+*%
X115600000Y-126500000D03*
%TD*%
D19*
%TO.P,R2,1*%
%TO.N,BAT_REF*%
X134818750Y-114900000D03*
%TO.P,R2,2*%
%TO.N,BATTERY-*%
X134818750Y-113075000D03*
%TD*%
D20*
%TO.P,Q2,1,G*%
%TO.N,V_DISABLE*%
X132350000Y-121362500D03*
%TO.P,Q2,2,S*%
%TO.N,+9V*%
X130450000Y-121362500D03*
%TO.P,Q2,3,D*%
%TO.N,Net-(Q2-D)*%
X131400000Y-123237500D03*
%TD*%
D12*
%TO.P,Q1,1,G*%
%TO.N,V_DISABLE*%
X153650000Y-108750000D03*
%TO.P,Q1,2,S*%
%TO.N,+9V*%
X153650000Y-110650000D03*
%TO.P,Q1,3,D*%
%TO.N,Net-(Q1-D)*%
X155525000Y-109700000D03*
%TD*%
D19*
%TO.P,R1,1*%
%TO.N,BATTERY+*%
X134818750Y-118700000D03*
%TO.P,R1,2*%
%TO.N,BAT_REF*%
X134818750Y-116875000D03*
%TD*%
D21*
%TO.P,J1,1,Pin_1*%
%TO.N,Net-(J1-Pin_1)*%
X145760000Y-132700000D03*
D11*
%TO.P,J1,2,Pin_2*%
%TO.N,Net-(J1-Pin_2)*%
X148300000Y-132700000D03*
%TD*%
D22*
%TO.P,C1,1*%
%TO.N,BATTERY+*%
X137418750Y-118700000D03*
%TO.P,C1,2*%
%TO.N,BATTERY-*%
X137418750Y-115750000D03*
%TD*%
%TO.P,C4,1*%
%TO.N,BATTERY+*%
X125500000Y-132100000D03*
%TO.P,C4,2*%
%TO.N,BATTERY-*%
X125500000Y-129150000D03*
%TD*%
D23*
%TO.P,D2,1,K*%
%TO.N,Net-(D2-K)*%
X157587500Y-115400000D03*
%TO.P,D2,2,A*%
%TO.N,+9V*%
X155712500Y-115400000D03*
%TD*%
D16*
%TO.P,R7,1*%
%TO.N,Net-(Q1-D)*%
X157587500Y-108787500D03*
%TO.P,R7,2*%
%TO.N,Net-(D1-A)*%
X157587500Y-110612500D03*
%TD*%
D19*
%TO.P,R4,1*%
%TO.N,+4V5*%
X147218750Y-114928437D03*
%TO.P,R4,2*%
%TO.N,BATTERY-*%
X147218750Y-113103437D03*
%TD*%
D24*
%TO.P,R9,1*%
%TO.N,Net-(R9-Pad1)*%
X140487500Y-126230000D03*
%TO.P,R9,2*%
%TO.N,Net-(J1-Pin_2)*%
X142312500Y-126230000D03*
%TD*%
D25*
%TO.P,C2,1*%
%TO.N,+9V*%
X145018750Y-118700000D03*
%TO.P,C2,2*%
%TO.N,BATTERY-*%
X145018750Y-116800000D03*
%TD*%
D17*
%TO.P,TP2,1,1*%
%TO.N,BATTERY-*%
X121000000Y-126500000D03*
%TD*%
D10*
%TO.P,J2,1,Pin_1*%
%TO.N,BATTERY+*%
X110600000Y-111813245D03*
D11*
%TO.P,J2,2,Pin_2*%
X110600000Y-114353245D03*
%TO.P,J2,3,Pin_3*%
X110600000Y-116893245D03*
%TO.P,J2,4,Pin_4*%
X110600000Y-119433245D03*
%TO.P,J2,5,Pin_5*%
X110600000Y-121973245D03*
%TO.P,J2,6,Pin_6*%
X110600000Y-124513245D03*
%TD*%
D26*
%TO.P,C3,1*%
%TO.N,+9V*%
X138975852Y-110800000D03*
%TO.P,C3,2*%
%TO.N,BATTERY-*%
X138975852Y-112700000D03*
%TD*%
D27*
%TO.P,D1,1,K*%
%TO.N,BATTERY-*%
X155712500Y-112800000D03*
%TO.P,D1,2,A*%
%TO.N,Net-(D1-A)*%
X157587500Y-112800000D03*
%TD*%
D17*
%TO.P,TP3,1,1*%
%TO.N,BATTERY+*%
X115610000Y-111813245D03*
%TD*%
D19*
%TO.P,R3,1*%
%TO.N,+9V*%
X147218750Y-118700000D03*
%TO.P,R3,2*%
%TO.N,+4V5*%
X147218750Y-116875000D03*
%TD*%
D24*
%TO.P,R5,1*%
%TO.N,+9V*%
X141396311Y-108191189D03*
%TO.P,R5,2*%
%TO.N,V_DISABLE*%
X143221311Y-108191189D03*
%TD*%
D28*
%TO.P,Q4,1,S*%
%TO.N,BATTERY-*%
X119730000Y-121856845D03*
%TO.P,Q4,2,S*%
X121000000Y-121856845D03*
%TO.P,Q4,3,S*%
X122270000Y-121856845D03*
%TO.P,Q4,4,G*%
%TO.N,GATE_DRIVE*%
X123540000Y-121856845D03*
D29*
%TO.P,Q4,5,D*%
%TO.N,Net-(J3-Pin_1)*%
X121635000Y-118435045D03*
D28*
X123540000Y-116013245D03*
%TO.P,Q4,6,D*%
X122270000Y-116013245D03*
%TO.P,Q4,7,D*%
X121000000Y-116013245D03*
%TO.P,Q4,8,D*%
X119730000Y-116013245D03*
%TD*%
D30*
%TO.P,U4,1,OUT*%
%TO.N,+9V*%
X142781250Y-118700000D03*
D31*
%TO.P,U4,2,GND*%
%TO.N,BATTERY-*%
X141281250Y-118787500D03*
D30*
%TO.P,U4,3,IN*%
%TO.N,BATTERY+*%
X139781250Y-118700000D03*
%TD*%
D32*
%TO.N,BATTERY+*%
X116300000Y-118000000D03*
X114800000Y-115000000D03*
X116300000Y-121000000D03*
X116300000Y-125500000D03*
X116300000Y-116500000D03*
X116300000Y-119500000D03*
X114800000Y-112700000D03*
X114800000Y-121000000D03*
X114800000Y-116500000D03*
X114800000Y-119500000D03*
X114800000Y-127000000D03*
X116300000Y-127000000D03*
X116300000Y-111200000D03*
X114800000Y-111200000D03*
X114800000Y-122500000D03*
X114800000Y-118000000D03*
X116300000Y-115000000D03*
X116300000Y-122500000D03*
X116300000Y-112700000D03*
X114800000Y-125500000D03*
%TO.N,BATTERY-*%
X120200000Y-125500000D03*
X121700000Y-127000000D03*
X120400000Y-123300000D03*
X121700000Y-125500000D03*
X120200000Y-127000000D03*
X121700000Y-123300000D03*
%TO.N,+9V*%
X144800000Y-120000000D03*
X151781250Y-110656250D03*
X138900000Y-108150000D03*
X144800000Y-121100000D03*
X147200000Y-121100000D03*
X138900000Y-109250000D03*
X146000000Y-121100000D03*
X146000000Y-120000000D03*
X139950000Y-108150000D03*
X147200000Y-120000000D03*
X130450000Y-119150000D03*
X130450000Y-118450000D03*
X152481250Y-110656250D03*
X139950000Y-109250000D03*
X130450000Y-119850000D03*
%TO.N,V_DISABLE*%
X143250000Y-109400000D03*
X132350000Y-119850000D03*
X144200000Y-109400000D03*
%TO.N,Net-(J3-Pin_1)*%
X121000000Y-118500000D03*
X120200000Y-111113245D03*
X120500000Y-114713245D03*
X121800000Y-111113245D03*
X122500000Y-118500000D03*
X121000000Y-117000000D03*
X121800000Y-112613245D03*
X120200000Y-112613245D03*
X122500000Y-117000000D03*
X122000000Y-114713245D03*
%TD*%
D33*
%TO.N,BATTERY+*%
X110600000Y-124513245D02*
X110600000Y-121973245D01*
D34*
X115000000Y-127000000D02*
X115600000Y-126500000D01*
X134818750Y-131131250D02*
X133850000Y-132100000D01*
D33*
X110600000Y-119433245D02*
X110600000Y-121973245D01*
D34*
X139781250Y-118700000D02*
X137418750Y-118700000D01*
X133850000Y-132100000D02*
X116150000Y-132100000D01*
D33*
X115610000Y-111813245D02*
X110600000Y-111813245D01*
D34*
X116150000Y-132100000D02*
X115600000Y-131550000D01*
X115600000Y-131550000D02*
X115600000Y-126500000D01*
X137418750Y-118700000D02*
X134818750Y-118700000D01*
D33*
X110600000Y-114353245D02*
X110600000Y-116893245D01*
D34*
X109800000Y-129335000D02*
X109800000Y-127000000D01*
X109800000Y-127000000D02*
X110600000Y-126200000D01*
D33*
X110600000Y-111813245D02*
X110600000Y-114353245D01*
X110600000Y-116893245D02*
X110600000Y-119433245D01*
D34*
X115610000Y-126490000D02*
X115600000Y-126500000D01*
X134818750Y-118700000D02*
X134818750Y-131131250D01*
X110600000Y-126200000D02*
X110600000Y-124513245D01*
%TO.N,BATTERY-*%
X133218750Y-131100000D02*
X133750000Y-130568750D01*
X121000000Y-128800000D02*
X121350000Y-129150000D01*
X121000000Y-126500000D02*
X121500000Y-127000000D01*
X125500000Y-125312500D02*
X125500000Y-129150000D01*
X127450000Y-131100000D02*
X125500000Y-129150000D01*
X141750000Y-116800000D02*
X140700000Y-115750000D01*
X133218750Y-131100000D02*
X127450000Y-131100000D01*
X140700000Y-115750000D02*
X137418750Y-115750000D01*
X133750000Y-130568750D02*
X133750000Y-121450000D01*
X145018750Y-116800000D02*
X141750000Y-116800000D01*
X121350000Y-129150000D02*
X125500000Y-129150000D01*
X121000000Y-128800000D02*
X121000000Y-126500000D01*
D35*
%TO.N,+9V*%
X153650000Y-110650000D02*
X151781250Y-110656250D01*
D34*
X147218750Y-118700000D02*
X145018750Y-118700000D01*
D35*
X151781250Y-110656250D02*
X151787500Y-110650000D01*
X130450000Y-118450000D02*
X130450000Y-118400000D01*
X153650000Y-110650000D02*
X155537500Y-110650000D01*
X156687500Y-114200000D02*
X155712500Y-115175000D01*
X130450000Y-119150000D02*
X130450000Y-118450000D01*
X155712500Y-115175000D02*
X155712500Y-115400000D01*
X141356606Y-110612500D02*
X140487500Y-110612500D01*
X130450000Y-119850000D02*
X130450000Y-119150000D01*
X140300000Y-110800000D02*
X138975852Y-110800000D01*
X141356606Y-110612500D02*
X141356606Y-108230894D01*
X130450000Y-121362500D02*
X130450000Y-119850000D01*
X141356606Y-108230894D02*
X141396311Y-108191189D01*
D34*
X142781250Y-118700000D02*
X145018750Y-118700000D01*
D35*
X155537500Y-110650000D02*
X156687500Y-111800000D01*
X140487500Y-110612500D02*
X140300000Y-110800000D01*
X156687500Y-111800000D02*
X156687500Y-114200000D01*
%TO.N,BAT_REF*%
X141356606Y-113843394D02*
X141000000Y-114200000D01*
X135550000Y-114900000D02*
X134818750Y-114900000D01*
X141000000Y-114200000D02*
X136250000Y-114200000D01*
D34*
X134818750Y-116875000D02*
X134818750Y-114900000D01*
D35*
X141356606Y-112887500D02*
X141356606Y-113843394D01*
X136250000Y-114200000D02*
X135550000Y-114900000D01*
%TO.N,+4V5*%
X144178437Y-114928437D02*
X147218750Y-114928437D01*
X143256606Y-114006606D02*
X144178437Y-114928437D01*
D34*
X147218750Y-116875000D02*
X147218750Y-114928437D01*
D35*
X143256606Y-112887500D02*
X143256606Y-114006606D01*
%TO.N,V_DISABLE*%
X143250000Y-109400000D02*
X143256606Y-109393394D01*
X143221311Y-108191189D02*
X150000000Y-108191189D01*
X143256606Y-109393394D02*
X143256606Y-108226484D01*
X149981250Y-116706250D02*
X149981250Y-108209939D01*
X143256606Y-109406606D02*
X143250000Y-109400000D01*
X143256606Y-108226484D02*
X143221311Y-108191189D01*
X152000000Y-108750000D02*
X153650000Y-108750000D01*
X151441189Y-108191189D02*
X152000000Y-108750000D01*
X132350000Y-119850000D02*
X132350000Y-119800000D01*
X150925000Y-117650000D02*
X153650000Y-117650000D01*
X149981250Y-116706250D02*
X150925000Y-117650000D01*
X150000000Y-108191189D02*
X151441189Y-108191189D01*
X143256606Y-110612500D02*
X143256606Y-109406606D01*
X143250000Y-109400000D02*
X144200000Y-109400000D01*
X132350000Y-121362500D02*
X132350000Y-119850000D01*
X149981250Y-108209939D02*
X150000000Y-108191189D01*
%TO.N,Net-(Q2-D)*%
X131400000Y-127650000D02*
X130280000Y-128770000D01*
X131400000Y-123237500D02*
X131400000Y-127650000D01*
X130280000Y-128770000D02*
X128335000Y-128770000D01*
%TO.N,GATE_DRIVE*%
X124287500Y-123487500D02*
X125500000Y-123487500D01*
X123540000Y-122740000D02*
X123540000Y-121856845D01*
X126987500Y-123487500D02*
X128335000Y-124835000D01*
X125500000Y-123487500D02*
X126987500Y-123487500D01*
X123540000Y-122740000D02*
X124287500Y-123487500D01*
X128335000Y-124835000D02*
X128335000Y-126230000D01*
%TO.N,Net-(D1-A)*%
X157587500Y-110612500D02*
X157587500Y-112800000D01*
%TO.N,Net-(D2-K)*%
X157587500Y-117687500D02*
X157587500Y-115400000D01*
%TO.N,Net-(Q1-D)*%
X157587500Y-108787500D02*
X156437500Y-108787500D01*
X156437500Y-108787500D02*
X155525000Y-109700000D01*
%TO.N,Net-(Q3-D)*%
X157587500Y-119512500D02*
X156437500Y-119512500D01*
X156437500Y-119512500D02*
X155525000Y-118600000D01*
D34*
%TO.N,Net-(R9-Pad1)*%
X137865000Y-126230000D02*
X140487500Y-126230000D01*
%TO.N,Net-(J1-Pin_2)*%
X142312500Y-126230000D02*
X144030000Y-126230000D01*
X148300000Y-130500000D02*
X148300000Y-132700000D01*
X144030000Y-126230000D02*
X148300000Y-130500000D01*
%TO.N,Net-(J1-Pin_1)*%
X137865000Y-128770000D02*
X143870000Y-128770000D01*
X145760000Y-130660000D02*
X145760000Y-132700000D01*
X143870000Y-128770000D02*
X145760000Y-130660000D01*
D35*
%TO.N,Net-(J3-Pin_1)*%
X121000000Y-110253600D02*
X121010000Y-110243600D01*
D34*
X106000000Y-126513245D02*
X108000000Y-124513245D01*
D33*
X108000000Y-121973245D02*
X108000000Y-119433245D01*
X108000000Y-114353245D02*
X108000000Y-111813245D01*
X108000000Y-119433245D02*
X108000000Y-116893245D01*
D34*
X106000000Y-130400000D02*
X106000000Y-128270000D01*
D33*
X119200000Y-107500000D02*
X110450000Y-107500000D01*
X121000000Y-109300000D02*
X121000000Y-111813245D01*
X108000000Y-116893245D02*
X108000000Y-114353245D01*
D34*
X106000000Y-128270000D02*
X106000000Y-126513245D01*
D33*
X108000000Y-109950000D02*
X110450000Y-107500000D01*
X108000000Y-124513245D02*
X108000000Y-121973245D01*
X119200000Y-107500000D02*
X121000000Y-109300000D01*
X108000000Y-111813245D02*
X108000000Y-109950000D01*
%TO.N,Net-(J4-Pin_1)*%
X105400000Y-116893245D02*
X105400000Y-114353245D01*
X105400000Y-119433245D02*
X105400000Y-116893245D01*
X105400000Y-111813245D02*
X105400000Y-114353245D01*
X105400000Y-124513245D02*
X105400000Y-121973245D01*
X105400000Y-121973245D02*
X105400000Y-119433245D01*
%TD*%
%TA.AperFunction,Conductor*%
%TO.N,+9V*%
G36*
X140583593Y-107519685D02*
G01*
X140629348Y-107572489D01*
X140639843Y-107637257D01*
X140633811Y-107693347D01*
X140633811Y-107941189D01*
X141522311Y-107941189D01*
X141589350Y-107960874D01*
X141635105Y-108013678D01*
X141646311Y-108065189D01*
X141646311Y-109168316D01*
X141647166Y-109169882D01*
X141650000Y-109196240D01*
X141650000Y-109616625D01*
X141630315Y-109683664D01*
X141606606Y-109710830D01*
X141606606Y-110738500D01*
X141586921Y-110805539D01*
X141534117Y-110851294D01*
X141482606Y-110862500D01*
X140806607Y-110862500D01*
X140806607Y-111156477D01*
X140806626Y-111156597D01*
X140806619Y-111156645D01*
X140806989Y-111161341D01*
X140806003Y-111161418D01*
X140797674Y-111225891D01*
X140752680Y-111279345D01*
X140685929Y-111299987D01*
X140684153Y-111300000D01*
X140067162Y-111300000D01*
X140000123Y-111280315D01*
X139954368Y-111227511D01*
X139943873Y-111162744D01*
X139950851Y-111097844D01*
X139950852Y-111097827D01*
X139950852Y-111050000D01*
X138849852Y-111050000D01*
X138782813Y-111030315D01*
X138737058Y-110977511D01*
X138725852Y-110926000D01*
X138725852Y-110050000D01*
X139225852Y-110050000D01*
X139225852Y-110550000D01*
X139950852Y-110550000D01*
X139950852Y-110502172D01*
X139950851Y-110502155D01*
X139944450Y-110442627D01*
X139944448Y-110442620D01*
X139914565Y-110362500D01*
X140806606Y-110362500D01*
X141106606Y-110362500D01*
X141106606Y-109710851D01*
X141081462Y-109714833D01*
X140968559Y-109772360D01*
X140968555Y-109772363D01*
X140878969Y-109861949D01*
X140878966Y-109861953D01*
X140821439Y-109974855D01*
X140806606Y-110068513D01*
X140806606Y-110362500D01*
X139914565Y-110362500D01*
X139894206Y-110307913D01*
X139894202Y-110307906D01*
X139808042Y-110192812D01*
X139808039Y-110192809D01*
X139692945Y-110106649D01*
X139692938Y-110106645D01*
X139558231Y-110056403D01*
X139558224Y-110056401D01*
X139498696Y-110050000D01*
X139225852Y-110050000D01*
X138725852Y-110050000D01*
X138453024Y-110050000D01*
X138453005Y-110050001D01*
X138387255Y-110057070D01*
X138318496Y-110044665D01*
X138267358Y-109997055D01*
X138250000Y-109933781D01*
X138250000Y-108441189D01*
X140633811Y-108441189D01*
X140633811Y-108689033D01*
X140640212Y-108748561D01*
X140640214Y-108748568D01*
X140690456Y-108883275D01*
X140690460Y-108883282D01*
X140776620Y-108998376D01*
X140776623Y-108998379D01*
X140891717Y-109084539D01*
X140891724Y-109084543D01*
X141026431Y-109134785D01*
X141026438Y-109134787D01*
X141085966Y-109141188D01*
X141085983Y-109141189D01*
X141146311Y-109141189D01*
X141146311Y-108441189D01*
X140633811Y-108441189D01*
X138250000Y-108441189D01*
X138250000Y-107624000D01*
X138269685Y-107556961D01*
X138322489Y-107511206D01*
X138374000Y-107500000D01*
X140516554Y-107500000D01*
X140583593Y-107519685D01*
G37*
%TD.AperFunction*%
%TD*%
%TA.AperFunction,Conductor*%
%TO.N,BATTERY-*%
G36*
X161443039Y-103019685D02*
G01*
X161488794Y-103072489D01*
X161500000Y-103124000D01*
X161500000Y-122876000D01*
X161480315Y-122943039D01*
X161427511Y-122988794D01*
X161376000Y-123000000D01*
X135593250Y-123000000D01*
X135526211Y-122980315D01*
X135480456Y-122927511D01*
X135469250Y-122876000D01*
X135469250Y-119499679D01*
X135488935Y-119432640D01*
X135518937Y-119400414D01*
X135552577Y-119375231D01*
X135618041Y-119350816D01*
X135626886Y-119350500D01*
X136327796Y-119350500D01*
X136394835Y-119370185D01*
X136403907Y-119377495D01*
X136404105Y-119377232D01*
X136526414Y-119468793D01*
X136526421Y-119468797D01*
X136661267Y-119519091D01*
X136661266Y-119519091D01*
X136668194Y-119519835D01*
X136720877Y-119525500D01*
X138116622Y-119525499D01*
X138176233Y-119519091D01*
X138311081Y-119468796D01*
X138327711Y-119456347D01*
X138433395Y-119377232D01*
X138435189Y-119379629D01*
X138483346Y-119353334D01*
X138509704Y-119350500D01*
X139069014Y-119350500D01*
X139136053Y-119370185D01*
X139168279Y-119400188D01*
X139216563Y-119464687D01*
X139326024Y-119546628D01*
X139454136Y-119594412D01*
X139510765Y-119600500D01*
X140051734Y-119600499D01*
X140108364Y-119594412D01*
X140236476Y-119546628D01*
X140345937Y-119464687D01*
X140427878Y-119355226D01*
X140475662Y-119227114D01*
X140480425Y-119182813D01*
X140481749Y-119170501D01*
X140481749Y-119170490D01*
X140481750Y-119170485D01*
X140481750Y-119170481D01*
X142080750Y-119170481D01*
X142080751Y-119170490D01*
X142086837Y-119227114D01*
X142121499Y-119320043D01*
X142134622Y-119355226D01*
X142216563Y-119464687D01*
X142326024Y-119546628D01*
X142454136Y-119594412D01*
X142510765Y-119600500D01*
X143051734Y-119600499D01*
X143108364Y-119594412D01*
X143236476Y-119546628D01*
X143345937Y-119464687D01*
X143371234Y-119430892D01*
X143427166Y-119389023D01*
X143496857Y-119384039D01*
X143558181Y-119417523D01*
X143591666Y-119478846D01*
X143594500Y-119505205D01*
X143594500Y-121476000D01*
X143594501Y-121476009D01*
X143606052Y-121583450D01*
X143606054Y-121583462D01*
X143617260Y-121634972D01*
X143651383Y-121737497D01*
X143651386Y-121737503D01*
X143729171Y-121858537D01*
X143729179Y-121858548D01*
X143774923Y-121911340D01*
X143774926Y-121911343D01*
X143774930Y-121911347D01*
X143883664Y-122005567D01*
X143883667Y-122005568D01*
X143883668Y-122005569D01*
X143977925Y-122048616D01*
X144014541Y-122065338D01*
X144081580Y-122085023D01*
X144081584Y-122085024D01*
X144224000Y-122105500D01*
X144224003Y-122105500D01*
X147775990Y-122105500D01*
X147776000Y-122105500D01*
X147883456Y-122093947D01*
X147934967Y-122082741D01*
X147969197Y-122071347D01*
X148037497Y-122048616D01*
X148037501Y-122048613D01*
X148037504Y-122048613D01*
X148158543Y-121970825D01*
X148211347Y-121925070D01*
X148305567Y-121816336D01*
X148365338Y-121685459D01*
X148385023Y-121618420D01*
X148385024Y-121618416D01*
X148405500Y-121476000D01*
X148405500Y-119800000D01*
X152673351Y-119800000D01*
X152677333Y-119825143D01*
X152734860Y-119938046D01*
X152734863Y-119938050D01*
X152824449Y-120027636D01*
X152824453Y-120027639D01*
X152937355Y-120085166D01*
X153031014Y-120099999D01*
X153399999Y-120099999D01*
X153400000Y-120099998D01*
X153400000Y-119800000D01*
X153900000Y-119800000D01*
X153900000Y-120099999D01*
X154268979Y-120099999D01*
X154362649Y-120085164D01*
X154362655Y-120085162D01*
X154475541Y-120027643D01*
X154475550Y-120027636D01*
X154565136Y-119938050D01*
X154565139Y-119938046D01*
X154622666Y-119825143D01*
X154626649Y-119800000D01*
X153900000Y-119800000D01*
X153400000Y-119800000D01*
X152673351Y-119800000D01*
X148405500Y-119800000D01*
X148405500Y-119300000D01*
X152673351Y-119300000D01*
X153400000Y-119300000D01*
X153400000Y-119000000D01*
X153031020Y-119000000D01*
X152937350Y-119014835D01*
X152937344Y-119014837D01*
X152824458Y-119072356D01*
X152824449Y-119072363D01*
X152734863Y-119161949D01*
X152734860Y-119161953D01*
X152677333Y-119274856D01*
X152673351Y-119300000D01*
X148405500Y-119300000D01*
X148405500Y-118324000D01*
X148393947Y-118216544D01*
X148382741Y-118165033D01*
X148370432Y-118128050D01*
X148348616Y-118062502D01*
X148348613Y-118062496D01*
X148345324Y-118057379D01*
X148270825Y-117941457D01*
X148265501Y-117935313D01*
X148225076Y-117888659D01*
X148225072Y-117888656D01*
X148225070Y-117888653D01*
X148116336Y-117794433D01*
X148116333Y-117794431D01*
X148116331Y-117794430D01*
X148002121Y-117742271D01*
X147949317Y-117696516D01*
X147929633Y-117629476D01*
X147949318Y-117562437D01*
X147979319Y-117530212D01*
X148026296Y-117495046D01*
X148112546Y-117379831D01*
X148162841Y-117244983D01*
X148169250Y-117185373D01*
X148169249Y-116564628D01*
X148162841Y-116505017D01*
X148139568Y-116442620D01*
X148112547Y-116370171D01*
X148112543Y-116370164D01*
X148026297Y-116254955D01*
X147918938Y-116174585D01*
X147877068Y-116118651D01*
X147869250Y-116075319D01*
X147869250Y-115728117D01*
X147888935Y-115661078D01*
X147918937Y-115628851D01*
X148026296Y-115548483D01*
X148112546Y-115433268D01*
X148162841Y-115298420D01*
X148169250Y-115238810D01*
X148169249Y-114618065D01*
X148163060Y-114560489D01*
X148162841Y-114558453D01*
X148112547Y-114423608D01*
X148112543Y-114423601D01*
X148026297Y-114308392D01*
X148026294Y-114308389D01*
X147911085Y-114222143D01*
X147911078Y-114222139D01*
X147776232Y-114171845D01*
X147776233Y-114171845D01*
X147716633Y-114165438D01*
X147716631Y-114165437D01*
X147716623Y-114165437D01*
X147716614Y-114165437D01*
X146720879Y-114165437D01*
X146720873Y-114165438D01*
X146661266Y-114171845D01*
X146526421Y-114222139D01*
X146526414Y-114222143D01*
X146411205Y-114308389D01*
X146411202Y-114308392D01*
X146321478Y-114428248D01*
X146265544Y-114470119D01*
X146222212Y-114477937D01*
X144416402Y-114477937D01*
X144349363Y-114458252D01*
X144328721Y-114441618D01*
X143743425Y-113856322D01*
X143709940Y-113794999D01*
X143707106Y-113768641D01*
X143707106Y-113716551D01*
X143726791Y-113649512D01*
X143730787Y-113643666D01*
X143734650Y-113638347D01*
X143734656Y-113638342D01*
X143792252Y-113525304D01*
X143792252Y-113525302D01*
X143792253Y-113525301D01*
X143807105Y-113431524D01*
X143807106Y-113431519D01*
X143807106Y-113353437D01*
X146268750Y-113353437D01*
X146268750Y-113413781D01*
X146275151Y-113473309D01*
X146275153Y-113473316D01*
X146325395Y-113608023D01*
X146325399Y-113608030D01*
X146411559Y-113723124D01*
X146411562Y-113723127D01*
X146526656Y-113809287D01*
X146526663Y-113809291D01*
X146661370Y-113859533D01*
X146661377Y-113859535D01*
X146720905Y-113865936D01*
X146720922Y-113865937D01*
X146968750Y-113865937D01*
X146968750Y-113353437D01*
X147468750Y-113353437D01*
X147468750Y-113865937D01*
X147716578Y-113865937D01*
X147716594Y-113865936D01*
X147776122Y-113859535D01*
X147776129Y-113859533D01*
X147910836Y-113809291D01*
X147910843Y-113809287D01*
X148025937Y-113723127D01*
X148025940Y-113723124D01*
X148112100Y-113608030D01*
X148112104Y-113608023D01*
X148162346Y-113473316D01*
X148162348Y-113473309D01*
X148168749Y-113413781D01*
X148168750Y-113413764D01*
X148168750Y-113353437D01*
X147468750Y-113353437D01*
X146968750Y-113353437D01*
X146268750Y-113353437D01*
X143807106Y-113353437D01*
X143807105Y-112853437D01*
X146268750Y-112853437D01*
X146968750Y-112853437D01*
X146968750Y-112340937D01*
X147468750Y-112340937D01*
X147468750Y-112853437D01*
X148168750Y-112853437D01*
X148168750Y-112793109D01*
X148168749Y-112793092D01*
X148162348Y-112733564D01*
X148162346Y-112733557D01*
X148112104Y-112598850D01*
X148112100Y-112598843D01*
X148025940Y-112483749D01*
X148025937Y-112483746D01*
X147910843Y-112397586D01*
X147910836Y-112397582D01*
X147776129Y-112347340D01*
X147776122Y-112347338D01*
X147716594Y-112340937D01*
X147468750Y-112340937D01*
X146968750Y-112340937D01*
X146720905Y-112340937D01*
X146661377Y-112347338D01*
X146661370Y-112347340D01*
X146526663Y-112397582D01*
X146526656Y-112397586D01*
X146411562Y-112483746D01*
X146411559Y-112483749D01*
X146325399Y-112598843D01*
X146325395Y-112598850D01*
X146275153Y-112733557D01*
X146275151Y-112733564D01*
X146268750Y-112793092D01*
X146268750Y-112853437D01*
X143807105Y-112853437D01*
X143807105Y-112343482D01*
X143792252Y-112249696D01*
X143734656Y-112136658D01*
X143734652Y-112136654D01*
X143734651Y-112136652D01*
X143644953Y-112046954D01*
X143644950Y-112046952D01*
X143644948Y-112046950D01*
X143565845Y-112006645D01*
X143531907Y-111989352D01*
X143438130Y-111974500D01*
X143075088Y-111974500D01*
X142994125Y-111987323D01*
X142981302Y-111989354D01*
X142868264Y-112046950D01*
X142868263Y-112046951D01*
X142860365Y-112052689D01*
X142859464Y-112051449D01*
X142807611Y-112079764D01*
X142737919Y-112074780D01*
X142703069Y-112052382D01*
X142702550Y-112053098D01*
X142694652Y-112047360D01*
X142581749Y-111989833D01*
X142556606Y-111985851D01*
X142556606Y-113789146D01*
X142556607Y-113789147D01*
X142581752Y-113785165D01*
X142625810Y-113762717D01*
X142694479Y-113749820D01*
X142759220Y-113776096D01*
X142799478Y-113833202D01*
X142806106Y-113873201D01*
X142806106Y-114065916D01*
X142825152Y-114136999D01*
X142836806Y-114180491D01*
X142836806Y-114180492D01*
X142860852Y-114222139D01*
X142896117Y-114283220D01*
X143901823Y-115288926D01*
X144004550Y-115348236D01*
X144012994Y-115350498D01*
X144012998Y-115350501D01*
X144012999Y-115350500D01*
X144035426Y-115356509D01*
X144119128Y-115378937D01*
X146222212Y-115378937D01*
X146289251Y-115398622D01*
X146321478Y-115428626D01*
X146389914Y-115520043D01*
X146411204Y-115548483D01*
X146518561Y-115628851D01*
X146560432Y-115684784D01*
X146568250Y-115728117D01*
X146568250Y-116075319D01*
X146548565Y-116142358D01*
X146518562Y-116174585D01*
X146411202Y-116254955D01*
X146324956Y-116370164D01*
X146324952Y-116370171D01*
X146278528Y-116494643D01*
X146274659Y-116505017D01*
X146268250Y-116564627D01*
X146268250Y-116564634D01*
X146268250Y-116564635D01*
X146268250Y-117185370D01*
X146268251Y-117185376D01*
X146274658Y-117244983D01*
X146324952Y-117379828D01*
X146324953Y-117379830D01*
X146324954Y-117379831D01*
X146406900Y-117489297D01*
X146412060Y-117496189D01*
X146436477Y-117561653D01*
X146421626Y-117629926D01*
X146372221Y-117679332D01*
X146312793Y-117694500D01*
X145839698Y-117694500D01*
X145772659Y-117674815D01*
X145726904Y-117622011D01*
X145716960Y-117552853D01*
X145745985Y-117489297D01*
X145765387Y-117471234D01*
X145850937Y-117407190D01*
X145850940Y-117407187D01*
X145937100Y-117292093D01*
X145937104Y-117292086D01*
X145987346Y-117157379D01*
X145987348Y-117157372D01*
X145993749Y-117097844D01*
X145993750Y-117097827D01*
X145993750Y-117050000D01*
X144043750Y-117050000D01*
X144043750Y-117097844D01*
X144050151Y-117157372D01*
X144050153Y-117157379D01*
X144100395Y-117292086D01*
X144100399Y-117292093D01*
X144186559Y-117407187D01*
X144186562Y-117407190D01*
X144274568Y-117473072D01*
X144316439Y-117529006D01*
X144321423Y-117598697D01*
X144287937Y-117660020D01*
X144226614Y-117693504D01*
X144213513Y-117695627D01*
X144116548Y-117706052D01*
X144116537Y-117706054D01*
X144065027Y-117717260D01*
X143962502Y-117751383D01*
X143962496Y-117751386D01*
X143841462Y-117829171D01*
X143841451Y-117829179D01*
X143788659Y-117874923D01*
X143694433Y-117983664D01*
X143689636Y-117991128D01*
X143686814Y-117989314D01*
X143651695Y-118029829D01*
X143584676Y-118049500D01*
X143493486Y-118049500D01*
X143426447Y-118029815D01*
X143394219Y-117999811D01*
X143345937Y-117935313D01*
X143273260Y-117880908D01*
X143236478Y-117853373D01*
X143236476Y-117853372D01*
X143108364Y-117805588D01*
X143108362Y-117805587D01*
X143108360Y-117805587D01*
X143051743Y-117799500D01*
X142510768Y-117799500D01*
X142510759Y-117799501D01*
X142454135Y-117805587D01*
X142326023Y-117853372D01*
X142216563Y-117935313D01*
X142134623Y-118044771D01*
X142086837Y-118172889D01*
X142080750Y-118229498D01*
X142080750Y-119170481D01*
X140481750Y-119170481D01*
X140481749Y-118229516D01*
X140475662Y-118172886D01*
X140475472Y-118172377D01*
X140448663Y-118100500D01*
X140427878Y-118044774D01*
X140345937Y-117935313D01*
X140273260Y-117880908D01*
X140236478Y-117853373D01*
X140236476Y-117853372D01*
X140108364Y-117805588D01*
X140108362Y-117805587D01*
X140108360Y-117805587D01*
X140051743Y-117799500D01*
X139510768Y-117799500D01*
X139510759Y-117799501D01*
X139454135Y-117805587D01*
X139326023Y-117853372D01*
X139222091Y-117931175D01*
X139216563Y-117935313D01*
X139169730Y-117997876D01*
X139168281Y-117999811D01*
X139112347Y-118041682D01*
X139069014Y-118049500D01*
X138509704Y-118049500D01*
X138442665Y-118029815D01*
X138433592Y-118022504D01*
X138433395Y-118022768D01*
X138311085Y-117931206D01*
X138311078Y-117931202D01*
X138176232Y-117880908D01*
X138176233Y-117880908D01*
X138116633Y-117874501D01*
X138116631Y-117874500D01*
X138116623Y-117874500D01*
X138116614Y-117874500D01*
X136720879Y-117874500D01*
X136720873Y-117874501D01*
X136661266Y-117880908D01*
X136526421Y-117931202D01*
X136526414Y-117931206D01*
X136404105Y-118022768D01*
X136402310Y-118020370D01*
X136354154Y-118046666D01*
X136327796Y-118049500D01*
X135626887Y-118049500D01*
X135559848Y-118029815D01*
X135552576Y-118024767D01*
X135511081Y-117993704D01*
X135511078Y-117993702D01*
X135376232Y-117943408D01*
X135376233Y-117943408D01*
X135316633Y-117937001D01*
X135316631Y-117937000D01*
X135316623Y-117937000D01*
X135316614Y-117937000D01*
X134320879Y-117937000D01*
X134320873Y-117937001D01*
X134261266Y-117943408D01*
X134126421Y-117993702D01*
X134126414Y-117993706D01*
X134011205Y-118079952D01*
X134011202Y-118079955D01*
X133924956Y-118195164D01*
X133924952Y-118195171D01*
X133874660Y-118330013D01*
X133874659Y-118330017D01*
X133868250Y-118389627D01*
X133868250Y-118389634D01*
X133868250Y-118389635D01*
X133868250Y-119010370D01*
X133868251Y-119010376D01*
X133874658Y-119069983D01*
X133924952Y-119204828D01*
X133924956Y-119204835D01*
X133969932Y-119264914D01*
X134011204Y-119320046D01*
X134118561Y-119400414D01*
X134160432Y-119456347D01*
X134168250Y-119499680D01*
X134168250Y-122876000D01*
X134148565Y-122943039D01*
X134095761Y-122988794D01*
X134044250Y-123000000D01*
X132074499Y-123000000D01*
X132007460Y-122980315D01*
X131961705Y-122927511D01*
X131950499Y-122876000D01*
X131950499Y-122618482D01*
X131950498Y-122618475D01*
X131935646Y-122524696D01*
X131928527Y-122510725D01*
X131915632Y-122442059D01*
X131941908Y-122377319D01*
X131999014Y-122337061D01*
X132065039Y-122334231D01*
X132065057Y-122334120D01*
X132065605Y-122334206D01*
X132068820Y-122334069D01*
X132073893Y-122335519D01*
X132168475Y-122350499D01*
X132168481Y-122350500D01*
X132531518Y-122350499D01*
X132625304Y-122335646D01*
X132738342Y-122278050D01*
X132828050Y-122188342D01*
X132885646Y-122075304D01*
X132885646Y-122075302D01*
X132885647Y-122075301D01*
X132900499Y-121981524D01*
X132900500Y-121981519D01*
X132900499Y-120743482D01*
X132885646Y-120649696D01*
X132828050Y-120536658D01*
X132828047Y-120536655D01*
X132828046Y-120536653D01*
X132824179Y-120531329D01*
X132800702Y-120465522D01*
X132800500Y-120458448D01*
X132800500Y-120209284D01*
X132820185Y-120142245D01*
X132826116Y-120133808D01*
X132830861Y-120127625D01*
X132886330Y-119993709D01*
X132905250Y-119850000D01*
X132886330Y-119706291D01*
X132830861Y-119572375D01*
X132742621Y-119457379D01*
X132627625Y-119369139D01*
X132627624Y-119369138D01*
X132627622Y-119369137D01*
X132493712Y-119313671D01*
X132493710Y-119313670D01*
X132493709Y-119313670D01*
X132389877Y-119300000D01*
X132350001Y-119294750D01*
X132349999Y-119294750D01*
X132206291Y-119313670D01*
X132206287Y-119313671D01*
X132072377Y-119369137D01*
X131957379Y-119457379D01*
X131869137Y-119572377D01*
X131813671Y-119706287D01*
X131813670Y-119706291D01*
X131794750Y-119849999D01*
X131794750Y-119850000D01*
X131813670Y-119993708D01*
X131813671Y-119993712D01*
X131869137Y-120127622D01*
X131869138Y-120127624D01*
X131869139Y-120127625D01*
X131873875Y-120133798D01*
X131899070Y-120198965D01*
X131899500Y-120209284D01*
X131899500Y-120458448D01*
X131879815Y-120525487D01*
X131875821Y-120531329D01*
X131871953Y-120536653D01*
X131814352Y-120649698D01*
X131799500Y-120743475D01*
X131799500Y-121981517D01*
X131810127Y-122048613D01*
X131814354Y-122075304D01*
X131819307Y-122085024D01*
X131821472Y-122089273D01*
X131834367Y-122157942D01*
X131808090Y-122222682D01*
X131750983Y-122262938D01*
X131684960Y-122265767D01*
X131684943Y-122265880D01*
X131684389Y-122265792D01*
X131681177Y-122265930D01*
X131676109Y-122264480D01*
X131581524Y-122249500D01*
X131218482Y-122249500D01*
X131147649Y-122260718D01*
X131124696Y-122264354D01*
X131124695Y-122264354D01*
X131115057Y-122265881D01*
X131114736Y-122263859D01*
X131057478Y-122265489D01*
X130997649Y-122229402D01*
X130966827Y-122166698D01*
X130974799Y-122097285D01*
X130978514Y-122089300D01*
X130985646Y-122075304D01*
X130987225Y-122065338D01*
X131000499Y-121981524D01*
X131000500Y-121981519D01*
X131000499Y-120743482D01*
X130985646Y-120649696D01*
X130928050Y-120536658D01*
X130928047Y-120536655D01*
X130928046Y-120536653D01*
X130924179Y-120531329D01*
X130900702Y-120465522D01*
X130900500Y-120458448D01*
X130900500Y-120209284D01*
X130920185Y-120142245D01*
X130926116Y-120133808D01*
X130930861Y-120127625D01*
X130986330Y-119993709D01*
X131005250Y-119850000D01*
X130986330Y-119706291D01*
X130930861Y-119572375D01*
X130930861Y-119572374D01*
X130926797Y-119565335D01*
X130928861Y-119564143D01*
X130908053Y-119510308D01*
X130922096Y-119441864D01*
X130927434Y-119433559D01*
X130930856Y-119427631D01*
X130930861Y-119427625D01*
X130986330Y-119293709D01*
X131005250Y-119150000D01*
X130986330Y-119006291D01*
X130948741Y-118915541D01*
X130930861Y-118872374D01*
X130926797Y-118865335D01*
X130928861Y-118864143D01*
X130908053Y-118810308D01*
X130922096Y-118741864D01*
X130927434Y-118733559D01*
X130930856Y-118727631D01*
X130930861Y-118727625D01*
X130986330Y-118593709D01*
X131005250Y-118450000D01*
X130986330Y-118306291D01*
X130942510Y-118200499D01*
X130930862Y-118172377D01*
X130930861Y-118172376D01*
X130930861Y-118172375D01*
X130842621Y-118057379D01*
X130727625Y-117969139D01*
X130727624Y-117969138D01*
X130727622Y-117969137D01*
X130593712Y-117913671D01*
X130593710Y-117913670D01*
X130593709Y-117913670D01*
X130521854Y-117904210D01*
X130450001Y-117894750D01*
X130449999Y-117894750D01*
X130306291Y-117913670D01*
X130306287Y-117913671D01*
X130172377Y-117969137D01*
X130057379Y-118057379D01*
X129969137Y-118172377D01*
X129913671Y-118306287D01*
X129913670Y-118306291D01*
X129896939Y-118433372D01*
X129891522Y-118445615D01*
X129892977Y-118447878D01*
X129896939Y-118466627D01*
X129913670Y-118593708D01*
X129913671Y-118593712D01*
X129969138Y-118727623D01*
X129973203Y-118734664D01*
X129971136Y-118735857D01*
X129991945Y-118789683D01*
X129977906Y-118858127D01*
X129972561Y-118866445D01*
X129969138Y-118872374D01*
X129913671Y-119006287D01*
X129913670Y-119006291D01*
X129896939Y-119133372D01*
X129891522Y-119145615D01*
X129892977Y-119147878D01*
X129896939Y-119166627D01*
X129913670Y-119293708D01*
X129913671Y-119293712D01*
X129969138Y-119427623D01*
X129973203Y-119434664D01*
X129971136Y-119435857D01*
X129991945Y-119489683D01*
X129977906Y-119558127D01*
X129972561Y-119566445D01*
X129969138Y-119572374D01*
X129913671Y-119706287D01*
X129913670Y-119706291D01*
X129896939Y-119833372D01*
X129891522Y-119845615D01*
X129892977Y-119847878D01*
X129896939Y-119866627D01*
X129913670Y-119993708D01*
X129913671Y-119993712D01*
X129969137Y-120127622D01*
X129969138Y-120127624D01*
X129969139Y-120127625D01*
X129973875Y-120133798D01*
X129999070Y-120198965D01*
X129999500Y-120209284D01*
X129999500Y-120458448D01*
X129979815Y-120525487D01*
X129975821Y-120531329D01*
X129971953Y-120536653D01*
X129914352Y-120649698D01*
X129899500Y-120743475D01*
X129899500Y-121981517D01*
X129910127Y-122048613D01*
X129914354Y-122075304D01*
X129971950Y-122188342D01*
X129971952Y-122188344D01*
X129971954Y-122188347D01*
X130061652Y-122278045D01*
X130061654Y-122278046D01*
X130061658Y-122278050D01*
X130171601Y-122334069D01*
X130174698Y-122335647D01*
X130268475Y-122350499D01*
X130268481Y-122350500D01*
X130631518Y-122350499D01*
X130725304Y-122335646D01*
X130725305Y-122335645D01*
X130734943Y-122334119D01*
X130735263Y-122336143D01*
X130792500Y-122334504D01*
X130852335Y-122370580D01*
X130883168Y-122433279D01*
X130875209Y-122502693D01*
X130871472Y-122510726D01*
X130864353Y-122524697D01*
X130864352Y-122524698D01*
X130849500Y-122618475D01*
X130849500Y-122876000D01*
X130829815Y-122943039D01*
X130777011Y-122988794D01*
X130725500Y-123000000D01*
X129774000Y-123000000D01*
X129706961Y-122980315D01*
X129661206Y-122927511D01*
X129650000Y-122876000D01*
X129650000Y-119882813D01*
X129658984Y-119852217D01*
X129651481Y-119836292D01*
X129650000Y-119817186D01*
X129650000Y-119182813D01*
X129658984Y-119152217D01*
X129651481Y-119136292D01*
X129650000Y-119117186D01*
X129650000Y-118482813D01*
X129658984Y-118452217D01*
X129651481Y-118436292D01*
X129650000Y-118417186D01*
X129650000Y-117185370D01*
X133868250Y-117185370D01*
X133868251Y-117185376D01*
X133874658Y-117244983D01*
X133924952Y-117379828D01*
X133924956Y-117379835D01*
X134011202Y-117495044D01*
X134011205Y-117495047D01*
X134126414Y-117581293D01*
X134126421Y-117581297D01*
X134261267Y-117631591D01*
X134261266Y-117631591D01*
X134268194Y-117632335D01*
X134320877Y-117638000D01*
X135316622Y-117637999D01*
X135376233Y-117631591D01*
X135511081Y-117581296D01*
X135626296Y-117495046D01*
X135712546Y-117379831D01*
X135762841Y-117244983D01*
X135769250Y-117185373D01*
X135769249Y-116564628D01*
X135762841Y-116505017D01*
X135739568Y-116442620D01*
X135712547Y-116370171D01*
X135712543Y-116370164D01*
X135626297Y-116254955D01*
X135518938Y-116174585D01*
X135477068Y-116118651D01*
X135469250Y-116075319D01*
X135469250Y-116000000D01*
X136268750Y-116000000D01*
X136268750Y-116122844D01*
X136275151Y-116182372D01*
X136275153Y-116182379D01*
X136325395Y-116317086D01*
X136325399Y-116317093D01*
X136411559Y-116432187D01*
X136411562Y-116432190D01*
X136526656Y-116518350D01*
X136526663Y-116518354D01*
X136661370Y-116568596D01*
X136661377Y-116568598D01*
X136720905Y-116574999D01*
X136720922Y-116575000D01*
X137168750Y-116575000D01*
X137168750Y-116000000D01*
X137668750Y-116000000D01*
X137668750Y-116575000D01*
X138116578Y-116575000D01*
X138116594Y-116574999D01*
X138176122Y-116568598D01*
X138176129Y-116568596D01*
X138225988Y-116550000D01*
X144043750Y-116550000D01*
X144768750Y-116550000D01*
X144768750Y-116050000D01*
X145268750Y-116050000D01*
X145268750Y-116550000D01*
X145993750Y-116550000D01*
X145993750Y-116502172D01*
X145993749Y-116502155D01*
X145987348Y-116442627D01*
X145987346Y-116442620D01*
X145937104Y-116307913D01*
X145937100Y-116307906D01*
X145850940Y-116192812D01*
X145850937Y-116192809D01*
X145735843Y-116106649D01*
X145735836Y-116106645D01*
X145601129Y-116056403D01*
X145601122Y-116056401D01*
X145541594Y-116050000D01*
X145268750Y-116050000D01*
X144768750Y-116050000D01*
X144495905Y-116050000D01*
X144436377Y-116056401D01*
X144436370Y-116056403D01*
X144301663Y-116106645D01*
X144301656Y-116106649D01*
X144186562Y-116192809D01*
X144186559Y-116192812D01*
X144100399Y-116307906D01*
X144100395Y-116307913D01*
X144050153Y-116442620D01*
X144050151Y-116442627D01*
X144043750Y-116502155D01*
X144043750Y-116550000D01*
X138225988Y-116550000D01*
X138310836Y-116518354D01*
X138310843Y-116518350D01*
X138425937Y-116432190D01*
X138425940Y-116432187D01*
X138512100Y-116317093D01*
X138512104Y-116317086D01*
X138562346Y-116182379D01*
X138562348Y-116182372D01*
X138568749Y-116122844D01*
X138568750Y-116122827D01*
X138568750Y-116000000D01*
X137668750Y-116000000D01*
X137168750Y-116000000D01*
X136268750Y-116000000D01*
X135469250Y-116000000D01*
X135469250Y-115699680D01*
X135488935Y-115632641D01*
X135518937Y-115600414D01*
X135626296Y-115520046D01*
X135641302Y-115500000D01*
X136268750Y-115500000D01*
X137168750Y-115500000D01*
X137168750Y-114925000D01*
X137668750Y-114925000D01*
X137668750Y-115500000D01*
X138568750Y-115500000D01*
X138568750Y-115377172D01*
X138568749Y-115377155D01*
X138562348Y-115317627D01*
X138562346Y-115317620D01*
X138512104Y-115182913D01*
X138512100Y-115182906D01*
X138425940Y-115067812D01*
X138425937Y-115067809D01*
X138310843Y-114981649D01*
X138310836Y-114981645D01*
X138176129Y-114931403D01*
X138176122Y-114931401D01*
X138116594Y-114925000D01*
X137668750Y-114925000D01*
X137168750Y-114925000D01*
X136720905Y-114925000D01*
X136661377Y-114931401D01*
X136661370Y-114931403D01*
X136526663Y-114981645D01*
X136526656Y-114981649D01*
X136411562Y-115067809D01*
X136411559Y-115067812D01*
X136325399Y-115182906D01*
X136325395Y-115182913D01*
X136275153Y-115317620D01*
X136275151Y-115317627D01*
X136268750Y-115377155D01*
X136268750Y-115500000D01*
X135641302Y-115500000D01*
X135712546Y-115404831D01*
X135734275Y-115346570D01*
X135776144Y-115290639D01*
X135788440Y-115282528D01*
X135826614Y-115260489D01*
X136400284Y-114686819D01*
X136461607Y-114653334D01*
X136487965Y-114650500D01*
X141059308Y-114650500D01*
X141059309Y-114650500D01*
X141149673Y-114626286D01*
X141173887Y-114619799D01*
X141276614Y-114560489D01*
X141717095Y-114120008D01*
X141776405Y-114017281D01*
X141782891Y-113993069D01*
X141782892Y-113993069D01*
X141782892Y-113993065D01*
X141807106Y-113902703D01*
X141807106Y-113873201D01*
X141826791Y-113806162D01*
X141879595Y-113760407D01*
X141948753Y-113750463D01*
X141987402Y-113762717D01*
X142031459Y-113785165D01*
X142056604Y-113789147D01*
X142056606Y-113789146D01*
X142056606Y-111985851D01*
X142031462Y-111989833D01*
X141918559Y-112047360D01*
X141910662Y-112053098D01*
X141909666Y-112051727D01*
X141858306Y-112079766D01*
X141788614Y-112074776D01*
X141753294Y-112052072D01*
X141752847Y-112052689D01*
X141744951Y-112046953D01*
X141744948Y-112046950D01*
X141665845Y-112006645D01*
X141631907Y-111989352D01*
X141538130Y-111974500D01*
X141175088Y-111974500D01*
X141094125Y-111987323D01*
X141081302Y-111989354D01*
X140968264Y-112046950D01*
X140968263Y-112046951D01*
X140968258Y-112046954D01*
X140878560Y-112136652D01*
X140878557Y-112136657D01*
X140820958Y-112249698D01*
X140806106Y-112343475D01*
X140806106Y-113431517D01*
X140816210Y-113495312D01*
X140820960Y-113525304D01*
X140843329Y-113569206D01*
X140856226Y-113637873D01*
X140829950Y-113702614D01*
X140772844Y-113742872D01*
X140732845Y-113749500D01*
X136190691Y-113749500D01*
X136121944Y-113767920D01*
X136076112Y-113780201D01*
X136076107Y-113780204D01*
X136032695Y-113805267D01*
X136032696Y-113805268D01*
X135973389Y-113839508D01*
X135973387Y-113839510D01*
X135646172Y-114166724D01*
X135584849Y-114200208D01*
X135515158Y-114195224D01*
X135376232Y-114143408D01*
X135376233Y-114143408D01*
X135316633Y-114137001D01*
X135316631Y-114137000D01*
X135316623Y-114137000D01*
X135316614Y-114137000D01*
X134320879Y-114137000D01*
X134320873Y-114137001D01*
X134261266Y-114143408D01*
X134126421Y-114193702D01*
X134126414Y-114193706D01*
X134011205Y-114279952D01*
X134011202Y-114279955D01*
X133924956Y-114395164D01*
X133924952Y-114395171D01*
X133874660Y-114530013D01*
X133874659Y-114530017D01*
X133868250Y-114589627D01*
X133868250Y-114589634D01*
X133868250Y-114589635D01*
X133868250Y-115210370D01*
X133868251Y-115210376D01*
X133874658Y-115269983D01*
X133924952Y-115404828D01*
X133924956Y-115404835D01*
X133994108Y-115497209D01*
X134011204Y-115520046D01*
X134118561Y-115600414D01*
X134160432Y-115656347D01*
X134168250Y-115699680D01*
X134168250Y-116075319D01*
X134148565Y-116142358D01*
X134118562Y-116174585D01*
X134011202Y-116254955D01*
X133924956Y-116370164D01*
X133924952Y-116370171D01*
X133878528Y-116494643D01*
X133874659Y-116505017D01*
X133868250Y-116564627D01*
X133868250Y-116564634D01*
X133868250Y-116564635D01*
X133868250Y-117185370D01*
X129650000Y-117185370D01*
X129650000Y-113325000D01*
X133868750Y-113325000D01*
X133868750Y-113385344D01*
X133875151Y-113444872D01*
X133875153Y-113444879D01*
X133925395Y-113579586D01*
X133925399Y-113579593D01*
X134011559Y-113694687D01*
X134011562Y-113694690D01*
X134126656Y-113780850D01*
X134126663Y-113780854D01*
X134261370Y-113831096D01*
X134261377Y-113831098D01*
X134320905Y-113837499D01*
X134320922Y-113837500D01*
X134568750Y-113837500D01*
X134568750Y-113325000D01*
X135068750Y-113325000D01*
X135068750Y-113837500D01*
X135316578Y-113837500D01*
X135316594Y-113837499D01*
X135376122Y-113831098D01*
X135376129Y-113831096D01*
X135510836Y-113780854D01*
X135510843Y-113780850D01*
X135625937Y-113694690D01*
X135625940Y-113694687D01*
X135712100Y-113579593D01*
X135712104Y-113579586D01*
X135762346Y-113444879D01*
X135762348Y-113444872D01*
X135768749Y-113385344D01*
X135768750Y-113385327D01*
X135768750Y-113325000D01*
X135068750Y-113325000D01*
X134568750Y-113325000D01*
X133868750Y-113325000D01*
X129650000Y-113325000D01*
X129650000Y-112950000D01*
X138000852Y-112950000D01*
X138000852Y-112997844D01*
X138007253Y-113057372D01*
X138007255Y-113057379D01*
X138057497Y-113192086D01*
X138057501Y-113192093D01*
X138143661Y-113307187D01*
X138143664Y-113307190D01*
X138258758Y-113393350D01*
X138258765Y-113393354D01*
X138393472Y-113443596D01*
X138393479Y-113443598D01*
X138453007Y-113449999D01*
X138453024Y-113450000D01*
X138725852Y-113450000D01*
X138725852Y-112950000D01*
X139225852Y-112950000D01*
X139225852Y-113450000D01*
X139498680Y-113450000D01*
X139498696Y-113449999D01*
X139558224Y-113443598D01*
X139558231Y-113443596D01*
X139692938Y-113393354D01*
X139692945Y-113393350D01*
X139808039Y-113307190D01*
X139808042Y-113307187D01*
X139894202Y-113192093D01*
X139894206Y-113192086D01*
X139944448Y-113057379D01*
X139944450Y-113057372D01*
X139950851Y-112997844D01*
X139950852Y-112997827D01*
X139950852Y-112950000D01*
X139225852Y-112950000D01*
X138725852Y-112950000D01*
X138000852Y-112950000D01*
X129650000Y-112950000D01*
X129650000Y-112825000D01*
X133868750Y-112825000D01*
X134568750Y-112825000D01*
X134568750Y-112312500D01*
X135068750Y-112312500D01*
X135068750Y-112825000D01*
X135768750Y-112825000D01*
X135768750Y-112764672D01*
X135768749Y-112764655D01*
X135762348Y-112705127D01*
X135762346Y-112705120D01*
X135712104Y-112570413D01*
X135712100Y-112570406D01*
X135625940Y-112455312D01*
X135625937Y-112455309D01*
X135618845Y-112450000D01*
X138000852Y-112450000D01*
X138725852Y-112450000D01*
X138725852Y-111950000D01*
X139225852Y-111950000D01*
X139225852Y-112450000D01*
X139950852Y-112450000D01*
X139950852Y-112402172D01*
X139950851Y-112402155D01*
X139944450Y-112342627D01*
X139944448Y-112342620D01*
X139894206Y-112207913D01*
X139894202Y-112207906D01*
X139808042Y-112092812D01*
X139808039Y-112092809D01*
X139692945Y-112006649D01*
X139692938Y-112006645D01*
X139558231Y-111956403D01*
X139558224Y-111956401D01*
X139498696Y-111950000D01*
X139225852Y-111950000D01*
X138725852Y-111950000D01*
X138453007Y-111950000D01*
X138393479Y-111956401D01*
X138393472Y-111956403D01*
X138258765Y-112006645D01*
X138258758Y-112006649D01*
X138143664Y-112092809D01*
X138143661Y-112092812D01*
X138057501Y-112207906D01*
X138057497Y-112207913D01*
X138007255Y-112342620D01*
X138007253Y-112342627D01*
X138000852Y-112402155D01*
X138000852Y-112450000D01*
X135618845Y-112450000D01*
X135510843Y-112369149D01*
X135510836Y-112369145D01*
X135376129Y-112318903D01*
X135376122Y-112318901D01*
X135316594Y-112312500D01*
X135068750Y-112312500D01*
X134568750Y-112312500D01*
X134320905Y-112312500D01*
X134261377Y-112318901D01*
X134261370Y-112318903D01*
X134126663Y-112369145D01*
X134126656Y-112369149D01*
X134011562Y-112455309D01*
X134011559Y-112455312D01*
X133925399Y-112570406D01*
X133925395Y-112570413D01*
X133875153Y-112705120D01*
X133875151Y-112705127D01*
X133868750Y-112764655D01*
X133868750Y-112825000D01*
X129650000Y-112825000D01*
X129650000Y-109933779D01*
X137994500Y-109933779D01*
X137994501Y-109933794D01*
X138003602Y-110001371D01*
X138003603Y-110001377D01*
X138020957Y-110064635D01*
X138020965Y-110064661D01*
X138027054Y-110081442D01*
X138034948Y-110103196D01*
X138034949Y-110103197D01*
X138067607Y-110148486D01*
X138090852Y-110214375D01*
X138074784Y-110282372D01*
X138066298Y-110295322D01*
X138057057Y-110307665D01*
X138057054Y-110307671D01*
X138006762Y-110442513D01*
X138006761Y-110442517D01*
X138000352Y-110502127D01*
X138000352Y-110502134D01*
X138000352Y-110502135D01*
X138000352Y-111097870D01*
X138000353Y-111097876D01*
X138006760Y-111157483D01*
X138057054Y-111292328D01*
X138057058Y-111292335D01*
X138143304Y-111407544D01*
X138143307Y-111407547D01*
X138258516Y-111493793D01*
X138258523Y-111493797D01*
X138393369Y-111544091D01*
X138393368Y-111544091D01*
X138400296Y-111544835D01*
X138452979Y-111550500D01*
X139498724Y-111550499D01*
X139558335Y-111544091D01*
X139648006Y-111510646D01*
X139693178Y-111493798D01*
X139693178Y-111493797D01*
X139693183Y-111493796D01*
X139702373Y-111486915D01*
X139767831Y-111462497D01*
X139834161Y-111476305D01*
X139839801Y-111479255D01*
X139839803Y-111479257D01*
X139928138Y-111525465D01*
X139928139Y-111525465D01*
X139928139Y-111525466D01*
X139978267Y-111540184D01*
X139995177Y-111545150D01*
X139995181Y-111545150D01*
X139995183Y-111545151D01*
X140006814Y-111546823D01*
X140067162Y-111555500D01*
X140067163Y-111555500D01*
X140684163Y-111555500D01*
X140684286Y-111555499D01*
X140686023Y-111555493D01*
X140687799Y-111555480D01*
X140761413Y-111544082D01*
X140828164Y-111523440D01*
X140870307Y-111506158D01*
X140875790Y-111501770D01*
X140886499Y-111493204D01*
X140951143Y-111466693D01*
X141019859Y-111479340D01*
X141020136Y-111479480D01*
X141072484Y-111506153D01*
X141081304Y-111510647D01*
X141168722Y-111524491D01*
X141174872Y-111525466D01*
X141175081Y-111525499D01*
X141175087Y-111525500D01*
X141538124Y-111525499D01*
X141631910Y-111510646D01*
X141744948Y-111453050D01*
X141834656Y-111363342D01*
X141892252Y-111250304D01*
X141892252Y-111250302D01*
X141892253Y-111250301D01*
X141907105Y-111156524D01*
X141907106Y-111156519D01*
X141907105Y-110068482D01*
X141892252Y-109974696D01*
X141892251Y-109974694D01*
X141892251Y-109974692D01*
X141875621Y-109942054D01*
X141862106Y-109885760D01*
X141862106Y-109811661D01*
X141874366Y-109761773D01*
X141873185Y-109761296D01*
X141875466Y-109755647D01*
X141884229Y-109725801D01*
X141895150Y-109688610D01*
X141905500Y-109616625D01*
X141905500Y-109196240D01*
X141904036Y-109168926D01*
X141903016Y-109159442D01*
X141915418Y-109090684D01*
X141951991Y-109046918D01*
X142016357Y-108998735D01*
X142102607Y-108883520D01*
X142152902Y-108748672D01*
X142159311Y-108689062D01*
X142159311Y-108689059D01*
X142458311Y-108689059D01*
X142458312Y-108689065D01*
X142464719Y-108748672D01*
X142515013Y-108883517D01*
X142515017Y-108883524D01*
X142584169Y-108975898D01*
X142601265Y-108998735D01*
X142691386Y-109066199D01*
X142733256Y-109122132D01*
X142738240Y-109191824D01*
X142731636Y-109212916D01*
X142713670Y-109256290D01*
X142713670Y-109256291D01*
X142694750Y-109399999D01*
X142694750Y-109400000D01*
X142713670Y-109543708D01*
X142713671Y-109543712D01*
X142769137Y-109677622D01*
X142769138Y-109677624D01*
X142769139Y-109677625D01*
X142780481Y-109692407D01*
X142805676Y-109757574D01*
X142806106Y-109767893D01*
X142806106Y-109783448D01*
X142786421Y-109850487D01*
X142782427Y-109856329D01*
X142778559Y-109861653D01*
X142778556Y-109861657D01*
X142778556Y-109861658D01*
X142763149Y-109891896D01*
X142720958Y-109974698D01*
X142706106Y-110068475D01*
X142706106Y-111156517D01*
X142716898Y-111224657D01*
X142720960Y-111250304D01*
X142778556Y-111363342D01*
X142778558Y-111363344D01*
X142778560Y-111363347D01*
X142868258Y-111453045D01*
X142868260Y-111453046D01*
X142868264Y-111453050D01*
X142972484Y-111506153D01*
X142981304Y-111510647D01*
X143068722Y-111524491D01*
X143074872Y-111525466D01*
X143075081Y-111525499D01*
X143075087Y-111525500D01*
X143438124Y-111525499D01*
X143531910Y-111510646D01*
X143644948Y-111453050D01*
X143734656Y-111363342D01*
X143792252Y-111250304D01*
X143792252Y-111250302D01*
X143792253Y-111250301D01*
X143807105Y-111156524D01*
X143807106Y-111156519D01*
X143807105Y-110068482D01*
X143807105Y-110068481D01*
X143807105Y-110068477D01*
X143801847Y-110035281D01*
X143810801Y-109965988D01*
X143855797Y-109912536D01*
X143922549Y-109891896D01*
X143971772Y-109901322D01*
X143998846Y-109912536D01*
X144056291Y-109936330D01*
X144183280Y-109953048D01*
X144199999Y-109955250D01*
X144200000Y-109955250D01*
X144200001Y-109955250D01*
X144214977Y-109953278D01*
X144343709Y-109936330D01*
X144477625Y-109880861D01*
X144592621Y-109792621D01*
X144680861Y-109677625D01*
X144736330Y-109543709D01*
X144755250Y-109400000D01*
X144736330Y-109256291D01*
X144680861Y-109122375D01*
X144592621Y-109007379D01*
X144477625Y-108919139D01*
X144477624Y-108919138D01*
X144477622Y-108919137D01*
X144383738Y-108880250D01*
X144329334Y-108836410D01*
X144307269Y-108770115D01*
X144324548Y-108702416D01*
X144375685Y-108654805D01*
X144431190Y-108641689D01*
X149406750Y-108641689D01*
X149473789Y-108661374D01*
X149519544Y-108714178D01*
X149530750Y-108765689D01*
X149530750Y-116765558D01*
X149554962Y-116855922D01*
X149561450Y-116880135D01*
X149561450Y-116880136D01*
X149561451Y-116880137D01*
X149620761Y-116982864D01*
X150648386Y-118010489D01*
X150751113Y-118069799D01*
X150775321Y-118076284D01*
X150775324Y-118076286D01*
X150775325Y-118076286D01*
X150789018Y-118079955D01*
X150865691Y-118100500D01*
X152745948Y-118100500D01*
X152812987Y-118120185D01*
X152818829Y-118124179D01*
X152824153Y-118128046D01*
X152824155Y-118128047D01*
X152824158Y-118128050D01*
X152937194Y-118185645D01*
X152937198Y-118185647D01*
X153030975Y-118200499D01*
X153030981Y-118200500D01*
X154269018Y-118200499D01*
X154362804Y-118185646D01*
X154376773Y-118178528D01*
X154445438Y-118165632D01*
X154510179Y-118191907D01*
X154550437Y-118249012D01*
X154553268Y-118315039D01*
X154553380Y-118315057D01*
X154553293Y-118315605D01*
X154553431Y-118318818D01*
X154551981Y-118323888D01*
X154537000Y-118418475D01*
X154537000Y-118781517D01*
X154545124Y-118832807D01*
X154550086Y-118864143D01*
X154553381Y-118884943D01*
X154551555Y-118885232D01*
X154553212Y-118943178D01*
X154517133Y-119003011D01*
X154454433Y-119033841D01*
X154385019Y-119025879D01*
X154376992Y-119022144D01*
X154362645Y-119014834D01*
X154362644Y-119014833D01*
X154268986Y-119000000D01*
X153900000Y-119000000D01*
X153900000Y-119300000D01*
X154626648Y-119300000D01*
X154621139Y-119265213D01*
X154623021Y-119264914D01*
X154621367Y-119207175D01*
X154657443Y-119147340D01*
X154720142Y-119116507D01*
X154789556Y-119124466D01*
X154797583Y-119128200D01*
X154807733Y-119133372D01*
X154812198Y-119135647D01*
X154905975Y-119150499D01*
X154905981Y-119150500D01*
X155387034Y-119150499D01*
X155454073Y-119170183D01*
X155474715Y-119186818D01*
X156160886Y-119872989D01*
X156263613Y-119932299D01*
X156287821Y-119938784D01*
X156287824Y-119938786D01*
X156287825Y-119938786D01*
X156317947Y-119946857D01*
X156378191Y-119963000D01*
X156590962Y-119963000D01*
X156658001Y-119982685D01*
X156690228Y-120012689D01*
X156779952Y-120132544D01*
X156779955Y-120132547D01*
X156895164Y-120218793D01*
X156895171Y-120218797D01*
X157030017Y-120269091D01*
X157030016Y-120269091D01*
X157036944Y-120269835D01*
X157089627Y-120275500D01*
X158085372Y-120275499D01*
X158144983Y-120269091D01*
X158279831Y-120218796D01*
X158395046Y-120132546D01*
X158481296Y-120017331D01*
X158531591Y-119882483D01*
X158538000Y-119822873D01*
X158537999Y-119202128D01*
X158532167Y-119147878D01*
X158531591Y-119142516D01*
X158481297Y-119007671D01*
X158481293Y-119007664D01*
X158395047Y-118892455D01*
X158395044Y-118892452D01*
X158279835Y-118806206D01*
X158279828Y-118806202D01*
X158144982Y-118755908D01*
X158144983Y-118755908D01*
X158085383Y-118749501D01*
X158085381Y-118749500D01*
X158085373Y-118749500D01*
X158085364Y-118749500D01*
X157089629Y-118749500D01*
X157089623Y-118749501D01*
X157030016Y-118755908D01*
X156895171Y-118806202D01*
X156895164Y-118806206D01*
X156779955Y-118892452D01*
X156779952Y-118892455D01*
X156726405Y-118963985D01*
X156670471Y-119005856D01*
X156600780Y-119010840D01*
X156539458Y-118977355D01*
X156534517Y-118972414D01*
X156501032Y-118911091D01*
X156499725Y-118865334D01*
X156499914Y-118864143D01*
X156513000Y-118781519D01*
X156512999Y-118418482D01*
X156512999Y-118418481D01*
X156512999Y-118418477D01*
X156503898Y-118361019D01*
X156498146Y-118324696D01*
X156498145Y-118324694D01*
X156497406Y-118320027D01*
X156505562Y-118256909D01*
X156498592Y-118256411D01*
X156447697Y-118218311D01*
X156447451Y-118218558D01*
X156445737Y-118216844D01*
X156442659Y-118214540D01*
X156441607Y-118213113D01*
X156440547Y-118211654D01*
X156350847Y-118121954D01*
X156350844Y-118121952D01*
X156350842Y-118121950D01*
X156251776Y-118071473D01*
X156237801Y-118064352D01*
X156144024Y-118049500D01*
X154905982Y-118049500D01*
X154812196Y-118064354D01*
X154798224Y-118071473D01*
X154729555Y-118084367D01*
X154664815Y-118058088D01*
X154624560Y-118000981D01*
X154621732Y-117934960D01*
X154621620Y-117934943D01*
X154621707Y-117934389D01*
X154621570Y-117931175D01*
X154623019Y-117926105D01*
X154624988Y-117913671D01*
X154638000Y-117831519D01*
X154637999Y-117468482D01*
X154623146Y-117374696D01*
X154565550Y-117261658D01*
X154565546Y-117261654D01*
X154565545Y-117261652D01*
X154475847Y-117171954D01*
X154475844Y-117171952D01*
X154475842Y-117171950D01*
X154399017Y-117132805D01*
X154362801Y-117114352D01*
X154269024Y-117099500D01*
X153030982Y-117099500D01*
X152950019Y-117112323D01*
X152937196Y-117114354D01*
X152824158Y-117171950D01*
X152824157Y-117171950D01*
X152824153Y-117171953D01*
X152818829Y-117175821D01*
X152753022Y-117199298D01*
X152745948Y-117199500D01*
X151162965Y-117199500D01*
X151095926Y-117179815D01*
X151075284Y-117163181D01*
X150468069Y-116555966D01*
X150434584Y-116494643D01*
X150431750Y-116468285D01*
X150431750Y-113050000D01*
X154975000Y-113050000D01*
X154975000Y-113303463D01*
X154981324Y-113362288D01*
X155030938Y-113495309D01*
X155030940Y-113495312D01*
X155116026Y-113608973D01*
X155229687Y-113694059D01*
X155229690Y-113694061D01*
X155362712Y-113743675D01*
X155362711Y-113743675D01*
X155421536Y-113749999D01*
X155421538Y-113750000D01*
X155462500Y-113750000D01*
X155462500Y-113050000D01*
X154975000Y-113050000D01*
X150431750Y-113050000D01*
X150431750Y-112550000D01*
X154975000Y-112550000D01*
X155462500Y-112550000D01*
X155462500Y-111850000D01*
X155421536Y-111850000D01*
X155362711Y-111856324D01*
X155229690Y-111905938D01*
X155229687Y-111905940D01*
X155116026Y-111991026D01*
X155030940Y-112104687D01*
X155030938Y-112104690D01*
X154981324Y-112237711D01*
X154975000Y-112296536D01*
X154975000Y-112550000D01*
X150431750Y-112550000D01*
X150431750Y-108765689D01*
X150451435Y-108698650D01*
X150504239Y-108652895D01*
X150555750Y-108641689D01*
X151203224Y-108641689D01*
X151270263Y-108661374D01*
X151290905Y-108678008D01*
X151723386Y-109110489D01*
X151826113Y-109169799D01*
X151850321Y-109176284D01*
X151850324Y-109176286D01*
X151850325Y-109176286D01*
X151880447Y-109184357D01*
X151940691Y-109200500D01*
X152745948Y-109200500D01*
X152812987Y-109220185D01*
X152818829Y-109224179D01*
X152824153Y-109228046D01*
X152824155Y-109228047D01*
X152824158Y-109228050D01*
X152937194Y-109285645D01*
X152937198Y-109285647D01*
X153030975Y-109300499D01*
X153030981Y-109300500D01*
X154269018Y-109300499D01*
X154362804Y-109285646D01*
X154376773Y-109278528D01*
X154445438Y-109265632D01*
X154510179Y-109291907D01*
X154550437Y-109349012D01*
X154553268Y-109415039D01*
X154553380Y-109415057D01*
X154553293Y-109415605D01*
X154553431Y-109418818D01*
X154551981Y-109423888D01*
X154537000Y-109518475D01*
X154537000Y-109881517D01*
X154553381Y-109984943D01*
X154551357Y-109985263D01*
X154552990Y-110042516D01*
X154516907Y-110102347D01*
X154454204Y-110133171D01*
X154384790Y-110125203D01*
X154376780Y-110121475D01*
X154362804Y-110114354D01*
X154362803Y-110114353D01*
X154362800Y-110114352D01*
X154362801Y-110114352D01*
X154269024Y-110099500D01*
X153030982Y-110099500D01*
X152937195Y-110114354D01*
X152842095Y-110162810D01*
X152773426Y-110175706D01*
X152738350Y-110166887D01*
X152637713Y-110125203D01*
X152624959Y-110119920D01*
X152553104Y-110110460D01*
X152481251Y-110101000D01*
X152481249Y-110101000D01*
X152337541Y-110119920D01*
X152337537Y-110119921D01*
X152203624Y-110175388D01*
X152196585Y-110179453D01*
X152195394Y-110177391D01*
X152141535Y-110198198D01*
X152073094Y-110184142D01*
X152064792Y-110178805D01*
X152058873Y-110175388D01*
X151924962Y-110119921D01*
X151924960Y-110119920D01*
X151924959Y-110119920D01*
X151853104Y-110110460D01*
X151781251Y-110101000D01*
X151781249Y-110101000D01*
X151637541Y-110119920D01*
X151637537Y-110119921D01*
X151503627Y-110175387D01*
X151388629Y-110263629D01*
X151300387Y-110378627D01*
X151244921Y-110512537D01*
X151244920Y-110512541D01*
X151226000Y-110656249D01*
X151226000Y-110656250D01*
X151244920Y-110799958D01*
X151244921Y-110799962D01*
X151300387Y-110933872D01*
X151300388Y-110933874D01*
X151300389Y-110933875D01*
X151388629Y-111048871D01*
X151503625Y-111137111D01*
X151637541Y-111192580D01*
X151764530Y-111209298D01*
X151781249Y-111211500D01*
X151781250Y-111211500D01*
X151781251Y-111211500D01*
X151796227Y-111209528D01*
X151924959Y-111192580D01*
X152058875Y-111137111D01*
X152058881Y-111137106D01*
X152065914Y-111133047D01*
X152067108Y-111135116D01*
X152120909Y-111114306D01*
X152189357Y-111128332D01*
X152197662Y-111133668D01*
X152203621Y-111137108D01*
X152203625Y-111137111D01*
X152337541Y-111192580D01*
X152464530Y-111209298D01*
X152481249Y-111211500D01*
X152481250Y-111211500D01*
X152481251Y-111211500D01*
X152496227Y-111209528D01*
X152624959Y-111192580D01*
X152751881Y-111140008D01*
X152821350Y-111132539D01*
X152855626Y-111144084D01*
X152937194Y-111185645D01*
X152937196Y-111185646D01*
X152937198Y-111185647D01*
X153030975Y-111200499D01*
X153030981Y-111200500D01*
X154269018Y-111200499D01*
X154362804Y-111185646D01*
X154475842Y-111128050D01*
X154475846Y-111128046D01*
X154481171Y-111124179D01*
X154546978Y-111100702D01*
X154554052Y-111100500D01*
X155299535Y-111100500D01*
X155366574Y-111120185D01*
X155387216Y-111136819D01*
X155943767Y-111693370D01*
X155977252Y-111754693D01*
X155972268Y-111824385D01*
X155962500Y-111839584D01*
X155962500Y-113750000D01*
X156003462Y-113750000D01*
X156003463Y-113749999D01*
X156062285Y-113743675D01*
X156069663Y-113740924D01*
X156139355Y-113735938D01*
X156200679Y-113769421D01*
X156234165Y-113830744D01*
X156237000Y-113857105D01*
X156237000Y-113962034D01*
X156217315Y-114029073D01*
X156200681Y-114049715D01*
X155837214Y-114413181D01*
X155775891Y-114446666D01*
X155749533Y-114449500D01*
X155421483Y-114449500D01*
X155421473Y-114449501D01*
X155362608Y-114455828D01*
X155229445Y-114505497D01*
X155115669Y-114590669D01*
X155030498Y-114704443D01*
X154980828Y-114837612D01*
X154974500Y-114896462D01*
X154974500Y-115903517D01*
X154974501Y-115903526D01*
X154980828Y-115962391D01*
X155030497Y-116095554D01*
X155115669Y-116209331D01*
X155229446Y-116294503D01*
X155362609Y-116344171D01*
X155421479Y-116350500D01*
X156003520Y-116350499D01*
X156062391Y-116344171D01*
X156195554Y-116294503D01*
X156309331Y-116209331D01*
X156394503Y-116095554D01*
X156444171Y-115962391D01*
X156446536Y-115940383D01*
X156450499Y-115903537D01*
X156450499Y-115903526D01*
X156450500Y-115903521D01*
X156450499Y-115125463D01*
X156470183Y-115058425D01*
X156486809Y-115037792D01*
X156637821Y-114886780D01*
X156699142Y-114853298D01*
X156768834Y-114858282D01*
X156824767Y-114900154D01*
X156849184Y-114965618D01*
X156849500Y-114974464D01*
X156849500Y-115903517D01*
X156849501Y-115903526D01*
X156855828Y-115962391D01*
X156905497Y-116095554D01*
X156990669Y-116209331D01*
X157051614Y-116254954D01*
X157087310Y-116281675D01*
X157129182Y-116337608D01*
X157137000Y-116380942D01*
X157137000Y-116808023D01*
X157117315Y-116875062D01*
X157064511Y-116920817D01*
X157037365Y-116928266D01*
X157037568Y-116929124D01*
X157030020Y-116930907D01*
X156895171Y-116981202D01*
X156895164Y-116981206D01*
X156779955Y-117067452D01*
X156779952Y-117067455D01*
X156693706Y-117182664D01*
X156693702Y-117182671D01*
X156643410Y-117317513D01*
X156643409Y-117317517D01*
X156637000Y-117377127D01*
X156637000Y-117377134D01*
X156637000Y-117377135D01*
X156637000Y-117997870D01*
X156637001Y-117997876D01*
X156643409Y-118057484D01*
X156658109Y-118096898D01*
X156663093Y-118166589D01*
X156652395Y-118186179D01*
X156685422Y-118195367D01*
X156719145Y-118226317D01*
X156779955Y-118307547D01*
X156895164Y-118393793D01*
X156895171Y-118393797D01*
X157030017Y-118444091D01*
X157030016Y-118444091D01*
X157036944Y-118444835D01*
X157089627Y-118450500D01*
X158085372Y-118450499D01*
X158144983Y-118444091D01*
X158279831Y-118393796D01*
X158395046Y-118307546D01*
X158481296Y-118192331D01*
X158531591Y-118057483D01*
X158538000Y-117997873D01*
X158537999Y-117377128D01*
X158531591Y-117317517D01*
X158522108Y-117292093D01*
X158481297Y-117182671D01*
X158481293Y-117182664D01*
X158395047Y-117067455D01*
X158395044Y-117067452D01*
X158279835Y-116981206D01*
X158279828Y-116981202D01*
X158144982Y-116930908D01*
X158137438Y-116929126D01*
X158137974Y-116926853D01*
X158084188Y-116904571D01*
X158044343Y-116847177D01*
X158038000Y-116808024D01*
X158038000Y-116380942D01*
X158057685Y-116313903D01*
X158087690Y-116281675D01*
X158123384Y-116254955D01*
X158184331Y-116209331D01*
X158269503Y-116095554D01*
X158319171Y-115962391D01*
X158321536Y-115940383D01*
X158325499Y-115903537D01*
X158325499Y-115903526D01*
X158325500Y-115903521D01*
X158325499Y-114896480D01*
X158319171Y-114837609D01*
X158269503Y-114704446D01*
X158184331Y-114590669D01*
X158103304Y-114530013D01*
X158070556Y-114505498D01*
X158070554Y-114505497D01*
X157937391Y-114455829D01*
X157937389Y-114455828D01*
X157937387Y-114455828D01*
X157878529Y-114449500D01*
X157296482Y-114449500D01*
X157296471Y-114449501D01*
X157260666Y-114453350D01*
X157191907Y-114440942D01*
X157140771Y-114393330D01*
X157123494Y-114325630D01*
X157127639Y-114297973D01*
X157138000Y-114259309D01*
X157138000Y-113871507D01*
X157157685Y-113804468D01*
X157210489Y-113758713D01*
X157275257Y-113748218D01*
X157296479Y-113750500D01*
X157878520Y-113750499D01*
X157937391Y-113744171D01*
X158070554Y-113694503D01*
X158184331Y-113609331D01*
X158269503Y-113495554D01*
X158319171Y-113362391D01*
X158325106Y-113307190D01*
X158325499Y-113303537D01*
X158325499Y-113303530D01*
X158325500Y-113303521D01*
X158325499Y-112296480D01*
X158319171Y-112237609D01*
X158269503Y-112104446D01*
X158184331Y-111990669D01*
X158087689Y-111918324D01*
X158045818Y-111862390D01*
X158038000Y-111819057D01*
X158038000Y-111491976D01*
X158057685Y-111424937D01*
X158110489Y-111379182D01*
X158137635Y-111371736D01*
X158137432Y-111370876D01*
X158144979Y-111369092D01*
X158144981Y-111369091D01*
X158144983Y-111369091D01*
X158279831Y-111318796D01*
X158395046Y-111232546D01*
X158481296Y-111117331D01*
X158531591Y-110982483D01*
X158538000Y-110922873D01*
X158537999Y-110302128D01*
X158531591Y-110242517D01*
X158529028Y-110235646D01*
X158481297Y-110107671D01*
X158481293Y-110107664D01*
X158395047Y-109992455D01*
X158395044Y-109992452D01*
X158279835Y-109906206D01*
X158279828Y-109906202D01*
X158144982Y-109855908D01*
X158144983Y-109855908D01*
X158085383Y-109849501D01*
X158085381Y-109849500D01*
X158085373Y-109849500D01*
X158085364Y-109849500D01*
X157089629Y-109849500D01*
X157089623Y-109849501D01*
X157030016Y-109855908D01*
X156895171Y-109906202D01*
X156895164Y-109906206D01*
X156779955Y-109992452D01*
X156719146Y-110073682D01*
X156663212Y-110115552D01*
X156653969Y-110116212D01*
X156662702Y-110131674D01*
X156658719Y-110201430D01*
X156658109Y-110203101D01*
X156643410Y-110242511D01*
X156643409Y-110242515D01*
X156643409Y-110242517D01*
X156637000Y-110302127D01*
X156637000Y-110302134D01*
X156637000Y-110302135D01*
X156637000Y-110813035D01*
X156617315Y-110880074D01*
X156564511Y-110925829D01*
X156495353Y-110935773D01*
X156431797Y-110906748D01*
X156425319Y-110900716D01*
X155986783Y-110462180D01*
X155953298Y-110400857D01*
X155958282Y-110331165D01*
X156000154Y-110275232D01*
X156065618Y-110250815D01*
X156074464Y-110250499D01*
X156144017Y-110250499D01*
X156144018Y-110250499D01*
X156237804Y-110235646D01*
X156350842Y-110178050D01*
X156440550Y-110088342D01*
X156440554Y-110088333D01*
X156441603Y-110086891D01*
X156443347Y-110085545D01*
X156447451Y-110081442D01*
X156447981Y-110081972D01*
X156496930Y-110044221D01*
X156508278Y-110043245D01*
X156498713Y-110025726D01*
X156497407Y-109979972D01*
X156509091Y-109906202D01*
X156513000Y-109881519D01*
X156512999Y-109518482D01*
X156512999Y-109518481D01*
X156512999Y-109518476D01*
X156499725Y-109434664D01*
X156508680Y-109365371D01*
X156534517Y-109327586D01*
X156539458Y-109322645D01*
X156600781Y-109289160D01*
X156670473Y-109294144D01*
X156726405Y-109336015D01*
X156779952Y-109407544D01*
X156779955Y-109407547D01*
X156895164Y-109493793D01*
X156895171Y-109493797D01*
X157030017Y-109544091D01*
X157030016Y-109544091D01*
X157036944Y-109544835D01*
X157089627Y-109550500D01*
X158085372Y-109550499D01*
X158144983Y-109544091D01*
X158279831Y-109493796D01*
X158395046Y-109407546D01*
X158481296Y-109292331D01*
X158531591Y-109157483D01*
X158538000Y-109097873D01*
X158537999Y-108477128D01*
X158531591Y-108417517D01*
X158513010Y-108367700D01*
X158481297Y-108282671D01*
X158481293Y-108282664D01*
X158395047Y-108167455D01*
X158395044Y-108167452D01*
X158279835Y-108081206D01*
X158279828Y-108081202D01*
X158144982Y-108030908D01*
X158144983Y-108030908D01*
X158085383Y-108024501D01*
X158085381Y-108024500D01*
X158085373Y-108024500D01*
X158085364Y-108024500D01*
X157089629Y-108024500D01*
X157089623Y-108024501D01*
X157030016Y-108030908D01*
X156895171Y-108081202D01*
X156895164Y-108081206D01*
X156779955Y-108167452D01*
X156779952Y-108167455D01*
X156690228Y-108287311D01*
X156634294Y-108329182D01*
X156590962Y-108337000D01*
X156378191Y-108337000D01*
X156287825Y-108361213D01*
X156287824Y-108361212D01*
X156263616Y-108367699D01*
X156263613Y-108367700D01*
X156160886Y-108427011D01*
X156160883Y-108427013D01*
X155474714Y-109113181D01*
X155413391Y-109146666D01*
X155387033Y-109149500D01*
X154905982Y-109149500D01*
X154812196Y-109164354D01*
X154798224Y-109171473D01*
X154729555Y-109184367D01*
X154664815Y-109158088D01*
X154624560Y-109100981D01*
X154621732Y-109034960D01*
X154621620Y-109034943D01*
X154621707Y-109034389D01*
X154621570Y-109031175D01*
X154623019Y-109026105D01*
X154627354Y-108998735D01*
X154638000Y-108931519D01*
X154637999Y-108568482D01*
X154623146Y-108474696D01*
X154565550Y-108361658D01*
X154565546Y-108361654D01*
X154565545Y-108361652D01*
X154475847Y-108271954D01*
X154475844Y-108271952D01*
X154475842Y-108271950D01*
X154399017Y-108232805D01*
X154362801Y-108214352D01*
X154269024Y-108199500D01*
X153030982Y-108199500D01*
X152950019Y-108212323D01*
X152937196Y-108214354D01*
X152824158Y-108271950D01*
X152824157Y-108271950D01*
X152824153Y-108271953D01*
X152818829Y-108275821D01*
X152753022Y-108299298D01*
X152745948Y-108299500D01*
X152237965Y-108299500D01*
X152170926Y-108279815D01*
X152150284Y-108263181D01*
X151717805Y-107830702D01*
X151717803Y-107830700D01*
X151676111Y-107806629D01*
X151615074Y-107771388D01*
X151579778Y-107761932D01*
X151540137Y-107751310D01*
X151500498Y-107740689D01*
X151500497Y-107740689D01*
X144100788Y-107740689D01*
X144033749Y-107721004D01*
X143987994Y-107668200D01*
X143980544Y-107641054D01*
X143979687Y-107641257D01*
X143977903Y-107633709D01*
X143927608Y-107498860D01*
X143927604Y-107498853D01*
X143841358Y-107383644D01*
X143841355Y-107383641D01*
X143726146Y-107297395D01*
X143726139Y-107297391D01*
X143591297Y-107247099D01*
X143591296Y-107247098D01*
X143591294Y-107247098D01*
X143531684Y-107240689D01*
X143531674Y-107240689D01*
X142910940Y-107240689D01*
X142910934Y-107240690D01*
X142851327Y-107247097D01*
X142716482Y-107297391D01*
X142716475Y-107297395D01*
X142601266Y-107383641D01*
X142601263Y-107383644D01*
X142515017Y-107498853D01*
X142515013Y-107498860D01*
X142464719Y-107633706D01*
X142461011Y-107668200D01*
X142458312Y-107693312D01*
X142458311Y-107693324D01*
X142458311Y-108689059D01*
X142159311Y-108689059D01*
X142159310Y-107693317D01*
X142152902Y-107633706D01*
X142149281Y-107623998D01*
X142102608Y-107498860D01*
X142102604Y-107498853D01*
X142016358Y-107383644D01*
X142016355Y-107383641D01*
X141901146Y-107297395D01*
X141901139Y-107297391D01*
X141766297Y-107247099D01*
X141766296Y-107247098D01*
X141766294Y-107247098D01*
X141706684Y-107240689D01*
X141706674Y-107240689D01*
X141085940Y-107240689D01*
X141085934Y-107240690D01*
X141026327Y-107247097D01*
X140891482Y-107297391D01*
X140891479Y-107297393D01*
X140874969Y-107309753D01*
X140809504Y-107334170D01*
X140743183Y-107320361D01*
X140655578Y-107274535D01*
X140655577Y-107274534D01*
X140655576Y-107274534D01*
X140655576Y-107274533D01*
X140588544Y-107254851D01*
X140588532Y-107254848D01*
X140516555Y-107244500D01*
X140516554Y-107244500D01*
X138374000Y-107244500D01*
X138373997Y-107244500D01*
X138319687Y-107250338D01*
X138268181Y-107261543D01*
X138268172Y-107261546D01*
X138241807Y-107268779D01*
X138241796Y-107268783D01*
X138155181Y-107318105D01*
X138155173Y-107318111D01*
X138102371Y-107363863D01*
X138070743Y-107396640D01*
X138024534Y-107484977D01*
X138024533Y-107484977D01*
X138004851Y-107552009D01*
X138004848Y-107552021D01*
X137994500Y-107623998D01*
X137994500Y-109933779D01*
X129650000Y-109933779D01*
X129650000Y-103124000D01*
X129669685Y-103056961D01*
X129722489Y-103011206D01*
X129774000Y-103000000D01*
X161376000Y-103000000D01*
X161443039Y-103019685D01*
G37*
%TD.AperFunction*%
%TD*%
%TA.AperFunction,Conductor*%
%TO.N,+9V*%
G36*
X147843039Y-118219685D02*
G01*
X147888794Y-118272489D01*
X147900000Y-118324000D01*
X147900000Y-121476000D01*
X147880315Y-121543039D01*
X147827511Y-121588794D01*
X147776000Y-121600000D01*
X144224000Y-121600000D01*
X144156961Y-121580315D01*
X144111206Y-121527511D01*
X144100000Y-121476000D01*
X144100000Y-118324000D01*
X144119685Y-118256961D01*
X144172489Y-118211206D01*
X144224000Y-118200000D01*
X147776000Y-118200000D01*
X147843039Y-118219685D01*
G37*
%TD.AperFunction*%
%TD*%
%TA.AperFunction,Conductor*%
%TO.N,BATTERY-*%
G36*
X122461169Y-121369685D02*
G01*
X122506924Y-121422489D01*
X122516597Y-121454561D01*
X122998467Y-124490342D01*
X123000000Y-124509781D01*
X123000000Y-128376000D01*
X122980315Y-128443039D01*
X122927511Y-128488794D01*
X122876000Y-128500000D01*
X119124000Y-128500000D01*
X119056961Y-128480315D01*
X119011206Y-128427511D01*
X119000000Y-128376000D01*
X119000000Y-124509781D01*
X119001533Y-124490342D01*
X119483403Y-121454561D01*
X119513354Y-121391436D01*
X119572678Y-121354525D01*
X119605870Y-121350000D01*
X122394130Y-121350000D01*
X122461169Y-121369685D01*
G37*
%TD.AperFunction*%
%TD*%
%TA.AperFunction,Conductor*%
%TO.N,BATTERY+*%
G36*
X117543039Y-109832930D02*
G01*
X117588794Y-109885734D01*
X117600000Y-109937245D01*
X117600000Y-128389245D01*
X117580315Y-128456284D01*
X117527511Y-128502039D01*
X117476000Y-128513245D01*
X113724000Y-128513245D01*
X113656961Y-128493560D01*
X113611206Y-128440756D01*
X113600000Y-128389245D01*
X113600000Y-109937245D01*
X113619685Y-109870206D01*
X113672489Y-109824451D01*
X113724000Y-109813245D01*
X117476000Y-109813245D01*
X117543039Y-109832930D01*
G37*
%TD.AperFunction*%
%TD*%
%TA.AperFunction,Conductor*%
%TO.N,Net-(J3-Pin_1)*%
G36*
X123008411Y-109882930D02*
G01*
X123054166Y-109935734D01*
X123064294Y-109970928D01*
X123798922Y-115505124D01*
X123800000Y-115521441D01*
X123800000Y-116510829D01*
X123799906Y-116515657D01*
X123654643Y-120244073D01*
X123632363Y-120310295D01*
X123577818Y-120353959D01*
X123530737Y-120363245D01*
X119713160Y-120363245D01*
X119646121Y-120343560D01*
X119600366Y-120290756D01*
X119589677Y-120250556D01*
X119000517Y-113818888D01*
X119000000Y-113807577D01*
X119000000Y-109987245D01*
X119019685Y-109920206D01*
X119072489Y-109874451D01*
X119124000Y-109863245D01*
X122941372Y-109863245D01*
X123008411Y-109882930D01*
G37*
%TD.AperFunction*%
%TD*%
M02*
