%TF.GenerationSoftware,KiCad,Pcbnew,8.0.0*%
%TF.CreationDate,2024-11-10T13:42:00+01:00*%
%TF.ProjectId,polarizing_coil_driver,706f6c61-7269-47a6-996e-675f636f696c,rev?*%
%TF.SameCoordinates,Original*%
%TF.FileFunction,Soldermask,Top*%
%TF.FilePolarity,Negative*%
%FSLAX46Y46*%
G04 Gerber Fmt 4.6, Leading zero omitted, Abs format (unit mm)*
G04 Created by KiCad (PCBNEW 8.0.0) date 2024-11-10 13:42:00*
%MOMM*%
%LPD*%
G01*
G04 APERTURE LIST*
G04 Aperture macros list*
%AMRoundRect*
0 Rectangle with rounded corners*
0 $1 Rounding radius*
0 $2 $3 $4 $5 $6 $7 $8 $9 X,Y pos of 4 corners*
0 Add a 4 corners polygon primitive as box body*
4,1,4,$2,$3,$4,$5,$6,$7,$8,$9,$2,$3,0*
0 Add four circle primitives for the rounded corners*
1,1,$1+$1,$2,$3*
1,1,$1+$1,$4,$5*
1,1,$1+$1,$6,$7*
1,1,$1+$1,$8,$9*
0 Add four rect primitives between the rounded corners*
20,1,$1+$1,$2,$3,$4,$5,0*
20,1,$1+$1,$4,$5,$6,$7,0*
20,1,$1+$1,$6,$7,$8,$9,0*
20,1,$1+$1,$8,$9,$2,$3,0*%
%AMFreePoly0*
4,1,9,3.862500,-0.866500,0.737500,-0.866500,0.737500,-0.450000,-0.737500,-0.450000,-0.737500,0.450000,0.737500,0.450000,0.737500,0.866500,3.862500,0.866500,3.862500,-0.866500,3.862500,-0.866500,$1*%
G04 Aperture macros list end*
%ADD10C,0.000000*%
%ADD11C,2.700000*%
%ADD12C,1.700000*%
%ADD13O,1.700000X1.700000*%
%ADD14RoundRect,0.150000X-0.587500X-0.150000X0.587500X-0.150000X0.587500X0.150000X-0.587500X0.150000X0*%
%ADD15RoundRect,0.360000X0.360000X0.440000X-0.360000X0.440000X-0.360000X-0.440000X0.360000X-0.440000X0*%
%ADD16R,4.960000X3.800000*%
%ADD17R,1.500000X1.780000*%
%ADD18RoundRect,0.250000X-0.450000X0.262500X-0.450000X-0.262500X0.450000X-0.262500X0.450000X0.262500X0*%
%ADD19R,4.000000X4.000000*%
%ADD20RoundRect,0.150000X0.150000X-0.512500X0.150000X0.512500X-0.150000X0.512500X-0.150000X-0.512500X0*%
%ADD21RoundRect,0.250000X0.450000X-0.262500X0.450000X0.262500X-0.450000X0.262500X-0.450000X-0.262500X0*%
%ADD22RoundRect,0.150000X-0.150000X0.587500X-0.150000X-0.587500X0.150000X-0.587500X0.150000X0.587500X0*%
%ADD23R,1.700000X1.700000*%
%ADD24RoundRect,0.250000X0.650000X-0.325000X0.650000X0.325000X-0.650000X0.325000X-0.650000X-0.325000X0*%
%ADD25RoundRect,0.243750X0.243750X0.456250X-0.243750X0.456250X-0.243750X-0.456250X0.243750X-0.456250X0*%
%ADD26RoundRect,0.250000X-0.262500X-0.450000X0.262500X-0.450000X0.262500X0.450000X-0.262500X0.450000X0*%
%ADD27RoundRect,0.250000X0.475000X-0.250000X0.475000X0.250000X-0.475000X0.250000X-0.475000X-0.250000X0*%
%ADD28RoundRect,0.250000X-0.475000X0.250000X-0.475000X-0.250000X0.475000X-0.250000X0.475000X0.250000X0*%
%ADD29RoundRect,0.243750X-0.243750X-0.456250X0.243750X-0.456250X0.243750X0.456250X-0.243750X0.456250X0*%
%ADD30R,0.457200X1.016000*%
%ADD31R,3.988000X3.835000*%
%ADD32RoundRect,0.225000X-0.225000X0.425000X-0.225000X-0.425000X0.225000X-0.425000X0.225000X0.425000X0*%
%ADD33FreePoly0,270.000000*%
G04 APERTURE END LIST*
D10*
%TO.C,Q4*%
G36*
X123628900Y-120355433D02*
G01*
X119641100Y-120355433D01*
X119641100Y-116520033D01*
X123628900Y-116520033D01*
X123628900Y-120355433D01*
G37*
%TD*%
D11*
%TO.C,H3*%
X126500000Y-103500000D03*
%TD*%
D12*
%TO.C,J4*%
X105400000Y-111813245D03*
D13*
X105400000Y-114353245D03*
X105400000Y-116893245D03*
X105400000Y-119433245D03*
X105400000Y-121973245D03*
X105400000Y-124513245D03*
%TD*%
D14*
%TO.C,Q3*%
X153650000Y-117650000D03*
X153650000Y-119550000D03*
X155525000Y-118600000D03*
%TD*%
D15*
%TO.C,D3*%
X106000000Y-128270000D03*
X106000000Y-130400000D03*
D16*
X109800000Y-129335000D03*
%TD*%
D11*
%TO.C,H2*%
X103500000Y-136500000D03*
%TD*%
D17*
%TO.C,U3*%
X137865000Y-128770000D03*
X137865000Y-126230000D03*
X128335000Y-126230000D03*
X128335000Y-128770000D03*
%TD*%
D11*
%TO.C,H4*%
X164500000Y-136500000D03*
%TD*%
D18*
%TO.C,R8*%
X157587500Y-117687500D03*
X157587500Y-119512500D03*
%TD*%
D11*
%TO.C,H1*%
X103500000Y-103500000D03*
%TD*%
D18*
%TO.C,R6*%
X125500000Y-123487500D03*
X125500000Y-125312500D03*
%TD*%
D12*
%TO.C,J3*%
X108000000Y-111813245D03*
D13*
X108000000Y-114353245D03*
X108000000Y-116893245D03*
X108000000Y-119433245D03*
X108000000Y-121973245D03*
X108000000Y-124513245D03*
%TD*%
D11*
%TO.C,H5*%
X126500000Y-136500000D03*
%TD*%
D19*
%TO.C,TP4*%
X121000000Y-111813245D03*
%TD*%
D11*
%TO.C,H8*%
X164500000Y-103500000D03*
%TD*%
D20*
%TO.C,U2*%
X141356606Y-112887500D03*
X142306606Y-112887500D03*
X143256606Y-112887500D03*
X143256606Y-110612500D03*
X141356606Y-110612500D03*
%TD*%
D19*
%TO.C,TP1*%
X115600000Y-126500000D03*
%TD*%
D21*
%TO.C,R2*%
X134818750Y-114900000D03*
X134818750Y-113075000D03*
%TD*%
D22*
%TO.C,Q2*%
X132350000Y-121362500D03*
X130450000Y-121362500D03*
X131400000Y-123237500D03*
%TD*%
D14*
%TO.C,Q1*%
X153650000Y-108750000D03*
X153650000Y-110650000D03*
X155525000Y-109700000D03*
%TD*%
D21*
%TO.C,R1*%
X134818750Y-118700000D03*
X134818750Y-116875000D03*
%TD*%
D23*
%TO.C,J1*%
X145760000Y-132700000D03*
D13*
X148300000Y-132700000D03*
%TD*%
D24*
%TO.C,C1*%
X137418750Y-118700000D03*
X137418750Y-115750000D03*
%TD*%
%TO.C,C4*%
X125500000Y-132100000D03*
X125500000Y-129150000D03*
%TD*%
D11*
%TO.C,H7*%
X110000000Y-136500000D03*
%TD*%
D25*
%TO.C,D2*%
X157587500Y-115400000D03*
X155712500Y-115400000D03*
%TD*%
D18*
%TO.C,R7*%
X157587500Y-108787500D03*
X157587500Y-110612500D03*
%TD*%
D21*
%TO.C,R4*%
X147218750Y-114928437D03*
X147218750Y-113103437D03*
%TD*%
D26*
%TO.C,R9*%
X140487500Y-126230000D03*
X142312500Y-126230000D03*
%TD*%
D27*
%TO.C,C2*%
X145018750Y-118700000D03*
X145018750Y-116800000D03*
%TD*%
D19*
%TO.C,TP2*%
X121000000Y-126500000D03*
%TD*%
D12*
%TO.C,J2*%
X110600000Y-111813245D03*
D13*
X110600000Y-114353245D03*
X110600000Y-116893245D03*
X110600000Y-119433245D03*
X110600000Y-121973245D03*
X110600000Y-124513245D03*
%TD*%
D28*
%TO.C,C3*%
X138975852Y-110800000D03*
X138975852Y-112700000D03*
%TD*%
D29*
%TO.C,D1*%
X155712500Y-112800000D03*
X157587500Y-112800000D03*
%TD*%
D19*
%TO.C,TP3*%
X115610000Y-111813245D03*
%TD*%
D21*
%TO.C,R3*%
X147218750Y-118700000D03*
X147218750Y-116875000D03*
%TD*%
D11*
%TO.C,H6*%
X110000000Y-103500000D03*
%TD*%
D26*
%TO.C,R5*%
X141396311Y-108191189D03*
X143221311Y-108191189D03*
%TD*%
D30*
%TO.C,Q4*%
X119730000Y-121856845D03*
X121000000Y-121856845D03*
X122270000Y-121856845D03*
X123540000Y-121856845D03*
D31*
X121635000Y-118435045D03*
D30*
X123540000Y-116013245D03*
X122270000Y-116013245D03*
X121000000Y-116013245D03*
X119730000Y-116013245D03*
%TD*%
D32*
%TO.C,U4*%
X142781250Y-118700000D03*
D33*
X141281250Y-118787500D03*
D32*
X139781250Y-118700000D03*
%TD*%
M02*
