%TF.GenerationSoftware,KiCad,Pcbnew,8.0.0*%
%TF.CreationDate,2024-11-10T13:42:00+01:00*%
%TF.ProjectId,polarizing_coil_driver,706f6c61-7269-47a6-996e-675f636f696c,rev?*%
%TF.SameCoordinates,Original*%
%TF.FileFunction,Copper,L2,Bot*%
%TF.FilePolarity,Positive*%
%FSLAX46Y46*%
G04 Gerber Fmt 4.6, Leading zero omitted, Abs format (unit mm)*
G04 Created by KiCad (PCBNEW 8.0.0) date 2024-11-10 13:42:00*
%MOMM*%
%LPD*%
G01*
G04 APERTURE LIST*
%TA.AperFunction,ComponentPad*%
%ADD10C,1.700000*%
%TD*%
%TA.AperFunction,ComponentPad*%
%ADD11O,1.700000X1.700000*%
%TD*%
%TA.AperFunction,ComponentPad*%
%ADD12R,1.700000X1.700000*%
%TD*%
%TA.AperFunction,ViaPad*%
%ADD13C,0.600000*%
%TD*%
%TA.AperFunction,Conductor*%
%ADD14C,1.500000*%
%TD*%
%TA.AperFunction,Conductor*%
%ADD15C,0.400000*%
%TD*%
G04 APERTURE END LIST*
D10*
%TO.P,J4,1,Pin_1*%
%TO.N,Net-(J4-Pin_1)*%
X105400000Y-111813245D03*
D11*
%TO.P,J4,2,Pin_2*%
X105400000Y-114353245D03*
%TO.P,J4,3,Pin_3*%
X105400000Y-116893245D03*
%TO.P,J4,4,Pin_4*%
X105400000Y-119433245D03*
%TO.P,J4,5,Pin_5*%
X105400000Y-121973245D03*
%TO.P,J4,6,Pin_6*%
X105400000Y-124513245D03*
%TD*%
D10*
%TO.P,J3,1,Pin_1*%
%TO.N,Net-(J3-Pin_1)*%
X108000000Y-111813245D03*
D11*
%TO.P,J3,2,Pin_2*%
X108000000Y-114353245D03*
%TO.P,J3,3,Pin_3*%
X108000000Y-116893245D03*
%TO.P,J3,4,Pin_4*%
X108000000Y-119433245D03*
%TO.P,J3,5,Pin_5*%
X108000000Y-121973245D03*
%TO.P,J3,6,Pin_6*%
X108000000Y-124513245D03*
%TD*%
D12*
%TO.P,J1,1,Pin_1*%
%TO.N,Net-(J1-Pin_1)*%
X145760000Y-132700000D03*
D11*
%TO.P,J1,2,Pin_2*%
%TO.N,Net-(J1-Pin_2)*%
X148300000Y-132700000D03*
%TD*%
D10*
%TO.P,J2,1,Pin_1*%
%TO.N,BATTERY+*%
X110600000Y-111813245D03*
D11*
%TO.P,J2,2,Pin_2*%
X110600000Y-114353245D03*
%TO.P,J2,3,Pin_3*%
X110600000Y-116893245D03*
%TO.P,J2,4,Pin_4*%
X110600000Y-119433245D03*
%TO.P,J2,5,Pin_5*%
X110600000Y-121973245D03*
%TO.P,J2,6,Pin_6*%
X110600000Y-124513245D03*
%TD*%
D13*
%TO.N,BATTERY+*%
X116300000Y-118000000D03*
X114800000Y-115000000D03*
X116300000Y-121000000D03*
X116300000Y-125500000D03*
X116300000Y-116500000D03*
X116300000Y-119500000D03*
X114800000Y-112700000D03*
X114800000Y-121000000D03*
X114800000Y-116500000D03*
X114800000Y-119500000D03*
X114800000Y-127000000D03*
X116300000Y-127000000D03*
X116300000Y-111200000D03*
X114800000Y-111200000D03*
X114800000Y-122500000D03*
X114800000Y-118000000D03*
X116300000Y-115000000D03*
X116300000Y-122500000D03*
X116300000Y-112700000D03*
X114800000Y-125500000D03*
%TO.N,BATTERY-*%
X120200000Y-125500000D03*
X121700000Y-127000000D03*
X120400000Y-123300000D03*
X121700000Y-125500000D03*
X120200000Y-127000000D03*
X121700000Y-123300000D03*
%TO.N,+9V*%
X144800000Y-120000000D03*
X151781250Y-110656250D03*
X138900000Y-108150000D03*
X144800000Y-121100000D03*
X147200000Y-121100000D03*
X138900000Y-109250000D03*
X146000000Y-121100000D03*
X146000000Y-120000000D03*
X139950000Y-108150000D03*
X147200000Y-120000000D03*
X130450000Y-119150000D03*
X130450000Y-118450000D03*
X152481250Y-110656250D03*
X139950000Y-109250000D03*
X130450000Y-119850000D03*
%TO.N,V_DISABLE*%
X143250000Y-109400000D03*
X132350000Y-119850000D03*
X144200000Y-109400000D03*
%TO.N,Net-(J3-Pin_1)*%
X121000000Y-118500000D03*
X120200000Y-111113245D03*
X120500000Y-114713245D03*
X121800000Y-111113245D03*
X122500000Y-118500000D03*
X121000000Y-117000000D03*
X121800000Y-112613245D03*
X120200000Y-112613245D03*
X122500000Y-117000000D03*
X122000000Y-114713245D03*
%TD*%
D14*
%TO.N,BATTERY+*%
X110600000Y-114353245D02*
X110600000Y-111813245D01*
X110600000Y-116893245D02*
X110600000Y-114353245D01*
X110600000Y-124513245D02*
X110600000Y-121973245D01*
X110600000Y-119433245D02*
X110600000Y-116893245D01*
X110600000Y-121973245D02*
X110600000Y-119433245D01*
D15*
%TO.N,V_DISABLE*%
X135600000Y-119850000D02*
X132350000Y-119850000D01*
X143250000Y-109400000D02*
X138550000Y-114100000D01*
X138550000Y-114100000D02*
X138550000Y-116900000D01*
X143250000Y-109400000D02*
X144200000Y-109400000D01*
X138550000Y-116900000D02*
X135600000Y-119850000D01*
D14*
%TO.N,Net-(J3-Pin_1)*%
X108000000Y-116893245D02*
X108000000Y-114353245D01*
X108000000Y-119433245D02*
X108000000Y-116893245D01*
X108000000Y-124513245D02*
X108000000Y-121973245D01*
X108000000Y-121973245D02*
X108000000Y-119433245D01*
X108000000Y-114353245D02*
X108000000Y-111813245D01*
%TO.N,Net-(J4-Pin_1)*%
X105400000Y-119433245D02*
X105400000Y-116893245D01*
X105400000Y-121973245D02*
X105400000Y-119433245D01*
X105400000Y-114353245D02*
X105400000Y-111813245D01*
X105400000Y-116893245D02*
X105400000Y-114353245D01*
X105400000Y-124513245D02*
X105400000Y-121973245D01*
%TD*%
%TA.AperFunction,Conductor*%
%TO.N,BATTERY-*%
G36*
X122461169Y-121369685D02*
G01*
X122506924Y-121422489D01*
X122516597Y-121454561D01*
X122998467Y-124490342D01*
X123000000Y-124509781D01*
X123000000Y-128376000D01*
X122980315Y-128443039D01*
X122927511Y-128488794D01*
X122876000Y-128500000D01*
X119124000Y-128500000D01*
X119056961Y-128480315D01*
X119011206Y-128427511D01*
X119000000Y-128376000D01*
X119000000Y-124509781D01*
X119001533Y-124490342D01*
X119483403Y-121454561D01*
X119513354Y-121391436D01*
X119572678Y-121354525D01*
X119605870Y-121350000D01*
X122394130Y-121350000D01*
X122461169Y-121369685D01*
G37*
%TD.AperFunction*%
%TD*%
%TA.AperFunction,Conductor*%
%TO.N,BATTERY+*%
G36*
X117543039Y-109832930D02*
G01*
X117588794Y-109885734D01*
X117600000Y-109937245D01*
X117600000Y-128389245D01*
X117580315Y-128456284D01*
X117527511Y-128502039D01*
X117476000Y-128513245D01*
X113724000Y-128513245D01*
X113656961Y-128493560D01*
X113611206Y-128440756D01*
X113600000Y-128389245D01*
X113600000Y-109937245D01*
X113619685Y-109870206D01*
X113672489Y-109824451D01*
X113724000Y-109813245D01*
X117476000Y-109813245D01*
X117543039Y-109832930D01*
G37*
%TD.AperFunction*%
%TD*%
%TA.AperFunction,Conductor*%
%TO.N,Net-(J3-Pin_1)*%
G36*
X123008411Y-109882930D02*
G01*
X123054166Y-109935734D01*
X123064294Y-109970928D01*
X123798922Y-115505124D01*
X123800000Y-115521441D01*
X123800000Y-116510829D01*
X123799906Y-116515657D01*
X123654643Y-120244073D01*
X123632363Y-120310295D01*
X123577818Y-120353959D01*
X123530737Y-120363245D01*
X119713160Y-120363245D01*
X119646121Y-120343560D01*
X119600366Y-120290756D01*
X119589677Y-120250556D01*
X119000517Y-113818888D01*
X119000000Y-113807577D01*
X119000000Y-109987245D01*
X119019685Y-109920206D01*
X119072489Y-109874451D01*
X119124000Y-109863245D01*
X122941372Y-109863245D01*
X123008411Y-109882930D01*
G37*
%TD.AperFunction*%
%TD*%
%TA.AperFunction,Conductor*%
%TO.N,+9V*%
G36*
X161443039Y-103019685D02*
G01*
X161488794Y-103072489D01*
X161500000Y-103124000D01*
X161500000Y-122876000D01*
X161480315Y-122943039D01*
X161427511Y-122988794D01*
X161376000Y-123000000D01*
X129774000Y-123000000D01*
X129706961Y-122980315D01*
X129661206Y-122927511D01*
X129650000Y-122876000D01*
X129650000Y-119850000D01*
X131794750Y-119850000D01*
X131813670Y-119993708D01*
X131813671Y-119993712D01*
X131869137Y-120127622D01*
X131869138Y-120127624D01*
X131869139Y-120127625D01*
X131957379Y-120242621D01*
X132072375Y-120330861D01*
X132206291Y-120386330D01*
X132333280Y-120403048D01*
X132349999Y-120405250D01*
X132350000Y-120405250D01*
X132350001Y-120405250D01*
X132364977Y-120403278D01*
X132493709Y-120386330D01*
X132627625Y-120330861D01*
X132627629Y-120330858D01*
X132633801Y-120326123D01*
X132698970Y-120300930D01*
X132709285Y-120300500D01*
X135659308Y-120300500D01*
X135659309Y-120300500D01*
X135749673Y-120276286D01*
X135773887Y-120269799D01*
X135876614Y-120210489D01*
X138910489Y-117176614D01*
X138969799Y-117073887D01*
X138976285Y-117049675D01*
X138976286Y-117049675D01*
X138976286Y-117049671D01*
X139000500Y-116959309D01*
X139000500Y-114337965D01*
X139020185Y-114270926D01*
X139036819Y-114250284D01*
X139463720Y-113823383D01*
X143314501Y-109972601D01*
X143375822Y-109939118D01*
X143386001Y-109937344D01*
X143393709Y-109936330D01*
X143527625Y-109880861D01*
X143527629Y-109880858D01*
X143533801Y-109876123D01*
X143598970Y-109850930D01*
X143609285Y-109850500D01*
X143840715Y-109850500D01*
X143907754Y-109870185D01*
X143916199Y-109876123D01*
X143922370Y-109880858D01*
X143922373Y-109880859D01*
X143922375Y-109880861D01*
X144056291Y-109936330D01*
X144183280Y-109953048D01*
X144199999Y-109955250D01*
X144200000Y-109955250D01*
X144200001Y-109955250D01*
X144214977Y-109953278D01*
X144343709Y-109936330D01*
X144477625Y-109880861D01*
X144592621Y-109792621D01*
X144680861Y-109677625D01*
X144736330Y-109543709D01*
X144755250Y-109400000D01*
X144736330Y-109256291D01*
X144680861Y-109122375D01*
X144592621Y-109007379D01*
X144477625Y-108919139D01*
X144477624Y-108919138D01*
X144477622Y-108919137D01*
X144343712Y-108863671D01*
X144343710Y-108863670D01*
X144343709Y-108863670D01*
X144271854Y-108854210D01*
X144200001Y-108844750D01*
X144199999Y-108844750D01*
X144056291Y-108863670D01*
X144056287Y-108863671D01*
X143922376Y-108919138D01*
X143922370Y-108919141D01*
X143916199Y-108923877D01*
X143851030Y-108949070D01*
X143840715Y-108949500D01*
X143609285Y-108949500D01*
X143542246Y-108929815D01*
X143533801Y-108923877D01*
X143527629Y-108919141D01*
X143527623Y-108919138D01*
X143393712Y-108863671D01*
X143393710Y-108863670D01*
X143393709Y-108863670D01*
X143321854Y-108854210D01*
X143250001Y-108844750D01*
X143249999Y-108844750D01*
X143106291Y-108863670D01*
X143106287Y-108863671D01*
X142972377Y-108919137D01*
X142857379Y-109007379D01*
X142769137Y-109122377D01*
X142713669Y-109256291D01*
X142713669Y-109256292D01*
X142712653Y-109264009D01*
X142684383Y-109327904D01*
X142677396Y-109335498D01*
X138189513Y-113823383D01*
X138189509Y-113823389D01*
X138130201Y-113926112D01*
X138130200Y-113926117D01*
X138099500Y-114040691D01*
X138099500Y-116662035D01*
X138079815Y-116729074D01*
X138063181Y-116749716D01*
X135449716Y-119363181D01*
X135388393Y-119396666D01*
X135362035Y-119399500D01*
X132709285Y-119399500D01*
X132642246Y-119379815D01*
X132633801Y-119373877D01*
X132627629Y-119369141D01*
X132627623Y-119369138D01*
X132493712Y-119313671D01*
X132493710Y-119313670D01*
X132493709Y-119313670D01*
X132421854Y-119304210D01*
X132350001Y-119294750D01*
X132349999Y-119294750D01*
X132206291Y-119313670D01*
X132206287Y-119313671D01*
X132072377Y-119369137D01*
X131957379Y-119457379D01*
X131869137Y-119572377D01*
X131813671Y-119706287D01*
X131813670Y-119706291D01*
X131794750Y-119849999D01*
X131794750Y-119850000D01*
X129650000Y-119850000D01*
X129650000Y-103124000D01*
X129669685Y-103056961D01*
X129722489Y-103011206D01*
X129774000Y-103000000D01*
X161376000Y-103000000D01*
X161443039Y-103019685D01*
G37*
%TD.AperFunction*%
%TD*%
M02*
