%TF.GenerationSoftware,KiCad,Pcbnew,8.0.0*%
%TF.CreationDate,2024-11-10T13:42:00+01:00*%
%TF.ProjectId,polarizing_coil_driver,706f6c61-7269-47a6-996e-675f636f696c,rev?*%
%TF.SameCoordinates,Original*%
%TF.FileFunction,Legend,Top*%
%TF.FilePolarity,Positive*%
%FSLAX46Y46*%
G04 Gerber Fmt 4.6, Leading zero omitted, Abs format (unit mm)*
G04 Created by KiCad (PCBNEW 8.0.0) date 2024-11-10 13:42:00*
%MOMM*%
%LPD*%
G01*
G04 APERTURE LIST*
%ADD10C,0.100000*%
%ADD11C,0.300000*%
%ADD12C,0.200000*%
%ADD13C,0.150000*%
%ADD14C,0.120000*%
%ADD15C,0.152400*%
G04 APERTURE END LIST*
D10*
X136600000Y-123600000D02*
X136600000Y-123600000D01*
X136600000Y-124000000D02*
X136600000Y-124000000D01*
X136600000Y-124400000D02*
X136600000Y-124400000D01*
X136600000Y-124800000D02*
X136600000Y-124800000D01*
X136600000Y-125200000D02*
X136600000Y-125200000D01*
X136600000Y-125600000D02*
X136600000Y-125600000D01*
X136600000Y-126000000D02*
X136600000Y-126000000D01*
X136600000Y-126400000D02*
X136600000Y-126400000D01*
X136600000Y-126800000D02*
X136600000Y-126800000D01*
X136600000Y-127200000D02*
X136600000Y-127200000D01*
X136600000Y-127600000D02*
X136600000Y-127600000D01*
X136600000Y-128000000D02*
X136600000Y-128000000D01*
X136600000Y-128400000D02*
X136600000Y-128400000D01*
X136600000Y-128800000D02*
X136600000Y-128800000D01*
X136600000Y-129200000D02*
X136600000Y-129200000D01*
X136600000Y-129600000D02*
X136600000Y-129600000D01*
X136600000Y-130000000D02*
X136600000Y-130000000D01*
X136600000Y-130400000D02*
X136600000Y-130400000D01*
X136600000Y-130800000D02*
X136600000Y-130800000D01*
X136600000Y-131200000D02*
X136600000Y-131200000D01*
X136600000Y-131600000D02*
X136600000Y-131600000D01*
X136600000Y-132000000D02*
X136600000Y-132000000D01*
X136600000Y-132400000D02*
X136600000Y-132400000D01*
X136600000Y-132800000D02*
X136600000Y-132800000D01*
X136600000Y-133200000D02*
X136600000Y-133200000D01*
X136600000Y-133600000D02*
X136600000Y-133600000D01*
X136600000Y-134000000D02*
X136600000Y-134000000D01*
X136600000Y-134400000D02*
X136600000Y-134400000D01*
X136600000Y-134800000D02*
X136600000Y-134800000D01*
X136600000Y-135200000D02*
X136600000Y-135200000D01*
X136600000Y-135600000D02*
X136600000Y-135600000D01*
X136600000Y-136000000D02*
X136600000Y-136000000D01*
X136600000Y-136400000D02*
X136600000Y-136400000D01*
X136600000Y-136800000D02*
X136600000Y-136800000D01*
X136600000Y-137200000D02*
X136600000Y-137200000D01*
X136600000Y-137600000D02*
X136600000Y-137600000D01*
X136600000Y-138000000D02*
X136600000Y-138000000D01*
X136600000Y-138400000D02*
X136600000Y-138400000D01*
X136600000Y-123600000D02*
X136600000Y-123600000D01*
X137000000Y-123600000D02*
X137000000Y-123600000D01*
X137400000Y-123600000D02*
X137400000Y-123600000D01*
X137800000Y-123600000D02*
X137800000Y-123600000D01*
X138200000Y-123600000D02*
X138200000Y-123600000D01*
X138600000Y-123600000D02*
X138600000Y-123600000D01*
X139000000Y-123600000D02*
X139000000Y-123600000D01*
X139400000Y-123600000D02*
X139400000Y-123600000D01*
X139800000Y-123600000D02*
X139800000Y-123600000D01*
X140200000Y-123600000D02*
X140200000Y-123600000D01*
X140600000Y-123600000D02*
X140600000Y-123600000D01*
X141000000Y-123600000D02*
X141000000Y-123600000D01*
X141400000Y-123600000D02*
X141400000Y-123600000D01*
X141800000Y-123600000D02*
X141800000Y-123600000D01*
X142200000Y-123600000D02*
X142200000Y-123600000D01*
X142600000Y-123600000D02*
X142600000Y-123600000D01*
X143000000Y-123600000D02*
X143000000Y-123600000D01*
X143400000Y-123600000D02*
X143400000Y-123600000D01*
X143800000Y-123600000D02*
X143800000Y-123600000D01*
X144200000Y-123600000D02*
X144200000Y-123600000D01*
X144600000Y-123600000D02*
X144600000Y-123600000D01*
X145000000Y-123600000D02*
X145000000Y-123600000D01*
X145400000Y-123600000D02*
X145400000Y-123600000D01*
X145800000Y-123600000D02*
X145800000Y-123600000D01*
X146200000Y-123600000D02*
X146200000Y-123600000D01*
X146600000Y-123600000D02*
X146600000Y-123600000D01*
X147000000Y-123600000D02*
X147000000Y-123600000D01*
X147400000Y-123600000D02*
X147400000Y-123600000D01*
X147800000Y-123600000D02*
X147800000Y-123600000D01*
X148200000Y-123600000D02*
X148200000Y-123600000D01*
X148600000Y-123600000D02*
X148600000Y-123600000D01*
X149000000Y-123600000D02*
X149000000Y-123600000D01*
X149400000Y-123600000D02*
X149400000Y-123600000D01*
X149800000Y-123600000D02*
X149800000Y-123600000D01*
X150200000Y-123600000D02*
X150200000Y-123600000D01*
X150600000Y-123600000D02*
X150600000Y-123600000D01*
X151000000Y-123600000D02*
X151000000Y-123600000D01*
X151400000Y-123600000D02*
X151400000Y-123600000D01*
X151800000Y-123600000D02*
X151800000Y-123600000D01*
X151800000Y-123600000D02*
X151800000Y-123600000D01*
X151800000Y-124000000D02*
X151800000Y-124000000D01*
X151800000Y-124400000D02*
X151800000Y-124400000D01*
X151800000Y-124800000D02*
X151800000Y-124800000D01*
X151800000Y-125200000D02*
X151800000Y-125200000D01*
X151800000Y-125600000D02*
X151800000Y-125600000D01*
X151800000Y-126000000D02*
X151800000Y-126000000D01*
X151800000Y-126400000D02*
X151800000Y-126400000D01*
X151800000Y-126800000D02*
X151800000Y-126800000D01*
X151800000Y-127200000D02*
X151800000Y-127200000D01*
X151800000Y-127600000D02*
X151800000Y-127600000D01*
X151800000Y-128000000D02*
X151800000Y-128000000D01*
X151800000Y-128400000D02*
X151800000Y-128400000D01*
X151800000Y-128800000D02*
X151800000Y-128800000D01*
X151800000Y-129200000D02*
X151800000Y-129200000D01*
X151800000Y-129600000D02*
X151800000Y-129600000D01*
X151800000Y-130000000D02*
X151800000Y-130000000D01*
X151800000Y-130400000D02*
X151800000Y-130400000D01*
X151800000Y-130800000D02*
X151800000Y-130800000D01*
X151800000Y-131200000D02*
X151800000Y-131200000D01*
X151800000Y-131600000D02*
X151800000Y-131600000D01*
X151800000Y-132000000D02*
X151800000Y-132000000D01*
X151800000Y-132400000D02*
X151800000Y-132400000D01*
X151800000Y-132800000D02*
X151800000Y-132800000D01*
X151800000Y-133200000D02*
X151800000Y-133200000D01*
X151800000Y-133600000D02*
X151800000Y-133600000D01*
X151800000Y-134000000D02*
X151800000Y-134000000D01*
X151800000Y-134400000D02*
X151800000Y-134400000D01*
X151800000Y-134800000D02*
X151800000Y-134800000D01*
X151800000Y-135200000D02*
X151800000Y-135200000D01*
X151800000Y-135600000D02*
X151800000Y-135600000D01*
X151800000Y-136000000D02*
X151800000Y-136000000D01*
X151800000Y-136400000D02*
X151800000Y-136400000D01*
X151800000Y-136800000D02*
X151800000Y-136800000D01*
X151800000Y-137200000D02*
X151800000Y-137200000D01*
X151800000Y-137600000D02*
X151800000Y-137600000D01*
X151800000Y-138000000D02*
X151800000Y-138000000D01*
X151800000Y-138400000D02*
X151800000Y-138400000D01*
D11*
X116854510Y-131915114D02*
X117068796Y-131986542D01*
X117068796Y-131986542D02*
X117140225Y-132057971D01*
X117140225Y-132057971D02*
X117211653Y-132200828D01*
X117211653Y-132200828D02*
X117211653Y-132415114D01*
X117211653Y-132415114D02*
X117140225Y-132557971D01*
X117140225Y-132557971D02*
X117068796Y-132629400D01*
X117068796Y-132629400D02*
X116925939Y-132700828D01*
X116925939Y-132700828D02*
X116354510Y-132700828D01*
X116354510Y-132700828D02*
X116354510Y-131200828D01*
X116354510Y-131200828D02*
X116854510Y-131200828D01*
X116854510Y-131200828D02*
X116997368Y-131272257D01*
X116997368Y-131272257D02*
X117068796Y-131343685D01*
X117068796Y-131343685D02*
X117140225Y-131486542D01*
X117140225Y-131486542D02*
X117140225Y-131629400D01*
X117140225Y-131629400D02*
X117068796Y-131772257D01*
X117068796Y-131772257D02*
X116997368Y-131843685D01*
X116997368Y-131843685D02*
X116854510Y-131915114D01*
X116854510Y-131915114D02*
X116354510Y-131915114D01*
X117783082Y-132272257D02*
X118497368Y-132272257D01*
X117640225Y-132700828D02*
X118140225Y-131200828D01*
X118140225Y-131200828D02*
X118640225Y-132700828D01*
X118925939Y-131200828D02*
X119783082Y-131200828D01*
X119354510Y-132700828D02*
X119354510Y-131200828D01*
X120068796Y-131200828D02*
X120925939Y-131200828D01*
X120497367Y-132700828D02*
X120497367Y-131200828D01*
D12*
X115217292Y-108372355D02*
X116131578Y-108372355D01*
X115674435Y-108829497D02*
X115674435Y-107915212D01*
X152647649Y-112367219D02*
X152838125Y-112367219D01*
X152838125Y-112367219D02*
X152933363Y-112414838D01*
X152933363Y-112414838D02*
X153028601Y-112510076D01*
X153028601Y-112510076D02*
X153076220Y-112700552D01*
X153076220Y-112700552D02*
X153076220Y-113033885D01*
X153076220Y-113033885D02*
X153028601Y-113224361D01*
X153028601Y-113224361D02*
X152933363Y-113319600D01*
X152933363Y-113319600D02*
X152838125Y-113367219D01*
X152838125Y-113367219D02*
X152647649Y-113367219D01*
X152647649Y-113367219D02*
X152552411Y-113319600D01*
X152552411Y-113319600D02*
X152457173Y-113224361D01*
X152457173Y-113224361D02*
X152409554Y-113033885D01*
X152409554Y-113033885D02*
X152409554Y-112700552D01*
X152409554Y-112700552D02*
X152457173Y-112510076D01*
X152457173Y-112510076D02*
X152552411Y-112414838D01*
X152552411Y-112414838D02*
X152647649Y-112367219D01*
X153504792Y-113367219D02*
X153504792Y-112367219D01*
X154076220Y-113367219D02*
X153647649Y-112795790D01*
X154076220Y-112367219D02*
X153504792Y-112938647D01*
D11*
X145611653Y-138257971D02*
X145540225Y-138329400D01*
X145540225Y-138329400D02*
X145325939Y-138400828D01*
X145325939Y-138400828D02*
X145183082Y-138400828D01*
X145183082Y-138400828D02*
X144968796Y-138329400D01*
X144968796Y-138329400D02*
X144825939Y-138186542D01*
X144825939Y-138186542D02*
X144754510Y-138043685D01*
X144754510Y-138043685D02*
X144683082Y-137757971D01*
X144683082Y-137757971D02*
X144683082Y-137543685D01*
X144683082Y-137543685D02*
X144754510Y-137257971D01*
X144754510Y-137257971D02*
X144825939Y-137115114D01*
X144825939Y-137115114D02*
X144968796Y-136972257D01*
X144968796Y-136972257D02*
X145183082Y-136900828D01*
X145183082Y-136900828D02*
X145325939Y-136900828D01*
X145325939Y-136900828D02*
X145540225Y-136972257D01*
X145540225Y-136972257D02*
X145611653Y-137043685D01*
X146040225Y-136900828D02*
X146897368Y-136900828D01*
X146468796Y-138400828D02*
X146468796Y-136900828D01*
X148254510Y-138400828D02*
X147754510Y-137686542D01*
X147397367Y-138400828D02*
X147397367Y-136900828D01*
X147397367Y-136900828D02*
X147968796Y-136900828D01*
X147968796Y-136900828D02*
X148111653Y-136972257D01*
X148111653Y-136972257D02*
X148183082Y-137043685D01*
X148183082Y-137043685D02*
X148254510Y-137186542D01*
X148254510Y-137186542D02*
X148254510Y-137400828D01*
X148254510Y-137400828D02*
X148183082Y-137543685D01*
X148183082Y-137543685D02*
X148111653Y-137615114D01*
X148111653Y-137615114D02*
X147968796Y-137686542D01*
X147968796Y-137686542D02*
X147397367Y-137686542D01*
X149611653Y-138400828D02*
X148897367Y-138400828D01*
X148897367Y-138400828D02*
X148897367Y-136900828D01*
X116668796Y-106800828D02*
X115954510Y-106800828D01*
X115954510Y-106800828D02*
X115954510Y-105300828D01*
X117454511Y-105300828D02*
X117740225Y-105300828D01*
X117740225Y-105300828D02*
X117883082Y-105372257D01*
X117883082Y-105372257D02*
X118025939Y-105515114D01*
X118025939Y-105515114D02*
X118097368Y-105800828D01*
X118097368Y-105800828D02*
X118097368Y-106300828D01*
X118097368Y-106300828D02*
X118025939Y-106586542D01*
X118025939Y-106586542D02*
X117883082Y-106729400D01*
X117883082Y-106729400D02*
X117740225Y-106800828D01*
X117740225Y-106800828D02*
X117454511Y-106800828D01*
X117454511Y-106800828D02*
X117311654Y-106729400D01*
X117311654Y-106729400D02*
X117168796Y-106586542D01*
X117168796Y-106586542D02*
X117097368Y-106300828D01*
X117097368Y-106300828D02*
X117097368Y-105800828D01*
X117097368Y-105800828D02*
X117168796Y-105515114D01*
X117168796Y-105515114D02*
X117311654Y-105372257D01*
X117311654Y-105372257D02*
X117454511Y-105300828D01*
X118668797Y-106372257D02*
X119383083Y-106372257D01*
X118525940Y-106800828D02*
X119025940Y-105300828D01*
X119025940Y-105300828D02*
X119525940Y-106800828D01*
X120025939Y-106800828D02*
X120025939Y-105300828D01*
X120025939Y-105300828D02*
X120383082Y-105300828D01*
X120383082Y-105300828D02*
X120597368Y-105372257D01*
X120597368Y-105372257D02*
X120740225Y-105515114D01*
X120740225Y-105515114D02*
X120811654Y-105657971D01*
X120811654Y-105657971D02*
X120883082Y-105943685D01*
X120883082Y-105943685D02*
X120883082Y-106157971D01*
X120883082Y-106157971D02*
X120811654Y-106443685D01*
X120811654Y-106443685D02*
X120740225Y-106586542D01*
X120740225Y-106586542D02*
X120597368Y-106729400D01*
X120597368Y-106729400D02*
X120383082Y-106800828D01*
X120383082Y-106800828D02*
X120025939Y-106800828D01*
D12*
X120817292Y-130085600D02*
X121731578Y-130085600D01*
X158611279Y-125200305D02*
X159011279Y-125200305D01*
X159182707Y-125828876D02*
X158611279Y-125828876D01*
X158611279Y-125828876D02*
X158611279Y-124628876D01*
X158611279Y-124628876D02*
X159182707Y-124628876D01*
X160096993Y-125200305D02*
X159696993Y-125200305D01*
X159696993Y-125828876D02*
X159696993Y-124628876D01*
X159696993Y-124628876D02*
X160268421Y-124628876D01*
X160725564Y-125828876D02*
X160725564Y-124628876D01*
X160725564Y-124628876D02*
X161411278Y-125828876D01*
X161411278Y-125828876D02*
X161411278Y-124628876D01*
X161982707Y-125828876D02*
X161982707Y-124628876D01*
X161982707Y-124628876D02*
X162382707Y-125486019D01*
X162382707Y-125486019D02*
X162782707Y-124628876D01*
X162782707Y-124628876D02*
X162782707Y-125828876D01*
X164039850Y-125828876D02*
X163639850Y-125257448D01*
X163354136Y-125828876D02*
X163354136Y-124628876D01*
X163354136Y-124628876D02*
X163811279Y-124628876D01*
X163811279Y-124628876D02*
X163925564Y-124686019D01*
X163925564Y-124686019D02*
X163982707Y-124743162D01*
X163982707Y-124743162D02*
X164039850Y-124857448D01*
X164039850Y-124857448D02*
X164039850Y-125028876D01*
X164039850Y-125028876D02*
X163982707Y-125143162D01*
X163982707Y-125143162D02*
X163925564Y-125200305D01*
X163925564Y-125200305D02*
X163811279Y-125257448D01*
X163811279Y-125257448D02*
X163354136Y-125257448D01*
X153754137Y-127760809D02*
X153754137Y-126560809D01*
X153754137Y-126560809D02*
X154211280Y-126560809D01*
X154211280Y-126560809D02*
X154325565Y-126617952D01*
X154325565Y-126617952D02*
X154382708Y-126675095D01*
X154382708Y-126675095D02*
X154439851Y-126789381D01*
X154439851Y-126789381D02*
X154439851Y-126960809D01*
X154439851Y-126960809D02*
X154382708Y-127075095D01*
X154382708Y-127075095D02*
X154325565Y-127132238D01*
X154325565Y-127132238D02*
X154211280Y-127189381D01*
X154211280Y-127189381D02*
X153754137Y-127189381D01*
X155125565Y-127760809D02*
X155011280Y-127703667D01*
X155011280Y-127703667D02*
X154954137Y-127646524D01*
X154954137Y-127646524D02*
X154896994Y-127532238D01*
X154896994Y-127532238D02*
X154896994Y-127189381D01*
X154896994Y-127189381D02*
X154954137Y-127075095D01*
X154954137Y-127075095D02*
X155011280Y-127017952D01*
X155011280Y-127017952D02*
X155125565Y-126960809D01*
X155125565Y-126960809D02*
X155296994Y-126960809D01*
X155296994Y-126960809D02*
X155411280Y-127017952D01*
X155411280Y-127017952D02*
X155468423Y-127075095D01*
X155468423Y-127075095D02*
X155525565Y-127189381D01*
X155525565Y-127189381D02*
X155525565Y-127532238D01*
X155525565Y-127532238D02*
X155468423Y-127646524D01*
X155468423Y-127646524D02*
X155411280Y-127703667D01*
X155411280Y-127703667D02*
X155296994Y-127760809D01*
X155296994Y-127760809D02*
X155125565Y-127760809D01*
X156211279Y-127760809D02*
X156096994Y-127703667D01*
X156096994Y-127703667D02*
X156039851Y-127589381D01*
X156039851Y-127589381D02*
X156039851Y-126560809D01*
X157182708Y-127760809D02*
X157182708Y-127132238D01*
X157182708Y-127132238D02*
X157125565Y-127017952D01*
X157125565Y-127017952D02*
X157011279Y-126960809D01*
X157011279Y-126960809D02*
X156782708Y-126960809D01*
X156782708Y-126960809D02*
X156668422Y-127017952D01*
X157182708Y-127703667D02*
X157068422Y-127760809D01*
X157068422Y-127760809D02*
X156782708Y-127760809D01*
X156782708Y-127760809D02*
X156668422Y-127703667D01*
X156668422Y-127703667D02*
X156611279Y-127589381D01*
X156611279Y-127589381D02*
X156611279Y-127475095D01*
X156611279Y-127475095D02*
X156668422Y-127360809D01*
X156668422Y-127360809D02*
X156782708Y-127303667D01*
X156782708Y-127303667D02*
X157068422Y-127303667D01*
X157068422Y-127303667D02*
X157182708Y-127246524D01*
X157754136Y-127760809D02*
X157754136Y-126960809D01*
X157754136Y-127189381D02*
X157811279Y-127075095D01*
X157811279Y-127075095D02*
X157868422Y-127017952D01*
X157868422Y-127017952D02*
X157982707Y-126960809D01*
X157982707Y-126960809D02*
X158096993Y-126960809D01*
X158496993Y-127760809D02*
X158496993Y-126960809D01*
X158496993Y-126560809D02*
X158439850Y-126617952D01*
X158439850Y-126617952D02*
X158496993Y-126675095D01*
X158496993Y-126675095D02*
X158554136Y-126617952D01*
X158554136Y-126617952D02*
X158496993Y-126560809D01*
X158496993Y-126560809D02*
X158496993Y-126675095D01*
X158954136Y-126960809D02*
X159582708Y-126960809D01*
X159582708Y-126960809D02*
X158954136Y-127760809D01*
X158954136Y-127760809D02*
X159582708Y-127760809D01*
X160554137Y-127760809D02*
X160554137Y-127132238D01*
X160554137Y-127132238D02*
X160496994Y-127017952D01*
X160496994Y-127017952D02*
X160382708Y-126960809D01*
X160382708Y-126960809D02*
X160154137Y-126960809D01*
X160154137Y-126960809D02*
X160039851Y-127017952D01*
X160554137Y-127703667D02*
X160439851Y-127760809D01*
X160439851Y-127760809D02*
X160154137Y-127760809D01*
X160154137Y-127760809D02*
X160039851Y-127703667D01*
X160039851Y-127703667D02*
X159982708Y-127589381D01*
X159982708Y-127589381D02*
X159982708Y-127475095D01*
X159982708Y-127475095D02*
X160039851Y-127360809D01*
X160039851Y-127360809D02*
X160154137Y-127303667D01*
X160154137Y-127303667D02*
X160439851Y-127303667D01*
X160439851Y-127303667D02*
X160554137Y-127246524D01*
X160954136Y-126960809D02*
X161411279Y-126960809D01*
X161125565Y-126560809D02*
X161125565Y-127589381D01*
X161125565Y-127589381D02*
X161182708Y-127703667D01*
X161182708Y-127703667D02*
X161296993Y-127760809D01*
X161296993Y-127760809D02*
X161411279Y-127760809D01*
X161811279Y-127760809D02*
X161811279Y-126960809D01*
X161811279Y-126560809D02*
X161754136Y-126617952D01*
X161754136Y-126617952D02*
X161811279Y-126675095D01*
X161811279Y-126675095D02*
X161868422Y-126617952D01*
X161868422Y-126617952D02*
X161811279Y-126560809D01*
X161811279Y-126560809D02*
X161811279Y-126675095D01*
X162554136Y-127760809D02*
X162439851Y-127703667D01*
X162439851Y-127703667D02*
X162382708Y-127646524D01*
X162382708Y-127646524D02*
X162325565Y-127532238D01*
X162325565Y-127532238D02*
X162325565Y-127189381D01*
X162325565Y-127189381D02*
X162382708Y-127075095D01*
X162382708Y-127075095D02*
X162439851Y-127017952D01*
X162439851Y-127017952D02*
X162554136Y-126960809D01*
X162554136Y-126960809D02*
X162725565Y-126960809D01*
X162725565Y-126960809D02*
X162839851Y-127017952D01*
X162839851Y-127017952D02*
X162896994Y-127075095D01*
X162896994Y-127075095D02*
X162954136Y-127189381D01*
X162954136Y-127189381D02*
X162954136Y-127532238D01*
X162954136Y-127532238D02*
X162896994Y-127646524D01*
X162896994Y-127646524D02*
X162839851Y-127703667D01*
X162839851Y-127703667D02*
X162725565Y-127760809D01*
X162725565Y-127760809D02*
X162554136Y-127760809D01*
X163468422Y-126960809D02*
X163468422Y-127760809D01*
X163468422Y-127075095D02*
X163525565Y-127017952D01*
X163525565Y-127017952D02*
X163639850Y-126960809D01*
X163639850Y-126960809D02*
X163811279Y-126960809D01*
X163811279Y-126960809D02*
X163925565Y-127017952D01*
X163925565Y-127017952D02*
X163982708Y-127132238D01*
X163982708Y-127132238D02*
X163982708Y-127760809D01*
X155754137Y-129635600D02*
X155639851Y-129692742D01*
X155639851Y-129692742D02*
X155411279Y-129692742D01*
X155411279Y-129692742D02*
X155296994Y-129635600D01*
X155296994Y-129635600D02*
X155239851Y-129578457D01*
X155239851Y-129578457D02*
X155182708Y-129464171D01*
X155182708Y-129464171D02*
X155182708Y-129121314D01*
X155182708Y-129121314D02*
X155239851Y-129007028D01*
X155239851Y-129007028D02*
X155296994Y-128949885D01*
X155296994Y-128949885D02*
X155411279Y-128892742D01*
X155411279Y-128892742D02*
X155639851Y-128892742D01*
X155639851Y-128892742D02*
X155754137Y-128949885D01*
X156439850Y-129692742D02*
X156325565Y-129635600D01*
X156325565Y-129635600D02*
X156268422Y-129578457D01*
X156268422Y-129578457D02*
X156211279Y-129464171D01*
X156211279Y-129464171D02*
X156211279Y-129121314D01*
X156211279Y-129121314D02*
X156268422Y-129007028D01*
X156268422Y-129007028D02*
X156325565Y-128949885D01*
X156325565Y-128949885D02*
X156439850Y-128892742D01*
X156439850Y-128892742D02*
X156611279Y-128892742D01*
X156611279Y-128892742D02*
X156725565Y-128949885D01*
X156725565Y-128949885D02*
X156782708Y-129007028D01*
X156782708Y-129007028D02*
X156839850Y-129121314D01*
X156839850Y-129121314D02*
X156839850Y-129464171D01*
X156839850Y-129464171D02*
X156782708Y-129578457D01*
X156782708Y-129578457D02*
X156725565Y-129635600D01*
X156725565Y-129635600D02*
X156611279Y-129692742D01*
X156611279Y-129692742D02*
X156439850Y-129692742D01*
X157354136Y-129692742D02*
X157354136Y-128892742D01*
X157354136Y-128492742D02*
X157296993Y-128549885D01*
X157296993Y-128549885D02*
X157354136Y-128607028D01*
X157354136Y-128607028D02*
X157411279Y-128549885D01*
X157411279Y-128549885D02*
X157354136Y-128492742D01*
X157354136Y-128492742D02*
X157354136Y-128607028D01*
X158096993Y-129692742D02*
X157982708Y-129635600D01*
X157982708Y-129635600D02*
X157925565Y-129521314D01*
X157925565Y-129521314D02*
X157925565Y-128492742D01*
X159982708Y-129692742D02*
X159982708Y-128492742D01*
X159982708Y-129635600D02*
X159868422Y-129692742D01*
X159868422Y-129692742D02*
X159639850Y-129692742D01*
X159639850Y-129692742D02*
X159525565Y-129635600D01*
X159525565Y-129635600D02*
X159468422Y-129578457D01*
X159468422Y-129578457D02*
X159411279Y-129464171D01*
X159411279Y-129464171D02*
X159411279Y-129121314D01*
X159411279Y-129121314D02*
X159468422Y-129007028D01*
X159468422Y-129007028D02*
X159525565Y-128949885D01*
X159525565Y-128949885D02*
X159639850Y-128892742D01*
X159639850Y-128892742D02*
X159868422Y-128892742D01*
X159868422Y-128892742D02*
X159982708Y-128949885D01*
X160554136Y-129692742D02*
X160554136Y-128892742D01*
X160554136Y-129121314D02*
X160611279Y-129007028D01*
X160611279Y-129007028D02*
X160668422Y-128949885D01*
X160668422Y-128949885D02*
X160782707Y-128892742D01*
X160782707Y-128892742D02*
X160896993Y-128892742D01*
X161296993Y-129692742D02*
X161296993Y-128892742D01*
X161296993Y-128492742D02*
X161239850Y-128549885D01*
X161239850Y-128549885D02*
X161296993Y-128607028D01*
X161296993Y-128607028D02*
X161354136Y-128549885D01*
X161354136Y-128549885D02*
X161296993Y-128492742D01*
X161296993Y-128492742D02*
X161296993Y-128607028D01*
X161754136Y-128892742D02*
X162039850Y-129692742D01*
X162039850Y-129692742D02*
X162325565Y-128892742D01*
X163239851Y-129635600D02*
X163125565Y-129692742D01*
X163125565Y-129692742D02*
X162896994Y-129692742D01*
X162896994Y-129692742D02*
X162782708Y-129635600D01*
X162782708Y-129635600D02*
X162725565Y-129521314D01*
X162725565Y-129521314D02*
X162725565Y-129064171D01*
X162725565Y-129064171D02*
X162782708Y-128949885D01*
X162782708Y-128949885D02*
X162896994Y-128892742D01*
X162896994Y-128892742D02*
X163125565Y-128892742D01*
X163125565Y-128892742D02*
X163239851Y-128949885D01*
X163239851Y-128949885D02*
X163296994Y-129064171D01*
X163296994Y-129064171D02*
X163296994Y-129178457D01*
X163296994Y-129178457D02*
X162725565Y-129292742D01*
X163811279Y-129692742D02*
X163811279Y-128892742D01*
X163811279Y-129121314D02*
X163868422Y-129007028D01*
X163868422Y-129007028D02*
X163925565Y-128949885D01*
X163925565Y-128949885D02*
X164039850Y-128892742D01*
X164039850Y-128892742D02*
X164154136Y-128892742D01*
X115217292Y-130085600D02*
X116131578Y-130085600D01*
X115674435Y-130542742D02*
X115674435Y-129628457D01*
D13*
X137894295Y-137896554D02*
X137856200Y-137972744D01*
X137856200Y-137972744D02*
X137818104Y-138010839D01*
X137818104Y-138010839D02*
X137741914Y-138048935D01*
X137741914Y-138048935D02*
X137513342Y-138048935D01*
X137513342Y-138048935D02*
X137437152Y-138010839D01*
X137437152Y-138010839D02*
X137399057Y-137972744D01*
X137399057Y-137972744D02*
X137360961Y-137896554D01*
X137360961Y-137896554D02*
X137360961Y-137782268D01*
X137360961Y-137782268D02*
X137399057Y-137706077D01*
X137399057Y-137706077D02*
X137437152Y-137667982D01*
X137437152Y-137667982D02*
X137513342Y-137629887D01*
X137513342Y-137629887D02*
X137741914Y-137629887D01*
X137741914Y-137629887D02*
X137818104Y-137667982D01*
X137818104Y-137667982D02*
X137856200Y-137706077D01*
X137856200Y-137706077D02*
X137894295Y-137782268D01*
X137894295Y-137782268D02*
X137894295Y-137896554D01*
X137360961Y-137287029D02*
X138160961Y-137287029D01*
X137399057Y-137287029D02*
X137360961Y-137210839D01*
X137360961Y-137210839D02*
X137360961Y-137058458D01*
X137360961Y-137058458D02*
X137399057Y-136982267D01*
X137399057Y-136982267D02*
X137437152Y-136944172D01*
X137437152Y-136944172D02*
X137513342Y-136906077D01*
X137513342Y-136906077D02*
X137741914Y-136906077D01*
X137741914Y-136906077D02*
X137818104Y-136944172D01*
X137818104Y-136944172D02*
X137856200Y-136982267D01*
X137856200Y-136982267D02*
X137894295Y-137058458D01*
X137894295Y-137058458D02*
X137894295Y-137210839D01*
X137894295Y-137210839D02*
X137856200Y-137287029D01*
X137360961Y-136677505D02*
X137360961Y-136372743D01*
X137094295Y-136563219D02*
X137780009Y-136563219D01*
X137780009Y-136563219D02*
X137856200Y-136525124D01*
X137856200Y-136525124D02*
X137894295Y-136448934D01*
X137894295Y-136448934D02*
X137894295Y-136372743D01*
X137894295Y-135991791D02*
X137856200Y-136067981D01*
X137856200Y-136067981D02*
X137818104Y-136106076D01*
X137818104Y-136106076D02*
X137741914Y-136144172D01*
X137741914Y-136144172D02*
X137513342Y-136144172D01*
X137513342Y-136144172D02*
X137437152Y-136106076D01*
X137437152Y-136106076D02*
X137399057Y-136067981D01*
X137399057Y-136067981D02*
X137360961Y-135991791D01*
X137360961Y-135991791D02*
X137360961Y-135877505D01*
X137360961Y-135877505D02*
X137399057Y-135801314D01*
X137399057Y-135801314D02*
X137437152Y-135763219D01*
X137437152Y-135763219D02*
X137513342Y-135725124D01*
X137513342Y-135725124D02*
X137741914Y-135725124D01*
X137741914Y-135725124D02*
X137818104Y-135763219D01*
X137818104Y-135763219D02*
X137856200Y-135801314D01*
X137856200Y-135801314D02*
X137894295Y-135877505D01*
X137894295Y-135877505D02*
X137894295Y-135991791D01*
X137894295Y-135382266D02*
X137360961Y-135382266D01*
X137094295Y-135382266D02*
X137132390Y-135420362D01*
X137132390Y-135420362D02*
X137170485Y-135382266D01*
X137170485Y-135382266D02*
X137132390Y-135344171D01*
X137132390Y-135344171D02*
X137094295Y-135382266D01*
X137094295Y-135382266D02*
X137170485Y-135382266D01*
X137856200Y-135039410D02*
X137894295Y-134963219D01*
X137894295Y-134963219D02*
X137894295Y-134810838D01*
X137894295Y-134810838D02*
X137856200Y-134734648D01*
X137856200Y-134734648D02*
X137780009Y-134696552D01*
X137780009Y-134696552D02*
X137741914Y-134696552D01*
X137741914Y-134696552D02*
X137665723Y-134734648D01*
X137665723Y-134734648D02*
X137627628Y-134810838D01*
X137627628Y-134810838D02*
X137627628Y-134925124D01*
X137627628Y-134925124D02*
X137589533Y-135001314D01*
X137589533Y-135001314D02*
X137513342Y-135039410D01*
X137513342Y-135039410D02*
X137475247Y-135039410D01*
X137475247Y-135039410D02*
X137399057Y-135001314D01*
X137399057Y-135001314D02*
X137360961Y-134925124D01*
X137360961Y-134925124D02*
X137360961Y-134810838D01*
X137360961Y-134810838D02*
X137399057Y-134734648D01*
X137894295Y-134239410D02*
X137856200Y-134315600D01*
X137856200Y-134315600D02*
X137818104Y-134353695D01*
X137818104Y-134353695D02*
X137741914Y-134391791D01*
X137741914Y-134391791D02*
X137513342Y-134391791D01*
X137513342Y-134391791D02*
X137437152Y-134353695D01*
X137437152Y-134353695D02*
X137399057Y-134315600D01*
X137399057Y-134315600D02*
X137360961Y-134239410D01*
X137360961Y-134239410D02*
X137360961Y-134125124D01*
X137360961Y-134125124D02*
X137399057Y-134048933D01*
X137399057Y-134048933D02*
X137437152Y-134010838D01*
X137437152Y-134010838D02*
X137513342Y-133972743D01*
X137513342Y-133972743D02*
X137741914Y-133972743D01*
X137741914Y-133972743D02*
X137818104Y-134010838D01*
X137818104Y-134010838D02*
X137856200Y-134048933D01*
X137856200Y-134048933D02*
X137894295Y-134125124D01*
X137894295Y-134125124D02*
X137894295Y-134239410D01*
X137894295Y-133515600D02*
X137856200Y-133591790D01*
X137856200Y-133591790D02*
X137780009Y-133629885D01*
X137780009Y-133629885D02*
X137094295Y-133629885D01*
X137894295Y-132867980D02*
X137475247Y-132867980D01*
X137475247Y-132867980D02*
X137399057Y-132906075D01*
X137399057Y-132906075D02*
X137360961Y-132982266D01*
X137360961Y-132982266D02*
X137360961Y-133134647D01*
X137360961Y-133134647D02*
X137399057Y-133210837D01*
X137856200Y-132867980D02*
X137894295Y-132944171D01*
X137894295Y-132944171D02*
X137894295Y-133134647D01*
X137894295Y-133134647D02*
X137856200Y-133210837D01*
X137856200Y-133210837D02*
X137780009Y-133248933D01*
X137780009Y-133248933D02*
X137703819Y-133248933D01*
X137703819Y-133248933D02*
X137627628Y-133210837D01*
X137627628Y-133210837D02*
X137589533Y-133134647D01*
X137589533Y-133134647D02*
X137589533Y-132944171D01*
X137589533Y-132944171D02*
X137551438Y-132867980D01*
X137360961Y-132601313D02*
X137360961Y-132296551D01*
X137094295Y-132487027D02*
X137780009Y-132487027D01*
X137780009Y-132487027D02*
X137856200Y-132448932D01*
X137856200Y-132448932D02*
X137894295Y-132372742D01*
X137894295Y-132372742D02*
X137894295Y-132296551D01*
X137856200Y-131725122D02*
X137894295Y-131801313D01*
X137894295Y-131801313D02*
X137894295Y-131953694D01*
X137894295Y-131953694D02*
X137856200Y-132029884D01*
X137856200Y-132029884D02*
X137780009Y-132067980D01*
X137780009Y-132067980D02*
X137475247Y-132067980D01*
X137475247Y-132067980D02*
X137399057Y-132029884D01*
X137399057Y-132029884D02*
X137360961Y-131953694D01*
X137360961Y-131953694D02*
X137360961Y-131801313D01*
X137360961Y-131801313D02*
X137399057Y-131725122D01*
X137399057Y-131725122D02*
X137475247Y-131687027D01*
X137475247Y-131687027D02*
X137551438Y-131687027D01*
X137551438Y-131687027D02*
X137627628Y-132067980D01*
X137894295Y-131001313D02*
X137094295Y-131001313D01*
X137856200Y-131001313D02*
X137894295Y-131077504D01*
X137894295Y-131077504D02*
X137894295Y-131229885D01*
X137894295Y-131229885D02*
X137856200Y-131306075D01*
X137856200Y-131306075D02*
X137818104Y-131344170D01*
X137818104Y-131344170D02*
X137741914Y-131382266D01*
X137741914Y-131382266D02*
X137513342Y-131382266D01*
X137513342Y-131382266D02*
X137437152Y-131344170D01*
X137437152Y-131344170D02*
X137399057Y-131306075D01*
X137399057Y-131306075D02*
X137360961Y-131229885D01*
X137360961Y-131229885D02*
X137360961Y-131077504D01*
X137360961Y-131077504D02*
X137399057Y-131001313D01*
D12*
X150401671Y-121082707D02*
X150458814Y-120911279D01*
X150458814Y-120911279D02*
X150515957Y-120854136D01*
X150515957Y-120854136D02*
X150630242Y-120796993D01*
X150630242Y-120796993D02*
X150801671Y-120796993D01*
X150801671Y-120796993D02*
X150915957Y-120854136D01*
X150915957Y-120854136D02*
X150973100Y-120911279D01*
X150973100Y-120911279D02*
X151030242Y-121025564D01*
X151030242Y-121025564D02*
X151030242Y-121482707D01*
X151030242Y-121482707D02*
X149830242Y-121482707D01*
X149830242Y-121482707D02*
X149830242Y-121082707D01*
X149830242Y-121082707D02*
X149887385Y-120968422D01*
X149887385Y-120968422D02*
X149944528Y-120911279D01*
X149944528Y-120911279D02*
X150058814Y-120854136D01*
X150058814Y-120854136D02*
X150173100Y-120854136D01*
X150173100Y-120854136D02*
X150287385Y-120911279D01*
X150287385Y-120911279D02*
X150344528Y-120968422D01*
X150344528Y-120968422D02*
X150401671Y-121082707D01*
X150401671Y-121082707D02*
X150401671Y-121482707D01*
X150687385Y-120339850D02*
X150687385Y-119768422D01*
X151030242Y-120454136D02*
X149830242Y-120054136D01*
X149830242Y-120054136D02*
X151030242Y-119654136D01*
X149830242Y-119425565D02*
X149830242Y-118739851D01*
X151030242Y-119082708D02*
X149830242Y-119082708D01*
X149830242Y-118511279D02*
X149830242Y-117825565D01*
X151030242Y-118168422D02*
X149830242Y-118168422D01*
X150401671Y-117425564D02*
X150401671Y-117025564D01*
X151030242Y-116854136D02*
X151030242Y-117425564D01*
X151030242Y-117425564D02*
X149830242Y-117425564D01*
X149830242Y-117425564D02*
X149830242Y-116854136D01*
X151030242Y-115654136D02*
X150458814Y-116054136D01*
X151030242Y-116339850D02*
X149830242Y-116339850D01*
X149830242Y-116339850D02*
X149830242Y-115882707D01*
X149830242Y-115882707D02*
X149887385Y-115768422D01*
X149887385Y-115768422D02*
X149944528Y-115711279D01*
X149944528Y-115711279D02*
X150058814Y-115654136D01*
X150058814Y-115654136D02*
X150230242Y-115654136D01*
X150230242Y-115654136D02*
X150344528Y-115711279D01*
X150344528Y-115711279D02*
X150401671Y-115768422D01*
X150401671Y-115768422D02*
X150458814Y-115882707D01*
X150458814Y-115882707D02*
X150458814Y-116339850D01*
X150458814Y-114911279D02*
X151030242Y-114911279D01*
X149830242Y-115311279D02*
X150458814Y-114911279D01*
X150458814Y-114911279D02*
X149830242Y-114511279D01*
X150973100Y-113254136D02*
X151030242Y-113082708D01*
X151030242Y-113082708D02*
X151030242Y-112796993D01*
X151030242Y-112796993D02*
X150973100Y-112682708D01*
X150973100Y-112682708D02*
X150915957Y-112625565D01*
X150915957Y-112625565D02*
X150801671Y-112568422D01*
X150801671Y-112568422D02*
X150687385Y-112568422D01*
X150687385Y-112568422D02*
X150573100Y-112625565D01*
X150573100Y-112625565D02*
X150515957Y-112682708D01*
X150515957Y-112682708D02*
X150458814Y-112796993D01*
X150458814Y-112796993D02*
X150401671Y-113025565D01*
X150401671Y-113025565D02*
X150344528Y-113139850D01*
X150344528Y-113139850D02*
X150287385Y-113196993D01*
X150287385Y-113196993D02*
X150173100Y-113254136D01*
X150173100Y-113254136D02*
X150058814Y-113254136D01*
X150058814Y-113254136D02*
X149944528Y-113196993D01*
X149944528Y-113196993D02*
X149887385Y-113139850D01*
X149887385Y-113139850D02*
X149830242Y-113025565D01*
X149830242Y-113025565D02*
X149830242Y-112739850D01*
X149830242Y-112739850D02*
X149887385Y-112568422D01*
X149830242Y-112225565D02*
X149830242Y-111539851D01*
X151030242Y-111882708D02*
X149830242Y-111882708D01*
X150687385Y-111196993D02*
X150687385Y-110625565D01*
X151030242Y-111311279D02*
X149830242Y-110911279D01*
X149830242Y-110911279D02*
X151030242Y-110511279D01*
X149830242Y-110282708D02*
X149830242Y-109596994D01*
X151030242Y-109939851D02*
X149830242Y-109939851D01*
X149830242Y-109196993D02*
X150801671Y-109196993D01*
X150801671Y-109196993D02*
X150915957Y-109139850D01*
X150915957Y-109139850D02*
X150973100Y-109082708D01*
X150973100Y-109082708D02*
X151030242Y-108968422D01*
X151030242Y-108968422D02*
X151030242Y-108739850D01*
X151030242Y-108739850D02*
X150973100Y-108625565D01*
X150973100Y-108625565D02*
X150915957Y-108568422D01*
X150915957Y-108568422D02*
X150801671Y-108511279D01*
X150801671Y-108511279D02*
X149830242Y-108511279D01*
X150973100Y-107996993D02*
X151030242Y-107825565D01*
X151030242Y-107825565D02*
X151030242Y-107539850D01*
X151030242Y-107539850D02*
X150973100Y-107425565D01*
X150973100Y-107425565D02*
X150915957Y-107368422D01*
X150915957Y-107368422D02*
X150801671Y-107311279D01*
X150801671Y-107311279D02*
X150687385Y-107311279D01*
X150687385Y-107311279D02*
X150573100Y-107368422D01*
X150573100Y-107368422D02*
X150515957Y-107425565D01*
X150515957Y-107425565D02*
X150458814Y-107539850D01*
X150458814Y-107539850D02*
X150401671Y-107768422D01*
X150401671Y-107768422D02*
X150344528Y-107882707D01*
X150344528Y-107882707D02*
X150287385Y-107939850D01*
X150287385Y-107939850D02*
X150173100Y-107996993D01*
X150173100Y-107996993D02*
X150058814Y-107996993D01*
X150058814Y-107996993D02*
X149944528Y-107939850D01*
X149944528Y-107939850D02*
X149887385Y-107882707D01*
X149887385Y-107882707D02*
X149830242Y-107768422D01*
X149830242Y-107768422D02*
X149830242Y-107482707D01*
X149830242Y-107482707D02*
X149887385Y-107311279D01*
X143917292Y-135485600D02*
X144831578Y-135485600D01*
X144374435Y-135942742D02*
X144374435Y-135028457D01*
X163867219Y-122130326D02*
X163200552Y-122130326D01*
X163391028Y-122130326D02*
X163295790Y-122082707D01*
X163295790Y-122082707D02*
X163248171Y-122035088D01*
X163248171Y-122035088D02*
X163200552Y-121939850D01*
X163200552Y-121939850D02*
X163200552Y-121844612D01*
X163819600Y-121130326D02*
X163867219Y-121225564D01*
X163867219Y-121225564D02*
X163867219Y-121416040D01*
X163867219Y-121416040D02*
X163819600Y-121511278D01*
X163819600Y-121511278D02*
X163724361Y-121558897D01*
X163724361Y-121558897D02*
X163343409Y-121558897D01*
X163343409Y-121558897D02*
X163248171Y-121511278D01*
X163248171Y-121511278D02*
X163200552Y-121416040D01*
X163200552Y-121416040D02*
X163200552Y-121225564D01*
X163200552Y-121225564D02*
X163248171Y-121130326D01*
X163248171Y-121130326D02*
X163343409Y-121082707D01*
X163343409Y-121082707D02*
X163438647Y-121082707D01*
X163438647Y-121082707D02*
X163533885Y-121558897D01*
X163200552Y-120749373D02*
X163867219Y-120511278D01*
X163867219Y-120511278D02*
X163200552Y-120273183D01*
X163771980Y-119892230D02*
X163819600Y-119844611D01*
X163819600Y-119844611D02*
X163867219Y-119892230D01*
X163867219Y-119892230D02*
X163819600Y-119939849D01*
X163819600Y-119939849D02*
X163771980Y-119892230D01*
X163771980Y-119892230D02*
X163867219Y-119892230D01*
X163867219Y-118892231D02*
X163867219Y-119463659D01*
X163867219Y-119177945D02*
X162867219Y-119177945D01*
X162867219Y-119177945D02*
X163010076Y-119273183D01*
X163010076Y-119273183D02*
X163105314Y-119368421D01*
X163105314Y-119368421D02*
X163152933Y-119463659D01*
X163867219Y-117177945D02*
X163867219Y-117749373D01*
X163867219Y-117463659D02*
X162867219Y-117463659D01*
X162867219Y-117463659D02*
X163010076Y-117558897D01*
X163010076Y-117558897D02*
X163105314Y-117654135D01*
X163105314Y-117654135D02*
X163152933Y-117749373D01*
X162867219Y-116558897D02*
X162867219Y-116463659D01*
X162867219Y-116463659D02*
X162914838Y-116368421D01*
X162914838Y-116368421D02*
X162962457Y-116320802D01*
X162962457Y-116320802D02*
X163057695Y-116273183D01*
X163057695Y-116273183D02*
X163248171Y-116225564D01*
X163248171Y-116225564D02*
X163486266Y-116225564D01*
X163486266Y-116225564D02*
X163676742Y-116273183D01*
X163676742Y-116273183D02*
X163771980Y-116320802D01*
X163771980Y-116320802D02*
X163819600Y-116368421D01*
X163819600Y-116368421D02*
X163867219Y-116463659D01*
X163867219Y-116463659D02*
X163867219Y-116558897D01*
X163867219Y-116558897D02*
X163819600Y-116654135D01*
X163819600Y-116654135D02*
X163771980Y-116701754D01*
X163771980Y-116701754D02*
X163676742Y-116749373D01*
X163676742Y-116749373D02*
X163486266Y-116796992D01*
X163486266Y-116796992D02*
X163248171Y-116796992D01*
X163248171Y-116796992D02*
X163057695Y-116749373D01*
X163057695Y-116749373D02*
X162962457Y-116701754D01*
X162962457Y-116701754D02*
X162914838Y-116654135D01*
X162914838Y-116654135D02*
X162867219Y-116558897D01*
X162819600Y-115082707D02*
X164105314Y-115939849D01*
X163867219Y-114225564D02*
X163867219Y-114796992D01*
X163867219Y-114511278D02*
X162867219Y-114511278D01*
X162867219Y-114511278D02*
X163010076Y-114606516D01*
X163010076Y-114606516D02*
X163105314Y-114701754D01*
X163105314Y-114701754D02*
X163152933Y-114796992D01*
X163867219Y-113273183D02*
X163867219Y-113844611D01*
X163867219Y-113558897D02*
X162867219Y-113558897D01*
X162867219Y-113558897D02*
X163010076Y-113654135D01*
X163010076Y-113654135D02*
X163105314Y-113749373D01*
X163105314Y-113749373D02*
X163152933Y-113844611D01*
X162819600Y-112130326D02*
X164105314Y-112987468D01*
X162962457Y-111844611D02*
X162914838Y-111796992D01*
X162914838Y-111796992D02*
X162867219Y-111701754D01*
X162867219Y-111701754D02*
X162867219Y-111463659D01*
X162867219Y-111463659D02*
X162914838Y-111368421D01*
X162914838Y-111368421D02*
X162962457Y-111320802D01*
X162962457Y-111320802D02*
X163057695Y-111273183D01*
X163057695Y-111273183D02*
X163152933Y-111273183D01*
X163152933Y-111273183D02*
X163295790Y-111320802D01*
X163295790Y-111320802D02*
X163867219Y-111892230D01*
X163867219Y-111892230D02*
X163867219Y-111273183D01*
X162867219Y-110654135D02*
X162867219Y-110558897D01*
X162867219Y-110558897D02*
X162914838Y-110463659D01*
X162914838Y-110463659D02*
X162962457Y-110416040D01*
X162962457Y-110416040D02*
X163057695Y-110368421D01*
X163057695Y-110368421D02*
X163248171Y-110320802D01*
X163248171Y-110320802D02*
X163486266Y-110320802D01*
X163486266Y-110320802D02*
X163676742Y-110368421D01*
X163676742Y-110368421D02*
X163771980Y-110416040D01*
X163771980Y-110416040D02*
X163819600Y-110463659D01*
X163819600Y-110463659D02*
X163867219Y-110558897D01*
X163867219Y-110558897D02*
X163867219Y-110654135D01*
X163867219Y-110654135D02*
X163819600Y-110749373D01*
X163819600Y-110749373D02*
X163771980Y-110796992D01*
X163771980Y-110796992D02*
X163676742Y-110844611D01*
X163676742Y-110844611D02*
X163486266Y-110892230D01*
X163486266Y-110892230D02*
X163248171Y-110892230D01*
X163248171Y-110892230D02*
X163057695Y-110844611D01*
X163057695Y-110844611D02*
X162962457Y-110796992D01*
X162962457Y-110796992D02*
X162914838Y-110749373D01*
X162914838Y-110749373D02*
X162867219Y-110654135D01*
X162962457Y-109939849D02*
X162914838Y-109892230D01*
X162914838Y-109892230D02*
X162867219Y-109796992D01*
X162867219Y-109796992D02*
X162867219Y-109558897D01*
X162867219Y-109558897D02*
X162914838Y-109463659D01*
X162914838Y-109463659D02*
X162962457Y-109416040D01*
X162962457Y-109416040D02*
X163057695Y-109368421D01*
X163057695Y-109368421D02*
X163152933Y-109368421D01*
X163152933Y-109368421D02*
X163295790Y-109416040D01*
X163295790Y-109416040D02*
X163867219Y-109987468D01*
X163867219Y-109987468D02*
X163867219Y-109368421D01*
X163200552Y-108511278D02*
X163867219Y-108511278D01*
X162819600Y-108749373D02*
X163533885Y-108987468D01*
X163533885Y-108987468D02*
X163533885Y-108368421D01*
X149517292Y-135485600D02*
X150431578Y-135485600D01*
X152333363Y-115867219D02*
X151857173Y-115867219D01*
X151857173Y-115867219D02*
X151857173Y-114867219D01*
X152857173Y-114867219D02*
X153047649Y-114867219D01*
X153047649Y-114867219D02*
X153142887Y-114914838D01*
X153142887Y-114914838D02*
X153238125Y-115010076D01*
X153238125Y-115010076D02*
X153285744Y-115200552D01*
X153285744Y-115200552D02*
X153285744Y-115533885D01*
X153285744Y-115533885D02*
X153238125Y-115724361D01*
X153238125Y-115724361D02*
X153142887Y-115819600D01*
X153142887Y-115819600D02*
X153047649Y-115867219D01*
X153047649Y-115867219D02*
X152857173Y-115867219D01*
X152857173Y-115867219D02*
X152761935Y-115819600D01*
X152761935Y-115819600D02*
X152666697Y-115724361D01*
X152666697Y-115724361D02*
X152619078Y-115533885D01*
X152619078Y-115533885D02*
X152619078Y-115200552D01*
X152619078Y-115200552D02*
X152666697Y-115010076D01*
X152666697Y-115010076D02*
X152761935Y-114914838D01*
X152761935Y-114914838D02*
X152857173Y-114867219D01*
X153619078Y-114867219D02*
X153857173Y-115867219D01*
X153857173Y-115867219D02*
X154047649Y-115152933D01*
X154047649Y-115152933D02*
X154238125Y-115867219D01*
X154238125Y-115867219D02*
X154476221Y-114867219D01*
X120617292Y-108385600D02*
X121531578Y-108385600D01*
D13*
X154492261Y-121650057D02*
X154397023Y-121602438D01*
X154397023Y-121602438D02*
X154301785Y-121507200D01*
X154301785Y-121507200D02*
X154158928Y-121364342D01*
X154158928Y-121364342D02*
X154063690Y-121316723D01*
X154063690Y-121316723D02*
X153968452Y-121316723D01*
X154016071Y-121554819D02*
X153920833Y-121507200D01*
X153920833Y-121507200D02*
X153825595Y-121411961D01*
X153825595Y-121411961D02*
X153777976Y-121221485D01*
X153777976Y-121221485D02*
X153777976Y-120888152D01*
X153777976Y-120888152D02*
X153825595Y-120697676D01*
X153825595Y-120697676D02*
X153920833Y-120602438D01*
X153920833Y-120602438D02*
X154016071Y-120554819D01*
X154016071Y-120554819D02*
X154206547Y-120554819D01*
X154206547Y-120554819D02*
X154301785Y-120602438D01*
X154301785Y-120602438D02*
X154397023Y-120697676D01*
X154397023Y-120697676D02*
X154444642Y-120888152D01*
X154444642Y-120888152D02*
X154444642Y-121221485D01*
X154444642Y-121221485D02*
X154397023Y-121411961D01*
X154397023Y-121411961D02*
X154301785Y-121507200D01*
X154301785Y-121507200D02*
X154206547Y-121554819D01*
X154206547Y-121554819D02*
X154016071Y-121554819D01*
X154777976Y-120554819D02*
X155397023Y-120554819D01*
X155397023Y-120554819D02*
X155063690Y-120935771D01*
X155063690Y-120935771D02*
X155206547Y-120935771D01*
X155206547Y-120935771D02*
X155301785Y-120983390D01*
X155301785Y-120983390D02*
X155349404Y-121031009D01*
X155349404Y-121031009D02*
X155397023Y-121126247D01*
X155397023Y-121126247D02*
X155397023Y-121364342D01*
X155397023Y-121364342D02*
X155349404Y-121459580D01*
X155349404Y-121459580D02*
X155301785Y-121507200D01*
X155301785Y-121507200D02*
X155206547Y-121554819D01*
X155206547Y-121554819D02*
X154920833Y-121554819D01*
X154920833Y-121554819D02*
X154825595Y-121507200D01*
X154825595Y-121507200D02*
X154777976Y-121459580D01*
X103161905Y-127954819D02*
X103161905Y-126954819D01*
X103161905Y-126954819D02*
X103400000Y-126954819D01*
X103400000Y-126954819D02*
X103542857Y-127002438D01*
X103542857Y-127002438D02*
X103638095Y-127097676D01*
X103638095Y-127097676D02*
X103685714Y-127192914D01*
X103685714Y-127192914D02*
X103733333Y-127383390D01*
X103733333Y-127383390D02*
X103733333Y-127526247D01*
X103733333Y-127526247D02*
X103685714Y-127716723D01*
X103685714Y-127716723D02*
X103638095Y-127811961D01*
X103638095Y-127811961D02*
X103542857Y-127907200D01*
X103542857Y-127907200D02*
X103400000Y-127954819D01*
X103400000Y-127954819D02*
X103161905Y-127954819D01*
X104066667Y-126954819D02*
X104685714Y-126954819D01*
X104685714Y-126954819D02*
X104352381Y-127335771D01*
X104352381Y-127335771D02*
X104495238Y-127335771D01*
X104495238Y-127335771D02*
X104590476Y-127383390D01*
X104590476Y-127383390D02*
X104638095Y-127431009D01*
X104638095Y-127431009D02*
X104685714Y-127526247D01*
X104685714Y-127526247D02*
X104685714Y-127764342D01*
X104685714Y-127764342D02*
X104638095Y-127859580D01*
X104638095Y-127859580D02*
X104590476Y-127907200D01*
X104590476Y-127907200D02*
X104495238Y-127954819D01*
X104495238Y-127954819D02*
X104209524Y-127954819D01*
X104209524Y-127954819D02*
X104114286Y-127907200D01*
X104114286Y-127907200D02*
X104066667Y-127859580D01*
X132338095Y-130554819D02*
X132338095Y-131364342D01*
X132338095Y-131364342D02*
X132385714Y-131459580D01*
X132385714Y-131459580D02*
X132433333Y-131507200D01*
X132433333Y-131507200D02*
X132528571Y-131554819D01*
X132528571Y-131554819D02*
X132719047Y-131554819D01*
X132719047Y-131554819D02*
X132814285Y-131507200D01*
X132814285Y-131507200D02*
X132861904Y-131459580D01*
X132861904Y-131459580D02*
X132909523Y-131364342D01*
X132909523Y-131364342D02*
X132909523Y-130554819D01*
X133290476Y-130554819D02*
X133909523Y-130554819D01*
X133909523Y-130554819D02*
X133576190Y-130935771D01*
X133576190Y-130935771D02*
X133719047Y-130935771D01*
X133719047Y-130935771D02*
X133814285Y-130983390D01*
X133814285Y-130983390D02*
X133861904Y-131031009D01*
X133861904Y-131031009D02*
X133909523Y-131126247D01*
X133909523Y-131126247D02*
X133909523Y-131364342D01*
X133909523Y-131364342D02*
X133861904Y-131459580D01*
X133861904Y-131459580D02*
X133814285Y-131507200D01*
X133814285Y-131507200D02*
X133719047Y-131554819D01*
X133719047Y-131554819D02*
X133433333Y-131554819D01*
X133433333Y-131554819D02*
X133338095Y-131507200D01*
X133338095Y-131507200D02*
X133290476Y-131459580D01*
X157420833Y-121554819D02*
X157087500Y-121078628D01*
X156849405Y-121554819D02*
X156849405Y-120554819D01*
X156849405Y-120554819D02*
X157230357Y-120554819D01*
X157230357Y-120554819D02*
X157325595Y-120602438D01*
X157325595Y-120602438D02*
X157373214Y-120650057D01*
X157373214Y-120650057D02*
X157420833Y-120745295D01*
X157420833Y-120745295D02*
X157420833Y-120888152D01*
X157420833Y-120888152D02*
X157373214Y-120983390D01*
X157373214Y-120983390D02*
X157325595Y-121031009D01*
X157325595Y-121031009D02*
X157230357Y-121078628D01*
X157230357Y-121078628D02*
X156849405Y-121078628D01*
X157992262Y-120983390D02*
X157897024Y-120935771D01*
X157897024Y-120935771D02*
X157849405Y-120888152D01*
X157849405Y-120888152D02*
X157801786Y-120792914D01*
X157801786Y-120792914D02*
X157801786Y-120745295D01*
X157801786Y-120745295D02*
X157849405Y-120650057D01*
X157849405Y-120650057D02*
X157897024Y-120602438D01*
X157897024Y-120602438D02*
X157992262Y-120554819D01*
X157992262Y-120554819D02*
X158182738Y-120554819D01*
X158182738Y-120554819D02*
X158277976Y-120602438D01*
X158277976Y-120602438D02*
X158325595Y-120650057D01*
X158325595Y-120650057D02*
X158373214Y-120745295D01*
X158373214Y-120745295D02*
X158373214Y-120792914D01*
X158373214Y-120792914D02*
X158325595Y-120888152D01*
X158325595Y-120888152D02*
X158277976Y-120935771D01*
X158277976Y-120935771D02*
X158182738Y-120983390D01*
X158182738Y-120983390D02*
X157992262Y-120983390D01*
X157992262Y-120983390D02*
X157897024Y-121031009D01*
X157897024Y-121031009D02*
X157849405Y-121078628D01*
X157849405Y-121078628D02*
X157801786Y-121173866D01*
X157801786Y-121173866D02*
X157801786Y-121364342D01*
X157801786Y-121364342D02*
X157849405Y-121459580D01*
X157849405Y-121459580D02*
X157897024Y-121507200D01*
X157897024Y-121507200D02*
X157992262Y-121554819D01*
X157992262Y-121554819D02*
X158182738Y-121554819D01*
X158182738Y-121554819D02*
X158277976Y-121507200D01*
X158277976Y-121507200D02*
X158325595Y-121459580D01*
X158325595Y-121459580D02*
X158373214Y-121364342D01*
X158373214Y-121364342D02*
X158373214Y-121173866D01*
X158373214Y-121173866D02*
X158325595Y-121078628D01*
X158325595Y-121078628D02*
X158277976Y-121031009D01*
X158277976Y-121031009D02*
X158182738Y-120983390D01*
X125733333Y-122354819D02*
X125400000Y-121878628D01*
X125161905Y-122354819D02*
X125161905Y-121354819D01*
X125161905Y-121354819D02*
X125542857Y-121354819D01*
X125542857Y-121354819D02*
X125638095Y-121402438D01*
X125638095Y-121402438D02*
X125685714Y-121450057D01*
X125685714Y-121450057D02*
X125733333Y-121545295D01*
X125733333Y-121545295D02*
X125733333Y-121688152D01*
X125733333Y-121688152D02*
X125685714Y-121783390D01*
X125685714Y-121783390D02*
X125638095Y-121831009D01*
X125638095Y-121831009D02*
X125542857Y-121878628D01*
X125542857Y-121878628D02*
X125161905Y-121878628D01*
X126590476Y-121354819D02*
X126400000Y-121354819D01*
X126400000Y-121354819D02*
X126304762Y-121402438D01*
X126304762Y-121402438D02*
X126257143Y-121450057D01*
X126257143Y-121450057D02*
X126161905Y-121592914D01*
X126161905Y-121592914D02*
X126114286Y-121783390D01*
X126114286Y-121783390D02*
X126114286Y-122164342D01*
X126114286Y-122164342D02*
X126161905Y-122259580D01*
X126161905Y-122259580D02*
X126209524Y-122307200D01*
X126209524Y-122307200D02*
X126304762Y-122354819D01*
X126304762Y-122354819D02*
X126495238Y-122354819D01*
X126495238Y-122354819D02*
X126590476Y-122307200D01*
X126590476Y-122307200D02*
X126638095Y-122259580D01*
X126638095Y-122259580D02*
X126685714Y-122164342D01*
X126685714Y-122164342D02*
X126685714Y-121926247D01*
X126685714Y-121926247D02*
X126638095Y-121831009D01*
X126638095Y-121831009D02*
X126590476Y-121783390D01*
X126590476Y-121783390D02*
X126495238Y-121735771D01*
X126495238Y-121735771D02*
X126304762Y-121735771D01*
X126304762Y-121735771D02*
X126209524Y-121783390D01*
X126209524Y-121783390D02*
X126161905Y-121831009D01*
X126161905Y-121831009D02*
X126114286Y-121926247D01*
X144294849Y-112447607D02*
X145104372Y-112447607D01*
X145104372Y-112447607D02*
X145199610Y-112399988D01*
X145199610Y-112399988D02*
X145247230Y-112352369D01*
X145247230Y-112352369D02*
X145294849Y-112257131D01*
X145294849Y-112257131D02*
X145294849Y-112066655D01*
X145294849Y-112066655D02*
X145247230Y-111971417D01*
X145247230Y-111971417D02*
X145199610Y-111923798D01*
X145199610Y-111923798D02*
X145104372Y-111876179D01*
X145104372Y-111876179D02*
X144294849Y-111876179D01*
X144390087Y-111447607D02*
X144342468Y-111399988D01*
X144342468Y-111399988D02*
X144294849Y-111304750D01*
X144294849Y-111304750D02*
X144294849Y-111066655D01*
X144294849Y-111066655D02*
X144342468Y-110971417D01*
X144342468Y-110971417D02*
X144390087Y-110923798D01*
X144390087Y-110923798D02*
X144485325Y-110876179D01*
X144485325Y-110876179D02*
X144580563Y-110876179D01*
X144580563Y-110876179D02*
X144723420Y-110923798D01*
X144723420Y-110923798D02*
X145294849Y-111495226D01*
X145294849Y-111495226D02*
X145294849Y-110876179D01*
X133623569Y-114154166D02*
X133147378Y-114487499D01*
X133623569Y-114725594D02*
X132623569Y-114725594D01*
X132623569Y-114725594D02*
X132623569Y-114344642D01*
X132623569Y-114344642D02*
X132671188Y-114249404D01*
X132671188Y-114249404D02*
X132718807Y-114201785D01*
X132718807Y-114201785D02*
X132814045Y-114154166D01*
X132814045Y-114154166D02*
X132956902Y-114154166D01*
X132956902Y-114154166D02*
X133052140Y-114201785D01*
X133052140Y-114201785D02*
X133099759Y-114249404D01*
X133099759Y-114249404D02*
X133147378Y-114344642D01*
X133147378Y-114344642D02*
X133147378Y-114725594D01*
X132718807Y-113773213D02*
X132671188Y-113725594D01*
X132671188Y-113725594D02*
X132623569Y-113630356D01*
X132623569Y-113630356D02*
X132623569Y-113392261D01*
X132623569Y-113392261D02*
X132671188Y-113297023D01*
X132671188Y-113297023D02*
X132718807Y-113249404D01*
X132718807Y-113249404D02*
X132814045Y-113201785D01*
X132814045Y-113201785D02*
X132909283Y-113201785D01*
X132909283Y-113201785D02*
X133052140Y-113249404D01*
X133052140Y-113249404D02*
X133623569Y-113820832D01*
X133623569Y-113820832D02*
X133623569Y-113201785D01*
X128304761Y-122900057D02*
X128209523Y-122852438D01*
X128209523Y-122852438D02*
X128114285Y-122757200D01*
X128114285Y-122757200D02*
X127971428Y-122614342D01*
X127971428Y-122614342D02*
X127876190Y-122566723D01*
X127876190Y-122566723D02*
X127780952Y-122566723D01*
X127828571Y-122804819D02*
X127733333Y-122757200D01*
X127733333Y-122757200D02*
X127638095Y-122661961D01*
X127638095Y-122661961D02*
X127590476Y-122471485D01*
X127590476Y-122471485D02*
X127590476Y-122138152D01*
X127590476Y-122138152D02*
X127638095Y-121947676D01*
X127638095Y-121947676D02*
X127733333Y-121852438D01*
X127733333Y-121852438D02*
X127828571Y-121804819D01*
X127828571Y-121804819D02*
X128019047Y-121804819D01*
X128019047Y-121804819D02*
X128114285Y-121852438D01*
X128114285Y-121852438D02*
X128209523Y-121947676D01*
X128209523Y-121947676D02*
X128257142Y-122138152D01*
X128257142Y-122138152D02*
X128257142Y-122471485D01*
X128257142Y-122471485D02*
X128209523Y-122661961D01*
X128209523Y-122661961D02*
X128114285Y-122757200D01*
X128114285Y-122757200D02*
X128019047Y-122804819D01*
X128019047Y-122804819D02*
X127828571Y-122804819D01*
X128638095Y-121900057D02*
X128685714Y-121852438D01*
X128685714Y-121852438D02*
X128780952Y-121804819D01*
X128780952Y-121804819D02*
X129019047Y-121804819D01*
X129019047Y-121804819D02*
X129114285Y-121852438D01*
X129114285Y-121852438D02*
X129161904Y-121900057D01*
X129161904Y-121900057D02*
X129209523Y-121995295D01*
X129209523Y-121995295D02*
X129209523Y-122090533D01*
X129209523Y-122090533D02*
X129161904Y-122233390D01*
X129161904Y-122233390D02*
X128590476Y-122804819D01*
X128590476Y-122804819D02*
X129209523Y-122804819D01*
X154492261Y-107850057D02*
X154397023Y-107802438D01*
X154397023Y-107802438D02*
X154301785Y-107707200D01*
X154301785Y-107707200D02*
X154158928Y-107564342D01*
X154158928Y-107564342D02*
X154063690Y-107516723D01*
X154063690Y-107516723D02*
X153968452Y-107516723D01*
X154016071Y-107754819D02*
X153920833Y-107707200D01*
X153920833Y-107707200D02*
X153825595Y-107611961D01*
X153825595Y-107611961D02*
X153777976Y-107421485D01*
X153777976Y-107421485D02*
X153777976Y-107088152D01*
X153777976Y-107088152D02*
X153825595Y-106897676D01*
X153825595Y-106897676D02*
X153920833Y-106802438D01*
X153920833Y-106802438D02*
X154016071Y-106754819D01*
X154016071Y-106754819D02*
X154206547Y-106754819D01*
X154206547Y-106754819D02*
X154301785Y-106802438D01*
X154301785Y-106802438D02*
X154397023Y-106897676D01*
X154397023Y-106897676D02*
X154444642Y-107088152D01*
X154444642Y-107088152D02*
X154444642Y-107421485D01*
X154444642Y-107421485D02*
X154397023Y-107611961D01*
X154397023Y-107611961D02*
X154301785Y-107707200D01*
X154301785Y-107707200D02*
X154206547Y-107754819D01*
X154206547Y-107754819D02*
X154016071Y-107754819D01*
X155397023Y-107754819D02*
X154825595Y-107754819D01*
X155111309Y-107754819D02*
X155111309Y-106754819D01*
X155111309Y-106754819D02*
X155016071Y-106897676D01*
X155016071Y-106897676D02*
X154920833Y-106992914D01*
X154920833Y-106992914D02*
X154825595Y-107040533D01*
X133623569Y-117954166D02*
X133147378Y-118287499D01*
X133623569Y-118525594D02*
X132623569Y-118525594D01*
X132623569Y-118525594D02*
X132623569Y-118144642D01*
X132623569Y-118144642D02*
X132671188Y-118049404D01*
X132671188Y-118049404D02*
X132718807Y-118001785D01*
X132718807Y-118001785D02*
X132814045Y-117954166D01*
X132814045Y-117954166D02*
X132956902Y-117954166D01*
X132956902Y-117954166D02*
X133052140Y-118001785D01*
X133052140Y-118001785D02*
X133099759Y-118049404D01*
X133099759Y-118049404D02*
X133147378Y-118144642D01*
X133147378Y-118144642D02*
X133147378Y-118525594D01*
X133623569Y-117001785D02*
X133623569Y-117573213D01*
X133623569Y-117287499D02*
X132623569Y-117287499D01*
X132623569Y-117287499D02*
X132766426Y-117382737D01*
X132766426Y-117382737D02*
X132861664Y-117477975D01*
X132861664Y-117477975D02*
X132909283Y-117573213D01*
X137252083Y-120675517D02*
X137204464Y-120723137D01*
X137204464Y-120723137D02*
X137061607Y-120770756D01*
X137061607Y-120770756D02*
X136966369Y-120770756D01*
X136966369Y-120770756D02*
X136823512Y-120723137D01*
X136823512Y-120723137D02*
X136728274Y-120627898D01*
X136728274Y-120627898D02*
X136680655Y-120532660D01*
X136680655Y-120532660D02*
X136633036Y-120342184D01*
X136633036Y-120342184D02*
X136633036Y-120199327D01*
X136633036Y-120199327D02*
X136680655Y-120008851D01*
X136680655Y-120008851D02*
X136728274Y-119913613D01*
X136728274Y-119913613D02*
X136823512Y-119818375D01*
X136823512Y-119818375D02*
X136966369Y-119770756D01*
X136966369Y-119770756D02*
X137061607Y-119770756D01*
X137061607Y-119770756D02*
X137204464Y-119818375D01*
X137204464Y-119818375D02*
X137252083Y-119865994D01*
X138204464Y-120770756D02*
X137633036Y-120770756D01*
X137918750Y-120770756D02*
X137918750Y-119770756D01*
X137918750Y-119770756D02*
X137823512Y-119913613D01*
X137823512Y-119913613D02*
X137728274Y-120008851D01*
X137728274Y-120008851D02*
X137633036Y-120056470D01*
X124009580Y-130791666D02*
X124057200Y-130839285D01*
X124057200Y-130839285D02*
X124104819Y-130982142D01*
X124104819Y-130982142D02*
X124104819Y-131077380D01*
X124104819Y-131077380D02*
X124057200Y-131220237D01*
X124057200Y-131220237D02*
X123961961Y-131315475D01*
X123961961Y-131315475D02*
X123866723Y-131363094D01*
X123866723Y-131363094D02*
X123676247Y-131410713D01*
X123676247Y-131410713D02*
X123533390Y-131410713D01*
X123533390Y-131410713D02*
X123342914Y-131363094D01*
X123342914Y-131363094D02*
X123247676Y-131315475D01*
X123247676Y-131315475D02*
X123152438Y-131220237D01*
X123152438Y-131220237D02*
X123104819Y-131077380D01*
X123104819Y-131077380D02*
X123104819Y-130982142D01*
X123104819Y-130982142D02*
X123152438Y-130839285D01*
X123152438Y-130839285D02*
X123200057Y-130791666D01*
X123438152Y-129934523D02*
X124104819Y-129934523D01*
X123057200Y-130172618D02*
X123771485Y-130410713D01*
X123771485Y-130410713D02*
X123771485Y-129791666D01*
X158711905Y-115854819D02*
X158711905Y-114854819D01*
X158711905Y-114854819D02*
X158950000Y-114854819D01*
X158950000Y-114854819D02*
X159092857Y-114902438D01*
X159092857Y-114902438D02*
X159188095Y-114997676D01*
X159188095Y-114997676D02*
X159235714Y-115092914D01*
X159235714Y-115092914D02*
X159283333Y-115283390D01*
X159283333Y-115283390D02*
X159283333Y-115426247D01*
X159283333Y-115426247D02*
X159235714Y-115616723D01*
X159235714Y-115616723D02*
X159188095Y-115711961D01*
X159188095Y-115711961D02*
X159092857Y-115807200D01*
X159092857Y-115807200D02*
X158950000Y-115854819D01*
X158950000Y-115854819D02*
X158711905Y-115854819D01*
X159664286Y-114950057D02*
X159711905Y-114902438D01*
X159711905Y-114902438D02*
X159807143Y-114854819D01*
X159807143Y-114854819D02*
X160045238Y-114854819D01*
X160045238Y-114854819D02*
X160140476Y-114902438D01*
X160140476Y-114902438D02*
X160188095Y-114950057D01*
X160188095Y-114950057D02*
X160235714Y-115045295D01*
X160235714Y-115045295D02*
X160235714Y-115140533D01*
X160235714Y-115140533D02*
X160188095Y-115283390D01*
X160188095Y-115283390D02*
X159616667Y-115854819D01*
X159616667Y-115854819D02*
X160235714Y-115854819D01*
X157420833Y-107754819D02*
X157087500Y-107278628D01*
X156849405Y-107754819D02*
X156849405Y-106754819D01*
X156849405Y-106754819D02*
X157230357Y-106754819D01*
X157230357Y-106754819D02*
X157325595Y-106802438D01*
X157325595Y-106802438D02*
X157373214Y-106850057D01*
X157373214Y-106850057D02*
X157420833Y-106945295D01*
X157420833Y-106945295D02*
X157420833Y-107088152D01*
X157420833Y-107088152D02*
X157373214Y-107183390D01*
X157373214Y-107183390D02*
X157325595Y-107231009D01*
X157325595Y-107231009D02*
X157230357Y-107278628D01*
X157230357Y-107278628D02*
X156849405Y-107278628D01*
X157754167Y-106754819D02*
X158420833Y-106754819D01*
X158420833Y-106754819D02*
X157992262Y-107754819D01*
X147033333Y-110604819D02*
X146700000Y-110128628D01*
X146461905Y-110604819D02*
X146461905Y-109604819D01*
X146461905Y-109604819D02*
X146842857Y-109604819D01*
X146842857Y-109604819D02*
X146938095Y-109652438D01*
X146938095Y-109652438D02*
X146985714Y-109700057D01*
X146985714Y-109700057D02*
X147033333Y-109795295D01*
X147033333Y-109795295D02*
X147033333Y-109938152D01*
X147033333Y-109938152D02*
X146985714Y-110033390D01*
X146985714Y-110033390D02*
X146938095Y-110081009D01*
X146938095Y-110081009D02*
X146842857Y-110128628D01*
X146842857Y-110128628D02*
X146461905Y-110128628D01*
X147890476Y-109938152D02*
X147890476Y-110604819D01*
X147652381Y-109557200D02*
X147414286Y-110271485D01*
X147414286Y-110271485D02*
X148033333Y-110271485D01*
X141233333Y-125034819D02*
X140900000Y-124558628D01*
X140661905Y-125034819D02*
X140661905Y-124034819D01*
X140661905Y-124034819D02*
X141042857Y-124034819D01*
X141042857Y-124034819D02*
X141138095Y-124082438D01*
X141138095Y-124082438D02*
X141185714Y-124130057D01*
X141185714Y-124130057D02*
X141233333Y-124225295D01*
X141233333Y-124225295D02*
X141233333Y-124368152D01*
X141233333Y-124368152D02*
X141185714Y-124463390D01*
X141185714Y-124463390D02*
X141138095Y-124511009D01*
X141138095Y-124511009D02*
X141042857Y-124558628D01*
X141042857Y-124558628D02*
X140661905Y-124558628D01*
X141709524Y-125034819D02*
X141900000Y-125034819D01*
X141900000Y-125034819D02*
X141995238Y-124987200D01*
X141995238Y-124987200D02*
X142042857Y-124939580D01*
X142042857Y-124939580D02*
X142138095Y-124796723D01*
X142138095Y-124796723D02*
X142185714Y-124606247D01*
X142185714Y-124606247D02*
X142185714Y-124225295D01*
X142185714Y-124225295D02*
X142138095Y-124130057D01*
X142138095Y-124130057D02*
X142090476Y-124082438D01*
X142090476Y-124082438D02*
X141995238Y-124034819D01*
X141995238Y-124034819D02*
X141804762Y-124034819D01*
X141804762Y-124034819D02*
X141709524Y-124082438D01*
X141709524Y-124082438D02*
X141661905Y-124130057D01*
X141661905Y-124130057D02*
X141614286Y-124225295D01*
X141614286Y-124225295D02*
X141614286Y-124463390D01*
X141614286Y-124463390D02*
X141661905Y-124558628D01*
X141661905Y-124558628D02*
X141709524Y-124606247D01*
X141709524Y-124606247D02*
X141804762Y-124653866D01*
X141804762Y-124653866D02*
X141995238Y-124653866D01*
X141995238Y-124653866D02*
X142090476Y-124606247D01*
X142090476Y-124606247D02*
X142138095Y-124558628D01*
X142138095Y-124558628D02*
X142185714Y-124463390D01*
X144800381Y-115359580D02*
X144752762Y-115407200D01*
X144752762Y-115407200D02*
X144609905Y-115454819D01*
X144609905Y-115454819D02*
X144514667Y-115454819D01*
X144514667Y-115454819D02*
X144371810Y-115407200D01*
X144371810Y-115407200D02*
X144276572Y-115311961D01*
X144276572Y-115311961D02*
X144228953Y-115216723D01*
X144228953Y-115216723D02*
X144181334Y-115026247D01*
X144181334Y-115026247D02*
X144181334Y-114883390D01*
X144181334Y-114883390D02*
X144228953Y-114692914D01*
X144228953Y-114692914D02*
X144276572Y-114597676D01*
X144276572Y-114597676D02*
X144371810Y-114502438D01*
X144371810Y-114502438D02*
X144514667Y-114454819D01*
X144514667Y-114454819D02*
X144609905Y-114454819D01*
X144609905Y-114454819D02*
X144752762Y-114502438D01*
X144752762Y-114502438D02*
X144800381Y-114550057D01*
X145181334Y-114550057D02*
X145228953Y-114502438D01*
X145228953Y-114502438D02*
X145324191Y-114454819D01*
X145324191Y-114454819D02*
X145562286Y-114454819D01*
X145562286Y-114454819D02*
X145657524Y-114502438D01*
X145657524Y-114502438D02*
X145705143Y-114550057D01*
X145705143Y-114550057D02*
X145752762Y-114645295D01*
X145752762Y-114645295D02*
X145752762Y-114740533D01*
X145752762Y-114740533D02*
X145705143Y-114883390D01*
X145705143Y-114883390D02*
X145133715Y-115454819D01*
X145133715Y-115454819D02*
X145752762Y-115454819D01*
X137326050Y-111723766D02*
X137373670Y-111771385D01*
X137373670Y-111771385D02*
X137421289Y-111914242D01*
X137421289Y-111914242D02*
X137421289Y-112009480D01*
X137421289Y-112009480D02*
X137373670Y-112152337D01*
X137373670Y-112152337D02*
X137278431Y-112247575D01*
X137278431Y-112247575D02*
X137183193Y-112295194D01*
X137183193Y-112295194D02*
X136992717Y-112342813D01*
X136992717Y-112342813D02*
X136849860Y-112342813D01*
X136849860Y-112342813D02*
X136659384Y-112295194D01*
X136659384Y-112295194D02*
X136564146Y-112247575D01*
X136564146Y-112247575D02*
X136468908Y-112152337D01*
X136468908Y-112152337D02*
X136421289Y-112009480D01*
X136421289Y-112009480D02*
X136421289Y-111914242D01*
X136421289Y-111914242D02*
X136468908Y-111771385D01*
X136468908Y-111771385D02*
X136516527Y-111723766D01*
X136421289Y-111390432D02*
X136421289Y-110771385D01*
X136421289Y-110771385D02*
X136802241Y-111104718D01*
X136802241Y-111104718D02*
X136802241Y-110961861D01*
X136802241Y-110961861D02*
X136849860Y-110866623D01*
X136849860Y-110866623D02*
X136897479Y-110819004D01*
X136897479Y-110819004D02*
X136992717Y-110771385D01*
X136992717Y-110771385D02*
X137230812Y-110771385D01*
X137230812Y-110771385D02*
X137326050Y-110819004D01*
X137326050Y-110819004D02*
X137373670Y-110866623D01*
X137373670Y-110866623D02*
X137421289Y-110961861D01*
X137421289Y-110961861D02*
X137421289Y-111247575D01*
X137421289Y-111247575D02*
X137373670Y-111342813D01*
X137373670Y-111342813D02*
X137326050Y-111390432D01*
X158711905Y-113254819D02*
X158711905Y-112254819D01*
X158711905Y-112254819D02*
X158950000Y-112254819D01*
X158950000Y-112254819D02*
X159092857Y-112302438D01*
X159092857Y-112302438D02*
X159188095Y-112397676D01*
X159188095Y-112397676D02*
X159235714Y-112492914D01*
X159235714Y-112492914D02*
X159283333Y-112683390D01*
X159283333Y-112683390D02*
X159283333Y-112826247D01*
X159283333Y-112826247D02*
X159235714Y-113016723D01*
X159235714Y-113016723D02*
X159188095Y-113111961D01*
X159188095Y-113111961D02*
X159092857Y-113207200D01*
X159092857Y-113207200D02*
X158950000Y-113254819D01*
X158950000Y-113254819D02*
X158711905Y-113254819D01*
X160235714Y-113254819D02*
X159664286Y-113254819D01*
X159950000Y-113254819D02*
X159950000Y-112254819D01*
X159950000Y-112254819D02*
X159854762Y-112397676D01*
X159854762Y-112397676D02*
X159759524Y-112492914D01*
X159759524Y-112492914D02*
X159664286Y-112540533D01*
X147033333Y-112004819D02*
X146700000Y-111528628D01*
X146461905Y-112004819D02*
X146461905Y-111004819D01*
X146461905Y-111004819D02*
X146842857Y-111004819D01*
X146842857Y-111004819D02*
X146938095Y-111052438D01*
X146938095Y-111052438D02*
X146985714Y-111100057D01*
X146985714Y-111100057D02*
X147033333Y-111195295D01*
X147033333Y-111195295D02*
X147033333Y-111338152D01*
X147033333Y-111338152D02*
X146985714Y-111433390D01*
X146985714Y-111433390D02*
X146938095Y-111481009D01*
X146938095Y-111481009D02*
X146842857Y-111528628D01*
X146842857Y-111528628D02*
X146461905Y-111528628D01*
X147366667Y-111004819D02*
X147985714Y-111004819D01*
X147985714Y-111004819D02*
X147652381Y-111385771D01*
X147652381Y-111385771D02*
X147795238Y-111385771D01*
X147795238Y-111385771D02*
X147890476Y-111433390D01*
X147890476Y-111433390D02*
X147938095Y-111481009D01*
X147938095Y-111481009D02*
X147985714Y-111576247D01*
X147985714Y-111576247D02*
X147985714Y-111814342D01*
X147985714Y-111814342D02*
X147938095Y-111909580D01*
X147938095Y-111909580D02*
X147890476Y-111957200D01*
X147890476Y-111957200D02*
X147795238Y-112004819D01*
X147795238Y-112004819D02*
X147509524Y-112004819D01*
X147509524Y-112004819D02*
X147414286Y-111957200D01*
X147414286Y-111957200D02*
X147366667Y-111909580D01*
X145263630Y-108357855D02*
X144787439Y-108691188D01*
X145263630Y-108929283D02*
X144263630Y-108929283D01*
X144263630Y-108929283D02*
X144263630Y-108548331D01*
X144263630Y-108548331D02*
X144311249Y-108453093D01*
X144311249Y-108453093D02*
X144358868Y-108405474D01*
X144358868Y-108405474D02*
X144454106Y-108357855D01*
X144454106Y-108357855D02*
X144596963Y-108357855D01*
X144596963Y-108357855D02*
X144692201Y-108405474D01*
X144692201Y-108405474D02*
X144739820Y-108453093D01*
X144739820Y-108453093D02*
X144787439Y-108548331D01*
X144787439Y-108548331D02*
X144787439Y-108929283D01*
X144263630Y-107453093D02*
X144263630Y-107929283D01*
X144263630Y-107929283D02*
X144739820Y-107976902D01*
X144739820Y-107976902D02*
X144692201Y-107929283D01*
X144692201Y-107929283D02*
X144644582Y-107834045D01*
X144644582Y-107834045D02*
X144644582Y-107595950D01*
X144644582Y-107595950D02*
X144692201Y-107500712D01*
X144692201Y-107500712D02*
X144739820Y-107453093D01*
X144739820Y-107453093D02*
X144835058Y-107405474D01*
X144835058Y-107405474D02*
X145073153Y-107405474D01*
X145073153Y-107405474D02*
X145168391Y-107453093D01*
X145168391Y-107453093D02*
X145216011Y-107500712D01*
X145216011Y-107500712D02*
X145263630Y-107595950D01*
X145263630Y-107595950D02*
X145263630Y-107834045D01*
X145263630Y-107834045D02*
X145216011Y-107929283D01*
X145216011Y-107929283D02*
X145168391Y-107976902D01*
X125704761Y-120650057D02*
X125609523Y-120602438D01*
X125609523Y-120602438D02*
X125514285Y-120507200D01*
X125514285Y-120507200D02*
X125371428Y-120364342D01*
X125371428Y-120364342D02*
X125276190Y-120316723D01*
X125276190Y-120316723D02*
X125180952Y-120316723D01*
X125228571Y-120554819D02*
X125133333Y-120507200D01*
X125133333Y-120507200D02*
X125038095Y-120411961D01*
X125038095Y-120411961D02*
X124990476Y-120221485D01*
X124990476Y-120221485D02*
X124990476Y-119888152D01*
X124990476Y-119888152D02*
X125038095Y-119697676D01*
X125038095Y-119697676D02*
X125133333Y-119602438D01*
X125133333Y-119602438D02*
X125228571Y-119554819D01*
X125228571Y-119554819D02*
X125419047Y-119554819D01*
X125419047Y-119554819D02*
X125514285Y-119602438D01*
X125514285Y-119602438D02*
X125609523Y-119697676D01*
X125609523Y-119697676D02*
X125657142Y-119888152D01*
X125657142Y-119888152D02*
X125657142Y-120221485D01*
X125657142Y-120221485D02*
X125609523Y-120411961D01*
X125609523Y-120411961D02*
X125514285Y-120507200D01*
X125514285Y-120507200D02*
X125419047Y-120554819D01*
X125419047Y-120554819D02*
X125228571Y-120554819D01*
X126514285Y-119888152D02*
X126514285Y-120554819D01*
X126276190Y-119507200D02*
X126038095Y-120221485D01*
X126038095Y-120221485D02*
X126657142Y-120221485D01*
X136638095Y-121154819D02*
X136638095Y-121964342D01*
X136638095Y-121964342D02*
X136685714Y-122059580D01*
X136685714Y-122059580D02*
X136733333Y-122107200D01*
X136733333Y-122107200D02*
X136828571Y-122154819D01*
X136828571Y-122154819D02*
X137019047Y-122154819D01*
X137019047Y-122154819D02*
X137114285Y-122107200D01*
X137114285Y-122107200D02*
X137161904Y-122059580D01*
X137161904Y-122059580D02*
X137209523Y-121964342D01*
X137209523Y-121964342D02*
X137209523Y-121154819D01*
X138114285Y-121488152D02*
X138114285Y-122154819D01*
X137876190Y-121107200D02*
X137638095Y-121821485D01*
X137638095Y-121821485D02*
X138257142Y-121821485D01*
D14*
%TO.C,Q3*%
X154587500Y-117040000D02*
X153937500Y-117040000D01*
X154587500Y-117040000D02*
X155237500Y-117040000D01*
X154587500Y-120160000D02*
X153937500Y-120160000D01*
X154587500Y-120160000D02*
X155237500Y-120160000D01*
X153425000Y-117090000D02*
X153185000Y-116760000D01*
X153665000Y-116760000D01*
X153425000Y-117090000D01*
G36*
X153425000Y-117090000D02*
G01*
X153185000Y-116760000D01*
X153665000Y-116760000D01*
X153425000Y-117090000D01*
G37*
%TO.C,D3*%
X110680000Y-127075000D02*
X105950000Y-127075000D01*
X110680000Y-131595000D02*
X106880000Y-131595000D01*
X105530000Y-127195000D02*
X105290000Y-126865000D01*
X105770000Y-126865000D01*
X105530000Y-127195000D01*
G36*
X105530000Y-127195000D02*
G01*
X105290000Y-126865000D01*
X105770000Y-126865000D01*
X105530000Y-127195000D01*
G37*
%TO.C,U3*%
X129865000Y-124900000D02*
X129865000Y-130100000D01*
X129865000Y-130100000D02*
X132100000Y-130100000D01*
X134100000Y-130100000D02*
X136335000Y-130100000D01*
X136335000Y-124900000D02*
X129865000Y-124900000D01*
X136335000Y-130100000D02*
X136335000Y-124900000D01*
X132100000Y-130100000D02*
G75*
G02*
X134100000Y-130100000I1000000J0D01*
G01*
%TO.C,R8*%
X156852500Y-118372936D02*
X156852500Y-118827064D01*
X158322500Y-118372936D02*
X158322500Y-118827064D01*
%TO.C,R6*%
X124765000Y-124172936D02*
X124765000Y-124627064D01*
X126235000Y-124172936D02*
X126235000Y-124627064D01*
%TO.C,TP4*%
X118800000Y-109613245D02*
X123200000Y-109613245D01*
X118800000Y-114013245D02*
X118800000Y-109613245D01*
X123200000Y-109613245D02*
X123200000Y-114013245D01*
X123200000Y-114013245D02*
X118800000Y-114013245D01*
%TO.C,U2*%
X140746606Y-111750000D02*
X140746606Y-110950000D01*
X140746606Y-111750000D02*
X140746606Y-112550000D01*
X143866606Y-111750000D02*
X143866606Y-110950000D01*
X143866606Y-111750000D02*
X143866606Y-112550000D01*
X140796606Y-113050000D02*
X140466606Y-113290000D01*
X140466606Y-112810000D01*
X140796606Y-113050000D01*
G36*
X140796606Y-113050000D02*
G01*
X140466606Y-113290000D01*
X140466606Y-112810000D01*
X140796606Y-113050000D01*
G37*
%TO.C,TP1*%
X113400000Y-124300000D02*
X117800000Y-124300000D01*
X113400000Y-128700000D02*
X113400000Y-124300000D01*
X117800000Y-124300000D02*
X117800000Y-128700000D01*
X117800000Y-128700000D02*
X113400000Y-128700000D01*
%TO.C,R2*%
X134083750Y-114214564D02*
X134083750Y-113760436D01*
X135553750Y-114214564D02*
X135553750Y-113760436D01*
%TO.C,Q2*%
X129840000Y-122300000D02*
X129840000Y-121650000D01*
X129840000Y-122300000D02*
X129840000Y-122950000D01*
X132960000Y-122300000D02*
X132960000Y-121650000D01*
X132960000Y-122300000D02*
X132960000Y-122950000D01*
X133240000Y-121377500D02*
X132910000Y-121137500D01*
X133240000Y-120897500D01*
X133240000Y-121377500D01*
G36*
X133240000Y-121377500D02*
G01*
X132910000Y-121137500D01*
X133240000Y-120897500D01*
X133240000Y-121377500D01*
G37*
%TO.C,Q1*%
X154587500Y-108140000D02*
X153937500Y-108140000D01*
X154587500Y-108140000D02*
X155237500Y-108140000D01*
X154587500Y-111260000D02*
X153937500Y-111260000D01*
X154587500Y-111260000D02*
X155237500Y-111260000D01*
X153425000Y-108190000D02*
X153185000Y-107860000D01*
X153665000Y-107860000D01*
X153425000Y-108190000D01*
G36*
X153425000Y-108190000D02*
G01*
X153185000Y-107860000D01*
X153665000Y-107860000D01*
X153425000Y-108190000D01*
G37*
%TO.C,R1*%
X134083750Y-118014564D02*
X134083750Y-117560436D01*
X135553750Y-118014564D02*
X135553750Y-117560436D01*
%TO.C,J1*%
X144430000Y-134030000D02*
X144430000Y-132700000D01*
X145760000Y-134030000D02*
X144430000Y-134030000D01*
X147030000Y-131370000D02*
X149630000Y-131370000D01*
X147030000Y-134030000D02*
X147030000Y-131370000D01*
X147030000Y-134030000D02*
X149630000Y-134030000D01*
X149630000Y-134030000D02*
X149630000Y-131370000D01*
%TO.C,C1*%
X136508750Y-117936252D02*
X136508750Y-116513748D01*
X138328750Y-117936252D02*
X138328750Y-116513748D01*
%TO.C,C4*%
X124590000Y-131336252D02*
X124590000Y-129913748D01*
X126410000Y-131336252D02*
X126410000Y-129913748D01*
%TO.C,D2*%
X155650000Y-116360000D02*
X158335000Y-116360000D01*
X158335000Y-114440000D02*
X155650000Y-114440000D01*
X158335000Y-116360000D02*
X158335000Y-114440000D01*
%TO.C,R7*%
X156852500Y-109472936D02*
X156852500Y-109927064D01*
X158322500Y-109472936D02*
X158322500Y-109927064D01*
%TO.C,R4*%
X146483750Y-114243001D02*
X146483750Y-113788873D01*
X147953750Y-114243001D02*
X147953750Y-113788873D01*
%TO.C,R9*%
X141172936Y-125495000D02*
X141627064Y-125495000D01*
X141172936Y-126965000D02*
X141627064Y-126965000D01*
%TO.C,C2*%
X144283750Y-118011252D02*
X144283750Y-117488748D01*
X145753750Y-118011252D02*
X145753750Y-117488748D01*
%TO.C,TP2*%
X118800000Y-124300000D02*
X123200000Y-124300000D01*
X118800000Y-128700000D02*
X118800000Y-124300000D01*
X123200000Y-124300000D02*
X123200000Y-128700000D01*
X123200000Y-128700000D02*
X118800000Y-128700000D01*
%TO.C,C3*%
X138240852Y-111488748D02*
X138240852Y-112011252D01*
X139710852Y-111488748D02*
X139710852Y-112011252D01*
%TO.C,D1*%
X154965000Y-111840000D02*
X154965000Y-113760000D01*
X154965000Y-113760000D02*
X157650000Y-113760000D01*
X157650000Y-111840000D02*
X154965000Y-111840000D01*
%TO.C,TP3*%
X113410000Y-109613245D02*
X117810000Y-109613245D01*
X113410000Y-114013245D02*
X113410000Y-109613245D01*
X117810000Y-109613245D02*
X117810000Y-114013245D01*
X117810000Y-114013245D02*
X113410000Y-114013245D01*
%TO.C,R3*%
X146483750Y-118014564D02*
X146483750Y-117560436D01*
X147953750Y-118014564D02*
X147953750Y-117560436D01*
%TO.C,R5*%
X142081747Y-107456189D02*
X142535875Y-107456189D01*
X142081747Y-108926189D02*
X142535875Y-108926189D01*
D15*
%TO.C,Q4*%
X119006100Y-115810845D02*
X119006100Y-122059245D01*
X119006100Y-122059245D02*
X119168660Y-122059245D01*
X119168660Y-115810845D02*
X119006100Y-115810845D01*
X124101340Y-122059245D02*
X124263900Y-122059245D01*
X124263900Y-115810845D02*
X124101340Y-115810845D01*
X124263900Y-122059245D02*
X124263900Y-115810845D01*
X118356600Y-121845045D02*
G75*
G02*
X118153400Y-121845045I-101600J0D01*
G01*
X118153400Y-121845045D02*
G75*
G02*
X118356600Y-121845045I101600J0D01*
G01*
D14*
%TO.C,U4*%
X138921250Y-122010000D02*
X138921250Y-119290000D01*
X139901250Y-122010000D02*
X138921250Y-122010000D01*
X142661250Y-122010000D02*
X143641250Y-122010000D01*
X143641250Y-119430000D02*
X143641250Y-122010000D01*
X143821250Y-119120000D02*
X143491250Y-118880000D01*
X143821250Y-118640000D01*
X143821250Y-119120000D01*
G36*
X143821250Y-119120000D02*
G01*
X143491250Y-118880000D01*
X143821250Y-118640000D01*
X143821250Y-119120000D01*
G37*
%TD*%
M02*
