%TF.GenerationSoftware,KiCad,Pcbnew,8.0.0*%
%TF.CreationDate,2024-11-11T15:40:06+01:00*%
%TF.ProjectId,test_amplifier_board,74657374-5f61-46d7-906c-69666965725f,rev?*%
%TF.SameCoordinates,Original*%
%TF.FileFunction,Copper,L1,Top*%
%TF.FilePolarity,Positive*%
%FSLAX46Y46*%
G04 Gerber Fmt 4.6, Leading zero omitted, Abs format (unit mm)*
G04 Created by KiCad (PCBNEW 8.0.0) date 2024-11-11 15:40:06*
%MOMM*%
%LPD*%
G01*
G04 APERTURE LIST*
G04 Aperture macros list*
%AMRoundRect*
0 Rectangle with rounded corners*
0 $1 Rounding radius*
0 $2 $3 $4 $5 $6 $7 $8 $9 X,Y pos of 4 corners*
0 Add a 4 corners polygon primitive as box body*
4,1,4,$2,$3,$4,$5,$6,$7,$8,$9,$2,$3,0*
0 Add four circle primitives for the rounded corners*
1,1,$1+$1,$2,$3*
1,1,$1+$1,$4,$5*
1,1,$1+$1,$6,$7*
1,1,$1+$1,$8,$9*
0 Add four rect primitives between the rounded corners*
20,1,$1+$1,$2,$3,$4,$5,0*
20,1,$1+$1,$4,$5,$6,$7,0*
20,1,$1+$1,$6,$7,$8,$9,0*
20,1,$1+$1,$8,$9,$2,$3,0*%
G04 Aperture macros list end*
%TA.AperFunction,SMDPad,CuDef*%
%ADD10RoundRect,0.250000X0.450000X-0.262500X0.450000X0.262500X-0.450000X0.262500X-0.450000X-0.262500X0*%
%TD*%
%TA.AperFunction,SMDPad,CuDef*%
%ADD11RoundRect,0.250000X-0.250000X-0.475000X0.250000X-0.475000X0.250000X0.475000X-0.250000X0.475000X0*%
%TD*%
%TA.AperFunction,SMDPad,CuDef*%
%ADD12RoundRect,0.250000X-0.262500X-0.450000X0.262500X-0.450000X0.262500X0.450000X-0.262500X0.450000X0*%
%TD*%
%TA.AperFunction,SMDPad,CuDef*%
%ADD13RoundRect,0.250000X0.250000X0.475000X-0.250000X0.475000X-0.250000X-0.475000X0.250000X-0.475000X0*%
%TD*%
%TA.AperFunction,SMDPad,CuDef*%
%ADD14RoundRect,0.250000X0.262500X0.450000X-0.262500X0.450000X-0.262500X-0.450000X0.262500X-0.450000X0*%
%TD*%
%TA.AperFunction,SMDPad,CuDef*%
%ADD15RoundRect,0.150000X-0.150000X0.512500X-0.150000X-0.512500X0.150000X-0.512500X0.150000X0.512500X0*%
%TD*%
%TA.AperFunction,ComponentPad*%
%ADD16R,1.700000X1.700000*%
%TD*%
%TA.AperFunction,ComponentPad*%
%ADD17O,1.700000X1.700000*%
%TD*%
%TA.AperFunction,SMDPad,CuDef*%
%ADD18RoundRect,0.250000X0.475000X-0.250000X0.475000X0.250000X-0.475000X0.250000X-0.475000X-0.250000X0*%
%TD*%
%TA.AperFunction,SMDPad,CuDef*%
%ADD19RoundRect,0.250000X0.650000X-0.325000X0.650000X0.325000X-0.650000X0.325000X-0.650000X-0.325000X0*%
%TD*%
%TA.AperFunction,SMDPad,CuDef*%
%ADD20RoundRect,0.250000X-0.325000X-0.650000X0.325000X-0.650000X0.325000X0.650000X-0.325000X0.650000X0*%
%TD*%
%TA.AperFunction,SMDPad,CuDef*%
%ADD21RoundRect,0.250000X-0.450000X0.262500X-0.450000X-0.262500X0.450000X-0.262500X0.450000X0.262500X0*%
%TD*%
%TA.AperFunction,ViaPad*%
%ADD22C,0.600000*%
%TD*%
%TA.AperFunction,Conductor*%
%ADD23C,0.500000*%
%TD*%
G04 APERTURE END LIST*
D10*
%TO.P,R5,1*%
%TO.N,Net-(C3-Pad1)*%
X121250000Y-122412500D03*
%TO.P,R5,2*%
%TO.N,Net-(U2--)*%
X121250000Y-120587500D03*
%TD*%
D11*
%TO.P,C1,1*%
%TO.N,+15V*%
X113950000Y-118475000D03*
%TO.P,C1,2*%
%TO.N,GND*%
X115850000Y-118475000D03*
%TD*%
D12*
%TO.P,R1,1*%
%TO.N,GND*%
X108337500Y-116112500D03*
%TO.P,R1,2*%
%TO.N,Net-(U1--)*%
X110162500Y-116112500D03*
%TD*%
D13*
%TO.P,C6,1*%
%TO.N,GND*%
X125850000Y-118500000D03*
%TO.P,C6,2*%
%TO.N,+15V*%
X123950000Y-118500000D03*
%TD*%
D11*
%TO.P,C2,1*%
%TO.N,GND*%
X111100000Y-111475000D03*
%TO.P,C2,2*%
%TO.N,-15V*%
X113000000Y-111475000D03*
%TD*%
D14*
%TO.P,R9,1*%
%TO.N,AMP_OUT*%
X132162500Y-118500000D03*
%TO.P,R9,2*%
%TO.N,Net-(U3--)*%
X130337500Y-118500000D03*
%TD*%
D15*
%TO.P,U3,1*%
%TO.N,AMP_OUT*%
X133950000Y-113862500D03*
%TO.P,U3,2,V-*%
%TO.N,-15V*%
X133000000Y-113862500D03*
%TO.P,U3,3,+*%
%TO.N,GND*%
X132050000Y-113862500D03*
%TO.P,U3,4,-*%
%TO.N,Net-(U3--)*%
X132050000Y-116137500D03*
%TO.P,U3,5,V+*%
%TO.N,+15V*%
X133950000Y-116137500D03*
%TD*%
D16*
%TO.P,J1,1,Pin_1*%
%TO.N,+15V*%
X105250000Y-117525000D03*
D17*
%TO.P,J1,2,Pin_2*%
%TO.N,GND*%
X105250000Y-114985000D03*
%TO.P,J1,3,Pin_3*%
%TO.N,-15V*%
X105250000Y-112445000D03*
%TD*%
D18*
%TO.P,C3,1*%
%TO.N,Net-(C3-Pad1)*%
X118750000Y-122450000D03*
%TO.P,C3,2*%
%TO.N,Net-(C3-Pad2)*%
X118750000Y-120550000D03*
%TD*%
D19*
%TO.P,C10,1*%
%TO.N,-15V*%
X105250000Y-109725000D03*
%TO.P,C10,2*%
%TO.N,GND*%
X105250000Y-106775000D03*
%TD*%
D13*
%TO.P,C4,1*%
%TO.N,Net-(U2--)*%
X120950000Y-118500000D03*
%TO.P,C4,2*%
%TO.N,Net-(C3-Pad2)*%
X119050000Y-118500000D03*
%TD*%
D14*
%TO.P,R3,1*%
%TO.N,Net-(C3-Pad2)*%
X117825000Y-111750000D03*
%TO.P,R3,2*%
%TO.N,Net-(R2-Pad2)*%
X116000000Y-111750000D03*
%TD*%
D13*
%TO.P,C8,1*%
%TO.N,GND*%
X135850000Y-118500000D03*
%TO.P,C8,2*%
%TO.N,+15V*%
X133950000Y-118500000D03*
%TD*%
D16*
%TO.P,J2,1,Pin_1*%
%TO.N,AMP_IN*%
X108225000Y-106000000D03*
D17*
%TO.P,J2,2,Pin_2*%
%TO.N,GND*%
X110765000Y-106000000D03*
%TD*%
D10*
%TO.P,R2,1*%
%TO.N,Net-(U1--)*%
X116000000Y-115662500D03*
%TO.P,R2,2*%
%TO.N,Net-(R2-Pad2)*%
X116000000Y-113837500D03*
%TD*%
D15*
%TO.P,U1,1*%
%TO.N,Net-(R2-Pad2)*%
X113950000Y-113837500D03*
%TO.P,U1,2,V-*%
%TO.N,-15V*%
X113000000Y-113837500D03*
%TO.P,U1,3,+*%
%TO.N,AMP_IN*%
X112050000Y-113837500D03*
%TO.P,U1,4,-*%
%TO.N,Net-(U1--)*%
X112050000Y-116112500D03*
%TO.P,U1,5,V+*%
%TO.N,+15V*%
X113950000Y-116112500D03*
%TD*%
D12*
%TO.P,R7,1*%
%TO.N,Net-(C3-Pad1)*%
X127262500Y-111500000D03*
%TO.P,R7,2*%
%TO.N,Net-(U3--)*%
X129087500Y-111500000D03*
%TD*%
D13*
%TO.P,C7,1*%
%TO.N,-15V*%
X133000000Y-111500000D03*
%TO.P,C7,2*%
%TO.N,GND*%
X131100000Y-111500000D03*
%TD*%
D14*
%TO.P,R8,1*%
%TO.N,-15V*%
X130912500Y-109000000D03*
%TO.P,R8,2*%
%TO.N,Net-(U3--)*%
X129087500Y-109000000D03*
%TD*%
D20*
%TO.P,C9,1*%
%TO.N,+15V*%
X105275000Y-120750000D03*
%TO.P,C9,2*%
%TO.N,GND*%
X108225000Y-120750000D03*
%TD*%
D15*
%TO.P,U2,1*%
%TO.N,Net-(C3-Pad1)*%
X123950000Y-113862500D03*
%TO.P,U2,2,V-*%
%TO.N,-15V*%
X123000000Y-113862500D03*
%TO.P,U2,3,+*%
%TO.N,GND*%
X122050000Y-113862500D03*
%TO.P,U2,4,-*%
%TO.N,Net-(U2--)*%
X122050000Y-116137500D03*
%TO.P,U2,5,V+*%
%TO.N,+15V*%
X123950000Y-116137500D03*
%TD*%
D16*
%TO.P,J3,1,Pin_1*%
%TO.N,AMP_OUT*%
X138025000Y-108500000D03*
D17*
%TO.P,J3,2,Pin_2*%
%TO.N,GND*%
X135485000Y-108500000D03*
%TD*%
D21*
%TO.P,R6,1*%
%TO.N,Net-(C3-Pad1)*%
X126000000Y-113837500D03*
%TO.P,R6,2*%
%TO.N,GND*%
X126000000Y-115662500D03*
%TD*%
D12*
%TO.P,R4,1*%
%TO.N,Net-(C3-Pad2)*%
X117825000Y-109250000D03*
%TO.P,R4,2*%
%TO.N,GND*%
X119650000Y-109250000D03*
%TD*%
D13*
%TO.P,C5,1*%
%TO.N,-15V*%
X123000000Y-111500000D03*
%TO.P,C5,2*%
%TO.N,GND*%
X121100000Y-111500000D03*
%TD*%
D22*
%TO.N,+15V*%
X124000000Y-121025000D03*
X134000000Y-122525000D03*
X124000000Y-122525000D03*
X114000000Y-121750000D03*
X124000000Y-121775000D03*
X134000000Y-120275000D03*
X124000000Y-120275000D03*
X114000000Y-122500000D03*
X114000000Y-120250000D03*
X134000000Y-121025000D03*
X134000000Y-121775000D03*
X114000000Y-121000000D03*
%TO.N,-15V*%
X133000000Y-109000000D03*
X113000000Y-107500000D03*
X113000000Y-109750000D03*
X123000000Y-108275000D03*
X123000000Y-107525000D03*
X123000000Y-109775000D03*
X133000000Y-108275000D03*
X123000000Y-109025000D03*
X113000000Y-109000000D03*
X113000000Y-108250000D03*
X133000000Y-109775000D03*
X133000000Y-107525000D03*
%TD*%
D23*
%TO.N,+15V*%
X123950000Y-118500000D02*
X123950000Y-119225000D01*
X123950000Y-119225000D02*
X124000000Y-119275000D01*
X124000000Y-121775000D02*
X124000000Y-122525000D01*
X113950000Y-118475000D02*
X113950000Y-119200000D01*
X134000000Y-119275000D02*
X134000000Y-120275000D01*
X134000000Y-121775000D02*
X134000000Y-122525000D01*
X124000000Y-119275000D02*
X124000000Y-120275000D01*
X133950000Y-119225000D02*
X134000000Y-119275000D01*
X114000000Y-119250000D02*
X114000000Y-120250000D01*
X124000000Y-120275000D02*
X124000000Y-121025000D01*
X134000000Y-121025000D02*
X134000000Y-121775000D01*
X105250000Y-120725000D02*
X105275000Y-120750000D01*
X124000000Y-121025000D02*
X124000000Y-121775000D01*
X114000000Y-121000000D02*
X114000000Y-121750000D01*
X105250000Y-117525000D02*
X105250000Y-120725000D01*
X133950000Y-116137500D02*
X133950000Y-118500000D01*
X134000000Y-120275000D02*
X134000000Y-121025000D01*
X113950000Y-116112500D02*
X113950000Y-118475000D01*
X114000000Y-121750000D02*
X114000000Y-122500000D01*
X113950000Y-119200000D02*
X114000000Y-119250000D01*
X123950000Y-116137500D02*
X123950000Y-118500000D01*
X114000000Y-120250000D02*
X114000000Y-121000000D01*
X133950000Y-118500000D02*
X133950000Y-119225000D01*
%TO.N,-15V*%
X123000000Y-109775000D02*
X123000000Y-109275000D01*
X123000000Y-111500000D02*
X123000000Y-109775000D01*
X133000000Y-109775000D02*
X133000000Y-109275000D01*
X133000000Y-109025000D02*
X133000000Y-108525000D01*
X133000000Y-111500000D02*
X133000000Y-109775000D01*
X133000000Y-108525000D02*
X133000000Y-107525000D01*
X133000000Y-109275000D02*
X133000000Y-109025000D01*
X113000000Y-108250000D02*
X113000000Y-108112500D01*
X113000000Y-108500000D02*
X113000000Y-107500000D01*
X113000000Y-111475000D02*
X113000000Y-109750000D01*
X113000000Y-109000000D02*
X113000000Y-108500000D01*
X123000000Y-108275000D02*
X123000000Y-108137500D01*
X133000000Y-108275000D02*
X133000000Y-108137500D01*
X133000000Y-113862500D02*
X133000000Y-111500000D01*
X113000000Y-109250000D02*
X113000000Y-109000000D01*
X123000000Y-109275000D02*
X123000000Y-109025000D01*
X105250000Y-112445000D02*
X105250000Y-109725000D01*
X123000000Y-108525000D02*
X123000000Y-107525000D01*
X123000000Y-109025000D02*
X123000000Y-108525000D01*
X113000000Y-113837500D02*
X113000000Y-111475000D01*
X133000000Y-108525000D02*
X133000000Y-108275000D01*
X113000000Y-108500000D02*
X113000000Y-108250000D01*
X113000000Y-109750000D02*
X113000000Y-109250000D01*
X123000000Y-113862500D02*
X123000000Y-111500000D01*
X123000000Y-108525000D02*
X123000000Y-108275000D01*
X130912500Y-109000000D02*
X133000000Y-109000000D01*
%TO.N,Net-(C3-Pad1)*%
X126500000Y-111500000D02*
X127262500Y-111500000D01*
X123000000Y-117000000D02*
X123000000Y-115500000D01*
X123950000Y-113862500D02*
X125975000Y-113862500D01*
X125975000Y-113862500D02*
X126000000Y-113837500D01*
X123000000Y-115500000D02*
X123950000Y-114550000D01*
X118787500Y-122412500D02*
X118750000Y-122450000D01*
X121250000Y-122412500D02*
X118787500Y-122412500D01*
X122750000Y-121750000D02*
X122750000Y-117250000D01*
X126000000Y-113837500D02*
X126000000Y-112000000D01*
X122750000Y-117250000D02*
X123000000Y-117000000D01*
X126000000Y-112000000D02*
X126500000Y-111500000D01*
X122087500Y-122412500D02*
X122750000Y-121750000D01*
X123950000Y-114550000D02*
X123950000Y-113862500D01*
X121250000Y-122412500D02*
X122087500Y-122412500D01*
%TO.N,Net-(C3-Pad2)*%
X119050000Y-115550000D02*
X117825000Y-114325000D01*
X117825000Y-114325000D02*
X117825000Y-111750000D01*
X119050000Y-118500000D02*
X119050000Y-115550000D01*
X118750000Y-120550000D02*
X118750000Y-120000000D01*
X119050000Y-119700000D02*
X119050000Y-118500000D01*
X118750000Y-120000000D02*
X119050000Y-119700000D01*
X117825000Y-109250000D02*
X117825000Y-111750000D01*
%TO.N,Net-(U2--)*%
X120950000Y-119700000D02*
X120950000Y-118500000D01*
X121250000Y-120000000D02*
X120950000Y-119700000D01*
X120950000Y-118500000D02*
X120950000Y-117237500D01*
X120950000Y-117237500D02*
X122050000Y-116137500D01*
X121250000Y-120587500D02*
X121250000Y-120000000D01*
%TO.N,Net-(U1--)*%
X115337500Y-115000000D02*
X116000000Y-115662500D01*
X112050000Y-116112500D02*
X113162500Y-115000000D01*
X112050000Y-116112500D02*
X110162500Y-116112500D01*
X113162500Y-115000000D02*
X115337500Y-115000000D01*
%TO.N,Net-(R2-Pad2)*%
X116000000Y-113837500D02*
X113950000Y-113837500D01*
X116000000Y-113837500D02*
X116000000Y-111750000D01*
%TO.N,Net-(U3--)*%
X132050000Y-116137500D02*
X129087500Y-113175000D01*
X130337500Y-118500000D02*
X130337500Y-117850000D01*
X129087500Y-113175000D02*
X129087500Y-111500000D01*
X129087500Y-109000000D02*
X129087500Y-111500000D01*
X130337500Y-117850000D02*
X132050000Y-116137500D01*
%TO.N,AMP_OUT*%
X136387500Y-113862500D02*
X133950000Y-113862500D01*
X132162500Y-117837500D02*
X133000000Y-117000000D01*
X133000000Y-117000000D02*
X133000000Y-115500000D01*
X133000000Y-115500000D02*
X133950000Y-114550000D01*
X138025000Y-108500000D02*
X138025000Y-112225000D01*
X138025000Y-112225000D02*
X136387500Y-113862500D01*
X132162500Y-118500000D02*
X132162500Y-117837500D01*
X133950000Y-114550000D02*
X133950000Y-113862500D01*
%TO.N,AMP_IN*%
X110087500Y-113837500D02*
X112050000Y-113837500D01*
X108225000Y-111975000D02*
X110087500Y-113837500D01*
X108225000Y-109000000D02*
X108225000Y-106000000D01*
X108225000Y-109000000D02*
X108225000Y-111975000D01*
%TD*%
%TA.AperFunction,Conductor*%
%TO.N,GND*%
G36*
X139442539Y-100520185D02*
G01*
X139488294Y-100572989D01*
X139499500Y-100624500D01*
X139499500Y-127375500D01*
X139479815Y-127442539D01*
X139427011Y-127488294D01*
X139375500Y-127499500D01*
X100624500Y-127499500D01*
X100557461Y-127479815D01*
X100511706Y-127427011D01*
X100500500Y-127375500D01*
X100500500Y-125125961D01*
X101399500Y-125125961D01*
X101438910Y-125374785D01*
X101516760Y-125614383D01*
X101631132Y-125838848D01*
X101779201Y-126042649D01*
X101779205Y-126042654D01*
X101957345Y-126220794D01*
X101957350Y-126220798D01*
X102135117Y-126349952D01*
X102161155Y-126368870D01*
X102304184Y-126441747D01*
X102385616Y-126483239D01*
X102385618Y-126483239D01*
X102385621Y-126483241D01*
X102625215Y-126561090D01*
X102874038Y-126600500D01*
X102874039Y-126600500D01*
X103125961Y-126600500D01*
X103125962Y-126600500D01*
X103374785Y-126561090D01*
X103614379Y-126483241D01*
X103838845Y-126368870D01*
X104042656Y-126220793D01*
X104220793Y-126042656D01*
X104368870Y-125838845D01*
X104483241Y-125614379D01*
X104561090Y-125374785D01*
X104600500Y-125125962D01*
X104600500Y-125125961D01*
X135399500Y-125125961D01*
X135438910Y-125374785D01*
X135516760Y-125614383D01*
X135631132Y-125838848D01*
X135779201Y-126042649D01*
X135779205Y-126042654D01*
X135957345Y-126220794D01*
X135957350Y-126220798D01*
X136135117Y-126349952D01*
X136161155Y-126368870D01*
X136304184Y-126441747D01*
X136385616Y-126483239D01*
X136385618Y-126483239D01*
X136385621Y-126483241D01*
X136625215Y-126561090D01*
X136874038Y-126600500D01*
X136874039Y-126600500D01*
X137125961Y-126600500D01*
X137125962Y-126600500D01*
X137374785Y-126561090D01*
X137614379Y-126483241D01*
X137838845Y-126368870D01*
X138042656Y-126220793D01*
X138220793Y-126042656D01*
X138368870Y-125838845D01*
X138483241Y-125614379D01*
X138561090Y-125374785D01*
X138600500Y-125125962D01*
X138600500Y-124874038D01*
X138561090Y-124625215D01*
X138483241Y-124385621D01*
X138483239Y-124385618D01*
X138483239Y-124385616D01*
X138441747Y-124304184D01*
X138368870Y-124161155D01*
X138349952Y-124135117D01*
X138220798Y-123957350D01*
X138220794Y-123957345D01*
X138042654Y-123779205D01*
X138042649Y-123779201D01*
X137838848Y-123631132D01*
X137838847Y-123631131D01*
X137838845Y-123631130D01*
X137768747Y-123595413D01*
X137614383Y-123516760D01*
X137374785Y-123438910D01*
X137125962Y-123399500D01*
X136874038Y-123399500D01*
X136749626Y-123419205D01*
X136625214Y-123438910D01*
X136385616Y-123516760D01*
X136161151Y-123631132D01*
X135957350Y-123779201D01*
X135957345Y-123779205D01*
X135779205Y-123957345D01*
X135779201Y-123957350D01*
X135631132Y-124161151D01*
X135516760Y-124385616D01*
X135438910Y-124625214D01*
X135399500Y-124874038D01*
X135399500Y-125125961D01*
X104600500Y-125125961D01*
X104600500Y-124874038D01*
X104561090Y-124625215D01*
X104483241Y-124385621D01*
X104483239Y-124385618D01*
X104483239Y-124385616D01*
X104441747Y-124304184D01*
X104368870Y-124161155D01*
X104349952Y-124135117D01*
X104220798Y-123957350D01*
X104220794Y-123957345D01*
X104042654Y-123779205D01*
X104042649Y-123779201D01*
X103838848Y-123631132D01*
X103838847Y-123631131D01*
X103838845Y-123631130D01*
X103768747Y-123595413D01*
X103614383Y-123516760D01*
X103374785Y-123438910D01*
X103125962Y-123399500D01*
X102874038Y-123399500D01*
X102749626Y-123419205D01*
X102625214Y-123438910D01*
X102385616Y-123516760D01*
X102161151Y-123631132D01*
X101957350Y-123779201D01*
X101957345Y-123779205D01*
X101779205Y-123957345D01*
X101779201Y-123957350D01*
X101631132Y-124161151D01*
X101516760Y-124385616D01*
X101438910Y-124625214D01*
X101399500Y-124874038D01*
X101399500Y-125125961D01*
X100500500Y-125125961D01*
X100500500Y-118399678D01*
X104149500Y-118399678D01*
X104164032Y-118472735D01*
X104164033Y-118472739D01*
X104164034Y-118472740D01*
X104219399Y-118555601D01*
X104302260Y-118610966D01*
X104302264Y-118610967D01*
X104375321Y-118625499D01*
X104375324Y-118625500D01*
X104375326Y-118625500D01*
X104625500Y-118625500D01*
X104692539Y-118645185D01*
X104738294Y-118697989D01*
X104749500Y-118749500D01*
X104749500Y-119562819D01*
X104729815Y-119629858D01*
X104699812Y-119662085D01*
X104592452Y-119742455D01*
X104506206Y-119857664D01*
X104506202Y-119857671D01*
X104455908Y-119992517D01*
X104452681Y-120022538D01*
X104449501Y-120052123D01*
X104449500Y-120052135D01*
X104449500Y-121447870D01*
X104449501Y-121447876D01*
X104455908Y-121507483D01*
X104506202Y-121642328D01*
X104506206Y-121642335D01*
X104592452Y-121757544D01*
X104592455Y-121757547D01*
X104707664Y-121843793D01*
X104707671Y-121843797D01*
X104742709Y-121856865D01*
X104842517Y-121894091D01*
X104902127Y-121900500D01*
X105647872Y-121900499D01*
X105707483Y-121894091D01*
X105842331Y-121843796D01*
X105957546Y-121757546D01*
X106043796Y-121642331D01*
X106094091Y-121507483D01*
X106100500Y-121447873D01*
X106100500Y-121000000D01*
X107400000Y-121000000D01*
X107400000Y-121447844D01*
X107406401Y-121507372D01*
X107406403Y-121507379D01*
X107456645Y-121642086D01*
X107456649Y-121642093D01*
X107542809Y-121757187D01*
X107542812Y-121757190D01*
X107657906Y-121843350D01*
X107657913Y-121843354D01*
X107792620Y-121893596D01*
X107792627Y-121893598D01*
X107852155Y-121899999D01*
X107852172Y-121900000D01*
X107975000Y-121900000D01*
X107975000Y-121000000D01*
X108475000Y-121000000D01*
X108475000Y-121900000D01*
X108597828Y-121900000D01*
X108597844Y-121899999D01*
X108657372Y-121893598D01*
X108657379Y-121893596D01*
X108792086Y-121843354D01*
X108792093Y-121843350D01*
X108907187Y-121757190D01*
X108907190Y-121757187D01*
X108993350Y-121642093D01*
X108993354Y-121642086D01*
X109043596Y-121507379D01*
X109043598Y-121507372D01*
X109049999Y-121447844D01*
X109050000Y-121447827D01*
X109050000Y-121000000D01*
X108475000Y-121000000D01*
X107975000Y-121000000D01*
X107400000Y-121000000D01*
X106100500Y-121000000D01*
X106100499Y-120500000D01*
X107400000Y-120500000D01*
X107975000Y-120500000D01*
X107975000Y-119600000D01*
X108475000Y-119600000D01*
X108475000Y-120500000D01*
X109050000Y-120500000D01*
X109050000Y-120052172D01*
X109049999Y-120052155D01*
X109043598Y-119992627D01*
X109043596Y-119992620D01*
X108993354Y-119857913D01*
X108993350Y-119857906D01*
X108907190Y-119742812D01*
X108907187Y-119742809D01*
X108792093Y-119656649D01*
X108792086Y-119656645D01*
X108657379Y-119606403D01*
X108657372Y-119606401D01*
X108597844Y-119600000D01*
X108475000Y-119600000D01*
X107975000Y-119600000D01*
X107852155Y-119600000D01*
X107792627Y-119606401D01*
X107792620Y-119606403D01*
X107657913Y-119656645D01*
X107657906Y-119656649D01*
X107542812Y-119742809D01*
X107542809Y-119742812D01*
X107456649Y-119857906D01*
X107456645Y-119857913D01*
X107406403Y-119992620D01*
X107406401Y-119992627D01*
X107400000Y-120052155D01*
X107400000Y-120500000D01*
X106100499Y-120500000D01*
X106100499Y-120052128D01*
X106094091Y-119992517D01*
X106091722Y-119986166D01*
X106043797Y-119857671D01*
X106043793Y-119857664D01*
X105957547Y-119742455D01*
X105957544Y-119742452D01*
X105842335Y-119656206D01*
X105842332Y-119656205D01*
X105842331Y-119656204D01*
X105831161Y-119652038D01*
X105775231Y-119610166D01*
X105750816Y-119544701D01*
X105750500Y-119535858D01*
X105750500Y-118749500D01*
X105770185Y-118682461D01*
X105822989Y-118636706D01*
X105874500Y-118625500D01*
X106124676Y-118625500D01*
X106124677Y-118625499D01*
X106197740Y-118610966D01*
X106280601Y-118555601D01*
X106335966Y-118472740D01*
X106350500Y-118399674D01*
X106350500Y-116650326D01*
X106350500Y-116650323D01*
X106350499Y-116650321D01*
X106335967Y-116577264D01*
X106335966Y-116577260D01*
X106280601Y-116494399D01*
X106197740Y-116439034D01*
X106197739Y-116439033D01*
X106197735Y-116439032D01*
X106124677Y-116424500D01*
X106124674Y-116424500D01*
X104375326Y-116424500D01*
X104375323Y-116424500D01*
X104302264Y-116439032D01*
X104302260Y-116439033D01*
X104219399Y-116494399D01*
X104164033Y-116577260D01*
X104164032Y-116577264D01*
X104149500Y-116650321D01*
X104149500Y-118399678D01*
X100500500Y-118399678D01*
X100500500Y-116362500D01*
X107575000Y-116362500D01*
X107575000Y-116610344D01*
X107581401Y-116669872D01*
X107581403Y-116669879D01*
X107631645Y-116804586D01*
X107631649Y-116804593D01*
X107717809Y-116919687D01*
X107717812Y-116919690D01*
X107832906Y-117005850D01*
X107832913Y-117005854D01*
X107967620Y-117056096D01*
X107967627Y-117056098D01*
X108027155Y-117062499D01*
X108027172Y-117062500D01*
X108087500Y-117062500D01*
X108087500Y-116362500D01*
X108587500Y-116362500D01*
X108587500Y-117062500D01*
X108647828Y-117062500D01*
X108647844Y-117062499D01*
X108707372Y-117056098D01*
X108707379Y-117056096D01*
X108842086Y-117005854D01*
X108842093Y-117005850D01*
X108957187Y-116919690D01*
X108957190Y-116919687D01*
X109043350Y-116804593D01*
X109043354Y-116804586D01*
X109093596Y-116669879D01*
X109093598Y-116669872D01*
X109099999Y-116610344D01*
X109100000Y-116610327D01*
X109100000Y-116362500D01*
X108587500Y-116362500D01*
X108087500Y-116362500D01*
X107575000Y-116362500D01*
X100500500Y-116362500D01*
X100500500Y-114734999D01*
X104177471Y-114734999D01*
X104177472Y-114735000D01*
X104816988Y-114735000D01*
X104784075Y-114792007D01*
X104750000Y-114919174D01*
X104750000Y-115050826D01*
X104784075Y-115177993D01*
X104816988Y-115235000D01*
X104177472Y-115235000D01*
X104219885Y-115384065D01*
X104219890Y-115384078D01*
X104310754Y-115566556D01*
X104433608Y-115729242D01*
X104584260Y-115866578D01*
X104757584Y-115973897D01*
X104947678Y-116047539D01*
X105000000Y-116057320D01*
X105000000Y-115418012D01*
X105057007Y-115450925D01*
X105184174Y-115485000D01*
X105315826Y-115485000D01*
X105442993Y-115450925D01*
X105500000Y-115418012D01*
X105500000Y-116057320D01*
X105552321Y-116047539D01*
X105742415Y-115973897D01*
X105915739Y-115866578D01*
X105920212Y-115862500D01*
X107575000Y-115862500D01*
X108087500Y-115862500D01*
X108087500Y-115162500D01*
X108587500Y-115162500D01*
X108587500Y-115862500D01*
X109100000Y-115862500D01*
X109100000Y-115614672D01*
X109099999Y-115614655D01*
X109093598Y-115555127D01*
X109093596Y-115555120D01*
X109043354Y-115420413D01*
X109043350Y-115420406D01*
X108957190Y-115305312D01*
X108957187Y-115305309D01*
X108842093Y-115219149D01*
X108842086Y-115219145D01*
X108707379Y-115168903D01*
X108707372Y-115168901D01*
X108647844Y-115162500D01*
X108587500Y-115162500D01*
X108087500Y-115162500D01*
X108027155Y-115162500D01*
X107967627Y-115168901D01*
X107967620Y-115168903D01*
X107832913Y-115219145D01*
X107832906Y-115219149D01*
X107717812Y-115305309D01*
X107717809Y-115305312D01*
X107631649Y-115420406D01*
X107631645Y-115420413D01*
X107581403Y-115555120D01*
X107581401Y-115555127D01*
X107575000Y-115614655D01*
X107575000Y-115862500D01*
X105920212Y-115862500D01*
X106066391Y-115729242D01*
X106189245Y-115566556D01*
X106280109Y-115384078D01*
X106280114Y-115384065D01*
X106322528Y-115235000D01*
X105683012Y-115235000D01*
X105715925Y-115177993D01*
X105750000Y-115050826D01*
X105750000Y-114919174D01*
X105715925Y-114792007D01*
X105683012Y-114735000D01*
X106322528Y-114735000D01*
X106322528Y-114734999D01*
X106280114Y-114585934D01*
X106280109Y-114585921D01*
X106189245Y-114403443D01*
X106066391Y-114240757D01*
X105915739Y-114103421D01*
X105742413Y-113996101D01*
X105552315Y-113922458D01*
X105552309Y-113922456D01*
X105500001Y-113912677D01*
X105500000Y-113912679D01*
X105500000Y-114551988D01*
X105442993Y-114519075D01*
X105315826Y-114485000D01*
X105184174Y-114485000D01*
X105057007Y-114519075D01*
X105000000Y-114551988D01*
X105000000Y-113912679D01*
X104999998Y-113912677D01*
X104947690Y-113922456D01*
X104947684Y-113922458D01*
X104757586Y-113996101D01*
X104584260Y-114103421D01*
X104433608Y-114240757D01*
X104310754Y-114403443D01*
X104219890Y-114585921D01*
X104219885Y-114585934D01*
X104177471Y-114734999D01*
X100500500Y-114734999D01*
X100500500Y-110097870D01*
X104099500Y-110097870D01*
X104099501Y-110097876D01*
X104105908Y-110157483D01*
X104156202Y-110292328D01*
X104156206Y-110292335D01*
X104242452Y-110407544D01*
X104242455Y-110407547D01*
X104357664Y-110493793D01*
X104357671Y-110493797D01*
X104374970Y-110500249D01*
X104492517Y-110544091D01*
X104552127Y-110550500D01*
X104625500Y-110550499D01*
X104692538Y-110570183D01*
X104738294Y-110622986D01*
X104749500Y-110674499D01*
X104749500Y-111391452D01*
X104729815Y-111458491D01*
X104690778Y-111496879D01*
X104583957Y-111563020D01*
X104433237Y-111700418D01*
X104310327Y-111863178D01*
X104219422Y-112045739D01*
X104219417Y-112045752D01*
X104163602Y-112241917D01*
X104144785Y-112444999D01*
X104144785Y-112445000D01*
X104163602Y-112648082D01*
X104219417Y-112844247D01*
X104219422Y-112844260D01*
X104310327Y-113026821D01*
X104433237Y-113189581D01*
X104583958Y-113326980D01*
X104583960Y-113326982D01*
X104650507Y-113368186D01*
X104757363Y-113434348D01*
X104947544Y-113508024D01*
X105148024Y-113545500D01*
X105148026Y-113545500D01*
X105351974Y-113545500D01*
X105351976Y-113545500D01*
X105552456Y-113508024D01*
X105742637Y-113434348D01*
X105916041Y-113326981D01*
X106066764Y-113189579D01*
X106189673Y-113026821D01*
X106280582Y-112844250D01*
X106336397Y-112648083D01*
X106355215Y-112445000D01*
X106352730Y-112418187D01*
X106336397Y-112241917D01*
X106326551Y-112207314D01*
X106280582Y-112045750D01*
X106269192Y-112022876D01*
X106212543Y-111909108D01*
X106189673Y-111863179D01*
X106085325Y-111725000D01*
X106066762Y-111700418D01*
X105916042Y-111563020D01*
X105916041Y-111563019D01*
X105809222Y-111496879D01*
X105762587Y-111444851D01*
X105750500Y-111391452D01*
X105750500Y-110674499D01*
X105770185Y-110607460D01*
X105822989Y-110561705D01*
X105874500Y-110550499D01*
X105947871Y-110550499D01*
X105947872Y-110550499D01*
X106007483Y-110544091D01*
X106142331Y-110493796D01*
X106257546Y-110407546D01*
X106343796Y-110292331D01*
X106394091Y-110157483D01*
X106400500Y-110097873D01*
X106400499Y-109352128D01*
X106394091Y-109292517D01*
X106380051Y-109254875D01*
X106343797Y-109157671D01*
X106343793Y-109157664D01*
X106257547Y-109042455D01*
X106257544Y-109042452D01*
X106142335Y-108956206D01*
X106142328Y-108956202D01*
X106007482Y-108905908D01*
X106007483Y-108905908D01*
X105947883Y-108899501D01*
X105947881Y-108899500D01*
X105947873Y-108899500D01*
X105947864Y-108899500D01*
X104552129Y-108899500D01*
X104552123Y-108899501D01*
X104492516Y-108905908D01*
X104357671Y-108956202D01*
X104357664Y-108956206D01*
X104242455Y-109042452D01*
X104242452Y-109042455D01*
X104156206Y-109157664D01*
X104156202Y-109157671D01*
X104119823Y-109255211D01*
X104105909Y-109292517D01*
X104099500Y-109352127D01*
X104099500Y-109352134D01*
X104099500Y-109352135D01*
X104099500Y-110097870D01*
X100500500Y-110097870D01*
X100500500Y-107025000D01*
X104100000Y-107025000D01*
X104100000Y-107147844D01*
X104106401Y-107207372D01*
X104106403Y-107207379D01*
X104156645Y-107342086D01*
X104156649Y-107342093D01*
X104242809Y-107457187D01*
X104242812Y-107457190D01*
X104357906Y-107543350D01*
X104357913Y-107543354D01*
X104492620Y-107593596D01*
X104492627Y-107593598D01*
X104552155Y-107599999D01*
X104552172Y-107600000D01*
X105000000Y-107600000D01*
X105000000Y-107025000D01*
X105500000Y-107025000D01*
X105500000Y-107600000D01*
X105947828Y-107600000D01*
X105947844Y-107599999D01*
X106007372Y-107593598D01*
X106007379Y-107593596D01*
X106142086Y-107543354D01*
X106142093Y-107543350D01*
X106257187Y-107457190D01*
X106257190Y-107457187D01*
X106343350Y-107342093D01*
X106343354Y-107342086D01*
X106393596Y-107207379D01*
X106393598Y-107207372D01*
X106399999Y-107147844D01*
X106400000Y-107147827D01*
X106400000Y-107025000D01*
X105500000Y-107025000D01*
X105000000Y-107025000D01*
X104100000Y-107025000D01*
X100500500Y-107025000D01*
X100500500Y-106874678D01*
X107124500Y-106874678D01*
X107139032Y-106947735D01*
X107139033Y-106947739D01*
X107153740Y-106969750D01*
X107194399Y-107030601D01*
X107256837Y-107072320D01*
X107277260Y-107085966D01*
X107277264Y-107085967D01*
X107350321Y-107100499D01*
X107350324Y-107100500D01*
X107350326Y-107100500D01*
X107600500Y-107100500D01*
X107667539Y-107120185D01*
X107713294Y-107172989D01*
X107724500Y-107224500D01*
X107724500Y-108934108D01*
X107724500Y-111909108D01*
X107724500Y-112040892D01*
X107735616Y-112082379D01*
X107758608Y-112168187D01*
X107786980Y-112217328D01*
X107824500Y-112282314D01*
X109780186Y-114238000D01*
X109894314Y-114303892D01*
X110021608Y-114338000D01*
X110153393Y-114338000D01*
X111386701Y-114338000D01*
X111453740Y-114357685D01*
X111499495Y-114410489D01*
X111509174Y-114442602D01*
X111514352Y-114475300D01*
X111514353Y-114475303D01*
X111514354Y-114475304D01*
X111571950Y-114588342D01*
X111571952Y-114588344D01*
X111571954Y-114588347D01*
X111661652Y-114678045D01*
X111661654Y-114678046D01*
X111661658Y-114678050D01*
X111773426Y-114734999D01*
X111774698Y-114735647D01*
X111868475Y-114750499D01*
X111868481Y-114750500D01*
X112231518Y-114750499D01*
X112325304Y-114735646D01*
X112430498Y-114682046D01*
X112499164Y-114669151D01*
X112563904Y-114695427D01*
X112604162Y-114752533D01*
X112607154Y-114822339D01*
X112574471Y-114880213D01*
X112291503Y-115163181D01*
X112230180Y-115196666D01*
X112203822Y-115199500D01*
X111868482Y-115199500D01*
X111787519Y-115212323D01*
X111774696Y-115214354D01*
X111661658Y-115271950D01*
X111661657Y-115271951D01*
X111661652Y-115271954D01*
X111571954Y-115361652D01*
X111571951Y-115361657D01*
X111571950Y-115361658D01*
X111560006Y-115385099D01*
X111514352Y-115474698D01*
X111514352Y-115474699D01*
X111509174Y-115507397D01*
X111479245Y-115570532D01*
X111419934Y-115607464D01*
X111386701Y-115612000D01*
X111026440Y-115612000D01*
X110959401Y-115592315D01*
X110913646Y-115539511D01*
X110910258Y-115531333D01*
X110868797Y-115420171D01*
X110868793Y-115420164D01*
X110782547Y-115304955D01*
X110782544Y-115304952D01*
X110667335Y-115218706D01*
X110667328Y-115218702D01*
X110532486Y-115168410D01*
X110532485Y-115168409D01*
X110532483Y-115168409D01*
X110472873Y-115162000D01*
X110472863Y-115162000D01*
X109852129Y-115162000D01*
X109852123Y-115162001D01*
X109792516Y-115168408D01*
X109657671Y-115218702D01*
X109657664Y-115218706D01*
X109542455Y-115304952D01*
X109542452Y-115304955D01*
X109456206Y-115420164D01*
X109456202Y-115420171D01*
X109405908Y-115555017D01*
X109399501Y-115614616D01*
X109399500Y-115614635D01*
X109399500Y-116610370D01*
X109399501Y-116610376D01*
X109405908Y-116669983D01*
X109456202Y-116804828D01*
X109456206Y-116804835D01*
X109542452Y-116920044D01*
X109542455Y-116920047D01*
X109657664Y-117006293D01*
X109657671Y-117006297D01*
X109702618Y-117023061D01*
X109792517Y-117056591D01*
X109852127Y-117063000D01*
X110472872Y-117062999D01*
X110532483Y-117056591D01*
X110667331Y-117006296D01*
X110782546Y-116920046D01*
X110868796Y-116804831D01*
X110889133Y-116750304D01*
X110910258Y-116693667D01*
X110952129Y-116637733D01*
X111017593Y-116613316D01*
X111026440Y-116613000D01*
X111386701Y-116613000D01*
X111453740Y-116632685D01*
X111499495Y-116685489D01*
X111509174Y-116717602D01*
X111514352Y-116750300D01*
X111514353Y-116750303D01*
X111514354Y-116750304D01*
X111571950Y-116863342D01*
X111571952Y-116863344D01*
X111571954Y-116863347D01*
X111661652Y-116953045D01*
X111661654Y-116953046D01*
X111661658Y-116953050D01*
X111765291Y-117005854D01*
X111774698Y-117010647D01*
X111868475Y-117025499D01*
X111868481Y-117025500D01*
X112231518Y-117025499D01*
X112325304Y-117010646D01*
X112438342Y-116953050D01*
X112528050Y-116863342D01*
X112585646Y-116750304D01*
X112585646Y-116750302D01*
X112585647Y-116750301D01*
X112596540Y-116681519D01*
X112600500Y-116656519D01*
X112600499Y-116321174D01*
X112620183Y-116254136D01*
X112636813Y-116233499D01*
X113187820Y-115682493D01*
X113249142Y-115649009D01*
X113318834Y-115653993D01*
X113374767Y-115695865D01*
X113399184Y-115761329D01*
X113399500Y-115770175D01*
X113399500Y-116656517D01*
X113401633Y-116669983D01*
X113414354Y-116750304D01*
X113427092Y-116775304D01*
X113435985Y-116792756D01*
X113449500Y-116849051D01*
X113449500Y-117500249D01*
X113429815Y-117567288D01*
X113399812Y-117599515D01*
X113342457Y-117642451D01*
X113342451Y-117642457D01*
X113256206Y-117757664D01*
X113256202Y-117757671D01*
X113205908Y-117892517D01*
X113203209Y-117917627D01*
X113199501Y-117952123D01*
X113199500Y-117952135D01*
X113199500Y-118997870D01*
X113199501Y-118997876D01*
X113205908Y-119057483D01*
X113256202Y-119192328D01*
X113256206Y-119192335D01*
X113325358Y-119284709D01*
X113342454Y-119307546D01*
X113449811Y-119387914D01*
X113491682Y-119443847D01*
X113499500Y-119487180D01*
X113499500Y-119995124D01*
X113490062Y-120042572D01*
X113473454Y-120082669D01*
X113463669Y-120106293D01*
X113444750Y-120249999D01*
X113444750Y-120250000D01*
X113463670Y-120393708D01*
X113463670Y-120393709D01*
X113490061Y-120457422D01*
X113499500Y-120504875D01*
X113499500Y-120745124D01*
X113490062Y-120792572D01*
X113470453Y-120839912D01*
X113463669Y-120856293D01*
X113444750Y-120999999D01*
X113444750Y-121000000D01*
X113463670Y-121143709D01*
X113488120Y-121202738D01*
X113490061Y-121207422D01*
X113499500Y-121254875D01*
X113499500Y-121495124D01*
X113490062Y-121542572D01*
X113474972Y-121579005D01*
X113463669Y-121606293D01*
X113444750Y-121749999D01*
X113444750Y-121750000D01*
X113463670Y-121893709D01*
X113466482Y-121900499D01*
X113490061Y-121957422D01*
X113499500Y-122004875D01*
X113499500Y-122245124D01*
X113490062Y-122292572D01*
X113470453Y-122339912D01*
X113463669Y-122356293D01*
X113444750Y-122499999D01*
X113444750Y-122500000D01*
X113463670Y-122643708D01*
X113463671Y-122643712D01*
X113519137Y-122777622D01*
X113519138Y-122777624D01*
X113519139Y-122777625D01*
X113607379Y-122892621D01*
X113722375Y-122980861D01*
X113856291Y-123036330D01*
X113983280Y-123053048D01*
X113999999Y-123055250D01*
X114000000Y-123055250D01*
X114000001Y-123055250D01*
X114014977Y-123053278D01*
X114143709Y-123036330D01*
X114277625Y-122980861D01*
X114392621Y-122892621D01*
X114480861Y-122777625D01*
X114493186Y-122747870D01*
X117774500Y-122747870D01*
X117774501Y-122747876D01*
X117780908Y-122807483D01*
X117831202Y-122942328D01*
X117831206Y-122942335D01*
X117917452Y-123057544D01*
X117917455Y-123057547D01*
X118032664Y-123143793D01*
X118032671Y-123143797D01*
X118167517Y-123194091D01*
X118167516Y-123194091D01*
X118174444Y-123194835D01*
X118227127Y-123200500D01*
X119272872Y-123200499D01*
X119332483Y-123194091D01*
X119467331Y-123143796D01*
X119582546Y-123057546D01*
X119621237Y-123005862D01*
X119653557Y-122962689D01*
X119709491Y-122920818D01*
X119752823Y-122913000D01*
X120290893Y-122913000D01*
X120357932Y-122932685D01*
X120390156Y-122962685D01*
X120442454Y-123032546D01*
X120442455Y-123032546D01*
X120442456Y-123032548D01*
X120557664Y-123118793D01*
X120557671Y-123118797D01*
X120692517Y-123169091D01*
X120692516Y-123169091D01*
X120699444Y-123169835D01*
X120752127Y-123175500D01*
X121747872Y-123175499D01*
X121807483Y-123169091D01*
X121942331Y-123118796D01*
X122057546Y-123032546D01*
X122119725Y-122949484D01*
X122175657Y-122907614D01*
X122186881Y-122904026D01*
X122280686Y-122878892D01*
X122394814Y-122813000D01*
X123150499Y-122057315D01*
X123158107Y-122044139D01*
X123216392Y-121943186D01*
X123223535Y-121916524D01*
X123259899Y-121856865D01*
X123322746Y-121826335D01*
X123392121Y-121834629D01*
X123446000Y-121879114D01*
X123463084Y-121916523D01*
X123463668Y-121918705D01*
X123463670Y-121918709D01*
X123479808Y-121957671D01*
X123490061Y-121982422D01*
X123499500Y-122029875D01*
X123499500Y-122270124D01*
X123490062Y-122317575D01*
X123463669Y-122381293D01*
X123448041Y-122500000D01*
X123444750Y-122525000D01*
X123460378Y-122643708D01*
X123463670Y-122668708D01*
X123463671Y-122668712D01*
X123519137Y-122802622D01*
X123519138Y-122802624D01*
X123519139Y-122802625D01*
X123607379Y-122917621D01*
X123722375Y-123005861D01*
X123856291Y-123061330D01*
X123983280Y-123078048D01*
X123999999Y-123080250D01*
X124000000Y-123080250D01*
X124000001Y-123080250D01*
X124014977Y-123078278D01*
X124143709Y-123061330D01*
X124277625Y-123005861D01*
X124392621Y-122917621D01*
X124480861Y-122802625D01*
X124536330Y-122668709D01*
X124555250Y-122525000D01*
X124551958Y-122499999D01*
X124536330Y-122381293D01*
X124536330Y-122381291D01*
X124509937Y-122317572D01*
X124500500Y-122270124D01*
X124500500Y-122029875D01*
X124509939Y-121982422D01*
X124510855Y-121980211D01*
X124536330Y-121918709D01*
X124555250Y-121775000D01*
X124551958Y-121749999D01*
X124545310Y-121699500D01*
X124536330Y-121631291D01*
X124509937Y-121567572D01*
X124500500Y-121520124D01*
X124500500Y-121279875D01*
X124509939Y-121232422D01*
X124510855Y-121230211D01*
X124536330Y-121168709D01*
X124555250Y-121025000D01*
X124551958Y-120999999D01*
X124538513Y-120897872D01*
X124536330Y-120881291D01*
X124509937Y-120817572D01*
X124500500Y-120770124D01*
X124500500Y-120529875D01*
X124509939Y-120482422D01*
X124510855Y-120480211D01*
X124536330Y-120418709D01*
X124555250Y-120275000D01*
X124551958Y-120249999D01*
X124544391Y-120192517D01*
X124536330Y-120131291D01*
X124509937Y-120067572D01*
X124500500Y-120020124D01*
X124500500Y-119437320D01*
X124520185Y-119370281D01*
X124550192Y-119338051D01*
X124557546Y-119332546D01*
X124643796Y-119217331D01*
X124694091Y-119082483D01*
X124700500Y-119022873D01*
X124700500Y-118750000D01*
X125100000Y-118750000D01*
X125100000Y-119022844D01*
X125106401Y-119082372D01*
X125106403Y-119082379D01*
X125156645Y-119217086D01*
X125156649Y-119217093D01*
X125242809Y-119332187D01*
X125242812Y-119332190D01*
X125357906Y-119418350D01*
X125357913Y-119418354D01*
X125492620Y-119468596D01*
X125492627Y-119468598D01*
X125552155Y-119474999D01*
X125552172Y-119475000D01*
X125600000Y-119475000D01*
X125600000Y-118750000D01*
X126100000Y-118750000D01*
X126100000Y-119475000D01*
X126147828Y-119475000D01*
X126147844Y-119474999D01*
X126207372Y-119468598D01*
X126207379Y-119468596D01*
X126342086Y-119418354D01*
X126342093Y-119418350D01*
X126457187Y-119332190D01*
X126457190Y-119332187D01*
X126543350Y-119217093D01*
X126543354Y-119217086D01*
X126593596Y-119082379D01*
X126593598Y-119082372D01*
X126599999Y-119022844D01*
X126600000Y-119022827D01*
X126600000Y-118750000D01*
X126100000Y-118750000D01*
X125600000Y-118750000D01*
X125100000Y-118750000D01*
X124700500Y-118750000D01*
X124700499Y-118250000D01*
X125100000Y-118250000D01*
X125600000Y-118250000D01*
X125600000Y-117525000D01*
X126100000Y-117525000D01*
X126100000Y-118250000D01*
X126600000Y-118250000D01*
X126600000Y-117977172D01*
X126599999Y-117977155D01*
X126593598Y-117917627D01*
X126593596Y-117917620D01*
X126543354Y-117782913D01*
X126543350Y-117782906D01*
X126457190Y-117667812D01*
X126457187Y-117667809D01*
X126342093Y-117581649D01*
X126342086Y-117581645D01*
X126207379Y-117531403D01*
X126207372Y-117531401D01*
X126147844Y-117525000D01*
X126100000Y-117525000D01*
X125600000Y-117525000D01*
X125552155Y-117525000D01*
X125492627Y-117531401D01*
X125492620Y-117531403D01*
X125357913Y-117581645D01*
X125357906Y-117581649D01*
X125242812Y-117667809D01*
X125242809Y-117667812D01*
X125156649Y-117782906D01*
X125156645Y-117782913D01*
X125106403Y-117917620D01*
X125106401Y-117917627D01*
X125100000Y-117977155D01*
X125100000Y-118250000D01*
X124700499Y-118250000D01*
X124700499Y-117977128D01*
X124694091Y-117917517D01*
X124684766Y-117892516D01*
X124643797Y-117782671D01*
X124643793Y-117782664D01*
X124576261Y-117692454D01*
X124557546Y-117667454D01*
X124524625Y-117642809D01*
X124500188Y-117624515D01*
X124458318Y-117568581D01*
X124450500Y-117525249D01*
X124450500Y-116874051D01*
X124464015Y-116817756D01*
X124470601Y-116804831D01*
X124485646Y-116775304D01*
X124485646Y-116775302D01*
X124485647Y-116775301D01*
X124500499Y-116681524D01*
X124500500Y-116681519D01*
X124500499Y-115912500D01*
X125050000Y-115912500D01*
X125050000Y-115972844D01*
X125056401Y-116032372D01*
X125056403Y-116032379D01*
X125106645Y-116167086D01*
X125106649Y-116167093D01*
X125192809Y-116282187D01*
X125192812Y-116282190D01*
X125307906Y-116368350D01*
X125307913Y-116368354D01*
X125442620Y-116418596D01*
X125442627Y-116418598D01*
X125502155Y-116424999D01*
X125502172Y-116425000D01*
X125750000Y-116425000D01*
X125750000Y-115912500D01*
X126250000Y-115912500D01*
X126250000Y-116425000D01*
X126497828Y-116425000D01*
X126497844Y-116424999D01*
X126557372Y-116418598D01*
X126557379Y-116418596D01*
X126692086Y-116368354D01*
X126692093Y-116368350D01*
X126807187Y-116282190D01*
X126807190Y-116282187D01*
X126893350Y-116167093D01*
X126893354Y-116167086D01*
X126943596Y-116032379D01*
X126943598Y-116032372D01*
X126949999Y-115972844D01*
X126950000Y-115972827D01*
X126950000Y-115912500D01*
X126250000Y-115912500D01*
X125750000Y-115912500D01*
X125050000Y-115912500D01*
X124500499Y-115912500D01*
X124500499Y-115593482D01*
X124485646Y-115499696D01*
X124441217Y-115412500D01*
X125050000Y-115412500D01*
X125750000Y-115412500D01*
X125750000Y-114900000D01*
X126250000Y-114900000D01*
X126250000Y-115412500D01*
X126950000Y-115412500D01*
X126950000Y-115352172D01*
X126949999Y-115352155D01*
X126943598Y-115292627D01*
X126943596Y-115292620D01*
X126893354Y-115157913D01*
X126893350Y-115157906D01*
X126807190Y-115042812D01*
X126807187Y-115042809D01*
X126692093Y-114956649D01*
X126692086Y-114956645D01*
X126557379Y-114906403D01*
X126557372Y-114906401D01*
X126497844Y-114900000D01*
X126250000Y-114900000D01*
X125750000Y-114900000D01*
X125502155Y-114900000D01*
X125442627Y-114906401D01*
X125442620Y-114906403D01*
X125307913Y-114956645D01*
X125307906Y-114956649D01*
X125192812Y-115042809D01*
X125192809Y-115042812D01*
X125106649Y-115157906D01*
X125106645Y-115157913D01*
X125056403Y-115292620D01*
X125056401Y-115292627D01*
X125050000Y-115352155D01*
X125050000Y-115412500D01*
X124441217Y-115412500D01*
X124428050Y-115386658D01*
X124428046Y-115386654D01*
X124428045Y-115386652D01*
X124338347Y-115296954D01*
X124338344Y-115296952D01*
X124338342Y-115296950D01*
X124260508Y-115257291D01*
X124225299Y-115239351D01*
X124223887Y-115238893D01*
X124222391Y-115237870D01*
X124216609Y-115234924D01*
X124216989Y-115234176D01*
X124166213Y-115199452D01*
X124139019Y-115135092D01*
X124150937Y-115066247D01*
X124174528Y-115033284D01*
X124350500Y-114857314D01*
X124416392Y-114743186D01*
X124450500Y-114615892D01*
X124450500Y-114599051D01*
X124464015Y-114542756D01*
X124485646Y-114500304D01*
X124485671Y-114500149D01*
X124490826Y-114467603D01*
X124520755Y-114404468D01*
X124580066Y-114367536D01*
X124613299Y-114363000D01*
X125059607Y-114363000D01*
X125126646Y-114382685D01*
X125158873Y-114412688D01*
X125192455Y-114457547D01*
X125307664Y-114543793D01*
X125307671Y-114543797D01*
X125442517Y-114594091D01*
X125442516Y-114594091D01*
X125449444Y-114594835D01*
X125502127Y-114600500D01*
X126497872Y-114600499D01*
X126557483Y-114594091D01*
X126692331Y-114543796D01*
X126807546Y-114457546D01*
X126893796Y-114342331D01*
X126944091Y-114207483D01*
X126950500Y-114147873D01*
X126950499Y-113527128D01*
X126944091Y-113467517D01*
X126931718Y-113434344D01*
X126893797Y-113332671D01*
X126893793Y-113332664D01*
X126807547Y-113217455D01*
X126807544Y-113217452D01*
X126692335Y-113131206D01*
X126692329Y-113131203D01*
X126581166Y-113089741D01*
X126525233Y-113047869D01*
X126500816Y-112982405D01*
X126500500Y-112973559D01*
X126500500Y-112449001D01*
X126520185Y-112381962D01*
X126572989Y-112336207D01*
X126642147Y-112326263D01*
X126698810Y-112349734D01*
X126757079Y-112393354D01*
X126757668Y-112393795D01*
X126757671Y-112393797D01*
X126791502Y-112406415D01*
X126892517Y-112444091D01*
X126952127Y-112450500D01*
X127572872Y-112450499D01*
X127632483Y-112444091D01*
X127767331Y-112393796D01*
X127882546Y-112307546D01*
X127968796Y-112192331D01*
X128019091Y-112057483D01*
X128025500Y-111997873D01*
X128025500Y-111997870D01*
X128324500Y-111997870D01*
X128324501Y-111997876D01*
X128330908Y-112057483D01*
X128381202Y-112192328D01*
X128381206Y-112192335D01*
X128467451Y-112307543D01*
X128467452Y-112307544D01*
X128467454Y-112307546D01*
X128537312Y-112359842D01*
X128579182Y-112415774D01*
X128587000Y-112459107D01*
X128587000Y-113240891D01*
X128621108Y-113368187D01*
X128654054Y-113425250D01*
X128687000Y-113482314D01*
X128687002Y-113482316D01*
X131254505Y-116049819D01*
X131287990Y-116111142D01*
X131283006Y-116180834D01*
X131254505Y-116225181D01*
X130030186Y-117449500D01*
X130002004Y-117477682D01*
X129937000Y-117542685D01*
X129932229Y-117548904D01*
X129877189Y-117589598D01*
X129832669Y-117606203D01*
X129832663Y-117606207D01*
X129717455Y-117692452D01*
X129717452Y-117692455D01*
X129631206Y-117807664D01*
X129631202Y-117807671D01*
X129580908Y-117942517D01*
X129577183Y-117977172D01*
X129574501Y-118002123D01*
X129574500Y-118002135D01*
X129574500Y-118997870D01*
X129574501Y-118997876D01*
X129580908Y-119057483D01*
X129631202Y-119192328D01*
X129631206Y-119192335D01*
X129717452Y-119307544D01*
X129717455Y-119307547D01*
X129832664Y-119393793D01*
X129832671Y-119393797D01*
X129845648Y-119398637D01*
X129967517Y-119444091D01*
X130027127Y-119450500D01*
X130647872Y-119450499D01*
X130707483Y-119444091D01*
X130842331Y-119393796D01*
X130957546Y-119307546D01*
X131043796Y-119192331D01*
X131094091Y-119057483D01*
X131100500Y-118997873D01*
X131100499Y-118002128D01*
X131094091Y-117942517D01*
X131083555Y-117914271D01*
X131078570Y-117844581D01*
X131112051Y-117783261D01*
X131327682Y-117567630D01*
X131389003Y-117534147D01*
X131389945Y-117534214D01*
X131406044Y-117491052D01*
X131417623Y-117477689D01*
X131808496Y-117086816D01*
X131869817Y-117053333D01*
X131896166Y-117050499D01*
X131942325Y-117050499D01*
X132009362Y-117070184D01*
X132055117Y-117122988D01*
X132065061Y-117192146D01*
X132036036Y-117255702D01*
X132030005Y-117262180D01*
X131984872Y-117307314D01*
X131855186Y-117437000D01*
X131814504Y-117477682D01*
X131761999Y-117530186D01*
X131761995Y-117530191D01*
X131756981Y-117538876D01*
X131706411Y-117587088D01*
X131692934Y-117593050D01*
X131657671Y-117606203D01*
X131657668Y-117606204D01*
X131579621Y-117664630D01*
X131531161Y-117682704D01*
X131524193Y-117714740D01*
X131514628Y-117729624D01*
X131456204Y-117807668D01*
X131456202Y-117807671D01*
X131405908Y-117942517D01*
X131402183Y-117977172D01*
X131399501Y-118002123D01*
X131399500Y-118002135D01*
X131399500Y-118997870D01*
X131399501Y-118997876D01*
X131405908Y-119057483D01*
X131456202Y-119192328D01*
X131456206Y-119192335D01*
X131542452Y-119307544D01*
X131542455Y-119307547D01*
X131657664Y-119393793D01*
X131657671Y-119393797D01*
X131670648Y-119398637D01*
X131792517Y-119444091D01*
X131852127Y-119450500D01*
X132472872Y-119450499D01*
X132532483Y-119444091D01*
X132667331Y-119393796D01*
X132782546Y-119307546D01*
X132868796Y-119192331D01*
X132919091Y-119057483D01*
X132925500Y-118997873D01*
X132925499Y-118002128D01*
X132919091Y-117942517D01*
X132909766Y-117917516D01*
X132905160Y-117905165D01*
X132900176Y-117835473D01*
X132933659Y-117774153D01*
X133050071Y-117657741D01*
X133111392Y-117624258D01*
X133181084Y-117629242D01*
X133237017Y-117671114D01*
X133261434Y-117736578D01*
X133253932Y-117788756D01*
X133205909Y-117917514D01*
X133205908Y-117917516D01*
X133199501Y-117977116D01*
X133199501Y-117977123D01*
X133199500Y-117977135D01*
X133199500Y-119022870D01*
X133199501Y-119022876D01*
X133205908Y-119082483D01*
X133256202Y-119217328D01*
X133256206Y-119217335D01*
X133323470Y-119307187D01*
X133342454Y-119332546D01*
X133449811Y-119412914D01*
X133491682Y-119468847D01*
X133499500Y-119512180D01*
X133499500Y-120020124D01*
X133490062Y-120067572D01*
X133483809Y-120082671D01*
X133463669Y-120131293D01*
X133448041Y-120250000D01*
X133444750Y-120275000D01*
X133463670Y-120418709D01*
X133479705Y-120457422D01*
X133490061Y-120482422D01*
X133499500Y-120529875D01*
X133499500Y-120770124D01*
X133490062Y-120817572D01*
X133477512Y-120847873D01*
X133463669Y-120881293D01*
X133448041Y-121000000D01*
X133444750Y-121025000D01*
X133463670Y-121168709D01*
X133479705Y-121207422D01*
X133490061Y-121232422D01*
X133499500Y-121279875D01*
X133499500Y-121520124D01*
X133490062Y-121567572D01*
X133474025Y-121606291D01*
X133463669Y-121631293D01*
X133447224Y-121756206D01*
X133444750Y-121775000D01*
X133463670Y-121918709D01*
X133479808Y-121957671D01*
X133490061Y-121982422D01*
X133499500Y-122029875D01*
X133499500Y-122270124D01*
X133490062Y-122317575D01*
X133463669Y-122381293D01*
X133448041Y-122500000D01*
X133444750Y-122525000D01*
X133460378Y-122643708D01*
X133463670Y-122668708D01*
X133463671Y-122668712D01*
X133519137Y-122802622D01*
X133519138Y-122802624D01*
X133519139Y-122802625D01*
X133607379Y-122917621D01*
X133722375Y-123005861D01*
X133856291Y-123061330D01*
X133983280Y-123078048D01*
X133999999Y-123080250D01*
X134000000Y-123080250D01*
X134000001Y-123080250D01*
X134014977Y-123078278D01*
X134143709Y-123061330D01*
X134277625Y-123005861D01*
X134392621Y-122917621D01*
X134480861Y-122802625D01*
X134536330Y-122668709D01*
X134555250Y-122525000D01*
X134551958Y-122499999D01*
X134536330Y-122381293D01*
X134536330Y-122381291D01*
X134509937Y-122317572D01*
X134500500Y-122270124D01*
X134500500Y-122029875D01*
X134509939Y-121982422D01*
X134510855Y-121980211D01*
X134536330Y-121918709D01*
X134555250Y-121775000D01*
X134551958Y-121749999D01*
X134545310Y-121699500D01*
X134536330Y-121631291D01*
X134509937Y-121567572D01*
X134500500Y-121520124D01*
X134500500Y-121279875D01*
X134509939Y-121232422D01*
X134510855Y-121230211D01*
X134536330Y-121168709D01*
X134555250Y-121025000D01*
X134551958Y-120999999D01*
X134538513Y-120897872D01*
X134536330Y-120881291D01*
X134509937Y-120817572D01*
X134500500Y-120770124D01*
X134500500Y-120529875D01*
X134509939Y-120482422D01*
X134510855Y-120480211D01*
X134536330Y-120418709D01*
X134555250Y-120275000D01*
X134551958Y-120249999D01*
X134544391Y-120192517D01*
X134536330Y-120131291D01*
X134509937Y-120067572D01*
X134500500Y-120020124D01*
X134500500Y-119437320D01*
X134520185Y-119370281D01*
X134550192Y-119338051D01*
X134557546Y-119332546D01*
X134643796Y-119217331D01*
X134694091Y-119082483D01*
X134700500Y-119022873D01*
X134700500Y-118750000D01*
X135100000Y-118750000D01*
X135100000Y-119022844D01*
X135106401Y-119082372D01*
X135106403Y-119082379D01*
X135156645Y-119217086D01*
X135156649Y-119217093D01*
X135242809Y-119332187D01*
X135242812Y-119332190D01*
X135357906Y-119418350D01*
X135357913Y-119418354D01*
X135492620Y-119468596D01*
X135492627Y-119468598D01*
X135552155Y-119474999D01*
X135552172Y-119475000D01*
X135600000Y-119475000D01*
X135600000Y-118750000D01*
X136100000Y-118750000D01*
X136100000Y-119475000D01*
X136147828Y-119475000D01*
X136147844Y-119474999D01*
X136207372Y-119468598D01*
X136207379Y-119468596D01*
X136342086Y-119418354D01*
X136342093Y-119418350D01*
X136457187Y-119332190D01*
X136457190Y-119332187D01*
X136543350Y-119217093D01*
X136543354Y-119217086D01*
X136593596Y-119082379D01*
X136593598Y-119082372D01*
X136599999Y-119022844D01*
X136600000Y-119022827D01*
X136600000Y-118750000D01*
X136100000Y-118750000D01*
X135600000Y-118750000D01*
X135100000Y-118750000D01*
X134700500Y-118750000D01*
X134700499Y-118250000D01*
X135100000Y-118250000D01*
X135600000Y-118250000D01*
X135600000Y-117525000D01*
X136100000Y-117525000D01*
X136100000Y-118250000D01*
X136600000Y-118250000D01*
X136600000Y-117977172D01*
X136599999Y-117977155D01*
X136593598Y-117917627D01*
X136593596Y-117917620D01*
X136543354Y-117782913D01*
X136543350Y-117782906D01*
X136457190Y-117667812D01*
X136457187Y-117667809D01*
X136342093Y-117581649D01*
X136342086Y-117581645D01*
X136207379Y-117531403D01*
X136207372Y-117531401D01*
X136147844Y-117525000D01*
X136100000Y-117525000D01*
X135600000Y-117525000D01*
X135552155Y-117525000D01*
X135492627Y-117531401D01*
X135492620Y-117531403D01*
X135357913Y-117581645D01*
X135357906Y-117581649D01*
X135242812Y-117667809D01*
X135242809Y-117667812D01*
X135156649Y-117782906D01*
X135156645Y-117782913D01*
X135106403Y-117917620D01*
X135106401Y-117917627D01*
X135100000Y-117977155D01*
X135100000Y-118250000D01*
X134700499Y-118250000D01*
X134700499Y-117977128D01*
X134694091Y-117917517D01*
X134684766Y-117892516D01*
X134643797Y-117782671D01*
X134643793Y-117782664D01*
X134576261Y-117692454D01*
X134557546Y-117667454D01*
X134524625Y-117642809D01*
X134500188Y-117624515D01*
X134458318Y-117568581D01*
X134450500Y-117525249D01*
X134450500Y-116874051D01*
X134464015Y-116817756D01*
X134470601Y-116804831D01*
X134485646Y-116775304D01*
X134485646Y-116775302D01*
X134485647Y-116775301D01*
X134500499Y-116681524D01*
X134500500Y-116681519D01*
X134500499Y-115593482D01*
X134485646Y-115499696D01*
X134428050Y-115386658D01*
X134428046Y-115386654D01*
X134428045Y-115386652D01*
X134338347Y-115296954D01*
X134338344Y-115296952D01*
X134338342Y-115296950D01*
X134260508Y-115257291D01*
X134225299Y-115239351D01*
X134223887Y-115238893D01*
X134222391Y-115237870D01*
X134216609Y-115234924D01*
X134216989Y-115234176D01*
X134166213Y-115199452D01*
X134139019Y-115135092D01*
X134150937Y-115066247D01*
X134174528Y-115033284D01*
X134350500Y-114857314D01*
X134416392Y-114743186D01*
X134450500Y-114615892D01*
X134450500Y-114599051D01*
X134464015Y-114542756D01*
X134485646Y-114500304D01*
X134485671Y-114500149D01*
X134490826Y-114467603D01*
X134520755Y-114404468D01*
X134580066Y-114367536D01*
X134613299Y-114363000D01*
X136453390Y-114363000D01*
X136453392Y-114363000D01*
X136580686Y-114328892D01*
X136694814Y-114263000D01*
X138425500Y-112532314D01*
X138491392Y-112418186D01*
X138525500Y-112290892D01*
X138525500Y-112159107D01*
X138525500Y-109724500D01*
X138545185Y-109657461D01*
X138597989Y-109611706D01*
X138649500Y-109600500D01*
X138899676Y-109600500D01*
X138899677Y-109600499D01*
X138972740Y-109585966D01*
X139055601Y-109530601D01*
X139110966Y-109447740D01*
X139125500Y-109374674D01*
X139125500Y-107625326D01*
X139125500Y-107625323D01*
X139125499Y-107625321D01*
X139110967Y-107552264D01*
X139110966Y-107552260D01*
X139105013Y-107543350D01*
X139055601Y-107469399D01*
X138972740Y-107414034D01*
X138972739Y-107414033D01*
X138972735Y-107414032D01*
X138899677Y-107399500D01*
X138899674Y-107399500D01*
X137150326Y-107399500D01*
X137150323Y-107399500D01*
X137077264Y-107414032D01*
X137077260Y-107414033D01*
X136994399Y-107469399D01*
X136939033Y-107552260D01*
X136939032Y-107552264D01*
X136924500Y-107625321D01*
X136924500Y-109374678D01*
X136939032Y-109447735D01*
X136939033Y-109447739D01*
X136939034Y-109447740D01*
X136994399Y-109530601D01*
X137070078Y-109581167D01*
X137077260Y-109585966D01*
X137077264Y-109585967D01*
X137150321Y-109600499D01*
X137150324Y-109600500D01*
X137150326Y-109600500D01*
X137400500Y-109600500D01*
X137467539Y-109620185D01*
X137513294Y-109672989D01*
X137524500Y-109724500D01*
X137524500Y-111966324D01*
X137504815Y-112033363D01*
X137488181Y-112054005D01*
X136216505Y-113325681D01*
X136155182Y-113359166D01*
X136128824Y-113362000D01*
X134613299Y-113362000D01*
X134546260Y-113342315D01*
X134500505Y-113289511D01*
X134490826Y-113257398D01*
X134485647Y-113224699D01*
X134485646Y-113224697D01*
X134485646Y-113224696D01*
X134428050Y-113111658D01*
X134428046Y-113111654D01*
X134428045Y-113111652D01*
X134338347Y-113021954D01*
X134338344Y-113021952D01*
X134338342Y-113021950D01*
X134243370Y-112973559D01*
X134225301Y-112964352D01*
X134131524Y-112949500D01*
X133768482Y-112949500D01*
X133674694Y-112964354D01*
X133665418Y-112967369D01*
X133664427Y-112964321D01*
X133612117Y-112974142D01*
X133547378Y-112947861D01*
X133507125Y-112890752D01*
X133500500Y-112850762D01*
X133500500Y-112474749D01*
X133520185Y-112407710D01*
X133550190Y-112375482D01*
X133607546Y-112332546D01*
X133693796Y-112217331D01*
X133744091Y-112082483D01*
X133750500Y-112022873D01*
X133750499Y-110977128D01*
X133744091Y-110917517D01*
X133734766Y-110892516D01*
X133693797Y-110782671D01*
X133693793Y-110782664D01*
X133626261Y-110692454D01*
X133607546Y-110667454D01*
X133574625Y-110642809D01*
X133550188Y-110624515D01*
X133508318Y-110568581D01*
X133500500Y-110525249D01*
X133500500Y-110029875D01*
X133509939Y-109982422D01*
X133510855Y-109980211D01*
X133536330Y-109918709D01*
X133555250Y-109775000D01*
X133551958Y-109749999D01*
X133536330Y-109631293D01*
X133536330Y-109631291D01*
X133509937Y-109567572D01*
X133500500Y-109520124D01*
X133500500Y-109254875D01*
X133509939Y-109207422D01*
X133536330Y-109143709D01*
X133555250Y-109000000D01*
X133536330Y-108856291D01*
X133509937Y-108792572D01*
X133500500Y-108745124D01*
X133500500Y-108529875D01*
X133509939Y-108482422D01*
X133536330Y-108418709D01*
X133555250Y-108275000D01*
X133551958Y-108249999D01*
X134412471Y-108249999D01*
X134412472Y-108250000D01*
X135051988Y-108250000D01*
X135019075Y-108307007D01*
X134985000Y-108434174D01*
X134985000Y-108565826D01*
X135019075Y-108692993D01*
X135051988Y-108750000D01*
X134412472Y-108750000D01*
X134454885Y-108899065D01*
X134454890Y-108899078D01*
X134545754Y-109081556D01*
X134668608Y-109244242D01*
X134819260Y-109381578D01*
X134992584Y-109488897D01*
X135182678Y-109562539D01*
X135235000Y-109572320D01*
X135235000Y-108933012D01*
X135292007Y-108965925D01*
X135419174Y-109000000D01*
X135550826Y-109000000D01*
X135677993Y-108965925D01*
X135735000Y-108933012D01*
X135735000Y-109572320D01*
X135787321Y-109562539D01*
X135977415Y-109488897D01*
X136150739Y-109381578D01*
X136301391Y-109244242D01*
X136424245Y-109081556D01*
X136515109Y-108899078D01*
X136515114Y-108899065D01*
X136557528Y-108750000D01*
X135918012Y-108750000D01*
X135950925Y-108692993D01*
X135985000Y-108565826D01*
X135985000Y-108434174D01*
X135950925Y-108307007D01*
X135918012Y-108250000D01*
X136557528Y-108250000D01*
X136557528Y-108249999D01*
X136515114Y-108100934D01*
X136515109Y-108100921D01*
X136424245Y-107918443D01*
X136301391Y-107755757D01*
X136150739Y-107618421D01*
X135977413Y-107511101D01*
X135787315Y-107437458D01*
X135787309Y-107437456D01*
X135735001Y-107427677D01*
X135735000Y-107427679D01*
X135735000Y-108066988D01*
X135677993Y-108034075D01*
X135550826Y-108000000D01*
X135419174Y-108000000D01*
X135292007Y-108034075D01*
X135235000Y-108066988D01*
X135235000Y-107427679D01*
X135234998Y-107427677D01*
X135182690Y-107437456D01*
X135182684Y-107437458D01*
X134992586Y-107511101D01*
X134819260Y-107618421D01*
X134668608Y-107755757D01*
X134545754Y-107918443D01*
X134454890Y-108100921D01*
X134454885Y-108100934D01*
X134412471Y-108249999D01*
X133551958Y-108249999D01*
X133544453Y-108192993D01*
X133536330Y-108131291D01*
X133509937Y-108067572D01*
X133500500Y-108020124D01*
X133500500Y-107779875D01*
X133509939Y-107732422D01*
X133510855Y-107730211D01*
X133536330Y-107668709D01*
X133555250Y-107525000D01*
X133536330Y-107381291D01*
X133480861Y-107247375D01*
X133392621Y-107132379D01*
X133277625Y-107044139D01*
X133277624Y-107044138D01*
X133277622Y-107044137D01*
X133143712Y-106988671D01*
X133143710Y-106988670D01*
X133143709Y-106988670D01*
X133071854Y-106979210D01*
X133000001Y-106969750D01*
X132999999Y-106969750D01*
X132856291Y-106988670D01*
X132856287Y-106988671D01*
X132722377Y-107044137D01*
X132607379Y-107132379D01*
X132519137Y-107247377D01*
X132463671Y-107381287D01*
X132463670Y-107381291D01*
X132448042Y-107499999D01*
X132444750Y-107525000D01*
X132463670Y-107668709D01*
X132479705Y-107707422D01*
X132490061Y-107732422D01*
X132499500Y-107779875D01*
X132499500Y-108020124D01*
X132490062Y-108067572D01*
X132476244Y-108100934D01*
X132463669Y-108131293D01*
X132444750Y-108274999D01*
X132444750Y-108275002D01*
X132455850Y-108359315D01*
X132445084Y-108428350D01*
X132398704Y-108480606D01*
X132332911Y-108499500D01*
X131776440Y-108499500D01*
X131709401Y-108479815D01*
X131663646Y-108427011D01*
X131660258Y-108418833D01*
X131618797Y-108307671D01*
X131618793Y-108307664D01*
X131532547Y-108192455D01*
X131532544Y-108192452D01*
X131417335Y-108106206D01*
X131417328Y-108106202D01*
X131282486Y-108055910D01*
X131282485Y-108055909D01*
X131282483Y-108055909D01*
X131222873Y-108049500D01*
X131222863Y-108049500D01*
X130602129Y-108049500D01*
X130602123Y-108049501D01*
X130542516Y-108055908D01*
X130407671Y-108106202D01*
X130407664Y-108106206D01*
X130292455Y-108192452D01*
X130292452Y-108192455D01*
X130206206Y-108307664D01*
X130206202Y-108307671D01*
X130155908Y-108442517D01*
X130149782Y-108499500D01*
X130149501Y-108502123D01*
X130149500Y-108502135D01*
X130149500Y-109497870D01*
X130149501Y-109497876D01*
X130155908Y-109557483D01*
X130206202Y-109692328D01*
X130206206Y-109692335D01*
X130292452Y-109807544D01*
X130292455Y-109807547D01*
X130407664Y-109893793D01*
X130407671Y-109893797D01*
X130452618Y-109910561D01*
X130542517Y-109944091D01*
X130602127Y-109950500D01*
X131222872Y-109950499D01*
X131282483Y-109944091D01*
X131417331Y-109893796D01*
X131532546Y-109807546D01*
X131618796Y-109692331D01*
X131631802Y-109657461D01*
X131660258Y-109581167D01*
X131702129Y-109525233D01*
X131767593Y-109500816D01*
X131776440Y-109500500D01*
X132339494Y-109500500D01*
X132406533Y-109520185D01*
X132452288Y-109572989D01*
X132462433Y-109640686D01*
X132448042Y-109749999D01*
X132444750Y-109775000D01*
X132463670Y-109918709D01*
X132480403Y-109959107D01*
X132490061Y-109982422D01*
X132499500Y-110029875D01*
X132499500Y-110525249D01*
X132479815Y-110592288D01*
X132449812Y-110624515D01*
X132392457Y-110667451D01*
X132392451Y-110667457D01*
X132306206Y-110782664D01*
X132306202Y-110782671D01*
X132255908Y-110917517D01*
X132252183Y-110952172D01*
X132249501Y-110977123D01*
X132249500Y-110977135D01*
X132249500Y-112022870D01*
X132249501Y-112022876D01*
X132255908Y-112082483D01*
X132306202Y-112217328D01*
X132306203Y-112217329D01*
X132306204Y-112217331D01*
X132392452Y-112332543D01*
X132392455Y-112332547D01*
X132415416Y-112349735D01*
X132428914Y-112359840D01*
X132449810Y-112375482D01*
X132491682Y-112431415D01*
X132499500Y-112474749D01*
X132499500Y-112851322D01*
X132479815Y-112918361D01*
X132427011Y-112964116D01*
X132357853Y-112974060D01*
X132334781Y-112966748D01*
X132334424Y-112967849D01*
X132325146Y-112964834D01*
X132300000Y-112960851D01*
X132300000Y-114764146D01*
X132300001Y-114764147D01*
X132325145Y-114760165D01*
X132438045Y-114702639D01*
X132445944Y-114696902D01*
X132446941Y-114698274D01*
X132498278Y-114670237D01*
X132567971Y-114675216D01*
X132603311Y-114697927D01*
X132603759Y-114697311D01*
X132611653Y-114703045D01*
X132611658Y-114703050D01*
X132724696Y-114760646D01*
X132749217Y-114764529D01*
X132812351Y-114794458D01*
X132849283Y-114853769D01*
X132848287Y-114923631D01*
X132817502Y-114974683D01*
X132692686Y-115099500D01*
X132599502Y-115192683D01*
X132599498Y-115192689D01*
X132575188Y-115234794D01*
X132524620Y-115283009D01*
X132456013Y-115296230D01*
X132411507Y-115283277D01*
X132325301Y-115239352D01*
X132231524Y-115224500D01*
X131896176Y-115224500D01*
X131829137Y-115204815D01*
X131808495Y-115188181D01*
X131524383Y-114904069D01*
X131490898Y-114842746D01*
X131495353Y-114780446D01*
X131428804Y-114783299D01*
X131370930Y-114750616D01*
X130732814Y-114112500D01*
X131500001Y-114112500D01*
X131500001Y-114406479D01*
X131514835Y-114500149D01*
X131569096Y-114606640D01*
X131581992Y-114675309D01*
X131569886Y-114705136D01*
X131603218Y-114692704D01*
X131668359Y-114705903D01*
X131774854Y-114760165D01*
X131799998Y-114764147D01*
X131800000Y-114764146D01*
X131800000Y-114112500D01*
X131500001Y-114112500D01*
X130732814Y-114112500D01*
X130232814Y-113612500D01*
X131500000Y-113612500D01*
X131800000Y-113612500D01*
X131800000Y-112960851D01*
X131774856Y-112964833D01*
X131661953Y-113022360D01*
X131661949Y-113022363D01*
X131572363Y-113111949D01*
X131572360Y-113111953D01*
X131514833Y-113224855D01*
X131500000Y-113318513D01*
X131500000Y-113612500D01*
X130232814Y-113612500D01*
X129624319Y-113004005D01*
X129590834Y-112942682D01*
X129588000Y-112916324D01*
X129588000Y-112459107D01*
X129607685Y-112392068D01*
X129637685Y-112359843D01*
X129707546Y-112307546D01*
X129793796Y-112192331D01*
X129844091Y-112057483D01*
X129850500Y-111997873D01*
X129850500Y-111750000D01*
X130350000Y-111750000D01*
X130350000Y-112022844D01*
X130356401Y-112082372D01*
X130356403Y-112082379D01*
X130406645Y-112217086D01*
X130406649Y-112217093D01*
X130492809Y-112332187D01*
X130492812Y-112332190D01*
X130607906Y-112418350D01*
X130607913Y-112418354D01*
X130742620Y-112468596D01*
X130742627Y-112468598D01*
X130802155Y-112474999D01*
X130802172Y-112475000D01*
X130850000Y-112475000D01*
X130850000Y-111750000D01*
X131350000Y-111750000D01*
X131350000Y-112475000D01*
X131397828Y-112475000D01*
X131397844Y-112474999D01*
X131457372Y-112468598D01*
X131457379Y-112468596D01*
X131592086Y-112418354D01*
X131592093Y-112418350D01*
X131707187Y-112332190D01*
X131707190Y-112332187D01*
X131793350Y-112217093D01*
X131793354Y-112217086D01*
X131843596Y-112082379D01*
X131843598Y-112082372D01*
X131849999Y-112022844D01*
X131850000Y-112022827D01*
X131850000Y-111750000D01*
X131350000Y-111750000D01*
X130850000Y-111750000D01*
X130350000Y-111750000D01*
X129850500Y-111750000D01*
X129850499Y-111250000D01*
X130350000Y-111250000D01*
X130850000Y-111250000D01*
X130850000Y-110525000D01*
X131350000Y-110525000D01*
X131350000Y-111250000D01*
X131850000Y-111250000D01*
X131850000Y-110977172D01*
X131849999Y-110977155D01*
X131843598Y-110917627D01*
X131843596Y-110917620D01*
X131793354Y-110782913D01*
X131793350Y-110782906D01*
X131707190Y-110667812D01*
X131707187Y-110667809D01*
X131592093Y-110581649D01*
X131592086Y-110581645D01*
X131457379Y-110531403D01*
X131457372Y-110531401D01*
X131397844Y-110525000D01*
X131350000Y-110525000D01*
X130850000Y-110525000D01*
X130802155Y-110525000D01*
X130742627Y-110531401D01*
X130742620Y-110531403D01*
X130607913Y-110581645D01*
X130607906Y-110581649D01*
X130492812Y-110667809D01*
X130492809Y-110667812D01*
X130406649Y-110782906D01*
X130406645Y-110782913D01*
X130356403Y-110917620D01*
X130356401Y-110917627D01*
X130350000Y-110977155D01*
X130350000Y-111250000D01*
X129850499Y-111250000D01*
X129850499Y-111002128D01*
X129844091Y-110942517D01*
X129837392Y-110924557D01*
X129793797Y-110807671D01*
X129793793Y-110807664D01*
X129707547Y-110692455D01*
X129637688Y-110640158D01*
X129595818Y-110584224D01*
X129588000Y-110540892D01*
X129588000Y-109959107D01*
X129607685Y-109892068D01*
X129637685Y-109859843D01*
X129707546Y-109807546D01*
X129793796Y-109692331D01*
X129844091Y-109557483D01*
X129850500Y-109497873D01*
X129850499Y-108502128D01*
X129844091Y-108442517D01*
X129840979Y-108434174D01*
X129793797Y-108307671D01*
X129793793Y-108307664D01*
X129707547Y-108192455D01*
X129707544Y-108192452D01*
X129592335Y-108106206D01*
X129592328Y-108106202D01*
X129457486Y-108055910D01*
X129457485Y-108055909D01*
X129457483Y-108055909D01*
X129397873Y-108049500D01*
X129397863Y-108049500D01*
X128777129Y-108049500D01*
X128777123Y-108049501D01*
X128717516Y-108055908D01*
X128582671Y-108106202D01*
X128582664Y-108106206D01*
X128467455Y-108192452D01*
X128467452Y-108192455D01*
X128381206Y-108307664D01*
X128381202Y-108307671D01*
X128330908Y-108442517D01*
X128324782Y-108499500D01*
X128324501Y-108502123D01*
X128324500Y-108502135D01*
X128324500Y-109497870D01*
X128324501Y-109497876D01*
X128330908Y-109557483D01*
X128381202Y-109692328D01*
X128381206Y-109692335D01*
X128467451Y-109807543D01*
X128467452Y-109807544D01*
X128467454Y-109807546D01*
X128537312Y-109859842D01*
X128579182Y-109915774D01*
X128587000Y-109959107D01*
X128587000Y-110540892D01*
X128567315Y-110607931D01*
X128537312Y-110640158D01*
X128467452Y-110692455D01*
X128381206Y-110807664D01*
X128381202Y-110807671D01*
X128330908Y-110942517D01*
X128327183Y-110977172D01*
X128324501Y-111002123D01*
X128324500Y-111002135D01*
X128324500Y-111997870D01*
X128025500Y-111997870D01*
X128025499Y-111002128D01*
X128019091Y-110942517D01*
X128012392Y-110924557D01*
X127968797Y-110807671D01*
X127968793Y-110807664D01*
X127882547Y-110692455D01*
X127882544Y-110692452D01*
X127767335Y-110606206D01*
X127767328Y-110606202D01*
X127632486Y-110555910D01*
X127632485Y-110555909D01*
X127632483Y-110555909D01*
X127572873Y-110549500D01*
X127572863Y-110549500D01*
X126952129Y-110549500D01*
X126952123Y-110549501D01*
X126892516Y-110555908D01*
X126757671Y-110606202D01*
X126757664Y-110606206D01*
X126642455Y-110692452D01*
X126642452Y-110692455D01*
X126556206Y-110807664D01*
X126556203Y-110807669D01*
X126512607Y-110924557D01*
X126470735Y-110980490D01*
X126428518Y-111000997D01*
X126398138Y-111009137D01*
X126306812Y-111033608D01*
X126192686Y-111099500D01*
X126192683Y-111099502D01*
X125599502Y-111692683D01*
X125599500Y-111692686D01*
X125533608Y-111806812D01*
X125499500Y-111934108D01*
X125499500Y-112973560D01*
X125479815Y-113040599D01*
X125427011Y-113086354D01*
X125418833Y-113089742D01*
X125307671Y-113131202D01*
X125307664Y-113131206D01*
X125192455Y-113217452D01*
X125192452Y-113217455D01*
X125121443Y-113312311D01*
X125065509Y-113354182D01*
X125022177Y-113362000D01*
X124613299Y-113362000D01*
X124546260Y-113342315D01*
X124500505Y-113289511D01*
X124490826Y-113257398D01*
X124485647Y-113224699D01*
X124485646Y-113224697D01*
X124485646Y-113224696D01*
X124428050Y-113111658D01*
X124428046Y-113111654D01*
X124428045Y-113111652D01*
X124338347Y-113021954D01*
X124338344Y-113021952D01*
X124338342Y-113021950D01*
X124243370Y-112973559D01*
X124225301Y-112964352D01*
X124131524Y-112949500D01*
X123768482Y-112949500D01*
X123674694Y-112964354D01*
X123665418Y-112967369D01*
X123664427Y-112964321D01*
X123612117Y-112974142D01*
X123547378Y-112947861D01*
X123507125Y-112890752D01*
X123500500Y-112850762D01*
X123500500Y-112474749D01*
X123520185Y-112407710D01*
X123550190Y-112375482D01*
X123607546Y-112332546D01*
X123693796Y-112217331D01*
X123744091Y-112082483D01*
X123750500Y-112022873D01*
X123750499Y-110977128D01*
X123744091Y-110917517D01*
X123734766Y-110892516D01*
X123693797Y-110782671D01*
X123693793Y-110782664D01*
X123626261Y-110692454D01*
X123607546Y-110667454D01*
X123574625Y-110642809D01*
X123550188Y-110624515D01*
X123508318Y-110568581D01*
X123500500Y-110525249D01*
X123500500Y-110029875D01*
X123509939Y-109982422D01*
X123510855Y-109980211D01*
X123536330Y-109918709D01*
X123555250Y-109775000D01*
X123551958Y-109749999D01*
X123536330Y-109631293D01*
X123536330Y-109631291D01*
X123509937Y-109567572D01*
X123500500Y-109520124D01*
X123500500Y-109279875D01*
X123509939Y-109232422D01*
X123510855Y-109230211D01*
X123536330Y-109168709D01*
X123555250Y-109025000D01*
X123551958Y-108999999D01*
X123536330Y-108881293D01*
X123536330Y-108881291D01*
X123509937Y-108817572D01*
X123500500Y-108770124D01*
X123500500Y-108529875D01*
X123509939Y-108482422D01*
X123536330Y-108418709D01*
X123555250Y-108275000D01*
X123551958Y-108249999D01*
X123544453Y-108192993D01*
X123536330Y-108131291D01*
X123509937Y-108067572D01*
X123500500Y-108020124D01*
X123500500Y-107779875D01*
X123509939Y-107732422D01*
X123510855Y-107730211D01*
X123536330Y-107668709D01*
X123555250Y-107525000D01*
X123536330Y-107381291D01*
X123480861Y-107247375D01*
X123392621Y-107132379D01*
X123277625Y-107044139D01*
X123277624Y-107044138D01*
X123277622Y-107044137D01*
X123143712Y-106988671D01*
X123143710Y-106988670D01*
X123143709Y-106988670D01*
X123071854Y-106979210D01*
X123000001Y-106969750D01*
X122999999Y-106969750D01*
X122856291Y-106988670D01*
X122856287Y-106988671D01*
X122722377Y-107044137D01*
X122607379Y-107132379D01*
X122519137Y-107247377D01*
X122463671Y-107381287D01*
X122463670Y-107381291D01*
X122448042Y-107499999D01*
X122444750Y-107525000D01*
X122463670Y-107668709D01*
X122479705Y-107707422D01*
X122490061Y-107732422D01*
X122499500Y-107779875D01*
X122499500Y-108020124D01*
X122490062Y-108067572D01*
X122476244Y-108100934D01*
X122463669Y-108131293D01*
X122448041Y-108250000D01*
X122444750Y-108275000D01*
X122463670Y-108418709D01*
X122489308Y-108480606D01*
X122490061Y-108482422D01*
X122499500Y-108529875D01*
X122499500Y-108770124D01*
X122490062Y-108817575D01*
X122463669Y-108881293D01*
X122448041Y-109000000D01*
X122444750Y-109025000D01*
X122463670Y-109168709D01*
X122479705Y-109207422D01*
X122490061Y-109232422D01*
X122499500Y-109279875D01*
X122499500Y-109520124D01*
X122490062Y-109567572D01*
X122476424Y-109600499D01*
X122463669Y-109631293D01*
X122448041Y-109750000D01*
X122444750Y-109775000D01*
X122463670Y-109918709D01*
X122480403Y-109959107D01*
X122490061Y-109982422D01*
X122499500Y-110029875D01*
X122499500Y-110525249D01*
X122479815Y-110592288D01*
X122449812Y-110624515D01*
X122392457Y-110667451D01*
X122392451Y-110667457D01*
X122306206Y-110782664D01*
X122306202Y-110782671D01*
X122255908Y-110917517D01*
X122252183Y-110952172D01*
X122249501Y-110977123D01*
X122249500Y-110977135D01*
X122249500Y-112022870D01*
X122249501Y-112022876D01*
X122255908Y-112082483D01*
X122306202Y-112217328D01*
X122306203Y-112217329D01*
X122306204Y-112217331D01*
X122392452Y-112332543D01*
X122392455Y-112332547D01*
X122415416Y-112349735D01*
X122428914Y-112359840D01*
X122449810Y-112375482D01*
X122491682Y-112431415D01*
X122499500Y-112474749D01*
X122499500Y-112851322D01*
X122479815Y-112918361D01*
X122427011Y-112964116D01*
X122357853Y-112974060D01*
X122334781Y-112966748D01*
X122334424Y-112967849D01*
X122325146Y-112964834D01*
X122300000Y-112960851D01*
X122300000Y-114764146D01*
X122300001Y-114764147D01*
X122325145Y-114760165D01*
X122438045Y-114702639D01*
X122445944Y-114696902D01*
X122446941Y-114698274D01*
X122498278Y-114670237D01*
X122567971Y-114675216D01*
X122603311Y-114697927D01*
X122603759Y-114697311D01*
X122611653Y-114703045D01*
X122611658Y-114703050D01*
X122724696Y-114760646D01*
X122749217Y-114764529D01*
X122812351Y-114794458D01*
X122849283Y-114853769D01*
X122848287Y-114923631D01*
X122817502Y-114974683D01*
X122692686Y-115099500D01*
X122599502Y-115192683D01*
X122599498Y-115192689D01*
X122575188Y-115234794D01*
X122524620Y-115283009D01*
X122456013Y-115296230D01*
X122411507Y-115283277D01*
X122325301Y-115239352D01*
X122231524Y-115224500D01*
X121868482Y-115224500D01*
X121787519Y-115237323D01*
X121774696Y-115239354D01*
X121661658Y-115296950D01*
X121661657Y-115296951D01*
X121661652Y-115296954D01*
X121571954Y-115386652D01*
X121571951Y-115386657D01*
X121571950Y-115386658D01*
X121554751Y-115420413D01*
X121514352Y-115499698D01*
X121499500Y-115593475D01*
X121499500Y-115928823D01*
X121479815Y-115995862D01*
X121463181Y-116016504D01*
X120642686Y-116837000D01*
X120549502Y-116930183D01*
X120549500Y-116930186D01*
X120483608Y-117044312D01*
X120449500Y-117171608D01*
X120449500Y-117525249D01*
X120429815Y-117592288D01*
X120399812Y-117624515D01*
X120342457Y-117667451D01*
X120342451Y-117667457D01*
X120256206Y-117782664D01*
X120256202Y-117782671D01*
X120205908Y-117917517D01*
X120202183Y-117952172D01*
X120199501Y-117977123D01*
X120199500Y-117977135D01*
X120199500Y-119022870D01*
X120199501Y-119022876D01*
X120205908Y-119082483D01*
X120256202Y-119217328D01*
X120256203Y-119217329D01*
X120256204Y-119217331D01*
X120342454Y-119332546D01*
X120380692Y-119361171D01*
X120399810Y-119375482D01*
X120441682Y-119431415D01*
X120449500Y-119474749D01*
X120449500Y-119634108D01*
X120449500Y-119765892D01*
X120460222Y-119805909D01*
X120472077Y-119850150D01*
X120470414Y-119920000D01*
X120446430Y-119959353D01*
X120447768Y-119960355D01*
X120356206Y-120082664D01*
X120356202Y-120082671D01*
X120315233Y-120192517D01*
X120305909Y-120217517D01*
X120299500Y-120277127D01*
X120299500Y-120277134D01*
X120299500Y-120277135D01*
X120299500Y-120897870D01*
X120299501Y-120897876D01*
X120305908Y-120957483D01*
X120356202Y-121092328D01*
X120356206Y-121092335D01*
X120442452Y-121207544D01*
X120442455Y-121207547D01*
X120557664Y-121293793D01*
X120557671Y-121293797D01*
X120692517Y-121344091D01*
X120692516Y-121344091D01*
X120699444Y-121344835D01*
X120752127Y-121350500D01*
X121747872Y-121350499D01*
X121807483Y-121344091D01*
X121942331Y-121293796D01*
X122051189Y-121212305D01*
X122116653Y-121187887D01*
X122184926Y-121202738D01*
X122234332Y-121252143D01*
X122249500Y-121311571D01*
X122249500Y-121491323D01*
X122229815Y-121558362D01*
X122213181Y-121579005D01*
X122100459Y-121691726D01*
X122039136Y-121725210D01*
X121969444Y-121720226D01*
X121950440Y-121709850D01*
X121950112Y-121710453D01*
X121942329Y-121706202D01*
X121807482Y-121655908D01*
X121807483Y-121655908D01*
X121747883Y-121649501D01*
X121747881Y-121649500D01*
X121747873Y-121649500D01*
X121747864Y-121649500D01*
X120752129Y-121649500D01*
X120752123Y-121649501D01*
X120692516Y-121655908D01*
X120557671Y-121706202D01*
X120557664Y-121706206D01*
X120442456Y-121792451D01*
X120442454Y-121792454D01*
X120390157Y-121862312D01*
X120334226Y-121904182D01*
X120290893Y-121912000D01*
X119696677Y-121912000D01*
X119629638Y-121892315D01*
X119597410Y-121862310D01*
X119583551Y-121843797D01*
X119582546Y-121842454D01*
X119582545Y-121842453D01*
X119582544Y-121842452D01*
X119467335Y-121756206D01*
X119467328Y-121756202D01*
X119332482Y-121705908D01*
X119332483Y-121705908D01*
X119272883Y-121699501D01*
X119272881Y-121699500D01*
X119272873Y-121699500D01*
X119272864Y-121699500D01*
X118227129Y-121699500D01*
X118227123Y-121699501D01*
X118167516Y-121705908D01*
X118032671Y-121756202D01*
X118032664Y-121756206D01*
X117917455Y-121842452D01*
X117917452Y-121842455D01*
X117831206Y-121957664D01*
X117831202Y-121957671D01*
X117794038Y-122057315D01*
X117780909Y-122092517D01*
X117774500Y-122152127D01*
X117774500Y-122152134D01*
X117774500Y-122152135D01*
X117774500Y-122747870D01*
X114493186Y-122747870D01*
X114536330Y-122643709D01*
X114555250Y-122500000D01*
X114536330Y-122356291D01*
X114509937Y-122292572D01*
X114500500Y-122245124D01*
X114500500Y-122004875D01*
X114509939Y-121957422D01*
X114515836Y-121943186D01*
X114536330Y-121893709D01*
X114555250Y-121750000D01*
X114536330Y-121606291D01*
X114509937Y-121542572D01*
X114500500Y-121495124D01*
X114500500Y-121254875D01*
X114509939Y-121207422D01*
X114536330Y-121143709D01*
X114555250Y-121000000D01*
X114536330Y-120856291D01*
X114509937Y-120792572D01*
X114500500Y-120745124D01*
X114500500Y-120504875D01*
X114509939Y-120457422D01*
X114536330Y-120393709D01*
X114555250Y-120250000D01*
X114536330Y-120106291D01*
X114509937Y-120042572D01*
X114500500Y-119995124D01*
X114500500Y-119412320D01*
X114520185Y-119345281D01*
X114550192Y-119313051D01*
X114557546Y-119307546D01*
X114643796Y-119192331D01*
X114694091Y-119057483D01*
X114700500Y-118997873D01*
X114700500Y-118725000D01*
X115100000Y-118725000D01*
X115100000Y-118997844D01*
X115106401Y-119057372D01*
X115106403Y-119057379D01*
X115156645Y-119192086D01*
X115156649Y-119192093D01*
X115242809Y-119307187D01*
X115242812Y-119307190D01*
X115357906Y-119393350D01*
X115357913Y-119393354D01*
X115492620Y-119443596D01*
X115492627Y-119443598D01*
X115552155Y-119449999D01*
X115552172Y-119450000D01*
X115600000Y-119450000D01*
X115600000Y-118725000D01*
X116100000Y-118725000D01*
X116100000Y-119450000D01*
X116147828Y-119450000D01*
X116147844Y-119449999D01*
X116207372Y-119443598D01*
X116207379Y-119443596D01*
X116342086Y-119393354D01*
X116342093Y-119393350D01*
X116457187Y-119307190D01*
X116457190Y-119307187D01*
X116543350Y-119192093D01*
X116543354Y-119192086D01*
X116593596Y-119057379D01*
X116593598Y-119057372D01*
X116599999Y-118997844D01*
X116600000Y-118997827D01*
X116600000Y-118725000D01*
X116100000Y-118725000D01*
X115600000Y-118725000D01*
X115100000Y-118725000D01*
X114700500Y-118725000D01*
X114700499Y-118225000D01*
X115100000Y-118225000D01*
X115600000Y-118225000D01*
X115600000Y-117500000D01*
X116100000Y-117500000D01*
X116100000Y-118225000D01*
X116600000Y-118225000D01*
X116600000Y-117952172D01*
X116599999Y-117952155D01*
X116593598Y-117892627D01*
X116593596Y-117892620D01*
X116543354Y-117757913D01*
X116543350Y-117757906D01*
X116457190Y-117642812D01*
X116457187Y-117642809D01*
X116342093Y-117556649D01*
X116342086Y-117556645D01*
X116207379Y-117506403D01*
X116207372Y-117506401D01*
X116147844Y-117500000D01*
X116100000Y-117500000D01*
X115600000Y-117500000D01*
X115552155Y-117500000D01*
X115492627Y-117506401D01*
X115492620Y-117506403D01*
X115357913Y-117556645D01*
X115357906Y-117556649D01*
X115242812Y-117642809D01*
X115242809Y-117642812D01*
X115156649Y-117757906D01*
X115156645Y-117757913D01*
X115106403Y-117892620D01*
X115106401Y-117892627D01*
X115100000Y-117952155D01*
X115100000Y-118225000D01*
X114700499Y-118225000D01*
X114700499Y-117952128D01*
X114694091Y-117892517D01*
X114674356Y-117839606D01*
X114643797Y-117757671D01*
X114643793Y-117757664D01*
X114557548Y-117642457D01*
X114557546Y-117642454D01*
X114533583Y-117624515D01*
X114500188Y-117599515D01*
X114458318Y-117543581D01*
X114450500Y-117500249D01*
X114450500Y-116849051D01*
X114464015Y-116792756D01*
X114485646Y-116750304D01*
X114485646Y-116750302D01*
X114485647Y-116750301D01*
X114496540Y-116681519D01*
X114500500Y-116656519D01*
X114500499Y-115624499D01*
X114520183Y-115557461D01*
X114572987Y-115511706D01*
X114624499Y-115500500D01*
X114925500Y-115500500D01*
X114992539Y-115520185D01*
X115038294Y-115572989D01*
X115049500Y-115624500D01*
X115049500Y-115972869D01*
X115049501Y-115972876D01*
X115055908Y-116032483D01*
X115106202Y-116167328D01*
X115106206Y-116167335D01*
X115192452Y-116282544D01*
X115192455Y-116282547D01*
X115307664Y-116368793D01*
X115307671Y-116368797D01*
X115442517Y-116419091D01*
X115442516Y-116419091D01*
X115449444Y-116419835D01*
X115502127Y-116425500D01*
X116497872Y-116425499D01*
X116557483Y-116419091D01*
X116692331Y-116368796D01*
X116807546Y-116282546D01*
X116893796Y-116167331D01*
X116944091Y-116032483D01*
X116950500Y-115972873D01*
X116950499Y-115352128D01*
X116944091Y-115292517D01*
X116936420Y-115271951D01*
X116893797Y-115157671D01*
X116893793Y-115157664D01*
X116807547Y-115042455D01*
X116807544Y-115042452D01*
X116692335Y-114956206D01*
X116692328Y-114956202D01*
X116557482Y-114905908D01*
X116557483Y-114905908D01*
X116497883Y-114899501D01*
X116497881Y-114899500D01*
X116497873Y-114899500D01*
X116497865Y-114899500D01*
X115996176Y-114899500D01*
X115929137Y-114879815D01*
X115908495Y-114863181D01*
X115857494Y-114812180D01*
X115824009Y-114750857D01*
X115828993Y-114681165D01*
X115870865Y-114625232D01*
X115936329Y-114600815D01*
X115945175Y-114600499D01*
X116497871Y-114600499D01*
X116497872Y-114600499D01*
X116557483Y-114594091D01*
X116692331Y-114543796D01*
X116807546Y-114457546D01*
X116893796Y-114342331D01*
X116944091Y-114207483D01*
X116950500Y-114147873D01*
X116950499Y-113527128D01*
X116944091Y-113467517D01*
X116931718Y-113434344D01*
X116893797Y-113332671D01*
X116893793Y-113332664D01*
X116807547Y-113217455D01*
X116807544Y-113217452D01*
X116692335Y-113131206D01*
X116692329Y-113131203D01*
X116581166Y-113089741D01*
X116525233Y-113047869D01*
X116500816Y-112982405D01*
X116500500Y-112973559D01*
X116500500Y-112709107D01*
X116520185Y-112642068D01*
X116550185Y-112609843D01*
X116620046Y-112557546D01*
X116706296Y-112442331D01*
X116756591Y-112307483D01*
X116763000Y-112247873D01*
X116763000Y-112247870D01*
X117062000Y-112247870D01*
X117062001Y-112247876D01*
X117068408Y-112307483D01*
X117118702Y-112442328D01*
X117118706Y-112442335D01*
X117204951Y-112557543D01*
X117204952Y-112557544D01*
X117204954Y-112557546D01*
X117274812Y-112609842D01*
X117316682Y-112665774D01*
X117324500Y-112709107D01*
X117324500Y-114259108D01*
X117324500Y-114390892D01*
X117328687Y-114406518D01*
X117358608Y-114518187D01*
X117388108Y-114569281D01*
X117424500Y-114632314D01*
X117424502Y-114632316D01*
X118513181Y-115720995D01*
X118546666Y-115782318D01*
X118549500Y-115808676D01*
X118549500Y-117525249D01*
X118529815Y-117592288D01*
X118499812Y-117624515D01*
X118442457Y-117667451D01*
X118442451Y-117667457D01*
X118356206Y-117782664D01*
X118356202Y-117782671D01*
X118305908Y-117917517D01*
X118302183Y-117952172D01*
X118299501Y-117977123D01*
X118299500Y-117977135D01*
X118299500Y-119022870D01*
X118299501Y-119022876D01*
X118305908Y-119082483D01*
X118356202Y-119217328D01*
X118356203Y-119217329D01*
X118356204Y-119217331D01*
X118442454Y-119332546D01*
X118480692Y-119361171D01*
X118480694Y-119361172D01*
X118522566Y-119417105D01*
X118527550Y-119486797D01*
X118494066Y-119548119D01*
X118442687Y-119599499D01*
X118442686Y-119599500D01*
X118349502Y-119692683D01*
X118349495Y-119692692D01*
X118323342Y-119737989D01*
X118272774Y-119786203D01*
X118229212Y-119799276D01*
X118167516Y-119805909D01*
X118032671Y-119856202D01*
X118032664Y-119856206D01*
X117917455Y-119942452D01*
X117917452Y-119942455D01*
X117831206Y-120057664D01*
X117831202Y-120057671D01*
X117780910Y-120192513D01*
X117780909Y-120192517D01*
X117774500Y-120252127D01*
X117774500Y-120252134D01*
X117774500Y-120252135D01*
X117774500Y-120847870D01*
X117774501Y-120847876D01*
X117780908Y-120907483D01*
X117831202Y-121042328D01*
X117831206Y-121042335D01*
X117917452Y-121157544D01*
X117917455Y-121157547D01*
X118032664Y-121243793D01*
X118032671Y-121243797D01*
X118167517Y-121294091D01*
X118167516Y-121294091D01*
X118174444Y-121294835D01*
X118227127Y-121300500D01*
X119272872Y-121300499D01*
X119332483Y-121294091D01*
X119467331Y-121243796D01*
X119582546Y-121157546D01*
X119668796Y-121042331D01*
X119719091Y-120907483D01*
X119725500Y-120847873D01*
X119725499Y-120252128D01*
X119719091Y-120192517D01*
X119701912Y-120146459D01*
X119668797Y-120057671D01*
X119668793Y-120057664D01*
X119582547Y-119942455D01*
X119576275Y-119936183D01*
X119577449Y-119935008D01*
X119541760Y-119887329D01*
X119536779Y-119817637D01*
X119538162Y-119811934D01*
X119550500Y-119765893D01*
X119550500Y-119634108D01*
X119550500Y-119474749D01*
X119570185Y-119407710D01*
X119600190Y-119375482D01*
X119619306Y-119361172D01*
X119657546Y-119332546D01*
X119743796Y-119217331D01*
X119794091Y-119082483D01*
X119800500Y-119022873D01*
X119800499Y-117977128D01*
X119794091Y-117917517D01*
X119784766Y-117892516D01*
X119743797Y-117782671D01*
X119743793Y-117782664D01*
X119676261Y-117692454D01*
X119657546Y-117667454D01*
X119624625Y-117642809D01*
X119600188Y-117624515D01*
X119558318Y-117568581D01*
X119550500Y-117525249D01*
X119550500Y-115484110D01*
X119550500Y-115484108D01*
X119516392Y-115356814D01*
X119450500Y-115242686D01*
X119357314Y-115149500D01*
X118361819Y-114154005D01*
X118339155Y-114112500D01*
X121500001Y-114112500D01*
X121500001Y-114406479D01*
X121514835Y-114500149D01*
X121514837Y-114500155D01*
X121572356Y-114613041D01*
X121572363Y-114613050D01*
X121661949Y-114702636D01*
X121661954Y-114702639D01*
X121774854Y-114760165D01*
X121799998Y-114764147D01*
X121800000Y-114764146D01*
X121800000Y-114112500D01*
X121500001Y-114112500D01*
X118339155Y-114112500D01*
X118328334Y-114092682D01*
X118325500Y-114066324D01*
X118325500Y-113612500D01*
X121500000Y-113612500D01*
X121800000Y-113612500D01*
X121800000Y-112960851D01*
X121774856Y-112964833D01*
X121661953Y-113022360D01*
X121661949Y-113022363D01*
X121572363Y-113111949D01*
X121572360Y-113111953D01*
X121514833Y-113224855D01*
X121500000Y-113318513D01*
X121500000Y-113612500D01*
X118325500Y-113612500D01*
X118325500Y-112709107D01*
X118345185Y-112642068D01*
X118375185Y-112609843D01*
X118445046Y-112557546D01*
X118531296Y-112442331D01*
X118581591Y-112307483D01*
X118588000Y-112247873D01*
X118587999Y-111750000D01*
X120350000Y-111750000D01*
X120350000Y-112022844D01*
X120356401Y-112082372D01*
X120356403Y-112082379D01*
X120406645Y-112217086D01*
X120406649Y-112217093D01*
X120492809Y-112332187D01*
X120492812Y-112332190D01*
X120607906Y-112418350D01*
X120607913Y-112418354D01*
X120742620Y-112468596D01*
X120742627Y-112468598D01*
X120802155Y-112474999D01*
X120802172Y-112475000D01*
X120850000Y-112475000D01*
X120850000Y-111750000D01*
X121350000Y-111750000D01*
X121350000Y-112475000D01*
X121397828Y-112475000D01*
X121397844Y-112474999D01*
X121457372Y-112468598D01*
X121457379Y-112468596D01*
X121592086Y-112418354D01*
X121592093Y-112418350D01*
X121707187Y-112332190D01*
X121707190Y-112332187D01*
X121793350Y-112217093D01*
X121793354Y-112217086D01*
X121843596Y-112082379D01*
X121843598Y-112082372D01*
X121849999Y-112022844D01*
X121850000Y-112022827D01*
X121850000Y-111750000D01*
X121350000Y-111750000D01*
X120850000Y-111750000D01*
X120350000Y-111750000D01*
X118587999Y-111750000D01*
X118587999Y-111252128D01*
X118587770Y-111250000D01*
X120350000Y-111250000D01*
X120850000Y-111250000D01*
X120850000Y-110525000D01*
X121350000Y-110525000D01*
X121350000Y-111250000D01*
X121850000Y-111250000D01*
X121850000Y-110977172D01*
X121849999Y-110977155D01*
X121843598Y-110917627D01*
X121843596Y-110917620D01*
X121793354Y-110782913D01*
X121793350Y-110782906D01*
X121707190Y-110667812D01*
X121707187Y-110667809D01*
X121592093Y-110581649D01*
X121592086Y-110581645D01*
X121457379Y-110531403D01*
X121457372Y-110531401D01*
X121397844Y-110525000D01*
X121350000Y-110525000D01*
X120850000Y-110525000D01*
X120802155Y-110525000D01*
X120742627Y-110531401D01*
X120742620Y-110531403D01*
X120607913Y-110581645D01*
X120607906Y-110581649D01*
X120492812Y-110667809D01*
X120492809Y-110667812D01*
X120406649Y-110782906D01*
X120406645Y-110782913D01*
X120356403Y-110917620D01*
X120356401Y-110917627D01*
X120350000Y-110977155D01*
X120350000Y-111250000D01*
X118587770Y-111250000D01*
X118581591Y-111192517D01*
X118531296Y-111057669D01*
X118531295Y-111057668D01*
X118531293Y-111057664D01*
X118445047Y-110942455D01*
X118375188Y-110890158D01*
X118333318Y-110834224D01*
X118325500Y-110790892D01*
X118325500Y-110209107D01*
X118345185Y-110142068D01*
X118375185Y-110109843D01*
X118445046Y-110057546D01*
X118531296Y-109942331D01*
X118581591Y-109807483D01*
X118588000Y-109747873D01*
X118588000Y-109500000D01*
X118887500Y-109500000D01*
X118887500Y-109747844D01*
X118893901Y-109807372D01*
X118893903Y-109807379D01*
X118944145Y-109942086D01*
X118944149Y-109942093D01*
X119030309Y-110057187D01*
X119030312Y-110057190D01*
X119145406Y-110143350D01*
X119145413Y-110143354D01*
X119280120Y-110193596D01*
X119280127Y-110193598D01*
X119339655Y-110199999D01*
X119339672Y-110200000D01*
X119400000Y-110200000D01*
X119400000Y-109500000D01*
X119900000Y-109500000D01*
X119900000Y-110200000D01*
X119960328Y-110200000D01*
X119960344Y-110199999D01*
X120019872Y-110193598D01*
X120019879Y-110193596D01*
X120154586Y-110143354D01*
X120154593Y-110143350D01*
X120269687Y-110057190D01*
X120269690Y-110057187D01*
X120355850Y-109942093D01*
X120355854Y-109942086D01*
X120406096Y-109807379D01*
X120406098Y-109807372D01*
X120412499Y-109747844D01*
X120412500Y-109747827D01*
X120412500Y-109500000D01*
X119900000Y-109500000D01*
X119400000Y-109500000D01*
X118887500Y-109500000D01*
X118588000Y-109500000D01*
X118587999Y-109000000D01*
X118887500Y-109000000D01*
X119400000Y-109000000D01*
X119400000Y-108300000D01*
X119900000Y-108300000D01*
X119900000Y-109000000D01*
X120412500Y-109000000D01*
X120412500Y-108752172D01*
X120412499Y-108752155D01*
X120406098Y-108692627D01*
X120406096Y-108692620D01*
X120355854Y-108557913D01*
X120355850Y-108557906D01*
X120269690Y-108442812D01*
X120269687Y-108442809D01*
X120154593Y-108356649D01*
X120154586Y-108356645D01*
X120019879Y-108306403D01*
X120019872Y-108306401D01*
X119960344Y-108300000D01*
X119900000Y-108300000D01*
X119400000Y-108300000D01*
X119339655Y-108300000D01*
X119280127Y-108306401D01*
X119280120Y-108306403D01*
X119145413Y-108356645D01*
X119145406Y-108356649D01*
X119030312Y-108442809D01*
X119030309Y-108442812D01*
X118944149Y-108557906D01*
X118944145Y-108557913D01*
X118893903Y-108692620D01*
X118893901Y-108692627D01*
X118887500Y-108752155D01*
X118887500Y-109000000D01*
X118587999Y-109000000D01*
X118587999Y-108752128D01*
X118581591Y-108692517D01*
X118534338Y-108565826D01*
X118531297Y-108557671D01*
X118531293Y-108557664D01*
X118445047Y-108442455D01*
X118445044Y-108442452D01*
X118329835Y-108356206D01*
X118329828Y-108356202D01*
X118194986Y-108305910D01*
X118194985Y-108305909D01*
X118194983Y-108305909D01*
X118135373Y-108299500D01*
X118135363Y-108299500D01*
X117514629Y-108299500D01*
X117514623Y-108299501D01*
X117455016Y-108305908D01*
X117320171Y-108356202D01*
X117320164Y-108356206D01*
X117204955Y-108442452D01*
X117204952Y-108442455D01*
X117118706Y-108557664D01*
X117118702Y-108557671D01*
X117068408Y-108692517D01*
X117062001Y-108752116D01*
X117062001Y-108752123D01*
X117062000Y-108752135D01*
X117062000Y-109747870D01*
X117062001Y-109747876D01*
X117068408Y-109807483D01*
X117118702Y-109942328D01*
X117118706Y-109942335D01*
X117204951Y-110057543D01*
X117204952Y-110057544D01*
X117204954Y-110057546D01*
X117274812Y-110109842D01*
X117316682Y-110165774D01*
X117324500Y-110209107D01*
X117324500Y-110790892D01*
X117304815Y-110857931D01*
X117274812Y-110890158D01*
X117204952Y-110942455D01*
X117118706Y-111057664D01*
X117118702Y-111057671D01*
X117068408Y-111192517D01*
X117062001Y-111252116D01*
X117062001Y-111252123D01*
X117062000Y-111252135D01*
X117062000Y-112247870D01*
X116763000Y-112247870D01*
X116762999Y-111252128D01*
X116756591Y-111192517D01*
X116706296Y-111057669D01*
X116706295Y-111057668D01*
X116706293Y-111057664D01*
X116620047Y-110942455D01*
X116620044Y-110942452D01*
X116504835Y-110856206D01*
X116504828Y-110856202D01*
X116369986Y-110805910D01*
X116369985Y-110805909D01*
X116369983Y-110805909D01*
X116310373Y-110799500D01*
X116310363Y-110799500D01*
X115689629Y-110799500D01*
X115689623Y-110799501D01*
X115630016Y-110805908D01*
X115495171Y-110856202D01*
X115495164Y-110856206D01*
X115379955Y-110942452D01*
X115379952Y-110942455D01*
X115293706Y-111057664D01*
X115293702Y-111057671D01*
X115243408Y-111192517D01*
X115237001Y-111252116D01*
X115237001Y-111252123D01*
X115237000Y-111252135D01*
X115237000Y-112247870D01*
X115237001Y-112247876D01*
X115243408Y-112307483D01*
X115293702Y-112442328D01*
X115293706Y-112442335D01*
X115379951Y-112557543D01*
X115379952Y-112557544D01*
X115379954Y-112557546D01*
X115449812Y-112609842D01*
X115491682Y-112665774D01*
X115499500Y-112709107D01*
X115499500Y-112973560D01*
X115479815Y-113040599D01*
X115427011Y-113086354D01*
X115418833Y-113089742D01*
X115307671Y-113131202D01*
X115307664Y-113131206D01*
X115192456Y-113217451D01*
X115181979Y-113231446D01*
X115140157Y-113287312D01*
X115084226Y-113329182D01*
X115040893Y-113337000D01*
X114613299Y-113337000D01*
X114546260Y-113317315D01*
X114500505Y-113264511D01*
X114490826Y-113232398D01*
X114485647Y-113199699D01*
X114485646Y-113199697D01*
X114485646Y-113199696D01*
X114428050Y-113086658D01*
X114428046Y-113086654D01*
X114428045Y-113086652D01*
X114338347Y-112996954D01*
X114338344Y-112996952D01*
X114338342Y-112996950D01*
X114231836Y-112942682D01*
X114225301Y-112939352D01*
X114131524Y-112924500D01*
X113768482Y-112924500D01*
X113674694Y-112939354D01*
X113665418Y-112942369D01*
X113664427Y-112939321D01*
X113612117Y-112949142D01*
X113547378Y-112922861D01*
X113507125Y-112865752D01*
X113500500Y-112825762D01*
X113500500Y-112449749D01*
X113520185Y-112382710D01*
X113550190Y-112350482D01*
X113551188Y-112349735D01*
X113607546Y-112307546D01*
X113693796Y-112192331D01*
X113744091Y-112057483D01*
X113750500Y-111997873D01*
X113750499Y-110952128D01*
X113744091Y-110892517D01*
X113743211Y-110890158D01*
X113693797Y-110757671D01*
X113693793Y-110757664D01*
X113607548Y-110642457D01*
X113607546Y-110642454D01*
X113583583Y-110624515D01*
X113550188Y-110599515D01*
X113508318Y-110543581D01*
X113500500Y-110500249D01*
X113500500Y-110004875D01*
X113509939Y-109957422D01*
X113536330Y-109893709D01*
X113555250Y-109750000D01*
X113536330Y-109606291D01*
X113509937Y-109542572D01*
X113500500Y-109495124D01*
X113500500Y-109254875D01*
X113509939Y-109207422D01*
X113536330Y-109143709D01*
X113555250Y-109000000D01*
X113536330Y-108856291D01*
X113509937Y-108792572D01*
X113500500Y-108745124D01*
X113500500Y-108504875D01*
X113509939Y-108457422D01*
X113536330Y-108393709D01*
X113555250Y-108250000D01*
X113536330Y-108106291D01*
X113509937Y-108042572D01*
X113500500Y-107995124D01*
X113500500Y-107754875D01*
X113509939Y-107707422D01*
X113536330Y-107643709D01*
X113555250Y-107500000D01*
X113536330Y-107356291D01*
X113480861Y-107222375D01*
X113392621Y-107107379D01*
X113277625Y-107019139D01*
X113277624Y-107019138D01*
X113277622Y-107019137D01*
X113143712Y-106963671D01*
X113143710Y-106963670D01*
X113143709Y-106963670D01*
X113071854Y-106954210D01*
X113000001Y-106944750D01*
X112999999Y-106944750D01*
X112856291Y-106963670D01*
X112856287Y-106963671D01*
X112722377Y-107019137D01*
X112607379Y-107107379D01*
X112519137Y-107222377D01*
X112463671Y-107356287D01*
X112463670Y-107356291D01*
X112450387Y-107457187D01*
X112444750Y-107500000D01*
X112461249Y-107625323D01*
X112463670Y-107643708D01*
X112463670Y-107643709D01*
X112490061Y-107707422D01*
X112499500Y-107754875D01*
X112499500Y-107995124D01*
X112490062Y-108042572D01*
X112470453Y-108089912D01*
X112463669Y-108106293D01*
X112460378Y-108131293D01*
X112444750Y-108250000D01*
X112463670Y-108393709D01*
X112483886Y-108442516D01*
X112490061Y-108457422D01*
X112499500Y-108504875D01*
X112499500Y-108745124D01*
X112490062Y-108792572D01*
X112470453Y-108839912D01*
X112463669Y-108856293D01*
X112444750Y-108999999D01*
X112444750Y-109000000D01*
X112463670Y-109143708D01*
X112463670Y-109143709D01*
X112490061Y-109207422D01*
X112499500Y-109254875D01*
X112499500Y-109495124D01*
X112490062Y-109542572D01*
X112472089Y-109585966D01*
X112463669Y-109606293D01*
X112445029Y-109747883D01*
X112444750Y-109750000D01*
X112463670Y-109893709D01*
X112487193Y-109950500D01*
X112490061Y-109957422D01*
X112499500Y-110004875D01*
X112499500Y-110500249D01*
X112479815Y-110567288D01*
X112449812Y-110599515D01*
X112392457Y-110642451D01*
X112392451Y-110642457D01*
X112306206Y-110757664D01*
X112306202Y-110757671D01*
X112255908Y-110892517D01*
X112253209Y-110917627D01*
X112249501Y-110952123D01*
X112249500Y-110952135D01*
X112249500Y-111997870D01*
X112249501Y-111997876D01*
X112255908Y-112057483D01*
X112306202Y-112192328D01*
X112306203Y-112192329D01*
X112306204Y-112192331D01*
X112392454Y-112307546D01*
X112430740Y-112336207D01*
X112449810Y-112350482D01*
X112491682Y-112406415D01*
X112499500Y-112449749D01*
X112499500Y-112825761D01*
X112479815Y-112892800D01*
X112427011Y-112938555D01*
X112357853Y-112948499D01*
X112334949Y-112941240D01*
X112334583Y-112942369D01*
X112325301Y-112939352D01*
X112231524Y-112924500D01*
X111868482Y-112924500D01*
X111787519Y-112937323D01*
X111774696Y-112939354D01*
X111661658Y-112996950D01*
X111661657Y-112996951D01*
X111661652Y-112996954D01*
X111571954Y-113086652D01*
X111571951Y-113086657D01*
X111571950Y-113086658D01*
X111552751Y-113124337D01*
X111514352Y-113199698D01*
X111514352Y-113199699D01*
X111509174Y-113232397D01*
X111479245Y-113295532D01*
X111419934Y-113332464D01*
X111386701Y-113337000D01*
X110346176Y-113337000D01*
X110279137Y-113317315D01*
X110258495Y-113300681D01*
X108761819Y-111804005D01*
X108728334Y-111742682D01*
X108726433Y-111725000D01*
X110350000Y-111725000D01*
X110350000Y-111997844D01*
X110356401Y-112057372D01*
X110356403Y-112057379D01*
X110406645Y-112192086D01*
X110406649Y-112192093D01*
X110492809Y-112307187D01*
X110492812Y-112307190D01*
X110607906Y-112393350D01*
X110607913Y-112393354D01*
X110742620Y-112443596D01*
X110742627Y-112443598D01*
X110802155Y-112449999D01*
X110802172Y-112450000D01*
X110850000Y-112450000D01*
X110850000Y-111725000D01*
X111350000Y-111725000D01*
X111350000Y-112450000D01*
X111397828Y-112450000D01*
X111397844Y-112449999D01*
X111457372Y-112443598D01*
X111457379Y-112443596D01*
X111592086Y-112393354D01*
X111592093Y-112393350D01*
X111707187Y-112307190D01*
X111707190Y-112307187D01*
X111793350Y-112192093D01*
X111793354Y-112192086D01*
X111843596Y-112057379D01*
X111843598Y-112057372D01*
X111849999Y-111997844D01*
X111850000Y-111997827D01*
X111850000Y-111725000D01*
X111350000Y-111725000D01*
X110850000Y-111725000D01*
X110350000Y-111725000D01*
X108726433Y-111725000D01*
X108725500Y-111716324D01*
X108725500Y-111225000D01*
X110350000Y-111225000D01*
X110850000Y-111225000D01*
X110850000Y-110500000D01*
X111350000Y-110500000D01*
X111350000Y-111225000D01*
X111850000Y-111225000D01*
X111850000Y-110952172D01*
X111849999Y-110952155D01*
X111843598Y-110892627D01*
X111843596Y-110892620D01*
X111793354Y-110757913D01*
X111793350Y-110757906D01*
X111707190Y-110642812D01*
X111707187Y-110642809D01*
X111592093Y-110556649D01*
X111592086Y-110556645D01*
X111457379Y-110506403D01*
X111457372Y-110506401D01*
X111397844Y-110500000D01*
X111350000Y-110500000D01*
X110850000Y-110500000D01*
X110802155Y-110500000D01*
X110742627Y-110506401D01*
X110742620Y-110506403D01*
X110607913Y-110556645D01*
X110607906Y-110556649D01*
X110492812Y-110642809D01*
X110492809Y-110642812D01*
X110406649Y-110757906D01*
X110406645Y-110757913D01*
X110356403Y-110892620D01*
X110356401Y-110892627D01*
X110350000Y-110952155D01*
X110350000Y-111225000D01*
X108725500Y-111225000D01*
X108725500Y-107224500D01*
X108745185Y-107157461D01*
X108797989Y-107111706D01*
X108849500Y-107100500D01*
X109099676Y-107100500D01*
X109099677Y-107100499D01*
X109172740Y-107085966D01*
X109255601Y-107030601D01*
X109310966Y-106947740D01*
X109325500Y-106874674D01*
X109325500Y-105749999D01*
X109692471Y-105749999D01*
X109692472Y-105750000D01*
X110331988Y-105750000D01*
X110299075Y-105807007D01*
X110265000Y-105934174D01*
X110265000Y-106065826D01*
X110299075Y-106192993D01*
X110331988Y-106250000D01*
X109692472Y-106250000D01*
X109734885Y-106399065D01*
X109734890Y-106399078D01*
X109825754Y-106581556D01*
X109948608Y-106744242D01*
X110099260Y-106881578D01*
X110272584Y-106988897D01*
X110462678Y-107062539D01*
X110515000Y-107072320D01*
X110515000Y-106433012D01*
X110572007Y-106465925D01*
X110699174Y-106500000D01*
X110830826Y-106500000D01*
X110957993Y-106465925D01*
X111015000Y-106433012D01*
X111015000Y-107072320D01*
X111067321Y-107062539D01*
X111257415Y-106988897D01*
X111430739Y-106881578D01*
X111581391Y-106744242D01*
X111704245Y-106581556D01*
X111795109Y-106399078D01*
X111795114Y-106399065D01*
X111837528Y-106250000D01*
X111198012Y-106250000D01*
X111230925Y-106192993D01*
X111265000Y-106065826D01*
X111265000Y-105934174D01*
X111230925Y-105807007D01*
X111198012Y-105750000D01*
X111837528Y-105750000D01*
X111837528Y-105749999D01*
X111795114Y-105600934D01*
X111795109Y-105600921D01*
X111704245Y-105418443D01*
X111581391Y-105255757D01*
X111430739Y-105118421D01*
X111257413Y-105011101D01*
X111067315Y-104937458D01*
X111067309Y-104937456D01*
X111015001Y-104927677D01*
X111015000Y-104927679D01*
X111015000Y-105566988D01*
X110957993Y-105534075D01*
X110830826Y-105500000D01*
X110699174Y-105500000D01*
X110572007Y-105534075D01*
X110515000Y-105566988D01*
X110515000Y-104927679D01*
X110514998Y-104927677D01*
X110462690Y-104937456D01*
X110462684Y-104937458D01*
X110272586Y-105011101D01*
X110099260Y-105118421D01*
X109948608Y-105255757D01*
X109825754Y-105418443D01*
X109734890Y-105600921D01*
X109734885Y-105600934D01*
X109692471Y-105749999D01*
X109325500Y-105749999D01*
X109325500Y-105125326D01*
X109325500Y-105125323D01*
X109325499Y-105125321D01*
X109310967Y-105052264D01*
X109310966Y-105052260D01*
X109255601Y-104969399D01*
X109172740Y-104914034D01*
X109172739Y-104914033D01*
X109172735Y-104914032D01*
X109099677Y-104899500D01*
X109099674Y-104899500D01*
X107350326Y-104899500D01*
X107350323Y-104899500D01*
X107277264Y-104914032D01*
X107277260Y-104914033D01*
X107194399Y-104969399D01*
X107139033Y-105052260D01*
X107139032Y-105052264D01*
X107124500Y-105125321D01*
X107124500Y-106874678D01*
X100500500Y-106874678D01*
X100500500Y-106525000D01*
X104100000Y-106525000D01*
X105000000Y-106525000D01*
X105000000Y-105950000D01*
X105500000Y-105950000D01*
X105500000Y-106525000D01*
X106400000Y-106525000D01*
X106400000Y-106402172D01*
X106399999Y-106402155D01*
X106393598Y-106342627D01*
X106393596Y-106342620D01*
X106343354Y-106207913D01*
X106343350Y-106207906D01*
X106257190Y-106092812D01*
X106257187Y-106092809D01*
X106142093Y-106006649D01*
X106142086Y-106006645D01*
X106007379Y-105956403D01*
X106007372Y-105956401D01*
X105947844Y-105950000D01*
X105500000Y-105950000D01*
X105000000Y-105950000D01*
X104552155Y-105950000D01*
X104492627Y-105956401D01*
X104492620Y-105956403D01*
X104357913Y-106006645D01*
X104357906Y-106006649D01*
X104242812Y-106092809D01*
X104242809Y-106092812D01*
X104156649Y-106207906D01*
X104156645Y-106207913D01*
X104106403Y-106342620D01*
X104106401Y-106342627D01*
X104100000Y-106402155D01*
X104100000Y-106525000D01*
X100500500Y-106525000D01*
X100500500Y-103125961D01*
X101399500Y-103125961D01*
X101438910Y-103374785D01*
X101516760Y-103614383D01*
X101631132Y-103838848D01*
X101779201Y-104042649D01*
X101779205Y-104042654D01*
X101957345Y-104220794D01*
X101957350Y-104220798D01*
X102135117Y-104349952D01*
X102161155Y-104368870D01*
X102304184Y-104441747D01*
X102385616Y-104483239D01*
X102385618Y-104483239D01*
X102385621Y-104483241D01*
X102625215Y-104561090D01*
X102874038Y-104600500D01*
X102874039Y-104600500D01*
X103125961Y-104600500D01*
X103125962Y-104600500D01*
X103374785Y-104561090D01*
X103614379Y-104483241D01*
X103838845Y-104368870D01*
X104042656Y-104220793D01*
X104220793Y-104042656D01*
X104368870Y-103838845D01*
X104483241Y-103614379D01*
X104561090Y-103374785D01*
X104600500Y-103125962D01*
X104600500Y-103125961D01*
X135399500Y-103125961D01*
X135438910Y-103374785D01*
X135516760Y-103614383D01*
X135631132Y-103838848D01*
X135779201Y-104042649D01*
X135779205Y-104042654D01*
X135957345Y-104220794D01*
X135957350Y-104220798D01*
X136135117Y-104349952D01*
X136161155Y-104368870D01*
X136304184Y-104441747D01*
X136385616Y-104483239D01*
X136385618Y-104483239D01*
X136385621Y-104483241D01*
X136625215Y-104561090D01*
X136874038Y-104600500D01*
X136874039Y-104600500D01*
X137125961Y-104600500D01*
X137125962Y-104600500D01*
X137374785Y-104561090D01*
X137614379Y-104483241D01*
X137838845Y-104368870D01*
X138042656Y-104220793D01*
X138220793Y-104042656D01*
X138368870Y-103838845D01*
X138483241Y-103614379D01*
X138561090Y-103374785D01*
X138600500Y-103125962D01*
X138600500Y-102874038D01*
X138561090Y-102625215D01*
X138483241Y-102385621D01*
X138483239Y-102385618D01*
X138483239Y-102385616D01*
X138441747Y-102304184D01*
X138368870Y-102161155D01*
X138349952Y-102135117D01*
X138220798Y-101957350D01*
X138220794Y-101957345D01*
X138042654Y-101779205D01*
X138042649Y-101779201D01*
X137838848Y-101631132D01*
X137838847Y-101631131D01*
X137838845Y-101631130D01*
X137768747Y-101595413D01*
X137614383Y-101516760D01*
X137374785Y-101438910D01*
X137125962Y-101399500D01*
X136874038Y-101399500D01*
X136749626Y-101419205D01*
X136625214Y-101438910D01*
X136385616Y-101516760D01*
X136161151Y-101631132D01*
X135957350Y-101779201D01*
X135957345Y-101779205D01*
X135779205Y-101957345D01*
X135779201Y-101957350D01*
X135631132Y-102161151D01*
X135516760Y-102385616D01*
X135438910Y-102625214D01*
X135399500Y-102874038D01*
X135399500Y-103125961D01*
X104600500Y-103125961D01*
X104600500Y-102874038D01*
X104561090Y-102625215D01*
X104483241Y-102385621D01*
X104483239Y-102385618D01*
X104483239Y-102385616D01*
X104441747Y-102304184D01*
X104368870Y-102161155D01*
X104349952Y-102135117D01*
X104220798Y-101957350D01*
X104220794Y-101957345D01*
X104042654Y-101779205D01*
X104042649Y-101779201D01*
X103838848Y-101631132D01*
X103838847Y-101631131D01*
X103838845Y-101631130D01*
X103768747Y-101595413D01*
X103614383Y-101516760D01*
X103374785Y-101438910D01*
X103125962Y-101399500D01*
X102874038Y-101399500D01*
X102749626Y-101419205D01*
X102625214Y-101438910D01*
X102385616Y-101516760D01*
X102161151Y-101631132D01*
X101957350Y-101779201D01*
X101957345Y-101779205D01*
X101779205Y-101957345D01*
X101779201Y-101957350D01*
X101631132Y-102161151D01*
X101516760Y-102385616D01*
X101438910Y-102625214D01*
X101399500Y-102874038D01*
X101399500Y-103125961D01*
X100500500Y-103125961D01*
X100500500Y-100624500D01*
X100520185Y-100557461D01*
X100572989Y-100511706D01*
X100624500Y-100500500D01*
X139375500Y-100500500D01*
X139442539Y-100520185D01*
G37*
%TD.AperFunction*%
%TD*%
M02*
