M48
; DRILL file {KiCad 8.0.0} date 2024-11-11T15:40:03+0100
; FORMAT={-:-/ absolute / inch / decimal}
; #@! TF.CreationDate,2024-11-11T15:40:03+01:00
; #@! TF.GenerationSoftware,Kicad,Pcbnew,8.0.0
; #@! TF.FileFunction,Plated,1,2,PTH
FMAT,2
INCH
; #@! TA.AperFunction,Plated,PTH,ViaDrill
T1C0.0118
; #@! TA.AperFunction,Plated,PTH,ComponentDrill
T2C0.0394
%
G90
G05
T1
X4.4488Y-4.2323
X4.4488Y-4.2618
X4.4488Y-4.2913
X4.4488Y-4.3209
X4.4882Y-4.7343
X4.4882Y-4.7638
X4.4882Y-4.7933
X4.4882Y-4.8228
X4.8425Y-4.2333
X4.8425Y-4.2628
X4.8425Y-4.2923
X4.8425Y-4.3219
X4.8819Y-4.7352
X4.8819Y-4.7648
X4.8819Y-4.7943
X4.8819Y-4.8238
X5.2362Y-4.2333
X5.2362Y-4.2628
X5.2362Y-4.2913
X5.2362Y-4.3219
X5.2756Y-4.7352
X5.2756Y-4.7648
X5.2756Y-4.7943
X5.2756Y-4.8238
T2
X4.1437Y-4.427
X4.1437Y-4.527
X4.1437Y-4.627
X4.2608Y-4.1732
X4.3608Y-4.1732
X5.3341Y-4.2717
X5.4341Y-4.2717
M30
