%TF.GenerationSoftware,KiCad,Pcbnew,8.0.0*%
%TF.CreationDate,2024-11-11T15:40:07+01:00*%
%TF.ProjectId,test_amplifier_board,74657374-5f61-46d7-906c-69666965725f,rev?*%
%TF.SameCoordinates,Original*%
%TF.FileFunction,Soldermask,Top*%
%TF.FilePolarity,Negative*%
%FSLAX46Y46*%
G04 Gerber Fmt 4.6, Leading zero omitted, Abs format (unit mm)*
G04 Created by KiCad (PCBNEW 8.0.0) date 2024-11-11 15:40:07*
%MOMM*%
%LPD*%
G01*
G04 APERTURE LIST*
G04 Aperture macros list*
%AMRoundRect*
0 Rectangle with rounded corners*
0 $1 Rounding radius*
0 $2 $3 $4 $5 $6 $7 $8 $9 X,Y pos of 4 corners*
0 Add a 4 corners polygon primitive as box body*
4,1,4,$2,$3,$4,$5,$6,$7,$8,$9,$2,$3,0*
0 Add four circle primitives for the rounded corners*
1,1,$1+$1,$2,$3*
1,1,$1+$1,$4,$5*
1,1,$1+$1,$6,$7*
1,1,$1+$1,$8,$9*
0 Add four rect primitives between the rounded corners*
20,1,$1+$1,$2,$3,$4,$5,0*
20,1,$1+$1,$4,$5,$6,$7,0*
20,1,$1+$1,$6,$7,$8,$9,0*
20,1,$1+$1,$8,$9,$2,$3,0*%
G04 Aperture macros list end*
%ADD10RoundRect,0.250000X0.450000X-0.262500X0.450000X0.262500X-0.450000X0.262500X-0.450000X-0.262500X0*%
%ADD11RoundRect,0.250000X-0.250000X-0.475000X0.250000X-0.475000X0.250000X0.475000X-0.250000X0.475000X0*%
%ADD12RoundRect,0.250000X-0.262500X-0.450000X0.262500X-0.450000X0.262500X0.450000X-0.262500X0.450000X0*%
%ADD13RoundRect,0.250000X0.250000X0.475000X-0.250000X0.475000X-0.250000X-0.475000X0.250000X-0.475000X0*%
%ADD14RoundRect,0.250000X0.262500X0.450000X-0.262500X0.450000X-0.262500X-0.450000X0.262500X-0.450000X0*%
%ADD15RoundRect,0.150000X-0.150000X0.512500X-0.150000X-0.512500X0.150000X-0.512500X0.150000X0.512500X0*%
%ADD16R,1.700000X1.700000*%
%ADD17O,1.700000X1.700000*%
%ADD18RoundRect,0.250000X0.475000X-0.250000X0.475000X0.250000X-0.475000X0.250000X-0.475000X-0.250000X0*%
%ADD19RoundRect,0.250000X0.650000X-0.325000X0.650000X0.325000X-0.650000X0.325000X-0.650000X-0.325000X0*%
%ADD20C,2.700000*%
%ADD21RoundRect,0.250000X-0.325000X-0.650000X0.325000X-0.650000X0.325000X0.650000X-0.325000X0.650000X0*%
%ADD22RoundRect,0.250000X-0.450000X0.262500X-0.450000X-0.262500X0.450000X-0.262500X0.450000X0.262500X0*%
G04 APERTURE END LIST*
D10*
%TO.C,R5*%
X121250000Y-122412500D03*
X121250000Y-120587500D03*
%TD*%
D11*
%TO.C,C1*%
X113950000Y-118475000D03*
X115850000Y-118475000D03*
%TD*%
D12*
%TO.C,R1*%
X108337500Y-116112500D03*
X110162500Y-116112500D03*
%TD*%
D13*
%TO.C,C6*%
X125850000Y-118500000D03*
X123950000Y-118500000D03*
%TD*%
D11*
%TO.C,C2*%
X111100000Y-111475000D03*
X113000000Y-111475000D03*
%TD*%
D14*
%TO.C,R9*%
X132162500Y-118500000D03*
X130337500Y-118500000D03*
%TD*%
D15*
%TO.C,U3*%
X133950000Y-113862500D03*
X133000000Y-113862500D03*
X132050000Y-113862500D03*
X132050000Y-116137500D03*
X133950000Y-116137500D03*
%TD*%
D16*
%TO.C,J1*%
X105250000Y-117525000D03*
D17*
X105250000Y-114985000D03*
X105250000Y-112445000D03*
%TD*%
D18*
%TO.C,C3*%
X118750000Y-122450000D03*
X118750000Y-120550000D03*
%TD*%
D19*
%TO.C,C10*%
X105250000Y-109725000D03*
X105250000Y-106775000D03*
%TD*%
D20*
%TO.C,H4*%
X137000000Y-103000000D03*
%TD*%
D13*
%TO.C,C4*%
X120950000Y-118500000D03*
X119050000Y-118500000D03*
%TD*%
D14*
%TO.C,R3*%
X117825000Y-111750000D03*
X116000000Y-111750000D03*
%TD*%
D20*
%TO.C,H1*%
X103000000Y-103000000D03*
%TD*%
D13*
%TO.C,C8*%
X135850000Y-118500000D03*
X133950000Y-118500000D03*
%TD*%
D16*
%TO.C,J2*%
X108225000Y-106000000D03*
D17*
X110765000Y-106000000D03*
%TD*%
D10*
%TO.C,R2*%
X116000000Y-115662500D03*
X116000000Y-113837500D03*
%TD*%
D15*
%TO.C,U1*%
X113950000Y-113837500D03*
X113000000Y-113837500D03*
X112050000Y-113837500D03*
X112050000Y-116112500D03*
X113950000Y-116112500D03*
%TD*%
D12*
%TO.C,R7*%
X127262500Y-111500000D03*
X129087500Y-111500000D03*
%TD*%
D20*
%TO.C,H2*%
X103000000Y-125000000D03*
%TD*%
D13*
%TO.C,C7*%
X133000000Y-111500000D03*
X131100000Y-111500000D03*
%TD*%
D14*
%TO.C,R8*%
X130912500Y-109000000D03*
X129087500Y-109000000D03*
%TD*%
D21*
%TO.C,C9*%
X105275000Y-120750000D03*
X108225000Y-120750000D03*
%TD*%
D15*
%TO.C,U2*%
X123950000Y-113862500D03*
X123000000Y-113862500D03*
X122050000Y-113862500D03*
X122050000Y-116137500D03*
X123950000Y-116137500D03*
%TD*%
D16*
%TO.C,J3*%
X138025000Y-108500000D03*
D17*
X135485000Y-108500000D03*
%TD*%
D22*
%TO.C,R6*%
X126000000Y-113837500D03*
X126000000Y-115662500D03*
%TD*%
D12*
%TO.C,R4*%
X117825000Y-109250000D03*
X119650000Y-109250000D03*
%TD*%
D20*
%TO.C,H3*%
X137000000Y-125000000D03*
%TD*%
D13*
%TO.C,C5*%
X123000000Y-111500000D03*
X121100000Y-111500000D03*
%TD*%
M02*
