%TF.GenerationSoftware,KiCad,Pcbnew,8.0.0*%
%TF.CreationDate,2024-11-11T15:40:06+01:00*%
%TF.ProjectId,test_amplifier_board,74657374-5f61-46d7-906c-69666965725f,rev?*%
%TF.SameCoordinates,Original*%
%TF.FileFunction,Legend,Top*%
%TF.FilePolarity,Positive*%
%FSLAX46Y46*%
G04 Gerber Fmt 4.6, Leading zero omitted, Abs format (unit mm)*
G04 Created by KiCad (PCBNEW 8.0.0) date 2024-11-11 15:40:06*
%MOMM*%
%LPD*%
G01*
G04 APERTURE LIST*
%ADD10C,0.300000*%
%ADD11C,0.200000*%
%ADD12C,0.150000*%
%ADD13C,0.120000*%
G04 APERTURE END LIST*
D10*
X101622257Y-116159774D02*
X101550828Y-116302632D01*
X101550828Y-116302632D02*
X101550828Y-116516917D01*
X101550828Y-116516917D02*
X101622257Y-116731203D01*
X101622257Y-116731203D02*
X101765114Y-116874060D01*
X101765114Y-116874060D02*
X101907971Y-116945489D01*
X101907971Y-116945489D02*
X102193685Y-117016917D01*
X102193685Y-117016917D02*
X102407971Y-117016917D01*
X102407971Y-117016917D02*
X102693685Y-116945489D01*
X102693685Y-116945489D02*
X102836542Y-116874060D01*
X102836542Y-116874060D02*
X102979400Y-116731203D01*
X102979400Y-116731203D02*
X103050828Y-116516917D01*
X103050828Y-116516917D02*
X103050828Y-116374060D01*
X103050828Y-116374060D02*
X102979400Y-116159774D01*
X102979400Y-116159774D02*
X102907971Y-116088346D01*
X102907971Y-116088346D02*
X102407971Y-116088346D01*
X102407971Y-116088346D02*
X102407971Y-116374060D01*
X103050828Y-115445489D02*
X101550828Y-115445489D01*
X101550828Y-115445489D02*
X103050828Y-114588346D01*
X103050828Y-114588346D02*
X101550828Y-114588346D01*
X103050828Y-113874060D02*
X101550828Y-113874060D01*
X101550828Y-113874060D02*
X101550828Y-113516917D01*
X101550828Y-113516917D02*
X101622257Y-113302631D01*
X101622257Y-113302631D02*
X101765114Y-113159774D01*
X101765114Y-113159774D02*
X101907971Y-113088345D01*
X101907971Y-113088345D02*
X102193685Y-113016917D01*
X102193685Y-113016917D02*
X102407971Y-113016917D01*
X102407971Y-113016917D02*
X102693685Y-113088345D01*
X102693685Y-113088345D02*
X102836542Y-113159774D01*
X102836542Y-113159774D02*
X102979400Y-113302631D01*
X102979400Y-113302631D02*
X103050828Y-113516917D01*
X103050828Y-113516917D02*
X103050828Y-113874060D01*
D11*
X107667292Y-102611705D02*
X108067292Y-102611705D01*
X108238720Y-103240276D02*
X107667292Y-103240276D01*
X107667292Y-103240276D02*
X107667292Y-102040276D01*
X107667292Y-102040276D02*
X108238720Y-102040276D01*
X109153006Y-102611705D02*
X108753006Y-102611705D01*
X108753006Y-103240276D02*
X108753006Y-102040276D01*
X108753006Y-102040276D02*
X109324434Y-102040276D01*
X109781577Y-103240276D02*
X109781577Y-102040276D01*
X109781577Y-102040276D02*
X110467291Y-103240276D01*
X110467291Y-103240276D02*
X110467291Y-102040276D01*
X111038720Y-103240276D02*
X111038720Y-102040276D01*
X111038720Y-102040276D02*
X111438720Y-102897419D01*
X111438720Y-102897419D02*
X111838720Y-102040276D01*
X111838720Y-102040276D02*
X111838720Y-103240276D01*
X113095863Y-103240276D02*
X112695863Y-102668848D01*
X112410149Y-103240276D02*
X112410149Y-102040276D01*
X112410149Y-102040276D02*
X112867292Y-102040276D01*
X112867292Y-102040276D02*
X112981577Y-102097419D01*
X112981577Y-102097419D02*
X113038720Y-102154562D01*
X113038720Y-102154562D02*
X113095863Y-102268848D01*
X113095863Y-102268848D02*
X113095863Y-102440276D01*
X113095863Y-102440276D02*
X113038720Y-102554562D01*
X113038720Y-102554562D02*
X112981577Y-102611705D01*
X112981577Y-102611705D02*
X112867292Y-102668848D01*
X112867292Y-102668848D02*
X112410149Y-102668848D01*
X114353006Y-102440276D02*
X114810149Y-102440276D01*
X114524435Y-102040276D02*
X114524435Y-103068848D01*
X114524435Y-103068848D02*
X114581578Y-103183134D01*
X114581578Y-103183134D02*
X114695863Y-103240276D01*
X114695863Y-103240276D02*
X114810149Y-103240276D01*
X115667292Y-103183134D02*
X115553006Y-103240276D01*
X115553006Y-103240276D02*
X115324435Y-103240276D01*
X115324435Y-103240276D02*
X115210149Y-103183134D01*
X115210149Y-103183134D02*
X115153006Y-103068848D01*
X115153006Y-103068848D02*
X115153006Y-102611705D01*
X115153006Y-102611705D02*
X115210149Y-102497419D01*
X115210149Y-102497419D02*
X115324435Y-102440276D01*
X115324435Y-102440276D02*
X115553006Y-102440276D01*
X115553006Y-102440276D02*
X115667292Y-102497419D01*
X115667292Y-102497419D02*
X115724435Y-102611705D01*
X115724435Y-102611705D02*
X115724435Y-102725991D01*
X115724435Y-102725991D02*
X115153006Y-102840276D01*
X116181577Y-103183134D02*
X116295863Y-103240276D01*
X116295863Y-103240276D02*
X116524434Y-103240276D01*
X116524434Y-103240276D02*
X116638720Y-103183134D01*
X116638720Y-103183134D02*
X116695863Y-103068848D01*
X116695863Y-103068848D02*
X116695863Y-103011705D01*
X116695863Y-103011705D02*
X116638720Y-102897419D01*
X116638720Y-102897419D02*
X116524434Y-102840276D01*
X116524434Y-102840276D02*
X116353006Y-102840276D01*
X116353006Y-102840276D02*
X116238720Y-102783134D01*
X116238720Y-102783134D02*
X116181577Y-102668848D01*
X116181577Y-102668848D02*
X116181577Y-102611705D01*
X116181577Y-102611705D02*
X116238720Y-102497419D01*
X116238720Y-102497419D02*
X116353006Y-102440276D01*
X116353006Y-102440276D02*
X116524434Y-102440276D01*
X116524434Y-102440276D02*
X116638720Y-102497419D01*
X117038720Y-102440276D02*
X117495863Y-102440276D01*
X117210149Y-102040276D02*
X117210149Y-103068848D01*
X117210149Y-103068848D02*
X117267292Y-103183134D01*
X117267292Y-103183134D02*
X117381577Y-103240276D01*
X117381577Y-103240276D02*
X117495863Y-103240276D01*
X119324435Y-103240276D02*
X119324435Y-102611705D01*
X119324435Y-102611705D02*
X119267292Y-102497419D01*
X119267292Y-102497419D02*
X119153006Y-102440276D01*
X119153006Y-102440276D02*
X118924435Y-102440276D01*
X118924435Y-102440276D02*
X118810149Y-102497419D01*
X119324435Y-103183134D02*
X119210149Y-103240276D01*
X119210149Y-103240276D02*
X118924435Y-103240276D01*
X118924435Y-103240276D02*
X118810149Y-103183134D01*
X118810149Y-103183134D02*
X118753006Y-103068848D01*
X118753006Y-103068848D02*
X118753006Y-102954562D01*
X118753006Y-102954562D02*
X118810149Y-102840276D01*
X118810149Y-102840276D02*
X118924435Y-102783134D01*
X118924435Y-102783134D02*
X119210149Y-102783134D01*
X119210149Y-102783134D02*
X119324435Y-102725991D01*
X119895863Y-103240276D02*
X119895863Y-102440276D01*
X119895863Y-102554562D02*
X119953006Y-102497419D01*
X119953006Y-102497419D02*
X120067291Y-102440276D01*
X120067291Y-102440276D02*
X120238720Y-102440276D01*
X120238720Y-102440276D02*
X120353006Y-102497419D01*
X120353006Y-102497419D02*
X120410149Y-102611705D01*
X120410149Y-102611705D02*
X120410149Y-103240276D01*
X120410149Y-102611705D02*
X120467291Y-102497419D01*
X120467291Y-102497419D02*
X120581577Y-102440276D01*
X120581577Y-102440276D02*
X120753006Y-102440276D01*
X120753006Y-102440276D02*
X120867291Y-102497419D01*
X120867291Y-102497419D02*
X120924434Y-102611705D01*
X120924434Y-102611705D02*
X120924434Y-103240276D01*
X121495863Y-102440276D02*
X121495863Y-103640276D01*
X121495863Y-102497419D02*
X121610149Y-102440276D01*
X121610149Y-102440276D02*
X121838720Y-102440276D01*
X121838720Y-102440276D02*
X121953006Y-102497419D01*
X121953006Y-102497419D02*
X122010149Y-102554562D01*
X122010149Y-102554562D02*
X122067291Y-102668848D01*
X122067291Y-102668848D02*
X122067291Y-103011705D01*
X122067291Y-103011705D02*
X122010149Y-103125991D01*
X122010149Y-103125991D02*
X121953006Y-103183134D01*
X121953006Y-103183134D02*
X121838720Y-103240276D01*
X121838720Y-103240276D02*
X121610149Y-103240276D01*
X121610149Y-103240276D02*
X121495863Y-103183134D01*
X123495863Y-103240276D02*
X123495863Y-102040276D01*
X123495863Y-102497419D02*
X123610149Y-102440276D01*
X123610149Y-102440276D02*
X123838720Y-102440276D01*
X123838720Y-102440276D02*
X123953006Y-102497419D01*
X123953006Y-102497419D02*
X124010149Y-102554562D01*
X124010149Y-102554562D02*
X124067291Y-102668848D01*
X124067291Y-102668848D02*
X124067291Y-103011705D01*
X124067291Y-103011705D02*
X124010149Y-103125991D01*
X124010149Y-103125991D02*
X123953006Y-103183134D01*
X123953006Y-103183134D02*
X123838720Y-103240276D01*
X123838720Y-103240276D02*
X123610149Y-103240276D01*
X123610149Y-103240276D02*
X123495863Y-103183134D01*
X124753005Y-103240276D02*
X124638720Y-103183134D01*
X124638720Y-103183134D02*
X124581577Y-103125991D01*
X124581577Y-103125991D02*
X124524434Y-103011705D01*
X124524434Y-103011705D02*
X124524434Y-102668848D01*
X124524434Y-102668848D02*
X124581577Y-102554562D01*
X124581577Y-102554562D02*
X124638720Y-102497419D01*
X124638720Y-102497419D02*
X124753005Y-102440276D01*
X124753005Y-102440276D02*
X124924434Y-102440276D01*
X124924434Y-102440276D02*
X125038720Y-102497419D01*
X125038720Y-102497419D02*
X125095863Y-102554562D01*
X125095863Y-102554562D02*
X125153005Y-102668848D01*
X125153005Y-102668848D02*
X125153005Y-103011705D01*
X125153005Y-103011705D02*
X125095863Y-103125991D01*
X125095863Y-103125991D02*
X125038720Y-103183134D01*
X125038720Y-103183134D02*
X124924434Y-103240276D01*
X124924434Y-103240276D02*
X124753005Y-103240276D01*
X126181577Y-103240276D02*
X126181577Y-102611705D01*
X126181577Y-102611705D02*
X126124434Y-102497419D01*
X126124434Y-102497419D02*
X126010148Y-102440276D01*
X126010148Y-102440276D02*
X125781577Y-102440276D01*
X125781577Y-102440276D02*
X125667291Y-102497419D01*
X126181577Y-103183134D02*
X126067291Y-103240276D01*
X126067291Y-103240276D02*
X125781577Y-103240276D01*
X125781577Y-103240276D02*
X125667291Y-103183134D01*
X125667291Y-103183134D02*
X125610148Y-103068848D01*
X125610148Y-103068848D02*
X125610148Y-102954562D01*
X125610148Y-102954562D02*
X125667291Y-102840276D01*
X125667291Y-102840276D02*
X125781577Y-102783134D01*
X125781577Y-102783134D02*
X126067291Y-102783134D01*
X126067291Y-102783134D02*
X126181577Y-102725991D01*
X126753005Y-103240276D02*
X126753005Y-102440276D01*
X126753005Y-102668848D02*
X126810148Y-102554562D01*
X126810148Y-102554562D02*
X126867291Y-102497419D01*
X126867291Y-102497419D02*
X126981576Y-102440276D01*
X126981576Y-102440276D02*
X127095862Y-102440276D01*
X128010148Y-103240276D02*
X128010148Y-102040276D01*
X128010148Y-103183134D02*
X127895862Y-103240276D01*
X127895862Y-103240276D02*
X127667290Y-103240276D01*
X127667290Y-103240276D02*
X127553005Y-103183134D01*
X127553005Y-103183134D02*
X127495862Y-103125991D01*
X127495862Y-103125991D02*
X127438719Y-103011705D01*
X127438719Y-103011705D02*
X127438719Y-102668848D01*
X127438719Y-102668848D02*
X127495862Y-102554562D01*
X127495862Y-102554562D02*
X127553005Y-102497419D01*
X127553005Y-102497419D02*
X127667290Y-102440276D01*
X127667290Y-102440276D02*
X127895862Y-102440276D01*
X127895862Y-102440276D02*
X128010148Y-102497419D01*
D10*
X102479400Y-111195489D02*
X102479400Y-110052632D01*
X102479400Y-119695489D02*
X102479400Y-118552632D01*
X103050828Y-119124060D02*
X101907971Y-119124060D01*
D11*
X134643482Y-110664838D02*
X134548244Y-110617219D01*
X134548244Y-110617219D02*
X134405387Y-110617219D01*
X134405387Y-110617219D02*
X134262530Y-110664838D01*
X134262530Y-110664838D02*
X134167292Y-110760076D01*
X134167292Y-110760076D02*
X134119673Y-110855314D01*
X134119673Y-110855314D02*
X134072054Y-111045790D01*
X134072054Y-111045790D02*
X134072054Y-111188647D01*
X134072054Y-111188647D02*
X134119673Y-111379123D01*
X134119673Y-111379123D02*
X134167292Y-111474361D01*
X134167292Y-111474361D02*
X134262530Y-111569600D01*
X134262530Y-111569600D02*
X134405387Y-111617219D01*
X134405387Y-111617219D02*
X134500625Y-111617219D01*
X134500625Y-111617219D02*
X134643482Y-111569600D01*
X134643482Y-111569600D02*
X134691101Y-111521980D01*
X134691101Y-111521980D02*
X134691101Y-111188647D01*
X134691101Y-111188647D02*
X134500625Y-111188647D01*
X135119673Y-111617219D02*
X135119673Y-110617219D01*
X135119673Y-110617219D02*
X135691101Y-111617219D01*
X135691101Y-111617219D02*
X135691101Y-110617219D01*
X136167292Y-111617219D02*
X136167292Y-110617219D01*
X136167292Y-110617219D02*
X136405387Y-110617219D01*
X136405387Y-110617219D02*
X136548244Y-110664838D01*
X136548244Y-110664838D02*
X136643482Y-110760076D01*
X136643482Y-110760076D02*
X136691101Y-110855314D01*
X136691101Y-110855314D02*
X136738720Y-111045790D01*
X136738720Y-111045790D02*
X136738720Y-111188647D01*
X136738720Y-111188647D02*
X136691101Y-111379123D01*
X136691101Y-111379123D02*
X136643482Y-111474361D01*
X136643482Y-111474361D02*
X136548244Y-111569600D01*
X136548244Y-111569600D02*
X136405387Y-111617219D01*
X136405387Y-111617219D02*
X136167292Y-111617219D01*
X109893482Y-108164838D02*
X109798244Y-108117219D01*
X109798244Y-108117219D02*
X109655387Y-108117219D01*
X109655387Y-108117219D02*
X109512530Y-108164838D01*
X109512530Y-108164838D02*
X109417292Y-108260076D01*
X109417292Y-108260076D02*
X109369673Y-108355314D01*
X109369673Y-108355314D02*
X109322054Y-108545790D01*
X109322054Y-108545790D02*
X109322054Y-108688647D01*
X109322054Y-108688647D02*
X109369673Y-108879123D01*
X109369673Y-108879123D02*
X109417292Y-108974361D01*
X109417292Y-108974361D02*
X109512530Y-109069600D01*
X109512530Y-109069600D02*
X109655387Y-109117219D01*
X109655387Y-109117219D02*
X109750625Y-109117219D01*
X109750625Y-109117219D02*
X109893482Y-109069600D01*
X109893482Y-109069600D02*
X109941101Y-109021980D01*
X109941101Y-109021980D02*
X109941101Y-108688647D01*
X109941101Y-108688647D02*
X109750625Y-108688647D01*
X110369673Y-109117219D02*
X110369673Y-108117219D01*
X110369673Y-108117219D02*
X110941101Y-109117219D01*
X110941101Y-109117219D02*
X110941101Y-108117219D01*
X111417292Y-109117219D02*
X111417292Y-108117219D01*
X111417292Y-108117219D02*
X111655387Y-108117219D01*
X111655387Y-108117219D02*
X111798244Y-108164838D01*
X111798244Y-108164838D02*
X111893482Y-108260076D01*
X111893482Y-108260076D02*
X111941101Y-108355314D01*
X111941101Y-108355314D02*
X111988720Y-108545790D01*
X111988720Y-108545790D02*
X111988720Y-108688647D01*
X111988720Y-108688647D02*
X111941101Y-108879123D01*
X111941101Y-108879123D02*
X111893482Y-108974361D01*
X111893482Y-108974361D02*
X111798244Y-109069600D01*
X111798244Y-109069600D02*
X111655387Y-109117219D01*
X111655387Y-109117219D02*
X111417292Y-109117219D01*
D10*
X124483082Y-105872257D02*
X125197368Y-105872257D01*
X124340225Y-106300828D02*
X124840225Y-104800828D01*
X124840225Y-104800828D02*
X125340225Y-106300828D01*
X125840224Y-106300828D02*
X125840224Y-104800828D01*
X125840224Y-104800828D02*
X126340224Y-105872257D01*
X126340224Y-105872257D02*
X126840224Y-104800828D01*
X126840224Y-104800828D02*
X126840224Y-106300828D01*
X127554510Y-106300828D02*
X127554510Y-104800828D01*
X127554510Y-104800828D02*
X128125939Y-104800828D01*
X128125939Y-104800828D02*
X128268796Y-104872257D01*
X128268796Y-104872257D02*
X128340225Y-104943685D01*
X128340225Y-104943685D02*
X128411653Y-105086542D01*
X128411653Y-105086542D02*
X128411653Y-105300828D01*
X128411653Y-105300828D02*
X128340225Y-105443685D01*
X128340225Y-105443685D02*
X128268796Y-105515114D01*
X128268796Y-105515114D02*
X128125939Y-105586542D01*
X128125939Y-105586542D02*
X127554510Y-105586542D01*
X130483082Y-104800828D02*
X130768796Y-104800828D01*
X130768796Y-104800828D02*
X130911653Y-104872257D01*
X130911653Y-104872257D02*
X131054510Y-105015114D01*
X131054510Y-105015114D02*
X131125939Y-105300828D01*
X131125939Y-105300828D02*
X131125939Y-105800828D01*
X131125939Y-105800828D02*
X131054510Y-106086542D01*
X131054510Y-106086542D02*
X130911653Y-106229400D01*
X130911653Y-106229400D02*
X130768796Y-106300828D01*
X130768796Y-106300828D02*
X130483082Y-106300828D01*
X130483082Y-106300828D02*
X130340225Y-106229400D01*
X130340225Y-106229400D02*
X130197367Y-106086542D01*
X130197367Y-106086542D02*
X130125939Y-105800828D01*
X130125939Y-105800828D02*
X130125939Y-105300828D01*
X130125939Y-105300828D02*
X130197367Y-105015114D01*
X130197367Y-105015114D02*
X130340225Y-104872257D01*
X130340225Y-104872257D02*
X130483082Y-104800828D01*
X131768796Y-104800828D02*
X131768796Y-106015114D01*
X131768796Y-106015114D02*
X131840225Y-106157971D01*
X131840225Y-106157971D02*
X131911654Y-106229400D01*
X131911654Y-106229400D02*
X132054511Y-106300828D01*
X132054511Y-106300828D02*
X132340225Y-106300828D01*
X132340225Y-106300828D02*
X132483082Y-106229400D01*
X132483082Y-106229400D02*
X132554511Y-106157971D01*
X132554511Y-106157971D02*
X132625939Y-106015114D01*
X132625939Y-106015114D02*
X132625939Y-104800828D01*
X133125940Y-104800828D02*
X133983083Y-104800828D01*
X133554511Y-106300828D02*
X133554511Y-104800828D01*
X113233082Y-105872257D02*
X113947368Y-105872257D01*
X113090225Y-106300828D02*
X113590225Y-104800828D01*
X113590225Y-104800828D02*
X114090225Y-106300828D01*
X114590224Y-106300828D02*
X114590224Y-104800828D01*
X114590224Y-104800828D02*
X115090224Y-105872257D01*
X115090224Y-105872257D02*
X115590224Y-104800828D01*
X115590224Y-104800828D02*
X115590224Y-106300828D01*
X116304510Y-106300828D02*
X116304510Y-104800828D01*
X116304510Y-104800828D02*
X116875939Y-104800828D01*
X116875939Y-104800828D02*
X117018796Y-104872257D01*
X117018796Y-104872257D02*
X117090225Y-104943685D01*
X117090225Y-104943685D02*
X117161653Y-105086542D01*
X117161653Y-105086542D02*
X117161653Y-105300828D01*
X117161653Y-105300828D02*
X117090225Y-105443685D01*
X117090225Y-105443685D02*
X117018796Y-105515114D01*
X117018796Y-105515114D02*
X116875939Y-105586542D01*
X116875939Y-105586542D02*
X116304510Y-105586542D01*
X118947367Y-106300828D02*
X118947367Y-104800828D01*
X119661653Y-106300828D02*
X119661653Y-104800828D01*
X119661653Y-104800828D02*
X120518796Y-106300828D01*
X120518796Y-106300828D02*
X120518796Y-104800828D01*
D11*
X116119673Y-126117219D02*
X116119673Y-125450552D01*
X116119673Y-125641028D02*
X116167292Y-125545790D01*
X116167292Y-125545790D02*
X116214911Y-125498171D01*
X116214911Y-125498171D02*
X116310149Y-125450552D01*
X116310149Y-125450552D02*
X116405387Y-125450552D01*
X117119673Y-126069600D02*
X117024435Y-126117219D01*
X117024435Y-126117219D02*
X116833959Y-126117219D01*
X116833959Y-126117219D02*
X116738721Y-126069600D01*
X116738721Y-126069600D02*
X116691102Y-125974361D01*
X116691102Y-125974361D02*
X116691102Y-125593409D01*
X116691102Y-125593409D02*
X116738721Y-125498171D01*
X116738721Y-125498171D02*
X116833959Y-125450552D01*
X116833959Y-125450552D02*
X117024435Y-125450552D01*
X117024435Y-125450552D02*
X117119673Y-125498171D01*
X117119673Y-125498171D02*
X117167292Y-125593409D01*
X117167292Y-125593409D02*
X117167292Y-125688647D01*
X117167292Y-125688647D02*
X116691102Y-125783885D01*
X117500626Y-125450552D02*
X117738721Y-126117219D01*
X117738721Y-126117219D02*
X117976816Y-125450552D01*
X118357769Y-126021980D02*
X118405388Y-126069600D01*
X118405388Y-126069600D02*
X118357769Y-126117219D01*
X118357769Y-126117219D02*
X118310150Y-126069600D01*
X118310150Y-126069600D02*
X118357769Y-126021980D01*
X118357769Y-126021980D02*
X118357769Y-126117219D01*
X119357768Y-126117219D02*
X118786340Y-126117219D01*
X119072054Y-126117219D02*
X119072054Y-125117219D01*
X119072054Y-125117219D02*
X118976816Y-125260076D01*
X118976816Y-125260076D02*
X118881578Y-125355314D01*
X118881578Y-125355314D02*
X118786340Y-125402933D01*
X121072054Y-126117219D02*
X120500626Y-126117219D01*
X120786340Y-126117219D02*
X120786340Y-125117219D01*
X120786340Y-125117219D02*
X120691102Y-125260076D01*
X120691102Y-125260076D02*
X120595864Y-125355314D01*
X120595864Y-125355314D02*
X120500626Y-125402933D01*
X122024435Y-126117219D02*
X121453007Y-126117219D01*
X121738721Y-126117219D02*
X121738721Y-125117219D01*
X121738721Y-125117219D02*
X121643483Y-125260076D01*
X121643483Y-125260076D02*
X121548245Y-125355314D01*
X121548245Y-125355314D02*
X121453007Y-125402933D01*
X123167292Y-125069600D02*
X122310150Y-126355314D01*
X124024435Y-126117219D02*
X123453007Y-126117219D01*
X123738721Y-126117219D02*
X123738721Y-125117219D01*
X123738721Y-125117219D02*
X123643483Y-125260076D01*
X123643483Y-125260076D02*
X123548245Y-125355314D01*
X123548245Y-125355314D02*
X123453007Y-125402933D01*
X124976816Y-126117219D02*
X124405388Y-126117219D01*
X124691102Y-126117219D02*
X124691102Y-125117219D01*
X124691102Y-125117219D02*
X124595864Y-125260076D01*
X124595864Y-125260076D02*
X124500626Y-125355314D01*
X124500626Y-125355314D02*
X124405388Y-125402933D01*
X126119673Y-125069600D02*
X125262531Y-126355314D01*
X126405388Y-125212457D02*
X126453007Y-125164838D01*
X126453007Y-125164838D02*
X126548245Y-125117219D01*
X126548245Y-125117219D02*
X126786340Y-125117219D01*
X126786340Y-125117219D02*
X126881578Y-125164838D01*
X126881578Y-125164838D02*
X126929197Y-125212457D01*
X126929197Y-125212457D02*
X126976816Y-125307695D01*
X126976816Y-125307695D02*
X126976816Y-125402933D01*
X126976816Y-125402933D02*
X126929197Y-125545790D01*
X126929197Y-125545790D02*
X126357769Y-126117219D01*
X126357769Y-126117219D02*
X126976816Y-126117219D01*
X127595864Y-125117219D02*
X127691102Y-125117219D01*
X127691102Y-125117219D02*
X127786340Y-125164838D01*
X127786340Y-125164838D02*
X127833959Y-125212457D01*
X127833959Y-125212457D02*
X127881578Y-125307695D01*
X127881578Y-125307695D02*
X127929197Y-125498171D01*
X127929197Y-125498171D02*
X127929197Y-125736266D01*
X127929197Y-125736266D02*
X127881578Y-125926742D01*
X127881578Y-125926742D02*
X127833959Y-126021980D01*
X127833959Y-126021980D02*
X127786340Y-126069600D01*
X127786340Y-126069600D02*
X127691102Y-126117219D01*
X127691102Y-126117219D02*
X127595864Y-126117219D01*
X127595864Y-126117219D02*
X127500626Y-126069600D01*
X127500626Y-126069600D02*
X127453007Y-126021980D01*
X127453007Y-126021980D02*
X127405388Y-125926742D01*
X127405388Y-125926742D02*
X127357769Y-125736266D01*
X127357769Y-125736266D02*
X127357769Y-125498171D01*
X127357769Y-125498171D02*
X127405388Y-125307695D01*
X127405388Y-125307695D02*
X127453007Y-125212457D01*
X127453007Y-125212457D02*
X127500626Y-125164838D01*
X127500626Y-125164838D02*
X127595864Y-125117219D01*
X128310150Y-125212457D02*
X128357769Y-125164838D01*
X128357769Y-125164838D02*
X128453007Y-125117219D01*
X128453007Y-125117219D02*
X128691102Y-125117219D01*
X128691102Y-125117219D02*
X128786340Y-125164838D01*
X128786340Y-125164838D02*
X128833959Y-125212457D01*
X128833959Y-125212457D02*
X128881578Y-125307695D01*
X128881578Y-125307695D02*
X128881578Y-125402933D01*
X128881578Y-125402933D02*
X128833959Y-125545790D01*
X128833959Y-125545790D02*
X128262531Y-126117219D01*
X128262531Y-126117219D02*
X128881578Y-126117219D01*
X129738721Y-125450552D02*
X129738721Y-126117219D01*
X129500626Y-125069600D02*
X129262531Y-125783885D01*
X129262531Y-125783885D02*
X129881578Y-125783885D01*
D12*
X121083333Y-124454819D02*
X120750000Y-123978628D01*
X120511905Y-124454819D02*
X120511905Y-123454819D01*
X120511905Y-123454819D02*
X120892857Y-123454819D01*
X120892857Y-123454819D02*
X120988095Y-123502438D01*
X120988095Y-123502438D02*
X121035714Y-123550057D01*
X121035714Y-123550057D02*
X121083333Y-123645295D01*
X121083333Y-123645295D02*
X121083333Y-123788152D01*
X121083333Y-123788152D02*
X121035714Y-123883390D01*
X121035714Y-123883390D02*
X120988095Y-123931009D01*
X120988095Y-123931009D02*
X120892857Y-123978628D01*
X120892857Y-123978628D02*
X120511905Y-123978628D01*
X121988095Y-123454819D02*
X121511905Y-123454819D01*
X121511905Y-123454819D02*
X121464286Y-123931009D01*
X121464286Y-123931009D02*
X121511905Y-123883390D01*
X121511905Y-123883390D02*
X121607143Y-123835771D01*
X121607143Y-123835771D02*
X121845238Y-123835771D01*
X121845238Y-123835771D02*
X121940476Y-123883390D01*
X121940476Y-123883390D02*
X121988095Y-123931009D01*
X121988095Y-123931009D02*
X122035714Y-124026247D01*
X122035714Y-124026247D02*
X122035714Y-124264342D01*
X122035714Y-124264342D02*
X121988095Y-124359580D01*
X121988095Y-124359580D02*
X121940476Y-124407200D01*
X121940476Y-124407200D02*
X121845238Y-124454819D01*
X121845238Y-124454819D02*
X121607143Y-124454819D01*
X121607143Y-124454819D02*
X121511905Y-124407200D01*
X121511905Y-124407200D02*
X121464286Y-124359580D01*
X117859580Y-118641666D02*
X117907200Y-118689285D01*
X117907200Y-118689285D02*
X117954819Y-118832142D01*
X117954819Y-118832142D02*
X117954819Y-118927380D01*
X117954819Y-118927380D02*
X117907200Y-119070237D01*
X117907200Y-119070237D02*
X117811961Y-119165475D01*
X117811961Y-119165475D02*
X117716723Y-119213094D01*
X117716723Y-119213094D02*
X117526247Y-119260713D01*
X117526247Y-119260713D02*
X117383390Y-119260713D01*
X117383390Y-119260713D02*
X117192914Y-119213094D01*
X117192914Y-119213094D02*
X117097676Y-119165475D01*
X117097676Y-119165475D02*
X117002438Y-119070237D01*
X117002438Y-119070237D02*
X116954819Y-118927380D01*
X116954819Y-118927380D02*
X116954819Y-118832142D01*
X116954819Y-118832142D02*
X117002438Y-118689285D01*
X117002438Y-118689285D02*
X117050057Y-118641666D01*
X117954819Y-117689285D02*
X117954819Y-118260713D01*
X117954819Y-117974999D02*
X116954819Y-117974999D01*
X116954819Y-117974999D02*
X117097676Y-118070237D01*
X117097676Y-118070237D02*
X117192914Y-118165475D01*
X117192914Y-118165475D02*
X117240533Y-118260713D01*
X109083334Y-118704818D02*
X108750001Y-118228627D01*
X108511906Y-118704818D02*
X108511906Y-117704818D01*
X108511906Y-117704818D02*
X108892858Y-117704818D01*
X108892858Y-117704818D02*
X108988096Y-117752437D01*
X108988096Y-117752437D02*
X109035715Y-117800056D01*
X109035715Y-117800056D02*
X109083334Y-117895294D01*
X109083334Y-117895294D02*
X109083334Y-118038151D01*
X109083334Y-118038151D02*
X109035715Y-118133389D01*
X109035715Y-118133389D02*
X108988096Y-118181008D01*
X108988096Y-118181008D02*
X108892858Y-118228627D01*
X108892858Y-118228627D02*
X108511906Y-118228627D01*
X110035715Y-118704818D02*
X109464287Y-118704818D01*
X109750001Y-118704818D02*
X109750001Y-117704818D01*
X109750001Y-117704818D02*
X109654763Y-117847675D01*
X109654763Y-117847675D02*
X109559525Y-117942913D01*
X109559525Y-117942913D02*
X109464287Y-117990532D01*
X127859581Y-118666667D02*
X127907201Y-118714286D01*
X127907201Y-118714286D02*
X127954820Y-118857143D01*
X127954820Y-118857143D02*
X127954820Y-118952381D01*
X127954820Y-118952381D02*
X127907201Y-119095238D01*
X127907201Y-119095238D02*
X127811962Y-119190476D01*
X127811962Y-119190476D02*
X127716724Y-119238095D01*
X127716724Y-119238095D02*
X127526248Y-119285714D01*
X127526248Y-119285714D02*
X127383391Y-119285714D01*
X127383391Y-119285714D02*
X127192915Y-119238095D01*
X127192915Y-119238095D02*
X127097677Y-119190476D01*
X127097677Y-119190476D02*
X127002439Y-119095238D01*
X127002439Y-119095238D02*
X126954820Y-118952381D01*
X126954820Y-118952381D02*
X126954820Y-118857143D01*
X126954820Y-118857143D02*
X127002439Y-118714286D01*
X127002439Y-118714286D02*
X127050058Y-118666667D01*
X126954820Y-117809524D02*
X126954820Y-118000000D01*
X126954820Y-118000000D02*
X127002439Y-118095238D01*
X127002439Y-118095238D02*
X127050058Y-118142857D01*
X127050058Y-118142857D02*
X127192915Y-118238095D01*
X127192915Y-118238095D02*
X127383391Y-118285714D01*
X127383391Y-118285714D02*
X127764343Y-118285714D01*
X127764343Y-118285714D02*
X127859581Y-118238095D01*
X127859581Y-118238095D02*
X127907201Y-118190476D01*
X127907201Y-118190476D02*
X127954820Y-118095238D01*
X127954820Y-118095238D02*
X127954820Y-117904762D01*
X127954820Y-117904762D02*
X127907201Y-117809524D01*
X127907201Y-117809524D02*
X127859581Y-117761905D01*
X127859581Y-117761905D02*
X127764343Y-117714286D01*
X127764343Y-117714286D02*
X127526248Y-117714286D01*
X127526248Y-117714286D02*
X127431010Y-117761905D01*
X127431010Y-117761905D02*
X127383391Y-117809524D01*
X127383391Y-117809524D02*
X127335772Y-117904762D01*
X127335772Y-117904762D02*
X127335772Y-118095238D01*
X127335772Y-118095238D02*
X127383391Y-118190476D01*
X127383391Y-118190476D02*
X127431010Y-118238095D01*
X127431010Y-118238095D02*
X127526248Y-118285714D01*
X114859580Y-111666666D02*
X114907200Y-111714285D01*
X114907200Y-111714285D02*
X114954819Y-111857142D01*
X114954819Y-111857142D02*
X114954819Y-111952380D01*
X114954819Y-111952380D02*
X114907200Y-112095237D01*
X114907200Y-112095237D02*
X114811961Y-112190475D01*
X114811961Y-112190475D02*
X114716723Y-112238094D01*
X114716723Y-112238094D02*
X114526247Y-112285713D01*
X114526247Y-112285713D02*
X114383390Y-112285713D01*
X114383390Y-112285713D02*
X114192914Y-112238094D01*
X114192914Y-112238094D02*
X114097676Y-112190475D01*
X114097676Y-112190475D02*
X114002438Y-112095237D01*
X114002438Y-112095237D02*
X113954819Y-111952380D01*
X113954819Y-111952380D02*
X113954819Y-111857142D01*
X113954819Y-111857142D02*
X114002438Y-111714285D01*
X114002438Y-111714285D02*
X114050057Y-111666666D01*
X114050057Y-111285713D02*
X114002438Y-111238094D01*
X114002438Y-111238094D02*
X113954819Y-111142856D01*
X113954819Y-111142856D02*
X113954819Y-110904761D01*
X113954819Y-110904761D02*
X114002438Y-110809523D01*
X114002438Y-110809523D02*
X114050057Y-110761904D01*
X114050057Y-110761904D02*
X114145295Y-110714285D01*
X114145295Y-110714285D02*
X114240533Y-110714285D01*
X114240533Y-110714285D02*
X114383390Y-110761904D01*
X114383390Y-110761904D02*
X114954819Y-111333332D01*
X114954819Y-111333332D02*
X114954819Y-110714285D01*
X131083333Y-120604819D02*
X130750000Y-120128628D01*
X130511905Y-120604819D02*
X130511905Y-119604819D01*
X130511905Y-119604819D02*
X130892857Y-119604819D01*
X130892857Y-119604819D02*
X130988095Y-119652438D01*
X130988095Y-119652438D02*
X131035714Y-119700057D01*
X131035714Y-119700057D02*
X131083333Y-119795295D01*
X131083333Y-119795295D02*
X131083333Y-119938152D01*
X131083333Y-119938152D02*
X131035714Y-120033390D01*
X131035714Y-120033390D02*
X130988095Y-120081009D01*
X130988095Y-120081009D02*
X130892857Y-120128628D01*
X130892857Y-120128628D02*
X130511905Y-120128628D01*
X131559524Y-120604819D02*
X131750000Y-120604819D01*
X131750000Y-120604819D02*
X131845238Y-120557200D01*
X131845238Y-120557200D02*
X131892857Y-120509580D01*
X131892857Y-120509580D02*
X131988095Y-120366723D01*
X131988095Y-120366723D02*
X132035714Y-120176247D01*
X132035714Y-120176247D02*
X132035714Y-119795295D01*
X132035714Y-119795295D02*
X131988095Y-119700057D01*
X131988095Y-119700057D02*
X131940476Y-119652438D01*
X131940476Y-119652438D02*
X131845238Y-119604819D01*
X131845238Y-119604819D02*
X131654762Y-119604819D01*
X131654762Y-119604819D02*
X131559524Y-119652438D01*
X131559524Y-119652438D02*
X131511905Y-119700057D01*
X131511905Y-119700057D02*
X131464286Y-119795295D01*
X131464286Y-119795295D02*
X131464286Y-120033390D01*
X131464286Y-120033390D02*
X131511905Y-120128628D01*
X131511905Y-120128628D02*
X131559524Y-120176247D01*
X131559524Y-120176247D02*
X131654762Y-120223866D01*
X131654762Y-120223866D02*
X131845238Y-120223866D01*
X131845238Y-120223866D02*
X131940476Y-120176247D01*
X131940476Y-120176247D02*
X131988095Y-120128628D01*
X131988095Y-120128628D02*
X132035714Y-120033390D01*
X129954819Y-116761904D02*
X130764342Y-116761904D01*
X130764342Y-116761904D02*
X130859580Y-116714285D01*
X130859580Y-116714285D02*
X130907200Y-116666666D01*
X130907200Y-116666666D02*
X130954819Y-116571428D01*
X130954819Y-116571428D02*
X130954819Y-116380952D01*
X130954819Y-116380952D02*
X130907200Y-116285714D01*
X130907200Y-116285714D02*
X130859580Y-116238095D01*
X130859580Y-116238095D02*
X130764342Y-116190476D01*
X130764342Y-116190476D02*
X129954819Y-116190476D01*
X129954819Y-115809523D02*
X129954819Y-115190476D01*
X129954819Y-115190476D02*
X130335771Y-115523809D01*
X130335771Y-115523809D02*
X130335771Y-115380952D01*
X130335771Y-115380952D02*
X130383390Y-115285714D01*
X130383390Y-115285714D02*
X130431009Y-115238095D01*
X130431009Y-115238095D02*
X130526247Y-115190476D01*
X130526247Y-115190476D02*
X130764342Y-115190476D01*
X130764342Y-115190476D02*
X130859580Y-115238095D01*
X130859580Y-115238095D02*
X130907200Y-115285714D01*
X130907200Y-115285714D02*
X130954819Y-115380952D01*
X130954819Y-115380952D02*
X130954819Y-115666666D01*
X130954819Y-115666666D02*
X130907200Y-115761904D01*
X130907200Y-115761904D02*
X130859580Y-115809523D01*
X118583333Y-124359580D02*
X118535714Y-124407200D01*
X118535714Y-124407200D02*
X118392857Y-124454819D01*
X118392857Y-124454819D02*
X118297619Y-124454819D01*
X118297619Y-124454819D02*
X118154762Y-124407200D01*
X118154762Y-124407200D02*
X118059524Y-124311961D01*
X118059524Y-124311961D02*
X118011905Y-124216723D01*
X118011905Y-124216723D02*
X117964286Y-124026247D01*
X117964286Y-124026247D02*
X117964286Y-123883390D01*
X117964286Y-123883390D02*
X118011905Y-123692914D01*
X118011905Y-123692914D02*
X118059524Y-123597676D01*
X118059524Y-123597676D02*
X118154762Y-123502438D01*
X118154762Y-123502438D02*
X118297619Y-123454819D01*
X118297619Y-123454819D02*
X118392857Y-123454819D01*
X118392857Y-123454819D02*
X118535714Y-123502438D01*
X118535714Y-123502438D02*
X118583333Y-123550057D01*
X118916667Y-123454819D02*
X119535714Y-123454819D01*
X119535714Y-123454819D02*
X119202381Y-123835771D01*
X119202381Y-123835771D02*
X119345238Y-123835771D01*
X119345238Y-123835771D02*
X119440476Y-123883390D01*
X119440476Y-123883390D02*
X119488095Y-123931009D01*
X119488095Y-123931009D02*
X119535714Y-124026247D01*
X119535714Y-124026247D02*
X119535714Y-124264342D01*
X119535714Y-124264342D02*
X119488095Y-124359580D01*
X119488095Y-124359580D02*
X119440476Y-124407200D01*
X119440476Y-124407200D02*
X119345238Y-124454819D01*
X119345238Y-124454819D02*
X119059524Y-124454819D01*
X119059524Y-124454819D02*
X118964286Y-124407200D01*
X118964286Y-124407200D02*
X118916667Y-124359580D01*
X101857142Y-107359580D02*
X101809523Y-107407200D01*
X101809523Y-107407200D02*
X101666666Y-107454819D01*
X101666666Y-107454819D02*
X101571428Y-107454819D01*
X101571428Y-107454819D02*
X101428571Y-107407200D01*
X101428571Y-107407200D02*
X101333333Y-107311961D01*
X101333333Y-107311961D02*
X101285714Y-107216723D01*
X101285714Y-107216723D02*
X101238095Y-107026247D01*
X101238095Y-107026247D02*
X101238095Y-106883390D01*
X101238095Y-106883390D02*
X101285714Y-106692914D01*
X101285714Y-106692914D02*
X101333333Y-106597676D01*
X101333333Y-106597676D02*
X101428571Y-106502438D01*
X101428571Y-106502438D02*
X101571428Y-106454819D01*
X101571428Y-106454819D02*
X101666666Y-106454819D01*
X101666666Y-106454819D02*
X101809523Y-106502438D01*
X101809523Y-106502438D02*
X101857142Y-106550057D01*
X102809523Y-107454819D02*
X102238095Y-107454819D01*
X102523809Y-107454819D02*
X102523809Y-106454819D01*
X102523809Y-106454819D02*
X102428571Y-106597676D01*
X102428571Y-106597676D02*
X102333333Y-106692914D01*
X102333333Y-106692914D02*
X102238095Y-106740533D01*
X103428571Y-106454819D02*
X103523809Y-106454819D01*
X103523809Y-106454819D02*
X103619047Y-106502438D01*
X103619047Y-106502438D02*
X103666666Y-106550057D01*
X103666666Y-106550057D02*
X103714285Y-106645295D01*
X103714285Y-106645295D02*
X103761904Y-106835771D01*
X103761904Y-106835771D02*
X103761904Y-107073866D01*
X103761904Y-107073866D02*
X103714285Y-107264342D01*
X103714285Y-107264342D02*
X103666666Y-107359580D01*
X103666666Y-107359580D02*
X103619047Y-107407200D01*
X103619047Y-107407200D02*
X103523809Y-107454819D01*
X103523809Y-107454819D02*
X103428571Y-107454819D01*
X103428571Y-107454819D02*
X103333333Y-107407200D01*
X103333333Y-107407200D02*
X103285714Y-107359580D01*
X103285714Y-107359580D02*
X103238095Y-107264342D01*
X103238095Y-107264342D02*
X103190476Y-107073866D01*
X103190476Y-107073866D02*
X103190476Y-106835771D01*
X103190476Y-106835771D02*
X103238095Y-106645295D01*
X103238095Y-106645295D02*
X103285714Y-106550057D01*
X103285714Y-106550057D02*
X103333333Y-106502438D01*
X103333333Y-106502438D02*
X103428571Y-106454819D01*
X119833333Y-117109580D02*
X119785714Y-117157200D01*
X119785714Y-117157200D02*
X119642857Y-117204819D01*
X119642857Y-117204819D02*
X119547619Y-117204819D01*
X119547619Y-117204819D02*
X119404762Y-117157200D01*
X119404762Y-117157200D02*
X119309524Y-117061961D01*
X119309524Y-117061961D02*
X119261905Y-116966723D01*
X119261905Y-116966723D02*
X119214286Y-116776247D01*
X119214286Y-116776247D02*
X119214286Y-116633390D01*
X119214286Y-116633390D02*
X119261905Y-116442914D01*
X119261905Y-116442914D02*
X119309524Y-116347676D01*
X119309524Y-116347676D02*
X119404762Y-116252438D01*
X119404762Y-116252438D02*
X119547619Y-116204819D01*
X119547619Y-116204819D02*
X119642857Y-116204819D01*
X119642857Y-116204819D02*
X119785714Y-116252438D01*
X119785714Y-116252438D02*
X119833333Y-116300057D01*
X120690476Y-116538152D02*
X120690476Y-117204819D01*
X120452381Y-116157200D02*
X120214286Y-116871485D01*
X120214286Y-116871485D02*
X120833333Y-116871485D01*
X115745833Y-110454819D02*
X115412500Y-109978628D01*
X115174405Y-110454819D02*
X115174405Y-109454819D01*
X115174405Y-109454819D02*
X115555357Y-109454819D01*
X115555357Y-109454819D02*
X115650595Y-109502438D01*
X115650595Y-109502438D02*
X115698214Y-109550057D01*
X115698214Y-109550057D02*
X115745833Y-109645295D01*
X115745833Y-109645295D02*
X115745833Y-109788152D01*
X115745833Y-109788152D02*
X115698214Y-109883390D01*
X115698214Y-109883390D02*
X115650595Y-109931009D01*
X115650595Y-109931009D02*
X115555357Y-109978628D01*
X115555357Y-109978628D02*
X115174405Y-109978628D01*
X116079167Y-109454819D02*
X116698214Y-109454819D01*
X116698214Y-109454819D02*
X116364881Y-109835771D01*
X116364881Y-109835771D02*
X116507738Y-109835771D01*
X116507738Y-109835771D02*
X116602976Y-109883390D01*
X116602976Y-109883390D02*
X116650595Y-109931009D01*
X116650595Y-109931009D02*
X116698214Y-110026247D01*
X116698214Y-110026247D02*
X116698214Y-110264342D01*
X116698214Y-110264342D02*
X116650595Y-110359580D01*
X116650595Y-110359580D02*
X116602976Y-110407200D01*
X116602976Y-110407200D02*
X116507738Y-110454819D01*
X116507738Y-110454819D02*
X116222024Y-110454819D01*
X116222024Y-110454819D02*
X116126786Y-110407200D01*
X116126786Y-110407200D02*
X116079167Y-110359580D01*
X137859581Y-118666667D02*
X137907201Y-118714286D01*
X137907201Y-118714286D02*
X137954820Y-118857143D01*
X137954820Y-118857143D02*
X137954820Y-118952381D01*
X137954820Y-118952381D02*
X137907201Y-119095238D01*
X137907201Y-119095238D02*
X137811962Y-119190476D01*
X137811962Y-119190476D02*
X137716724Y-119238095D01*
X137716724Y-119238095D02*
X137526248Y-119285714D01*
X137526248Y-119285714D02*
X137383391Y-119285714D01*
X137383391Y-119285714D02*
X137192915Y-119238095D01*
X137192915Y-119238095D02*
X137097677Y-119190476D01*
X137097677Y-119190476D02*
X137002439Y-119095238D01*
X137002439Y-119095238D02*
X136954820Y-118952381D01*
X136954820Y-118952381D02*
X136954820Y-118857143D01*
X136954820Y-118857143D02*
X137002439Y-118714286D01*
X137002439Y-118714286D02*
X137050058Y-118666667D01*
X137383391Y-118095238D02*
X137335772Y-118190476D01*
X137335772Y-118190476D02*
X137288153Y-118238095D01*
X137288153Y-118238095D02*
X137192915Y-118285714D01*
X137192915Y-118285714D02*
X137145296Y-118285714D01*
X137145296Y-118285714D02*
X137050058Y-118238095D01*
X137050058Y-118238095D02*
X137002439Y-118190476D01*
X137002439Y-118190476D02*
X136954820Y-118095238D01*
X136954820Y-118095238D02*
X136954820Y-117904762D01*
X136954820Y-117904762D02*
X137002439Y-117809524D01*
X137002439Y-117809524D02*
X137050058Y-117761905D01*
X137050058Y-117761905D02*
X137145296Y-117714286D01*
X137145296Y-117714286D02*
X137192915Y-117714286D01*
X137192915Y-117714286D02*
X137288153Y-117761905D01*
X137288153Y-117761905D02*
X137335772Y-117809524D01*
X137335772Y-117809524D02*
X137383391Y-117904762D01*
X137383391Y-117904762D02*
X137383391Y-118095238D01*
X137383391Y-118095238D02*
X137431010Y-118190476D01*
X137431010Y-118190476D02*
X137478629Y-118238095D01*
X137478629Y-118238095D02*
X137573867Y-118285714D01*
X137573867Y-118285714D02*
X137764343Y-118285714D01*
X137764343Y-118285714D02*
X137859581Y-118238095D01*
X137859581Y-118238095D02*
X137907201Y-118190476D01*
X137907201Y-118190476D02*
X137954820Y-118095238D01*
X137954820Y-118095238D02*
X137954820Y-117904762D01*
X137954820Y-117904762D02*
X137907201Y-117809524D01*
X137907201Y-117809524D02*
X137859581Y-117761905D01*
X137859581Y-117761905D02*
X137764343Y-117714286D01*
X137764343Y-117714286D02*
X137573867Y-117714286D01*
X137573867Y-117714286D02*
X137478629Y-117761905D01*
X137478629Y-117761905D02*
X137431010Y-117809524D01*
X137431010Y-117809524D02*
X137383391Y-117904762D01*
X118204819Y-114916666D02*
X117728628Y-115249999D01*
X118204819Y-115488094D02*
X117204819Y-115488094D01*
X117204819Y-115488094D02*
X117204819Y-115107142D01*
X117204819Y-115107142D02*
X117252438Y-115011904D01*
X117252438Y-115011904D02*
X117300057Y-114964285D01*
X117300057Y-114964285D02*
X117395295Y-114916666D01*
X117395295Y-114916666D02*
X117538152Y-114916666D01*
X117538152Y-114916666D02*
X117633390Y-114964285D01*
X117633390Y-114964285D02*
X117681009Y-115011904D01*
X117681009Y-115011904D02*
X117728628Y-115107142D01*
X117728628Y-115107142D02*
X117728628Y-115488094D01*
X117300057Y-114535713D02*
X117252438Y-114488094D01*
X117252438Y-114488094D02*
X117204819Y-114392856D01*
X117204819Y-114392856D02*
X117204819Y-114154761D01*
X117204819Y-114154761D02*
X117252438Y-114059523D01*
X117252438Y-114059523D02*
X117300057Y-114011904D01*
X117300057Y-114011904D02*
X117395295Y-113964285D01*
X117395295Y-113964285D02*
X117490533Y-113964285D01*
X117490533Y-113964285D02*
X117633390Y-114011904D01*
X117633390Y-114011904D02*
X118204819Y-114583332D01*
X118204819Y-114583332D02*
X118204819Y-113964285D01*
X109704819Y-114486904D02*
X110514342Y-114486904D01*
X110514342Y-114486904D02*
X110609580Y-114439285D01*
X110609580Y-114439285D02*
X110657200Y-114391666D01*
X110657200Y-114391666D02*
X110704819Y-114296428D01*
X110704819Y-114296428D02*
X110704819Y-114105952D01*
X110704819Y-114105952D02*
X110657200Y-114010714D01*
X110657200Y-114010714D02*
X110609580Y-113963095D01*
X110609580Y-113963095D02*
X110514342Y-113915476D01*
X110514342Y-113915476D02*
X109704819Y-113915476D01*
X110704819Y-112915476D02*
X110704819Y-113486904D01*
X110704819Y-113201190D02*
X109704819Y-113201190D01*
X109704819Y-113201190D02*
X109847676Y-113296428D01*
X109847676Y-113296428D02*
X109942914Y-113391666D01*
X109942914Y-113391666D02*
X109990533Y-113486904D01*
X126833333Y-110204819D02*
X126500000Y-109728628D01*
X126261905Y-110204819D02*
X126261905Y-109204819D01*
X126261905Y-109204819D02*
X126642857Y-109204819D01*
X126642857Y-109204819D02*
X126738095Y-109252438D01*
X126738095Y-109252438D02*
X126785714Y-109300057D01*
X126785714Y-109300057D02*
X126833333Y-109395295D01*
X126833333Y-109395295D02*
X126833333Y-109538152D01*
X126833333Y-109538152D02*
X126785714Y-109633390D01*
X126785714Y-109633390D02*
X126738095Y-109681009D01*
X126738095Y-109681009D02*
X126642857Y-109728628D01*
X126642857Y-109728628D02*
X126261905Y-109728628D01*
X127166667Y-109204819D02*
X127833333Y-109204819D01*
X127833333Y-109204819D02*
X127404762Y-110204819D01*
X130859580Y-113916666D02*
X130907200Y-113964285D01*
X130907200Y-113964285D02*
X130954819Y-114107142D01*
X130954819Y-114107142D02*
X130954819Y-114202380D01*
X130954819Y-114202380D02*
X130907200Y-114345237D01*
X130907200Y-114345237D02*
X130811961Y-114440475D01*
X130811961Y-114440475D02*
X130716723Y-114488094D01*
X130716723Y-114488094D02*
X130526247Y-114535713D01*
X130526247Y-114535713D02*
X130383390Y-114535713D01*
X130383390Y-114535713D02*
X130192914Y-114488094D01*
X130192914Y-114488094D02*
X130097676Y-114440475D01*
X130097676Y-114440475D02*
X130002438Y-114345237D01*
X130002438Y-114345237D02*
X129954819Y-114202380D01*
X129954819Y-114202380D02*
X129954819Y-114107142D01*
X129954819Y-114107142D02*
X130002438Y-113964285D01*
X130002438Y-113964285D02*
X130050057Y-113916666D01*
X129954819Y-113583332D02*
X129954819Y-112916666D01*
X129954819Y-112916666D02*
X130954819Y-113345237D01*
X129833333Y-107704819D02*
X129500000Y-107228628D01*
X129261905Y-107704819D02*
X129261905Y-106704819D01*
X129261905Y-106704819D02*
X129642857Y-106704819D01*
X129642857Y-106704819D02*
X129738095Y-106752438D01*
X129738095Y-106752438D02*
X129785714Y-106800057D01*
X129785714Y-106800057D02*
X129833333Y-106895295D01*
X129833333Y-106895295D02*
X129833333Y-107038152D01*
X129833333Y-107038152D02*
X129785714Y-107133390D01*
X129785714Y-107133390D02*
X129738095Y-107181009D01*
X129738095Y-107181009D02*
X129642857Y-107228628D01*
X129642857Y-107228628D02*
X129261905Y-107228628D01*
X130404762Y-107133390D02*
X130309524Y-107085771D01*
X130309524Y-107085771D02*
X130261905Y-107038152D01*
X130261905Y-107038152D02*
X130214286Y-106942914D01*
X130214286Y-106942914D02*
X130214286Y-106895295D01*
X130214286Y-106895295D02*
X130261905Y-106800057D01*
X130261905Y-106800057D02*
X130309524Y-106752438D01*
X130309524Y-106752438D02*
X130404762Y-106704819D01*
X130404762Y-106704819D02*
X130595238Y-106704819D01*
X130595238Y-106704819D02*
X130690476Y-106752438D01*
X130690476Y-106752438D02*
X130738095Y-106800057D01*
X130738095Y-106800057D02*
X130785714Y-106895295D01*
X130785714Y-106895295D02*
X130785714Y-106942914D01*
X130785714Y-106942914D02*
X130738095Y-107038152D01*
X130738095Y-107038152D02*
X130690476Y-107085771D01*
X130690476Y-107085771D02*
X130595238Y-107133390D01*
X130595238Y-107133390D02*
X130404762Y-107133390D01*
X130404762Y-107133390D02*
X130309524Y-107181009D01*
X130309524Y-107181009D02*
X130261905Y-107228628D01*
X130261905Y-107228628D02*
X130214286Y-107323866D01*
X130214286Y-107323866D02*
X130214286Y-107514342D01*
X130214286Y-107514342D02*
X130261905Y-107609580D01*
X130261905Y-107609580D02*
X130309524Y-107657200D01*
X130309524Y-107657200D02*
X130404762Y-107704819D01*
X130404762Y-107704819D02*
X130595238Y-107704819D01*
X130595238Y-107704819D02*
X130690476Y-107657200D01*
X130690476Y-107657200D02*
X130738095Y-107609580D01*
X130738095Y-107609580D02*
X130785714Y-107514342D01*
X130785714Y-107514342D02*
X130785714Y-107323866D01*
X130785714Y-107323866D02*
X130738095Y-107228628D01*
X130738095Y-107228628D02*
X130690476Y-107181009D01*
X130690476Y-107181009D02*
X130595238Y-107133390D01*
X106583333Y-123109580D02*
X106535714Y-123157200D01*
X106535714Y-123157200D02*
X106392857Y-123204819D01*
X106392857Y-123204819D02*
X106297619Y-123204819D01*
X106297619Y-123204819D02*
X106154762Y-123157200D01*
X106154762Y-123157200D02*
X106059524Y-123061961D01*
X106059524Y-123061961D02*
X106011905Y-122966723D01*
X106011905Y-122966723D02*
X105964286Y-122776247D01*
X105964286Y-122776247D02*
X105964286Y-122633390D01*
X105964286Y-122633390D02*
X106011905Y-122442914D01*
X106011905Y-122442914D02*
X106059524Y-122347676D01*
X106059524Y-122347676D02*
X106154762Y-122252438D01*
X106154762Y-122252438D02*
X106297619Y-122204819D01*
X106297619Y-122204819D02*
X106392857Y-122204819D01*
X106392857Y-122204819D02*
X106535714Y-122252438D01*
X106535714Y-122252438D02*
X106583333Y-122300057D01*
X107059524Y-123204819D02*
X107250000Y-123204819D01*
X107250000Y-123204819D02*
X107345238Y-123157200D01*
X107345238Y-123157200D02*
X107392857Y-123109580D01*
X107392857Y-123109580D02*
X107488095Y-122966723D01*
X107488095Y-122966723D02*
X107535714Y-122776247D01*
X107535714Y-122776247D02*
X107535714Y-122395295D01*
X107535714Y-122395295D02*
X107488095Y-122300057D01*
X107488095Y-122300057D02*
X107440476Y-122252438D01*
X107440476Y-122252438D02*
X107345238Y-122204819D01*
X107345238Y-122204819D02*
X107154762Y-122204819D01*
X107154762Y-122204819D02*
X107059524Y-122252438D01*
X107059524Y-122252438D02*
X107011905Y-122300057D01*
X107011905Y-122300057D02*
X106964286Y-122395295D01*
X106964286Y-122395295D02*
X106964286Y-122633390D01*
X106964286Y-122633390D02*
X107011905Y-122728628D01*
X107011905Y-122728628D02*
X107059524Y-122776247D01*
X107059524Y-122776247D02*
X107154762Y-122823866D01*
X107154762Y-122823866D02*
X107345238Y-122823866D01*
X107345238Y-122823866D02*
X107440476Y-122776247D01*
X107440476Y-122776247D02*
X107488095Y-122728628D01*
X107488095Y-122728628D02*
X107535714Y-122633390D01*
X119704819Y-114511904D02*
X120514342Y-114511904D01*
X120514342Y-114511904D02*
X120609580Y-114464285D01*
X120609580Y-114464285D02*
X120657200Y-114416666D01*
X120657200Y-114416666D02*
X120704819Y-114321428D01*
X120704819Y-114321428D02*
X120704819Y-114130952D01*
X120704819Y-114130952D02*
X120657200Y-114035714D01*
X120657200Y-114035714D02*
X120609580Y-113988095D01*
X120609580Y-113988095D02*
X120514342Y-113940476D01*
X120514342Y-113940476D02*
X119704819Y-113940476D01*
X119800057Y-113511904D02*
X119752438Y-113464285D01*
X119752438Y-113464285D02*
X119704819Y-113369047D01*
X119704819Y-113369047D02*
X119704819Y-113130952D01*
X119704819Y-113130952D02*
X119752438Y-113035714D01*
X119752438Y-113035714D02*
X119800057Y-112988095D01*
X119800057Y-112988095D02*
X119895295Y-112940476D01*
X119895295Y-112940476D02*
X119990533Y-112940476D01*
X119990533Y-112940476D02*
X120133390Y-112988095D01*
X120133390Y-112988095D02*
X120704819Y-113559523D01*
X120704819Y-113559523D02*
X120704819Y-112940476D01*
X127833333Y-116454819D02*
X127500000Y-115978628D01*
X127261905Y-116454819D02*
X127261905Y-115454819D01*
X127261905Y-115454819D02*
X127642857Y-115454819D01*
X127642857Y-115454819D02*
X127738095Y-115502438D01*
X127738095Y-115502438D02*
X127785714Y-115550057D01*
X127785714Y-115550057D02*
X127833333Y-115645295D01*
X127833333Y-115645295D02*
X127833333Y-115788152D01*
X127833333Y-115788152D02*
X127785714Y-115883390D01*
X127785714Y-115883390D02*
X127738095Y-115931009D01*
X127738095Y-115931009D02*
X127642857Y-115978628D01*
X127642857Y-115978628D02*
X127261905Y-115978628D01*
X128690476Y-115454819D02*
X128500000Y-115454819D01*
X128500000Y-115454819D02*
X128404762Y-115502438D01*
X128404762Y-115502438D02*
X128357143Y-115550057D01*
X128357143Y-115550057D02*
X128261905Y-115692914D01*
X128261905Y-115692914D02*
X128214286Y-115883390D01*
X128214286Y-115883390D02*
X128214286Y-116264342D01*
X128214286Y-116264342D02*
X128261905Y-116359580D01*
X128261905Y-116359580D02*
X128309524Y-116407200D01*
X128309524Y-116407200D02*
X128404762Y-116454819D01*
X128404762Y-116454819D02*
X128595238Y-116454819D01*
X128595238Y-116454819D02*
X128690476Y-116407200D01*
X128690476Y-116407200D02*
X128738095Y-116359580D01*
X128738095Y-116359580D02*
X128785714Y-116264342D01*
X128785714Y-116264342D02*
X128785714Y-116026247D01*
X128785714Y-116026247D02*
X128738095Y-115931009D01*
X128738095Y-115931009D02*
X128690476Y-115883390D01*
X128690476Y-115883390D02*
X128595238Y-115835771D01*
X128595238Y-115835771D02*
X128404762Y-115835771D01*
X128404762Y-115835771D02*
X128309524Y-115883390D01*
X128309524Y-115883390D02*
X128261905Y-115931009D01*
X128261905Y-115931009D02*
X128214286Y-116026247D01*
X118570833Y-108054819D02*
X118237500Y-107578628D01*
X117999405Y-108054819D02*
X117999405Y-107054819D01*
X117999405Y-107054819D02*
X118380357Y-107054819D01*
X118380357Y-107054819D02*
X118475595Y-107102438D01*
X118475595Y-107102438D02*
X118523214Y-107150057D01*
X118523214Y-107150057D02*
X118570833Y-107245295D01*
X118570833Y-107245295D02*
X118570833Y-107388152D01*
X118570833Y-107388152D02*
X118523214Y-107483390D01*
X118523214Y-107483390D02*
X118475595Y-107531009D01*
X118475595Y-107531009D02*
X118380357Y-107578628D01*
X118380357Y-107578628D02*
X117999405Y-107578628D01*
X119427976Y-107388152D02*
X119427976Y-108054819D01*
X119189881Y-107007200D02*
X118951786Y-107721485D01*
X118951786Y-107721485D02*
X119570833Y-107721485D01*
X119859581Y-111666667D02*
X119907201Y-111714286D01*
X119907201Y-111714286D02*
X119954820Y-111857143D01*
X119954820Y-111857143D02*
X119954820Y-111952381D01*
X119954820Y-111952381D02*
X119907201Y-112095238D01*
X119907201Y-112095238D02*
X119811962Y-112190476D01*
X119811962Y-112190476D02*
X119716724Y-112238095D01*
X119716724Y-112238095D02*
X119526248Y-112285714D01*
X119526248Y-112285714D02*
X119383391Y-112285714D01*
X119383391Y-112285714D02*
X119192915Y-112238095D01*
X119192915Y-112238095D02*
X119097677Y-112190476D01*
X119097677Y-112190476D02*
X119002439Y-112095238D01*
X119002439Y-112095238D02*
X118954820Y-111952381D01*
X118954820Y-111952381D02*
X118954820Y-111857143D01*
X118954820Y-111857143D02*
X119002439Y-111714286D01*
X119002439Y-111714286D02*
X119050058Y-111666667D01*
X118954820Y-110761905D02*
X118954820Y-111238095D01*
X118954820Y-111238095D02*
X119431010Y-111285714D01*
X119431010Y-111285714D02*
X119383391Y-111238095D01*
X119383391Y-111238095D02*
X119335772Y-111142857D01*
X119335772Y-111142857D02*
X119335772Y-110904762D01*
X119335772Y-110904762D02*
X119383391Y-110809524D01*
X119383391Y-110809524D02*
X119431010Y-110761905D01*
X119431010Y-110761905D02*
X119526248Y-110714286D01*
X119526248Y-110714286D02*
X119764343Y-110714286D01*
X119764343Y-110714286D02*
X119859581Y-110761905D01*
X119859581Y-110761905D02*
X119907201Y-110809524D01*
X119907201Y-110809524D02*
X119954820Y-110904762D01*
X119954820Y-110904762D02*
X119954820Y-111142857D01*
X119954820Y-111142857D02*
X119907201Y-111238095D01*
X119907201Y-111238095D02*
X119859581Y-111285714D01*
D13*
%TO.C,R5*%
X120515000Y-121727064D02*
X120515000Y-121272936D01*
X121985000Y-121727064D02*
X121985000Y-121272936D01*
%TO.C,C1*%
X114638748Y-117740000D02*
X115161252Y-117740000D01*
X114638748Y-119210000D02*
X115161252Y-119210000D01*
%TO.C,R1*%
X109022936Y-115377500D02*
X109477064Y-115377500D01*
X109022936Y-116847500D02*
X109477064Y-116847500D01*
%TO.C,C6*%
X125161252Y-117765000D02*
X124638748Y-117765000D01*
X125161252Y-119235000D02*
X124638748Y-119235000D01*
%TO.C,C2*%
X111788748Y-110740000D02*
X112311252Y-110740000D01*
X111788748Y-112210000D02*
X112311252Y-112210000D01*
%TO.C,R9*%
X131477064Y-117765000D02*
X131022936Y-117765000D01*
X131477064Y-119235000D02*
X131022936Y-119235000D01*
%TO.C,U3*%
X131440000Y-115000000D02*
X131440000Y-114200000D01*
X131440000Y-115000000D02*
X131440000Y-115800000D01*
X134560000Y-115000000D02*
X134560000Y-114200000D01*
X134560000Y-115000000D02*
X134560000Y-115800000D01*
X134840000Y-113940000D02*
X134510000Y-113700000D01*
X134840000Y-113460000D01*
X134840000Y-113940000D01*
G36*
X134840000Y-113940000D02*
G01*
X134510000Y-113700000D01*
X134840000Y-113460000D01*
X134840000Y-113940000D01*
G37*
%TO.C,J1*%
X103920000Y-116255000D02*
X103920000Y-111115000D01*
X106580000Y-111115000D02*
X103920000Y-111115000D01*
X106580000Y-116255000D02*
X103920000Y-116255000D01*
X106580000Y-116255000D02*
X106580000Y-111115000D01*
X106580000Y-117525000D02*
X106580000Y-118855000D01*
X106580000Y-118855000D02*
X105250000Y-118855000D01*
%TO.C,C3*%
X118015000Y-121761252D02*
X118015000Y-121238748D01*
X119485000Y-121761252D02*
X119485000Y-121238748D01*
%TO.C,C10*%
X104340000Y-108961252D02*
X104340000Y-107538748D01*
X106160000Y-108961252D02*
X106160000Y-107538748D01*
%TO.C,C4*%
X120261252Y-117765000D02*
X119738748Y-117765000D01*
X120261252Y-119235000D02*
X119738748Y-119235000D01*
%TO.C,R3*%
X117139564Y-111015000D02*
X116685436Y-111015000D01*
X117139564Y-112485000D02*
X116685436Y-112485000D01*
%TO.C,C8*%
X135161252Y-117765000D02*
X134638748Y-117765000D01*
X135161252Y-119235000D02*
X134638748Y-119235000D01*
%TO.C,J2*%
X106895000Y-107330000D02*
X106895000Y-106000000D01*
X108225000Y-107330000D02*
X106895000Y-107330000D01*
X109495000Y-104670000D02*
X112095000Y-104670000D01*
X109495000Y-107330000D02*
X109495000Y-104670000D01*
X109495000Y-107330000D02*
X112095000Y-107330000D01*
X112095000Y-107330000D02*
X112095000Y-104670000D01*
%TO.C,R2*%
X115265000Y-114977064D02*
X115265000Y-114522936D01*
X116735000Y-114977064D02*
X116735000Y-114522936D01*
%TO.C,U1*%
X111440000Y-114975000D02*
X111440000Y-114175000D01*
X111440000Y-114975000D02*
X111440000Y-115775000D01*
X114560000Y-114975000D02*
X114560000Y-114175000D01*
X114560000Y-114975000D02*
X114560000Y-115775000D01*
X114840000Y-113915000D02*
X114510000Y-113675000D01*
X114840000Y-113435000D01*
X114840000Y-113915000D01*
G36*
X114840000Y-113915000D02*
G01*
X114510000Y-113675000D01*
X114840000Y-113435000D01*
X114840000Y-113915000D01*
G37*
%TO.C,R7*%
X127947936Y-110765000D02*
X128402064Y-110765000D01*
X127947936Y-112235000D02*
X128402064Y-112235000D01*
%TO.C,C7*%
X132311252Y-110765000D02*
X131788748Y-110765000D01*
X132311252Y-112235000D02*
X131788748Y-112235000D01*
%TO.C,R8*%
X130227064Y-108265000D02*
X129772936Y-108265000D01*
X130227064Y-109735000D02*
X129772936Y-109735000D01*
%TO.C,C9*%
X106038748Y-119840000D02*
X107461252Y-119840000D01*
X106038748Y-121660000D02*
X107461252Y-121660000D01*
%TO.C,U2*%
X121440000Y-115000000D02*
X121440000Y-114200000D01*
X121440000Y-115000000D02*
X121440000Y-115800000D01*
X124560000Y-115000000D02*
X124560000Y-114200000D01*
X124560000Y-115000000D02*
X124560000Y-115800000D01*
X124840000Y-113940000D02*
X124510000Y-113700000D01*
X124840000Y-113460000D01*
X124840000Y-113940000D01*
G36*
X124840000Y-113940000D02*
G01*
X124510000Y-113700000D01*
X124840000Y-113460000D01*
X124840000Y-113940000D01*
G37*
%TO.C,J3*%
X134155000Y-107170000D02*
X134155000Y-109830000D01*
X136755000Y-107170000D02*
X134155000Y-107170000D01*
X136755000Y-107170000D02*
X136755000Y-109830000D01*
X136755000Y-109830000D02*
X134155000Y-109830000D01*
X138025000Y-107170000D02*
X139355000Y-107170000D01*
X139355000Y-107170000D02*
X139355000Y-108500000D01*
%TO.C,R6*%
X125265000Y-114522936D02*
X125265000Y-114977064D01*
X126735000Y-114522936D02*
X126735000Y-114977064D01*
%TO.C,R4*%
X118510436Y-108515000D02*
X118964564Y-108515000D01*
X118510436Y-109985000D02*
X118964564Y-109985000D01*
%TO.C,C5*%
X122311252Y-110765000D02*
X121788748Y-110765000D01*
X122311252Y-112235000D02*
X121788748Y-112235000D01*
%TD*%
M02*
